<?xml version="1.0" encoding="UTF-8" standalone="no"?>
<svg
   xmlns:dc="http://purl.org/dc/elements/1.1/"
   xmlns:cc="http://creativecommons.org/ns#"
   xmlns:rdf="http://www.w3.org/1999/02/22-rdf-syntax-ns#"
   xmlns:svg="http://www.w3.org/2000/svg"
   xmlns="http://www.w3.org/2000/svg"
   id="svg18798"
   version="1.1"
   viewBox="0 0 26.458332 16.933334"
   height="64"
   width="100">
  <defs
     id="defs18792" />
  <metadata
     id="metadata18795">
    <rdf:RDF>
      <cc:Work
         rdf:about="">
        <dc:format>image/svg+xml</dc:format>
        <dc:type
           rdf:resource="http://purl.org/dc/dcmitype/StillImage" />
        <dc:title></dc:title>
      </cc:Work>
    </rdf:RDF>
  </metadata>
  <g
     transform="translate(0,-280.06665)"
     id="layer1">
    <g
       style="fill:#76a142;fill-opacity:1"
       transform="matrix(0.61736113,0,0,-0.61736113,3.3513889,298.41109)"
       id="g12853">
      <g
         style="fill:#76a142;fill-opacity:1"
         id="g12794">
        <g
           style="fill:#76a142;fill-opacity:1"
           id="loop_x5F_alt1">
          <g
             style="fill:#76a142;fill-opacity:1"
             id="g12791">
            <path
               style="fill:#76a142;fill-opacity:1"
               d="m 26,16 -6,6 h 4 c 0,1.102 -0.898,2 -2,2 H 10 C 8.898,24 8,23.102 8,22 V 20 H 4 v 2 c 0,3.309 2.691,6 6,6 h 12 c 3.309,0 6,-2.691 6,-6 h 4 z"
               id="path12787" />
            <path
               style="fill:#76a142;fill-opacity:1"
               d="M 22,4 H 10 C 6.691,4 4,6.691 4,10 v 0.062 H 0 L 6,16 12,10.062 H 8 V 10 C 8,8.898 8.898,8 10,8 h 12 c 1.102,0 2,0.898 2,2 v 2 h 4 V 10 C 28,6.691 25.309,4 22,4 Z"
               id="path12789" />
          </g>
        </g>
      </g>
      <g
         style="fill:#76a142;fill-opacity:1"
         id="g12796" />
      <g
         style="fill:#76a142;fill-opacity:1"
         id="g12798" />
      <g
         style="fill:#76a142;fill-opacity:1"
         id="g12800" />
      <g
         style="fill:#76a142;fill-opacity:1"
         id="g12802" />
      <g
         style="fill:#76a142;fill-opacity:1"
         id="g12804" />
      <g
         style="fill:#76a142;fill-opacity:1"
         id="g12806" />
      <g
         style="fill:#76a142;fill-opacity:1"
         id="g12808" />
      <g
         style="fill:#76a142;fill-opacity:1"
         id="g12810" />
      <g
         style="fill:#76a142;fill-opacity:1"
         id="g12812" />
      <g
         style="fill:#76a142;fill-opacity:1"
         id="g12814" />
      <g
         style="fill:#76a142;fill-opacity:1"
         id="g12816" />
      <g
         style="fill:#76a142;fill-opacity:1"
         id="g12818" />
      <g
         style="fill:#76a142;fill-opacity:1"
         id="g12820" />
      <g
         style="fill:#76a142;fill-opacity:1"
         id="g12822" />
      <g
         style="fill:#76a142;fill-opacity:1"
         id="g12824" />
    </g>
  </g>
</svg>
