<?xml version="1.0" encoding="UTF-8" standalone="no"?>
<!-- Created with Inkscape (http://www.inkscape.org/) -->

<svg
   width="150"
   height="150"
   viewBox="0 0 39.6875 39.6875"
   version="1.1"
   id="svg156175"
   xmlns="http://www.w3.org/2000/svg"
   xmlns:svg="http://www.w3.org/2000/svg">
  <defs
     id="defs156172" />
  <g
     id="layer1"
     transform="translate(265.2463,179.67003)">
    <circle
       style="vector-effect:none;fill:#90bc5c;fill-opacity:1;stroke:none;stroke-width:0.264583;stroke-linecap:butt;stroke-linejoin:miter;stroke-miterlimit:4;stroke-dasharray:none;stroke-dashoffset:0;stroke-opacity:1;paint-order:fill markers stroke"
       id="circle407205"
       cx="-245.40256"
       cy="-159.82628"
       r="19.84375" />
    <path
       d="m -239.1446,-163.4948 c 0,-0.04 -0.02,-0.06 -0.041,-0.102 0,0 0,-0.02 -0.02,-0.02 -0.02,-0.02 -0.041,-0.06 -0.061,-0.08 l -4.536,-4.516 c -0.02,-0.02 -0.041,-0.04 -0.082,-0.06 0,0 -0.02,0 -0.02,-0.02 -0.02,0.02 -0.041,0 -0.082,0 h -6.5887 c -0.5952,0 -1.0878,0.493 -1.0878,1.088 v 14.758 c 0,0.595 0.4926,1.087 1.0878,1.087 h 10.3448 c 0.5953,0 1.0879,-0.492 1.0879,-1.087 z m -1.2932,-0.308 h -3.243 v -3.222 z m 0.5337,11.351 c 0,0.185 -0.1437,0.328 -0.3284,0.328 h -10.3448 c -0.1847,0 -0.3284,-0.143 -0.3284,-0.328 v -14.758 c 0,-0.185 0.1437,-0.328 0.3284,-0.328 h 6.1371 v 4.125 c 0,0.206 0.1642,0.37 0.3695,0.37 h 4.1461 v 10.591 z m -1.7446,-3.962 c 0,0.206 -0.1643,0.37 -0.3695,0.37 h -6.835 c -0.2052,0 -0.3694,-0.164 -0.3694,-0.37 0,-0.204 0.1642,-0.369 0.3694,-0.369 h 6.835 c 0.2052,-0.02 0.3695,0.165 0.3695,0.369 z m 0,2.279 c 0,0.205 -0.1643,0.369 -0.3695,0.369 h -6.835 c -0.2052,0 -0.3694,-0.164 -0.3694,-0.369 0,-0.205 0.1642,-0.37 0.3694,-0.37 h 6.835 c 0.2052,-0.02 0.3695,0.144 0.3695,0.37 z m 0,-4.536 c 0,0.205 -0.1643,0.369 -0.3695,0.369 h -6.835 c -0.2052,0 -0.3694,-0.164 -0.3694,-0.369 0,-0.206 0.1642,-0.369 0.3694,-0.369 h 6.835 c 0.2052,0 0.3695,0.163 0.3695,0.369 z m -7.2045,-2.628 h 6.835 c 0.2052,0 0.3695,0.165 0.3695,0.37 0,0.205 -0.1643,0.37 -0.3695,0.37 h -6.835 c -0.2052,0 -0.3694,-0.165 -0.3694,-0.37 -0.02,-0.185 0.1437,-0.37 0.3694,-0.37 z"
       id="path450309"
       style="fill:#ffffff;fill-opacity:1;stroke-width:0.264583" />
  </g>
</svg>
