<?xml version="1.0" encoding="UTF-8" standalone="no"?>
<!-- Created with Inkscape (http://www.inkscape.org/) -->

<svg
   width="272.4415"
   height="42"
   viewBox="0 0 72.083478 11.1125"
   version="1.1"
   id="svg1"
   xmlns="http://www.w3.org/2000/svg"
   xmlns:svg="http://www.w3.org/2000/svg">
  <defs
     id="defs1" />
  <g
     id="layer1"
     transform="translate(-68.791645,-142.87502)">
    <path
       style="font-size:15.0121px;line-height:1.25;font-family:'Arial Rounded MT Bold';-inkscape-font-specification:'Arial Rounded MT Bold, ';letter-spacing:0px;word-spacing:0px;stroke-width:0.237687"
       d="m 73.636855,153.07125 -1.766561,-2.90273 -1.084859,1.02622 v 1.59063 q 0,0.57908 -0.307865,0.89428 -0.300535,0.30786 -0.696362,0.30786 -0.461798,0 -0.725683,-0.30786 -0.263884,-0.30787 -0.263884,-0.90894 v -8.53227 q 0,-0.66704 0.256554,-1.01155 0.256554,-0.35185 0.733013,-0.35185 0.461798,0 0.733012,0.3152 0.271215,0.31519 0.271215,0.93092 v 4.85255 l 2.250349,-2.3603 q 0.417817,-0.43981 0.637721,-0.60107 0.219904,-0.16127 0.535099,-0.16127 0.373837,0 0.623061,0.2419 0.249225,0.23456 0.249225,0.59374 0,0.4398 -0.813645,1.17282 l -1.062868,0.9749 2.052436,3.22526 q 0.227234,0.35918 0.322525,0.54976 0.102622,0.18325 0.102622,0.35185 0,0.47645 -0.263885,0.755 -0.256554,0.27121 -0.681701,0.27121 -0.366507,0 -0.56442,-0.19791 -0.197914,-0.19791 -0.535099,-0.71835 z m 5.607546,-1.97181 v 1.67127 q 0,0.6084 -0.285875,0.91627 -0.285874,0.30053 -0.725682,0.30053 -0.432478,0 -0.711022,-0.30786 -0.278545,-0.30787 -0.278545,-0.90894 v -5.57089 q 0,-1.34875 0.974907,-1.34875 0.498448,0 0.718352,0.3152 0.219904,0.31519 0.241894,0.93092 0.359177,-0.61573 0.733013,-0.93092 0.381167,-0.3152 1.011558,-0.3152 0.63039,0 1.224131,0.3152 0.59374,0.31519 0.59374,0.83563 0,0.36651 -0.256554,0.6084 -0.249225,0.23457 -0.54243,0.23457 -0.109952,0 -0.535099,-0.13195 -0.417817,-0.13927 -0.740343,-0.13927 -0.439808,0 -0.718352,0.23457 -0.278545,0.22723 -0.432478,0.6817 -0.153933,0.45447 -0.212574,1.08486 -0.05864,0.62306 -0.05864,1.52466 z m 9.80038,-0.68903 h -3.914288 q 0.0073,0.6817 0.271215,1.20214 0.271215,0.52044 0.711022,0.78433 0.447138,0.26388 0.982237,0.26388 0.359177,0 0.652382,-0.0806 0.300535,-0.088 0.57908,-0.26389 0.278544,-0.18325 0.513109,-0.38849 0.234564,-0.20525 0.6084,-0.55709 0.153933,-0.13194 0.439808,-0.13194 0.307865,0 0.498448,0.16859 0.190584,0.16859 0.190584,0.47646 0,0.27121 -0.212574,0.63772 -0.212574,0.35917 -0.645051,0.69636 -0.425148,0.32986 -1.077529,0.54976 -0.645051,0.2199 -1.488016,0.2199 -1.927823,0 -2.998022,-1.09952 -1.070198,-1.09951 -1.070198,-2.98336 0,-0.88694 0.263884,-1.64195 0.263885,-0.76233 0.769664,-1.30476 0.505778,-0.54243 1.246121,-0.8283 0.740343,-0.29321 1.641949,-0.29321 1.17282,0 2.008455,0.49845 0.842964,0.49112 1.260781,1.27544 0.417818,0.78433 0.417818,1.59797 0,0.755 -0.432478,0.98224 -0.432477,0.2199 -1.216801,0.2199 z m -3.914288,-1.13617 h 3.628413 q -0.0733,-1.02622 -0.55709,-1.53199 -0.476458,-0.51311 -1.260781,-0.51311 -0.747673,0 -1.231462,0.52044 -0.476458,0.5131 -0.57908,1.52466 z m 7.249496,3.49647 v -8.67887 q 0,-0.60107 0.263885,-0.90893 0.271214,-0.30787 0.725682,-0.30787 0.454468,0 0.733013,0.30787 0.278545,0.30053 0.278545,0.90893 v 8.67887 q 0,0.6084 -0.285875,0.91627 -0.278545,0.30053 -0.725683,0.30053 -0.439807,0 -0.718352,-0.31519 -0.271215,-0.3152 -0.271215,-0.90161 z m 4.06822,0 v -8.67887 q 0,-0.60107 0.263885,-0.90893 0.271215,-0.30787 0.725682,-0.30787 0.454468,0 0.733013,0.30787 0.278545,0.30053 0.278545,0.90893 v 8.67887 q 0,0.6084 -0.285875,0.91627 -0.278545,0.30053 -0.725683,0.30053 -0.439807,0 -0.718352,-0.31519 -0.271215,-0.3152 -0.271215,-0.90161 z m 6.069351,-5.78347 v 5.78347 q 0,0.60107 -0.28588,0.90894 -0.28587,0.30786 -0.72568,0.30786 -0.43981,0 -0.71835,-0.31519 -0.27122,-0.3152 -0.27122,-0.90161 v -5.72483 q 0,-0.59374 0.27122,-0.89427 0.27854,-0.30054 0.71835,-0.30054 0.43981,0 0.72568,0.30054 0.28588,0.30053 0.28588,0.83563 z m -0.98957,-2.06709 q -0.41782,0 -0.71835,-0.25656 -0.29321,-0.25655 -0.29321,-0.72568 0,-0.42515 0.30054,-0.69636 0.30786,-0.27855 0.71102,-0.27855 0.3885,0 0.68903,0.24923 0.30054,0.24922 0.30054,0.72568 0,0.4618 -0.29321,0.72568 -0.2932,0.25656 -0.69636,0.25656 z m 8.11445,7.93852 q -0.72569,0.56442 -1.40739,0.8503 -0.67437,0.27854 -1.51733,0.27854 -0.76967,0 -1.35608,-0.30053 -0.57908,-0.30787 -0.89427,-0.82831 -0.3152,-0.52044 -0.3152,-1.12884 0,-0.82097 0.52044,-1.40005 0.52044,-0.57908 1.42938,-0.77699 0.19058,-0.044 0.94558,-0.19792 0.75501,-0.15393 1.2901,-0.27854 0.54243,-0.13194 1.17282,-0.3152 -0.0367,-0.79165 -0.32252,-1.15816 -0.27855,-0.37383 -1.16549,-0.37383 -0.76233,0 -1.15083,0.21257 -0.38117,0.21257 -0.65971,0.63772 -0.27122,0.42515 -0.3885,0.56442 -0.10995,0.13194 -0.48379,0.13194 -0.33718,0 -0.58641,-0.21257 -0.24189,-0.2199 -0.24189,-0.55709 0,-0.52777 0.37383,-1.02622 0.37384,-0.49845 1.1655,-0.82097 0.79165,-0.32253 1.9718,-0.32253 1.31942,0 2.07443,0.3152 0.755,0.30786 1.06286,0.98223 0.3152,0.67438 0.3152,1.78856 0,0.70369 -0.007,1.19481 0,0.49111 -0.007,1.09219 0,0.56442 0.18325,1.18015 0.19059,0.6084 0.19059,0.78432 0,0.30786 -0.29321,0.56442 -0.28587,0.24922 -0.65238,0.24922 -0.30787,0 -0.6084,-0.28587 -0.30054,-0.29321 -0.63772,-0.84297 z m -0.13195,-2.8954 q -0.4398,0.16127 -1.28277,0.34452 -0.83563,0.17592 -1.15816,0.26388 -0.32252,0.0806 -0.61573,0.32986 -0.2932,0.24189 -0.2932,0.6817 0,0.45447 0.34451,0.777 0.34452,0.31519 0.90161,0.31519 0.59374,0 1.09219,-0.25655 0.50578,-0.26389 0.74034,-0.67438 0.27121,-0.45446 0.27121,-1.49534 z m 5.8128,-3.00535 v 0.2419 q 0.52777,-0.69637 1.15083,-1.01889 0.63039,-0.32986 1.44403,-0.32986 0.79165,0 1.41472,0.34452 0.62306,0.34451 0.93092,0.97491 0.19792,0.3665 0.25656,0.79165 0.0586,0.42515 0.0586,1.08486 v 3.7237 q 0,0.60107 -0.27855,0.90894 -0.27121,0.30786 -0.71102,0.30786 -0.44714,0 -0.72568,-0.31519 -0.27855,-0.3152 -0.27855,-0.90161 v -3.33521 q 0,-0.98956 -0.27854,-1.51 -0.27122,-0.52777 -1.09219,-0.52777 -0.5351,0 -0.97491,0.32252 -0.43981,0.3152 -0.64505,0.87229 -0.1466,0.44714 -0.1466,1.67127 v 2.5069 q 0,0.6084 -0.28588,0.91627 -0.27854,0.30053 -0.72568,0.30053 -0.43248,0 -0.71102,-0.31519 -0.27855,-0.3152 -0.27855,-0.90161 v -5.78347 q 0,-0.57175 0.24923,-0.85029 0.24922,-0.28588 0.6817,-0.28588 0.26388,0 0.47646,0.12461 0.21257,0.12462 0.33718,0.37384 0.13195,0.24923 0.13195,0.6084 z"
       id="text1384-2-3"
       aria-label="krellian" />
    <path
       style="font-size:15.0121px;line-height:1.25;font-family:'Open Sans';-inkscape-font-specification:'Open Sans';letter-spacing:0px;word-spacing:0px;stroke-width:0.237687"
       d="m 132.4381,148.4677 q 0,2.57287 -1.30476,4.04623 -1.29744,1.47336 -3.61376,1.47336 -2.36763,0 -3.65773,-1.44404 -1.28277,-1.45136 -1.28277,-4.09021 0,-2.61686 1.2901,-4.05356 1.2901,-1.44404 3.66506,-1.44404 2.30899,0 3.60643,1.46603 1.29743,1.46603 1.29743,4.04623 z m -8.5396,0 q 0,2.17705 0.9236,3.30589 0.93092,1.12151 2.69748,1.12151 1.78122,0 2.69016,-1.12151 0.90894,-1.12151 0.90894,-3.30589 0,-2.16239 -0.90894,-3.27657 -0.90161,-1.12151 -2.6755,-1.12151 -1.78122,0 -2.71214,1.12884 -0.9236,1.12151 -0.9236,3.26924 z m 16.97657,2.52156 q 0,1.41472 -1.02621,2.20637 -1.02622,0.79166 -2.78545,0.79166 -1.90583,0 -2.93205,-0.49112 v -1.20214 q 0.65971,0.27854 1.4367,0.4398 0.777,0.16127 1.53933,0.16127 1.24612,0 1.87651,-0.46913 0.63039,-0.47646 0.63039,-1.31942 0,-0.55709 -0.22723,-0.90894 -0.2199,-0.35918 -0.74767,-0.65971 -0.52044,-0.30054 -1.59064,-0.6817 -1.49535,-0.5351 -2.1404,-1.26812 -0.63772,-0.73301 -0.63772,-1.91316 0,-1.23879 0.93093,-1.9718 0.93092,-0.73302 2.46292,-0.73302 1.59797,0 2.93938,0.58641 l -0.3885,1.08486 q -1.32675,-0.55709 -2.5802,-0.55709 -0.98957,0 -1.54666,0.42515 -0.55709,0.42515 -0.55709,1.18015 0,0.55709 0.20525,0.91627 0.20524,0.35184 0.68903,0.65238 0.49112,0.2932 1.49534,0.65238 1.68593,0.60107 2.31632,1.2901 0.63772,0.68903 0.63772,1.78855 z"
       id="text1385-9-6"
       aria-label="OS" />
  </g>
</svg>
