<?xml version="1.0" encoding="UTF-8" standalone="no"?>
<svg
   xmlns:dc="http://purl.org/dc/elements/1.1/"
   xmlns:cc="http://creativecommons.org/ns#"
   xmlns:rdf="http://www.w3.org/1999/02/22-rdf-syntax-ns#"
   xmlns:svg="http://www.w3.org/2000/svg"
   xmlns="http://www.w3.org/2000/svg"
   id="svg8217"
   version="1.1"
   viewBox="0 0 67.511462 9.2604179"
   height="35.000004"
   width="255.16144">
  <defs
     id="defs8211" />
  <metadata
     id="metadata8214">
    <rdf:RDF>
      <cc:Work
         rdf:about="">
        <dc:format>image/svg+xml</dc:format>
        <dc:type
           rdf:resource="http://purl.org/dc/dcmitype/StillImage" />
        <dc:title></dc:title>
      </cc:Work>
    </rdf:RDF>
  </metadata>
  <g
     transform="translate(3.2977746,-312.42102)"
     id="layer1">
    <g
       style="fill:#1a1a1a;fill-opacity:1"
       transform="matrix(0.27790516,0,0,0.27790516,-135.60951,-2823.6358)"
       id="g6894">
      <g
         transform="matrix(3.5983499,0,0,3.59835,1314.3013,11251.199)"
         id="g62662">
        <g
           transform="translate(-3.2977718,15.421024)"
           id="g62672">
          <g
             id="text62666"
             style="font-style:normal;font-weight:normal;font-size:3.33485961px;line-height:0%;font-family:sans-serif;letter-spacing:0px;word-spacing:0px;fill:#1a1a1a;fill-opacity:1;stroke:none;stroke-width:0.27790499px;stroke-linecap:butt;stroke-linejoin:miter;stroke-opacity:1"
             aria-label="krellian">
            <path
               id="path63534"
               style="font-style:normal;font-variant:normal;font-weight:bold;font-stretch:normal;font-size:12.51011467px;line-height:1.25;font-family:'Arial Rounded MT Bold';-inkscape-font-specification:'Arial Rounded MT Bold, Bold';fill:#1a1a1a;fill-opacity:1;stroke-width:0.27790499px"
               d="m -225.60392,2.3663968 -1.47213,-2.41894797 -0.90406,0.85518362 V 2.1281671 q 0,0.4825679 -0.25655,0.7452314 -0.25045,0.2565551 -0.5803,0.2565551 -0.38484,0 -0.60474,-0.2565551 -0.2199,-0.2565551 -0.2199,-0.7574483 v -7.110241 q 0,-0.5558694 0.21379,-0.8429667 0.2138,-0.2932058 0.61085,-0.2932058 0.38483,0 0.61084,0.2626635 0.22601,0.2626636 0.22601,0.7757737 v 4.0437969 l 1.8753,-1.9669224 q 0.34818,-0.3665072 0.53144,-0.5008932 0.18325,-0.134386 0.44591,-0.134386 0.31153,0 0.51922,0.201579 0.20769,0.1954705 0.20769,0.4947848 0,0.3665072 -0.67804,0.9773527 l -0.88573,0.8124244 1.71037,2.68772 q 0.18936,0.2993142 0.26877,0.4581341 0.0855,0.1527113 0.0855,0.2932058 0,0.3970495 -0.2199,0.6291708 -0.2138,0.2260128 -0.56809,0.2260128 -0.30542,0 -0.47035,-0.1649283 -0.16493,-0.1649282 -0.44592,-0.5986285 z" />
            <path
               id="path63536"
               style="font-style:normal;font-variant:normal;font-weight:bold;font-stretch:normal;font-size:12.51011467px;line-height:1.25;font-family:'Arial Rounded MT Bold';-inkscape-font-specification:'Arial Rounded MT Bold, Bold';fill:#1a1a1a;fill-opacity:1;stroke-width:0.27790499px"
               d="M -220.91873,0.72322255 V 2.1159502 q 0,0.5070017 -0.23823,0.7635568 -0.23823,0.2504466 -0.60474,0.2504466 -0.3604,0 -0.59252,-0.2565551 -0.23212,-0.2565551 -0.23212,-0.7574483 v -4.6424254 q 0,-1.1239556 0.81242,-1.1239556 0.41538,0 0.59863,0.2626635 0.18326,0.2626636 0.20158,0.7757737 0.29932,-0.5131101 0.61085,-0.7757737 0.31764,-0.2626635 0.84296,-0.2626635 0.52533,0 1.02012,0.2626635 0.49478,0.2626636 0.49478,0.6963638 0,0.3054227 -0.2138,0.5070017 -0.20768,0.1954706 -0.45202,0.1954706 -0.0916,0 -0.44592,-0.1099522 -0.34818,-0.1160606 -0.61695,-0.1160606 -0.36651,0 -0.59863,0.1954705 -0.23212,0.1893621 -0.3604,0.5680863 -0.12828,0.3787241 -0.17714,0.90405123 -0.0489,0.51921862 -0.0489,1.27055852 z" />
            <path
               id="path63538"
               style="font-style:normal;font-variant:normal;font-weight:bold;font-stretch:normal;font-size:12.51011467px;line-height:1.25;font-family:'Arial Rounded MT Bold';-inkscape-font-specification:'Arial Rounded MT Bold, Bold';fill:#1a1a1a;fill-opacity:1;stroke-width:0.27790499px"
               d="m -212.75173,0.14902783 h -3.26191 q 0.006,0.56808626 0.22601,1.00178657 0.22601,0.4337002 0.59252,0.6536046 0.37262,0.2199043 0.81853,0.2199043 0.29932,0 0.54365,-0.067193 0.25045,-0.073301 0.48257,-0.2199043 0.23212,-0.1527114 0.42759,-0.3237481 0.19548,-0.1710367 0.50701,-0.46424254 0.12827,-0.10995218 0.3665,-0.10995218 0.25656,0 0.41538,0.14049445 0.15882,0.14049447 0.15882,0.39704957 0,0.2260128 -0.17715,0.5314355 -0.17714,0.2993143 -0.53754,0.5803032 -0.35429,0.2748804 -0.89794,0.4581341 -0.53755,0.1832536 -1.24002,0.1832536 -1.60652,0 -2.49836,-0.9162682 -0.89183,-0.9162681 -0.89183,-2.48614092 0,-0.73912298 0.2199,-1.36829378 0.21991,-0.6352793 0.64139,-1.0873049 0.42148,-0.4520256 1.03844,-0.6902554 0.61695,-0.2443381 1.36829,-0.2443381 0.97735,0 1.67372,0.4153749 0.70247,0.4092664 1.05065,1.062871 0.34818,0.6536047 0.34818,1.3316431 0,0.62917081 -0.3604,0.8185329 -0.36039,0.18325363 -1.014,0.18325363 z m -3.26191,-0.94681044 h 3.02368 q -0.0611,-0.85518359 -0.46424,-1.27666699 -0.39705,-0.4275918 -1.05066,-0.4275918 -0.62306,0 -1.02622,0.4337003 -0.39704,0.4275918 -0.48256,1.27055849 z" />
            <path
               id="path63540"
               style="font-style:normal;font-variant:normal;font-weight:bold;font-stretch:normal;font-size:12.51011467px;line-height:1.25;font-family:'Arial Rounded MT Bold';-inkscape-font-specification:'Arial Rounded MT Bold, Bold';fill:#1a1a1a;fill-opacity:1;stroke-width:0.27790499px"
               d="m -209.96627,2.1159502 v -7.2324101 q 0,-0.5008932 0.2199,-0.7574483 0.22602,-0.2565551 0.60474,-0.2565551 0.37872,0 0.61084,0.2565551 0.23213,0.2504466 0.23213,0.7574483 v 7.2324101 q 0,0.5070017 -0.23823,0.7635568 -0.23213,0.2504466 -0.60474,0.2504466 -0.36651,0 -0.59863,-0.2626635 -0.22601,-0.2626636 -0.22601,-0.7513399 z" />
            <path
               id="path63542"
               style="font-style:normal;font-variant:normal;font-weight:bold;font-stretch:normal;font-size:12.51011467px;line-height:1.25;font-family:'Arial Rounded MT Bold';-inkscape-font-specification:'Arial Rounded MT Bold, Bold';fill:#1a1a1a;fill-opacity:1;stroke-width:0.27790499px"
               d="m -206.56997,2.1159502 v -7.2324101 q 0,-0.5008932 0.2199,-0.7574483 0.22601,-0.2565551 0.60474,-0.2565551 0.37872,0 0.61084,0.2565551 0.23213,0.2504466 0.23213,0.7574483 v 7.2324101 q 0,0.5070017 -0.23823,0.7635568 -0.23213,0.2504466 -0.60474,0.2504466 -0.36651,0 -0.59863,-0.2626635 -0.22601,-0.2626636 -0.22601,-0.7513399 z" />
            <path
               id="path63544"
               style="font-style:normal;font-variant:normal;font-weight:bold;font-stretch:normal;font-size:12.51011467px;line-height:1.25;font-family:'Arial Rounded MT Bold';-inkscape-font-specification:'Arial Rounded MT Bold, Bold';fill:#1a1a1a;fill-opacity:1;stroke-width:0.27790499px"
               d="m -201.50606,-2.7036204 v 4.8195706 q 0,0.5008932 -0.23823,0.7574483 -0.23823,0.2565551 -0.60474,0.2565551 -0.36651,0 -0.59863,-0.2626635 -0.22601,-0.2626636 -0.22601,-0.7513399 v -4.770703 q 0,-0.4947848 0.22601,-0.7452314 0.23212,-0.2504466 0.59863,-0.2504466 0.36651,0 0.60474,0.2504466 0.23823,0.2504466 0.23823,0.6963638 z m -0.82464,-1.7225841 q -0.34819,0 -0.59863,-0.2137959 -0.24434,-0.2137959 -0.24434,-0.604737 0,-0.3542904 0.25045,-0.5803032 0.25655,-0.2321213 0.59252,-0.2321213 0.32374,0 0.57419,0.2076875 0.25045,0.2076874 0.25045,0.604737 0,0.3848326 -0.24434,0.604737 -0.24434,0.2137959 -0.5803,0.2137959 z" />
            <path
               id="path63546"
               style="font-style:normal;font-variant:normal;font-weight:bold;font-stretch:normal;font-size:12.51011467px;line-height:1.25;font-family:'Arial Rounded MT Bold';-inkscape-font-specification:'Arial Rounded MT Bold, Bold';fill:#1a1a1a;fill-opacity:1;stroke-width:0.27790499px"
               d="m -195.56254,2.1892516 q -0.60474,0.470351 -1.17282,0.7085807 -0.56198,0.2321213 -1.26445,0.2321213 -0.64139,0 -1.13007,-0.2504466 -0.48256,-0.2565551 -0.74523,-0.6902554 -0.26266,-0.4337003 -0.26266,-0.940702 0,-0.68414687 0.4337,-1.16671477 0.4337,-0.4825679 1.19115,-0.64749617 0.15882,-0.0366507 0.78799,-0.16492827 0.62917,-0.12827754 1.07509,-0.23212127 0.45202,-0.10995222 0.97735,-0.26266352 -0.0305,-0.6597131 -0.26877,-0.9651358 -0.23212,-0.3115312 -0.97125,-0.3115312 -0.63528,0 -0.95902,0.1771452 -0.31764,0.1771452 -0.54977,0.5314355 -0.22601,0.3542904 -0.32374,0.470351 -0.0916,0.1099522 -0.40316,0.1099522 -0.28099,0 -0.48868,-0.1771452 -0.20158,-0.1832536 -0.20158,-0.4642425 0,-0.4398087 0.31153,-0.8551836 0.31154,-0.4153749 0.97125,-0.6841469 0.65971,-0.268772 1.64317,-0.268772 1.09952,0 1.7287,0.2626635 0.62917,0.2565551 0.88572,0.8185329 0.26266,0.5619778 0.26266,1.4904629 0,0.58641161 -0.006,0.99567805 0,0.40926645 -0.006,0.91015971 0,0.47035104 0.15271,0.98346114 0.15882,0.5070017 0.15882,0.6536047 0,0.256555 -0.24434,0.4703509 -0.23823,0.2076875 -0.54365,0.2076875 -0.25656,0 -0.507,-0.2382297 -0.25045,-0.2443382 -0.53144,-0.7024723 z m -0.10995,-2.41283949 q -0.36651,0.134386 -1.06898,0.28709736 -0.69636,0.14660291 -0.96514,0.21990436 -0.26877,0.067193 -0.51311,0.27488045 -0.24433,0.20157899 -0.24433,0.56808622 0,0.3787242 0.28709,0.6474962 0.2871,0.2626635 0.75134,0.2626635 0.49479,0 0.91016,-0.2137959 0.42149,-0.2199043 0.61696,-0.5619778 0.22601,-0.37872414 0.22601,-1.24612467 z" />
            <path
               id="path63548"
               style="font-style:normal;font-variant:normal;font-weight:bold;font-stretch:normal;font-size:12.51011467px;line-height:1.25;font-family:'Arial Rounded MT Bold';-inkscape-font-specification:'Arial Rounded MT Bold, Bold';fill:#1a1a1a;fill-opacity:1;stroke-width:0.27790499px"
               d="m -190.83459,-2.7280542 v 0.201579 q 0.43981,-0.5803032 0.95903,-0.8490752 0.52532,-0.2748804 1.20336,-0.2748804 0.65971,0 1.17893,0.2870973 0.51922,0.2870974 0.77578,0.8124245 0.16492,0.3054227 0.21379,0.6597131 0.0489,0.3542903 0.0489,0.90405121 V 2.1159502 q 0,0.5008932 -0.23212,0.7574483 -0.22601,0.2565551 -0.59252,0.2565551 -0.37262,0 -0.60474,-0.2626635 -0.23212,-0.2626636 -0.23212,-0.7513399 v -2.77934681 q 0,-0.82464139 -0.23212,-1.25834159 -0.22601,-0.4398087 -0.91016,-0.4398087 -0.44592,0 -0.81243,0.268772 -0.3665,0.2626635 -0.53754,0.726906 -0.12217,0.37261575 -0.12217,1.39272764 V 2.1159502 q 0,0.5070017 -0.23823,0.7635568 -0.23212,0.2504466 -0.60474,0.2504466 -0.36039,0 -0.59252,-0.2626635 -0.23212,-0.2626636 -0.23212,-0.7513399 v -4.8195706 q 0,-0.4764594 0.20769,-0.7085807 0.20769,-0.2382297 0.56809,-0.2382297 0.2199,0 0.39705,0.1038437 0.17714,0.1038437 0.28099,0.3115312 0.10995,0.2076874 0.10995,0.5070017 z" />
          </g>
          <g
             id="text62670"
             style="font-style:normal;font-weight:normal;font-size:3.44162488px;line-height:0%;font-family:Helvetica;-inkscape-font-specification:Helvetica;letter-spacing:0px;word-spacing:0px;fill:#1a1a1a;fill-opacity:1;stroke:none;stroke-width:0.28680208"
             aria-label="Hub">
            <path
               id="path63551"
               style="font-style:normal;font-variant:normal;font-weight:normal;font-stretch:normal;font-size:12.03384113px;line-height:1.25;font-family:'open sans';-inkscape-font-specification:'open sans';fill:#1a1a1a;fill-opacity:1;stroke-width:0.28680208"
               d="m -177.39573,3.0124357 h -0.9989 v -4.0426185 h -4.52444 v 4.0426185 h -0.9989 v -8.5905643 h 0.9989 v 3.6548091 h 4.52444 v -3.6548091 h 0.9989 z" />
            <path
               id="path63553"
               style="font-style:normal;font-variant:normal;font-weight:normal;font-stretch:normal;font-size:12.03384113px;line-height:1.25;font-family:'open sans';-inkscape-font-specification:'open sans';fill:#1a1a1a;fill-opacity:1;stroke-width:0.28680208"
               d="m -174.26387,-3.4275496 v 4.17776416 q 0,0.78737044 0.35843,1.17517984 0.35843,0.3878093 1.12229,0.3878093 1.01066,0 1.47486,-0.5523345 0.47007,-0.5523345 0.47007,-1.803901 v -3.3845178 h 0.9754 v 6.4399853 h -0.805 l -0.14102,-0.8637572 h -0.0529 q -0.29967,0.4759478 -0.83437,0.7286115 -0.52883,0.2526637 -1.21044,0.2526637 -1.17518,0 -1.76277,-0.5582104 -0.58171,-0.5582105 -0.58171,-1.78627334 V -3.4275496 Z" />
            <path
               id="path63555"
               style="font-style:normal;font-variant:normal;font-weight:normal;font-stretch:normal;font-size:12.03384113px;line-height:1.25;font-family:'open sans';-inkscape-font-specification:'open sans';fill:#1a1a1a;fill-opacity:1;stroke-width:0.28680208"
               d="m -164.80367,-3.5333158 q 1.26919,0 1.96842,0.869633 0.70511,0.8637572 0.70511,2.45024993 0,1.58649277 -0.71098,2.46787757 -0.70511,0.875509 -1.96255,0.875509 -0.62873,0 -1.15168,-0.2291601 -0.51708,-0.235036 -0.86963,-0.7168597 h -0.0705 l -0.20566,0.8285018 h -0.69923 v -9.1428989 h 0.9754 v 2.2210899 q 0,0.7462391 -0.047,1.3397049 h 0.047 q 0.6816,-0.9636474 2.02131,-0.9636474 z m -0.14103,0.81675 q -0.9989,0 -1.43959,0.5758381 -0.44069,0.5699622 -0.44069,1.92729483 0,1.35733267 0.45244,1.94492257 0.45244,0.581714 1.45135,0.581714 0.89901,0 1.3397,-0.6522248 0.44069,-0.6581007 0.44069,-1.88616357 0,-1.25744243 -0.44069,-1.87441173 -0.44069,-0.6169694 -1.36321,-0.6169694 z" />
          </g>
        </g>
      </g>
    </g>
  </g>
</svg>
