<?xml version="1.0" encoding="UTF-8" standalone="no"?>
<svg
   xmlns:dc="http://purl.org/dc/elements/1.1/"
   xmlns:cc="http://creativecommons.org/ns#"
   xmlns:rdf="http://www.w3.org/1999/02/22-rdf-syntax-ns#"
   xmlns:svg="http://www.w3.org/2000/svg"
   xmlns="http://www.w3.org/2000/svg"
   id="svg18922"
   version="1.1"
   viewBox="0 0 16.933333 16.933334"
   height="64"
   width="64">
  <defs
     id="defs18916" />
  <metadata
     id="metadata18919">
    <rdf:RDF>
      <cc:Work
         rdf:about="">
        <dc:format>image/svg+xml</dc:format>
        <dc:type
           rdf:resource="http://purl.org/dc/dcmitype/StillImage" />
        <dc:title></dc:title>
      </cc:Work>
    </rdf:RDF>
  </metadata>
  <g
     transform="translate(0,-280.06665)"
     id="layer1">
    <path
       style="fill:#296795;fill-opacity:1;stroke-width:0.24036817"
       id="path75085-0-3"
       d="m 8.6211813,280.11273 c -1.1736001,0.244 -1.7509,0.696 -1.7509,1.355 0,0.318 0.1412999,0.477 0.6201,0.709 0.5899001,0.281 0.6576001,0.598 0.1722,0.843 -0.1842,0.09 -0.4299,0.111 -2.3403999,0.111 -1.8553001,0 -2.1442,0.01 -2.2235001,0.09 -0.086,0.08 -0.099,0.379 -0.099,2.302 0,2.469 0,2.487 -0.387,2.487 -0.2764,0 -0.3192,-0.04 -0.5279,-0.508 -0.1539,-0.342 -0.2274,-0.426 -0.412,-0.506 -0.1967,-0.08 -0.2519,-0.08 -0.5467,0 -0.37440001,0.104 -0.58359997,0.311 -0.81099997,0.806 -0.3254,0.703 -0.4053,1.587 -0.2091,2.328 0.1966,0.756 0.5592,1.226 1.05049997,1.355 0.4547,0.122 0.6452,0 0.9523,-0.629 0.1785,-0.367 0.1904,-0.378 0.4486,-0.398 0.2519,-0.02 0.2638999,-0.01 0.3806999,0.244 0.1106001,0.246 0.1227,0.41 0.1227,2.378 0,1.744 0.013999,2.129 0.086,2.185 0.062,0.06 0.6971998,-0.09 2.3374998,-0.104 1.9899,-0.02 2.0981001,-0.05 2.2764999,-0.151 0.3914002,-0.269 0.3058001,-0.572 -0.1408999,-0.752 -0.3465999,-0.202 -0.6657999,-0.373 -0.7033001,-0.834 0.083,-0.749 0.4562002,-0.86 0.8495001,-1.078 0.7919001,-0.219 1.0091,-0.274 1.5700998,-0.271 0.5360997,-0.01 0.9760002,0.117 1.4054002,0.391 0.2615,0.145 0.9474,0.925 0.6634,1.33 -0.2846,0.405 -0.4471,0.28 -0.8428,0.577 -0.2207,0.166 -0.2553,0.485 0.1255,0.687 0.2644,0.134 0.2683,0.12 2.3875,0.12 1.2841,0 2.0202,0.125 2.1188,0.09 l 0.1594,-0.06 -0.018,-2.24 c -0.018,-2.034 -0.084,-1.977 -0.1884,-2.214 -0.148499,-0.316 -0.087,-0.335 -0.449599,-0.365 -0.2831,0.06 -0.3971,0.381 -0.6552,0.893 -0.2178,0.24 -0.7731,0.147 -0.7731,0.147 -0.9634,-0.32 -1.0427,-1.639 -1.0755,-2.299 0.323,-2.141 0.9889,-2.095 1.288,-2.19 0.2241,-0.07 0.535,0.08 0.6712,0.291 0.1326,0.2 0.2528,0.866 0.6076,0.765 0.3298,0 0.4918,-0.111 0.4918,-0.963 l 0.095,-1.596 c 0.097,-1.608 -0.018,-2.192 -0.074,-2.248 -0.055,-0.05 -0.6451,-0.07 -2.273,-0.07 -1.8182,0 -2.236,-0.02 -2.3773,-0.09 -0.441901,-0.227 -0.282201,-0.703 0.295199,-0.874 0.3071,-0.09 0.5591,-0.384 0.5591,-0.641 -0.01,-0.464 -0.3443,-0.88 -0.928,-1.136 -0.5221,-0.226 -1.4801002,-0.367 -1.9287001,-0.275 z" />
  </g>
</svg>
