<?xml version="1.0" encoding="UTF-8" standalone="no"?>
<svg
   xmlns:dc="http://purl.org/dc/elements/1.1/"
   xmlns:cc="http://creativecommons.org/ns#"
   xmlns:rdf="http://www.w3.org/1999/02/22-rdf-syntax-ns#"
   xmlns:svg="http://www.w3.org/2000/svg"
   xmlns="http://www.w3.org/2000/svg"
   id="svg18922"
   version="1.1"
   viewBox="0 0 16.933333 16.933334"
   height="64"
   width="64">
  <defs
     id="defs18916" />
  <metadata
     id="metadata18919">
    <rdf:RDF>
      <cc:Work
         rdf:about="">
        <dc:format>image/svg+xml</dc:format>
        <dc:type
           rdf:resource="http://purl.org/dc/dcmitype/StillImage" />
        <dc:title></dc:title>
      </cc:Work>
    </rdf:RDF>
  </metadata>
  <g
     transform="translate(0,-280.06665)"
     id="layer1">
    <path
       d="m 12.218842,286.86337 -4.1948996,4.65513 c -0.1676,0.18596 -0.3989,0.28095 -0.6329,0.28095 -0.1761,0 -0.354,-0.06 -0.5060004,-0.16797 l -1.6088,-1.19178 c -0.3777999,-0.27995 -0.4567999,-0.81385 -0.1769999,-1.19178 0.2799998,-0.37693 0.8125,-0.45591 1.1901998,-0.17696 l 0.9877005,0.73386 3.6773996,-4.08124 c 0.314799,-0.34793 0.8524,-0.37693 1.2021,-0.06 0.3487,0.31494 0.3767,0.85284 0.062,1.20178 z m 3.2699,-5.14404 c -0.011,-0.17597 -0.1745,-0.30194 -0.3485,-0.26895 -0.095,0.02 -0.1904,0.03 -0.2854,0.05 -0.5749,0.09 -1.1562,0.14197 -1.7385,0.13498 -0.488,0 -0.9763,-0.05 -1.4562,-0.13798 -0.4004,-0.07 -0.7954,-0.18096 -1.178401,-0.31894 -0.311299,-0.11398 -0.6146986,-0.24895 -0.9052986,-0.40792 -0.220601,-0.11898 -0.4342,-0.25195 -0.6374,-0.40193 -0.074,-0.06 -0.1479,-0.11398 -0.2191,-0.16797 -0.07,-0.06 -0.1353,-0.12897 -0.2302,-0.13397 -0.089,0 -0.168,0.05 -0.2331,0.10198 -0.116,0.09 -0.2328,0.18597 -0.3551,0.27095 -0.2177,0.14997 -0.4454,0.28695 -0.6809,0.40692 -0.3047005,0.15397 -0.6214004,0.28695 -0.9460005,0.39393 -0.3961998,0.13397 -0.8037999,0.22996 -1.2160998,0.29494 -0.493,0.08 -0.9923,0.10199 -1.4907,0.10199 -0.5941,0 -1.1863,-0.07 -1.7705,-0.18197 -0.1739,-0.03 -0.3379,0.09 -0.3491,0.26895 -0.094,1.53971 -0.3385,7.97851 1.9249,10.81198 2.3818,2.98044 4.4422003,4.16422 4.9672003,4.42617 0.082,0.05 0.1766,0.05 0.2583,0 0.5284,-0.25795 2.6013996,-1.42973 4.9665996,-4.42717 2.2449,-2.84747 2.0145,-9.27227 1.9235,-10.81098"
       style="fill:#d46e6e;fill-opacity:1;fill-rule:nonzero;stroke:none;stroke-width:0.03525667"
       id="path12471-7" />
  </g>
</svg>
