<?xml version="1.0" encoding="UTF-8" standalone="no"?>
<svg
   xmlns:dc="http://purl.org/dc/elements/1.1/"
   xmlns:cc="http://creativecommons.org/ns#"
   xmlns:rdf="http://www.w3.org/1999/02/22-rdf-syntax-ns#"
   xmlns:svg="http://www.w3.org/2000/svg"
   xmlns="http://www.w3.org/2000/svg"
   id="svg18922"
   version="1.1"
   viewBox="0 0 16.933333 16.933334"
   height="64"
   width="64">
  <defs
     id="defs18916" />
  <metadata
     id="metadata18919">
    <rdf:RDF>
      <cc:Work
         rdf:about="">
        <dc:format>image/svg+xml</dc:format>
        <dc:type
           rdf:resource="http://purl.org/dc/dcmitype/StillImage" />
        <dc:title></dc:title>
      </cc:Work>
    </rdf:RDF>
  </metadata>
  <g
     transform="translate(0,-280.06665)"
     id="layer1">
    <g
       style="fill:#76a142;fill-opacity:1"
       id="g18022"
       transform="matrix(5.9996221,0,0,5.9996221,-9563.4948,-63577.432)">
      <path
         style="fill:#76a142;fill-opacity:1;stroke:none;stroke-width:0.12054195"
         d="m 1594.4422,10644.788 h 1.9704 v 1.533 h -1.9704 z"
         id="path18018" />
      <path
         style="color:#000000;font-style:normal;font-variant:normal;font-weight:normal;font-stretch:normal;font-size:medium;line-height:normal;font-family:sans-serif;font-variant-ligatures:normal;font-variant-position:normal;font-variant-caps:normal;font-variant-numeric:normal;font-variant-alternates:normal;font-feature-settings:normal;text-indent:0;text-align:start;text-decoration:none;text-decoration-line:none;text-decoration-style:solid;text-decoration-color:#000000;letter-spacing:normal;word-spacing:normal;text-transform:none;writing-mode:lr-tb;direction:ltr;text-orientation:mixed;dominant-baseline:auto;baseline-shift:baseline;text-anchor:start;white-space:normal;shape-padding:0;clip-rule:nonzero;display:inline;overflow:visible;visibility:visible;opacity:1;isolation:auto;mix-blend-mode:normal;color-interpolation:sRGB;color-interpolation-filters:linearRGB;solid-color:#000000;solid-opacity:1;vector-effect:none;fill:#76a142;fill-opacity:1;fill-rule:nonzero;stroke:none;stroke-width:0.35361242;stroke-linecap:round;stroke-linejoin:miter;stroke-miterlimit:4;stroke-dasharray:none;stroke-dashoffset:0;stroke-opacity:1;color-rendering:auto;image-rendering:auto;shape-rendering:auto;text-rendering:auto;enable-background:accumulate"
         d="m 1595.4277,10643.675 c -0.2525,0 -0.4845,0.135 -0.6373,0.352 -0.1527,0.216 -0.2368,0.511 -0.2368,0.862 a 0.17700614,0.17700614 0 1 0 0.354,0 c 0,-0.294 0.072,-0.518 0.1715,-0.659 0.1,-0.14 0.2162,-0.202 0.3486,-0.202 0.1324,0 0.2484,0.06 0.3479,0.202 0.099,0.141 0.1721,0.365 0.1721,0.659 a 0.1768239,0.1768239 0 1 0 0.3534,0 c 0,-0.351 -0.083,-0.646 -0.2362,-0.862 -0.1528,-0.217 -0.3848,-0.352 -0.6372,-0.352 z"
         id="path18020" />
    </g>
  </g>
</svg>
