<?xml version="1.0" encoding="UTF-8" standalone="no"?>
<svg
   xmlns:dc="http://purl.org/dc/elements/1.1/"
   xmlns:cc="http://creativecommons.org/ns#"
   xmlns:rdf="http://www.w3.org/1999/02/22-rdf-syntax-ns#"
   xmlns:svg="http://www.w3.org/2000/svg"
   xmlns="http://www.w3.org/2000/svg"
   id="svg10427"
   version="1.1"
   viewBox="0 0 51.548977 9.260417"
   height="9.260417mm"
   width="51.548977mm">
  <defs
     id="defs10421" />
  <metadata
     id="metadata10424">
    <rdf:RDF>
      <cc:Work
         rdf:about="">
        <dc:format>image/svg+xml</dc:format>
        <dc:type
           rdf:resource="http://purl.org/dc/dcmitype/StillImage" />
        <dc:title></dc:title>
      </cc:Work>
    </rdf:RDF>
  </metadata>
  <g
     transform="translate(-31.67789,-76.923376)"
     id="layer1">
    <g
       id="g10588">
      <g
         id="g10562">
        <rect
           style="stroke-width:0.07847899"
           x="31.677933"
           y="76.923355"
           width="9.260417"
           height="9.260417"
           id="rect32739"
           rx="1.1892315"
           ry="1.1892315" />
        <g
           id="g10547">
          <path
             style="color:#000000;clip-rule:nonzero;display:inline;overflow:visible;visibility:visible;opacity:1;isolation:auto;mix-blend-mode:normal;color-interpolation:sRGB;color-interpolation-filters:linearRGB;solid-color:#000000;solid-opacity:1;fill:#ffffff;fill-opacity:1;fill-rule:nonzero;stroke:none;stroke-width:3.20636272;stroke-linecap:butt;stroke-linejoin:round;stroke-miterlimit:4;stroke-dasharray:none;stroke-dashoffset:0;stroke-opacity:1;color-rendering:auto;image-rendering:auto;shape-rendering:auto;text-rendering:auto;enable-background:accumulate"
             d="m 37.071057,81.902009 a 1.2023051,1.2023051 0 0 1 -1.202305,1.20232 1.2023051,1.2023051 0 0 1 -1.202305,-1.20232 1.2023051,1.2023051 0 0 1 1.202305,-1.202298 1.2023051,1.2023051 0 0 1 1.202305,1.202298 z"
             id="path32741" />
          <path
             style="color:#000000;clip-rule:nonzero;display:inline;overflow:visible;visibility:visible;opacity:1;isolation:auto;mix-blend-mode:normal;color-interpolation:sRGB;color-interpolation-filters:linearRGB;solid-color:#000000;solid-opacity:1;fill:#ffffff;fill-opacity:1;fill-rule:nonzero;stroke:none;stroke-width:3.20636272;stroke-linecap:butt;stroke-linejoin:round;stroke-miterlimit:4;stroke-dasharray:none;stroke-dashoffset:0;stroke-opacity:1;color-rendering:auto;image-rendering:auto;shape-rendering:auto;text-rendering:auto;enable-background:accumulate"
             d="m 37.365115,79.193664 a 0.72780422,0.72780422 0 0 1 -0.727806,0.727803 0.72780422,0.72780422 0 0 1 -0.727803,-0.727803 0.72780422,0.72780422 0 0 1 0.727803,-0.727804 0.72780422,0.72780422 0 0 1 0.727806,0.727804 z"
             id="path32743" />
          <path
             style="color:#000000;clip-rule:nonzero;display:inline;overflow:visible;visibility:visible;opacity:1;isolation:auto;mix-blend-mode:normal;color-interpolation:sRGB;color-interpolation-filters:linearRGB;solid-color:#000000;solid-opacity:1;fill:#ffffff;fill-opacity:1;fill-rule:nonzero;stroke:none;stroke-width:3.20636272;stroke-linecap:butt;stroke-linejoin:round;stroke-miterlimit:4;stroke-dasharray:none;stroke-dashoffset:0;stroke-opacity:1;color-rendering:auto;image-rendering:auto;shape-rendering:auto;text-rendering:auto;enable-background:accumulate"
             d="m 39.780583,81.243268 a 0.72780422,0.72780422 0 0 1 -0.727806,0.727803 0.72780422,0.72780422 0 0 1 -0.727803,-0.727803 0.72780422,0.72780422 0 0 1 0.727803,-0.727803 0.72780422,0.72780422 0 0 1 0.727806,0.727803 z"
             id="path32745" />
          <path
             style="color:#000000;clip-rule:nonzero;display:inline;overflow:visible;visibility:visible;opacity:1;isolation:auto;mix-blend-mode:normal;color-interpolation:sRGB;color-interpolation-filters:linearRGB;solid-color:#000000;solid-opacity:1;fill:#ffffff;fill-opacity:1;fill-rule:nonzero;stroke:none;stroke-width:3.20636272;stroke-linecap:butt;stroke-linejoin:round;stroke-miterlimit:4;stroke-dasharray:none;stroke-dashoffset:0;stroke-opacity:1;color-rendering:auto;image-rendering:auto;shape-rendering:auto;text-rendering:auto;enable-background:accumulate"
             d="m 38.572854,83.914955 a 0.72780422,0.72780422 0 0 1 -0.727803,0.727804 0.72780422,0.72780422 0 0 1 -0.727804,-0.727804 0.72780422,0.72780422 0 0 1 0.727804,-0.727825 0.72780422,0.72780422 0 0 1 0.727803,0.727825 z"
             id="path32747" />
          <path
             style="color:#000000;clip-rule:nonzero;display:inline;overflow:visible;visibility:visible;opacity:1;isolation:auto;mix-blend-mode:normal;color-interpolation:sRGB;color-interpolation-filters:linearRGB;solid-color:#000000;solid-opacity:1;fill:#ffffff;fill-opacity:1;fill-rule:nonzero;stroke:none;stroke-width:3.20636272;stroke-linecap:butt;stroke-linejoin:round;stroke-miterlimit:4;stroke-dasharray:none;stroke-dashoffset:0;stroke-opacity:1;color-rendering:auto;image-rendering:auto;shape-rendering:auto;text-rendering:auto;enable-background:accumulate"
             d="m 34.473862,83.585574 a 0.72780422,0.72780422 0 0 1 -0.727803,0.727803 0.72780422,0.72780422 0 0 1 -0.727806,-0.727803 0.72780422,0.72780422 0 0 1 0.727806,-0.727803 0.72780422,0.72780422 0 0 1 0.727803,0.727803 z"
             id="path32749" />
          <path
             style="color:#000000;clip-rule:nonzero;display:inline;overflow:visible;visibility:visible;opacity:1;isolation:auto;mix-blend-mode:normal;color-interpolation:sRGB;color-interpolation-filters:linearRGB;solid-color:#000000;solid-opacity:1;fill:#ffffff;fill-opacity:1;fill-rule:nonzero;stroke:none;stroke-width:3.20636272;stroke-linecap:butt;stroke-linejoin:round;stroke-miterlimit:4;stroke-dasharray:none;stroke-dashoffset:0;stroke-opacity:1;color-rendering:auto;image-rendering:auto;shape-rendering:auto;text-rendering:auto;enable-background:accumulate"
             d="m 34.290879,79.742842 a 0.72780422,0.72780422 0 0 1 -0.727803,0.727804 0.72780422,0.72780422 0 0 1 -0.727806,-0.727804 0.72780422,0.72780422 0 0 1 0.727806,-0.727803 0.72780422,0.72780422 0 0 1 0.727803,0.727803 z"
             id="path32751" />
          <path
             style="color:#000000;font-style:normal;font-variant:normal;font-weight:normal;font-stretch:normal;font-size:medium;line-height:normal;font-family:sans-serif;font-variant-ligatures:normal;font-variant-position:normal;font-variant-caps:normal;font-variant-numeric:normal;font-variant-alternates:normal;font-feature-settings:normal;text-indent:0;text-align:start;text-decoration:none;text-decoration-line:none;text-decoration-style:solid;text-decoration-color:#000000;letter-spacing:normal;word-spacing:normal;text-transform:none;writing-mode:lr-tb;direction:ltr;text-orientation:mixed;dominant-baseline:auto;baseline-shift:baseline;text-anchor:start;white-space:normal;shape-padding:0;clip-rule:nonzero;display:inline;overflow:visible;visibility:visible;opacity:1;isolation:auto;mix-blend-mode:normal;color-interpolation:sRGB;color-interpolation-filters:linearRGB;solid-color:#000000;solid-opacity:1;vector-effect:none;fill:#ffffff;fill-opacity:1;fill-rule:evenodd;stroke:none;stroke-width:0.71353871;stroke-linecap:butt;stroke-linejoin:miter;stroke-miterlimit:4;stroke-dasharray:none;stroke-dashoffset:0;stroke-opacity:1;color-rendering:auto;image-rendering:auto;shape-rendering:auto;text-rendering:auto;enable-background:accumulate"
             d="M 34.337891,79.980469 33.849609,80.5 l 0.898438,0.839844 0.486328,-0.519532 z"
             id="path32753" />
          <path
             style="color:#000000;font-style:normal;font-variant:normal;font-weight:normal;font-stretch:normal;font-size:medium;line-height:normal;font-family:sans-serif;font-variant-ligatures:normal;font-variant-position:normal;font-variant-caps:normal;font-variant-numeric:normal;font-variant-alternates:normal;font-feature-settings:normal;text-indent:0;text-align:start;text-decoration:none;text-decoration-line:none;text-decoration-style:solid;text-decoration-color:#000000;letter-spacing:normal;word-spacing:normal;text-transform:none;writing-mode:lr-tb;direction:ltr;text-orientation:mixed;dominant-baseline:auto;baseline-shift:baseline;text-anchor:start;white-space:normal;shape-padding:0;clip-rule:nonzero;display:inline;overflow:visible;visibility:visible;opacity:1;isolation:auto;mix-blend-mode:normal;color-interpolation:sRGB;color-interpolation-filters:linearRGB;solid-color:#000000;solid-opacity:1;vector-effect:none;fill:#ffffff;fill-opacity:1;fill-rule:evenodd;stroke:none;stroke-width:0.71353871;stroke-linecap:butt;stroke-linejoin:miter;stroke-miterlimit:4;stroke-dasharray:none;stroke-dashoffset:0;stroke-opacity:1;color-rendering:auto;image-rendering:auto;shape-rendering:auto;text-rendering:auto;enable-background:accumulate"
             d="m 38.267578,81.041016 -1.292969,0.267578 0.144532,0.699218 1.292968,-0.267578 z"
             id="path32755" />
          <path
             style="color:#000000;font-style:normal;font-variant:normal;font-weight:normal;font-stretch:normal;font-size:medium;line-height:normal;font-family:sans-serif;font-variant-ligatures:normal;font-variant-position:normal;font-variant-caps:normal;font-variant-numeric:normal;font-variant-alternates:normal;font-feature-settings:normal;text-indent:0;text-align:start;text-decoration:none;text-decoration-line:none;text-decoration-style:solid;text-decoration-color:#000000;letter-spacing:normal;word-spacing:normal;text-transform:none;writing-mode:lr-tb;direction:ltr;text-orientation:mixed;dominant-baseline:auto;baseline-shift:baseline;text-anchor:start;white-space:normal;shape-padding:0;clip-rule:nonzero;display:inline;overflow:visible;visibility:visible;opacity:1;isolation:auto;mix-blend-mode:normal;color-interpolation:sRGB;color-interpolation-filters:linearRGB;solid-color:#000000;solid-opacity:1;vector-effect:none;fill:#ffffff;fill-opacity:1;fill-rule:evenodd;stroke:none;stroke-width:0.71353871;stroke-linecap:butt;stroke-linejoin:miter;stroke-miterlimit:4;stroke-dasharray:none;stroke-dashoffset:0;stroke-opacity:1;color-rendering:auto;image-rendering:auto;shape-rendering:auto;text-rendering:auto;enable-background:accumulate"
             d="m 36.964844,82.509766 -0.507813,0.5 0.623047,0.636718 0.509766,-0.5 z"
             id="path32757" />
          <path
             style="color:#000000;font-style:normal;font-variant:normal;font-weight:normal;font-stretch:normal;font-size:medium;line-height:normal;font-family:sans-serif;font-variant-ligatures:normal;font-variant-position:normal;font-variant-caps:normal;font-variant-numeric:normal;font-variant-alternates:normal;font-feature-settings:normal;text-indent:0;text-align:start;text-decoration:none;text-decoration-line:none;text-decoration-style:solid;text-decoration-color:#000000;letter-spacing:normal;word-spacing:normal;text-transform:none;writing-mode:lr-tb;direction:ltr;text-orientation:mixed;dominant-baseline:auto;baseline-shift:baseline;text-anchor:start;white-space:normal;shape-padding:0;clip-rule:nonzero;display:inline;overflow:visible;visibility:visible;opacity:1;isolation:auto;mix-blend-mode:normal;color-interpolation:sRGB;color-interpolation-filters:linearRGB;solid-color:#000000;solid-opacity:1;vector-effect:none;fill:#ffffff;fill-opacity:1;fill-rule:evenodd;stroke:none;stroke-width:0.71353871;stroke-linecap:butt;stroke-linejoin:miter;stroke-miterlimit:4;stroke-dasharray:none;stroke-dashoffset:0;stroke-opacity:1;color-rendering:auto;image-rendering:auto;shape-rendering:auto;text-rendering:auto;enable-background:accumulate"
             d="m 34.705078,82.369141 -0.611328,0.484375 0.443359,0.558593 0.611329,-0.484375 z"
             id="path32759" />
          <path
             style="color:#000000;font-style:normal;font-variant:normal;font-weight:normal;font-stretch:normal;font-size:medium;line-height:normal;font-family:sans-serif;font-variant-ligatures:normal;font-variant-position:normal;font-variant-caps:normal;font-variant-numeric:normal;font-variant-alternates:normal;font-feature-settings:normal;text-indent:0;text-align:start;text-decoration:none;text-decoration-line:none;text-decoration-style:solid;text-decoration-color:#000000;letter-spacing:normal;word-spacing:normal;text-transform:none;writing-mode:lr-tb;direction:ltr;text-orientation:mixed;dominant-baseline:auto;baseline-shift:baseline;text-anchor:start;white-space:normal;shape-padding:0;clip-rule:nonzero;display:inline;overflow:visible;visibility:visible;opacity:1;isolation:auto;mix-blend-mode:normal;color-interpolation:sRGB;color-interpolation-filters:linearRGB;solid-color:#000000;solid-opacity:1;vector-effect:none;fill:#ffffff;fill-opacity:1;fill-rule:evenodd;stroke:none;stroke-width:0.71353871;stroke-linecap:butt;stroke-linejoin:miter;stroke-miterlimit:4;stroke-dasharray:none;stroke-dashoffset:0;stroke-opacity:1;color-rendering:auto;image-rendering:auto;shape-rendering:auto;text-rendering:auto;enable-background:accumulate"
             d="m 36.095703,79.796875 -0.242187,0.851563 0.6875,0.195312 0.240234,-0.851562 z"
             id="path32761" />
        </g>
      </g>
      <g
         aria-label="WebThings"
         style="font-style:normal;font-weight:normal;font-size:1.76350498px;line-height:0%;font-family:sans-serif;letter-spacing:0px;word-spacing:0px;fill:#000000;fill-opacity:1;stroke:none;stroke-width:0.24156879px;stroke-linecap:butt;stroke-linejoin:miter;stroke-opacity:1"
         id="text32769">
        <path
           d="M 50.362771,79.780387 H 49.92765 l -1.453141,4.556458 h -0.673206 l -1.305364,-3.760104 h -0.04105 l -1.264314,3.760104 H 44.509159 L 42.96571,79.780387 h -0.45975 v -0.779934 h 2.027829 v 0.779934 h -0.591108 l 0.919501,3.054059 h 0.04105 L 45.9623,79.780387 h -0.467961 v -0.779934 h 2.01962 v 0.779934 h -0.435122 l 1.059069,3.095108 h 0.04105 l 0.837403,-3.095108 h -0.656787 v -0.779934 h 2.0032 z"
           style="font-style:normal;font-variant:normal;font-weight:600;font-stretch:normal;font-size:8.2098341px;line-height:1.25;font-family:'Zilla Slab';-inkscape-font-specification:'Zilla Slab Semi-Bold';text-align:start;text-anchor:start;fill:#000000;fill-opacity:1;stroke-width:0.24156879px"
           id="path10483" />
        <path
           d="m 53.688652,83.212098 q -0.04926,0.48438 -0.476171,0.845613 -0.426911,0.361233 -1.174006,0.361233 -0.804564,0 -1.321783,-0.467961 -0.51722,-0.47617 -0.51722,-1.395672 0,-0.845613 0.467961,-1.412091 0.47617,-0.566479 1.321783,-0.566479 0.763514,0 1.206846,0.459751 0.45154,0.451541 0.45975,1.149377 0,0.229875 -0.04926,0.49259 h -2.487579 q 0.07389,1.034439 0.98518,1.034439 0.426911,0 0.607527,-0.205246 0.188827,-0.205246 0.246295,-0.435121 z M 52.75273,82.13661 q 0.03284,-0.328394 -0.155986,-0.615738 -0.180617,-0.295554 -0.615738,-0.295554 -0.394072,0 -0.599318,0.262715 -0.205246,0.262715 -0.254505,0.648577 z"
           style="font-style:normal;font-variant:normal;font-weight:600;font-stretch:normal;font-size:8.2098341px;line-height:1.25;font-family:'Zilla Slab';-inkscape-font-specification:'Zilla Slab Semi-Bold';text-align:start;text-anchor:start;fill:#000000;fill-opacity:1;stroke-width:0.24156879px"
           id="path10485" />
        <path
           d="m 58.150825,82.407534 q 0,0.779935 -0.410492,1.395672 -0.410492,0.615738 -1.264314,0.615738 -0.870243,0 -1.223266,-0.656787 -0.01642,0.09852 -0.04105,0.287344 -0.02463,0.188826 -0.04105,0.287344 h -0.870242 q 0.04926,-0.270924 0.09031,-0.550058 0.04105,-0.287345 0.04105,-0.558269 V 79.361686 H 53.881711 V 78.68848 h 1.420301 v 2.692825 q 0.164197,-0.328393 0.459751,-0.566478 0.303764,-0.238086 0.812774,-0.238086 0.697836,0 1.132957,0.484381 0.443331,0.47617 0.443331,1.346412 z m -0.911292,0.07389 q 0,-0.582898 -0.262714,-0.886662 -0.262715,-0.311974 -0.673207,-0.311974 -0.46796,0 -0.730675,0.344813 -0.262715,0.344813 -0.270925,0.747095 v 0.262715 q 0,0.451541 0.262715,0.771724 0.270925,0.311974 0.706046,0.311974 0.459751,0 0.714255,-0.336603 0.254505,-0.336604 0.254505,-0.903082 z"
           style="font-style:normal;font-variant:normal;font-weight:600;font-stretch:normal;font-size:8.2098341px;line-height:1.25;font-family:'Zilla Slab';-inkscape-font-specification:'Zilla Slab Semi-Bold';text-align:start;text-anchor:start;fill:#000000;fill-opacity:1;stroke-width:0.24156879px"
           id="path10487" />
        <path
           d="m 63.084935,80.740938 -0.788144,0.06568 -0.164197,-1.02623 h -1.042649 v 3.776524 h 0.894872 v 0.779934 h -2.668196 v -0.779934 h 0.862032 v -3.776524 h -1.050858 l -0.164197,1.02623 -0.779934,-0.06568 0.164196,-1.740485 h 4.572878 z"
           style="font-style:normal;font-variant:normal;font-weight:600;font-stretch:normal;font-size:8.2098341px;line-height:1.25;font-family:'Zilla Slab';-inkscape-font-specification:'Zilla Slab Semi-Bold';text-align:start;text-anchor:start;fill:#000000;fill-opacity:1;stroke-width:0.24156879px"
           id="path10489" />
        <path
           d="m 67.868575,84.336845 h -1.97857 v -0.673206 h 0.550059 v -1.444931 q 0,-0.525429 -0.197036,-0.738885 -0.197036,-0.221665 -0.533639,-0.221665 -0.402282,0 -0.640367,0.262714 -0.238086,0.262715 -0.254505,0.640367 v 1.5024 h 0.541849 v 0.673206 h -1.97036 v -0.673206 h 0.550058 V 79.361686 H 63.386006 V 78.68848 h 1.428511 v 2.569678 q 0.377652,-0.681417 1.223265,-0.681417 0.533639,0 0.903082,0.320184 0.377652,0.320183 0.377652,1.0016 v 1.765114 h 0.550059 z"
           style="font-style:normal;font-variant:normal;font-weight:600;font-stretch:normal;font-size:8.2098341px;line-height:1.25;font-family:'Zilla Slab';-inkscape-font-specification:'Zilla Slab Semi-Bold';text-align:start;text-anchor:start;fill:#000000;fill-opacity:1;stroke-width:0.24156879px"
           id="path10491" />
        <path
           d="m 68.724579,79.887115 v -0.96876 h 0.894871 v 0.96876 z m 1.46956,4.44973 h -1.97036 v -0.673206 h 0.550059 V 81.332046 H 68.190939 V 80.65063 h 1.453141 v 3.013009 h 0.550059 z"
           style="font-style:normal;font-variant:normal;font-weight:600;font-stretch:normal;font-size:8.2098341px;line-height:1.25;font-family:'Zilla Slab';-inkscape-font-specification:'Zilla Slab Semi-Bold';text-align:start;text-anchor:start;fill:#000000;fill-opacity:1;stroke-width:0.24156879px"
           id="path10493" />
        <path
           d="m 75.078733,84.336845 h -1.970361 v -0.673206 h 0.541849 v -1.444931 q 0,-0.525429 -0.188826,-0.738885 -0.188826,-0.221665 -0.525429,-0.221665 -0.418702,0 -0.664997,0.270924 -0.238085,0.270925 -0.246295,0.664997 v 1.46956 h 0.550059 v 0.673206 h -1.97857 v -0.673206 h 0.550059 V 81.332046 H 70.571534 V 80.65063 h 1.45314 v 0.599318 q 0.385863,-0.673207 1.223266,-0.673207 0.525429,0 0.903081,0.320184 0.377653,0.320183 0.377653,1.0016 v 1.765114 h 0.550059 z"
           style="font-style:normal;font-variant:normal;font-weight:600;font-stretch:normal;font-size:8.2098341px;line-height:1.25;font-family:'Zilla Slab';-inkscape-font-specification:'Zilla Slab Semi-Bold';text-align:start;text-anchor:start;fill:#000000;fill-opacity:1;stroke-width:0.24156879px"
           id="path10495" />
        <path
           d="M 79.651099,81.332046 H 79.11746 v 2.865232 q 0,0.878452 -0.49259,1.420302 -0.484381,0.541849 -1.453141,0.541849 -0.574688,0 -1.075488,-0.246295 -0.5008,-0.246295 -0.706046,-0.845613 l 0.681416,-0.369443 q 0.344813,0.755305 1.116538,0.755305 0.45975,0 0.755304,-0.328394 0.295554,-0.328393 0.295554,-0.935921 v -0.550059 q -0.155986,0.295555 -0.45154,0.50901 -0.287345,0.205246 -0.796354,0.205246 -0.648577,0 -1.124748,-0.451541 -0.46796,-0.459751 -0.46796,-1.329993 0,-0.788144 0.418701,-1.387462 0.426912,-0.607528 1.231476,-0.607528 0.837403,0 1.190425,0.648577 V 80.65063 h 1.412092 z m -1.412092,1.247895 v -0.295554 q 0,-0.459751 -0.262714,-0.730675 -0.262715,-0.270925 -0.656787,-0.270925 -0.459751,0 -0.706046,0.336603 -0.246295,0.328394 -0.246295,0.894872 0,0.582898 0.246295,0.862033 0.246295,0.270924 0.623948,0.270924 0.46796,0 0.730675,-0.328393 0.270924,-0.328393 0.270924,-0.738885 z"
           style="font-style:normal;font-variant:normal;font-weight:600;font-stretch:normal;font-size:8.2098341px;line-height:1.25;font-family:'Zilla Slab';-inkscape-font-specification:'Zilla Slab Semi-Bold';text-align:start;text-anchor:start;fill:#000000;fill-opacity:1;stroke-width:0.24156879px"
           id="path10497" />
        <path
           d="m 83.226863,83.236728 q 0,0.574688 -0.47617,0.878452 -0.467961,0.303764 -1.198636,0.303764 -0.394072,0 -0.796354,-0.09031 -0.394072,-0.09031 -0.714255,-0.270925 l 0.131357,-0.952341 0.689626,0.06568 -0.0082,0.47617 q 0.155987,0.06568 0.328394,0.09031 0.180616,0.02463 0.320183,0.02463 0.336603,0 0.582898,-0.114938 0.254505,-0.123147 0.254505,-0.361232 0,-0.229876 -0.229875,-0.328394 -0.221666,-0.09852 -0.558269,-0.147777 -0.336603,-0.05747 -0.673206,-0.147777 -0.336604,-0.09852 -0.566479,-0.311973 -0.221665,-0.221666 -0.221665,-0.656787 0,-0.640367 0.48438,-0.878452 0.49259,-0.238086 1.034439,-0.238086 0.714255,0 1.346413,0.336604 l 0.09031,0.911291 -0.689626,0.0821 -0.07389,-0.550059 q -0.320183,-0.123148 -0.648577,-0.123148 -0.254504,0 -0.435121,0.106728 -0.172406,0.09852 -0.172406,0.320183 0,0.229876 0.221665,0.320184 0.221666,0.09031 0.550059,0.147777 0.328393,0.04926 0.656787,0.147777 0.328393,0.09031 0.550059,0.311974 0.221665,0.213455 0.221665,0.648577 z"
           style="font-style:normal;font-variant:normal;font-weight:600;font-stretch:normal;font-size:8.2098341px;line-height:1.25;font-family:'Zilla Slab';-inkscape-font-specification:'Zilla Slab Semi-Bold';text-align:start;text-anchor:start;fill:#000000;fill-opacity:1;stroke-width:0.24156879px"
           id="path10499" />
      </g>
    </g>
  </g>
</svg>
