<?xml version="1.0" encoding="UTF-8" standalone="no"?>
<svg
   xmlns:dc="http://purl.org/dc/elements/1.1/"
   xmlns:cc="http://creativecommons.org/ns#"
   xmlns:rdf="http://www.w3.org/1999/02/22-rdf-syntax-ns#"
   xmlns:svg="http://www.w3.org/2000/svg"
   xmlns="http://www.w3.org/2000/svg"
   id="svg64491"
   version="1.1"
   viewBox="0 0 87.3125 49.31731"
   height="49.31731mm"
   width="87.3125mm">
  <defs
     id="defs64485" />
  <metadata
     id="metadata64488">
    <rdf:RDF>
      <cc:Work
         rdf:about="">
        <dc:format>image/svg+xml</dc:format>
        <dc:type
           rdf:resource="http://purl.org/dc/dcmitype/StillImage" />
        <dc:title></dc:title>
      </cc:Work>
    </rdf:RDF>
  </metadata>
  <g
     transform="translate(-38.742548,-40.2639)"
     id="layer1">
    <path
       style="opacity:1;fill:#ffffff;fill-opacity:1;stroke:#000000;stroke-width:0;stroke-linejoin:round;stroke-miterlimit:8.80000019;stroke-dasharray:none"
       class="st0"
       d="m 38.742548,76.209621 c 0,7.130104 5.577239,13.37159 12.500805,13.37159 h 62.310887 c 6.92336,0 12.5008,-6.339214 12.5008,-13.37159 0,-7.129097 -5.57744,-13.071354 -12.5008,-13.071354 -0.76913,0 -1.44224,-0.100751 -2.21167,0.10075 -0.38467,-8.7139 -6.82735,-15.646534 -14.616062,-15.646534 -4.51936,0 -8.462226,2.178223 -11.154377,5.743779 C 83.167925,45.710466 76.629225,40.2639 68.93653,40.2639 c -9.712135,0 -17.597061,8.814651 -17.597061,19.709797 0,0.989369 0.09672,2.077473 0.19203,2.970121 -0.09672,0 -0.09672,0.295199 -0.19203,0.295199 -6.923566,-0.197471 -12.596921,5.843522 -12.596921,12.972619 z"
       id="path28278-5" />
    <g
       id="g9580"
       transform="matrix(0.1031748,0,0,0.09691429,63.60875,60.611447)"
       style="fill:#4d4d4d;fill-opacity:1;stroke-width:1.39060009">
      <g
         id="g9548"
         style="fill:#4d4d4d;fill-opacity:1;stroke-width:1.39060009">
        <path
           id="path9546"
           d="M 94.668697,-1.884925e-6 H 13.334539 C 11.97577,-1.884925e-6 10.873,1.1027674 10.873,2.4615367 V 89.366465 c 0,1.358769 1.10277,2.461538 2.461539,2.461538 h 23.846155 c 1.358769,0 2.461539,-1.102769 2.461539,-2.461538 V 69.780002 h 28.71754 v 19.586463 c 0,1.358769 1.102769,2.461538 2.461538,2.461538 h 23.846156 c 1.358769,0 2.461538,-1.102769 2.461538,-2.461538 V 2.4615367 C 97.130236,1.1015366 96.026236,-1.884925e-6 94.668697,-1.884925e-6 Z M 38.103771,51.420616 c 0,1.020308 -0.825846,1.846154 -1.846154,1.846154 h -10.97477 c -1.020307,0 -1.846154,-0.825846 -1.846154,-1.846154 V 40.445847 c 0,-1.020308 0.825847,-1.846154 1.846154,-1.846154 h 10.97477 c 1.020308,0 1.846154,0.825846 1.846154,1.846154 z m 0,-23.23077 c 0,1.020308 -0.825846,1.846154 -1.846154,1.846154 h -10.97477 c -1.020307,0 -1.846154,-0.825846 -1.846154,-1.846154 v -10.97477 c 0,-1.020308 0.825847,-1.846154 1.846154,-1.846154 h 10.97477 c 1.020308,0 1.846154,0.825846 1.846154,1.846154 z m 23.230771,23.23077 c 0,1.020308 -0.825847,1.846154 -1.846154,1.846154 h -10.97477 c -1.020308,0 -1.846154,-0.825846 -1.846154,-1.846154 V 40.445847 c 0,-1.020308 0.825846,-1.846154 1.846154,-1.846154 h 10.97477 c 1.020307,0 1.846154,0.825846 1.846154,1.846154 z m 0,-23.23077 c 0,1.020308 -0.825847,1.846154 -1.846154,1.846154 h -10.97477 c -1.020308,0 -1.846154,-0.825846 -1.846154,-1.846154 v -10.97477 c 0,-1.020308 0.825846,-1.846154 1.846154,-1.846154 h 10.97477 c 1.020307,0 1.846154,0.825846 1.846154,1.846154 z m 23.23077,23.23077 c 0,1.020308 -0.825846,1.846154 -1.846154,1.846154 h -10.97477 c -1.020307,0 -1.846154,-0.825846 -1.846154,-1.846154 V 40.445847 c 0,-1.020308 0.825847,-1.846154 1.846154,-1.846154 h 10.97477 c 1.020308,0 1.846154,0.825846 1.846154,1.846154 z m 0,-23.23077 c 0,1.020308 -0.825846,1.846154 -1.846154,1.846154 h -10.97477 c -1.020307,0 -1.846154,-0.825846 -1.846154,-1.846154 v -10.97477 c 0,-1.020308 0.825847,-1.846154 1.846154,-1.846154 h 10.97477 c 1.020308,0 1.846154,0.825846 1.846154,1.846154 z"
           style="fill:#4d4d4d;fill-opacity:1;stroke-width:1.39060009" />
      </g>
      <g
         id="g9550"
         style="fill:#4d4d4d;fill-opacity:1;stroke-width:1.39060009" />
      <g
         id="g9552"
         style="fill:#4d4d4d;fill-opacity:1;stroke-width:1.39060009" />
      <g
         id="g9554"
         style="fill:#4d4d4d;fill-opacity:1;stroke-width:1.39060009" />
      <g
         id="g9556"
         style="fill:#4d4d4d;fill-opacity:1;stroke-width:1.39060009" />
      <g
         id="g9558"
         style="fill:#4d4d4d;fill-opacity:1;stroke-width:1.39060009" />
      <g
         id="g9560"
         style="fill:#4d4d4d;fill-opacity:1;stroke-width:1.39060009" />
      <g
         id="g9562"
         style="fill:#4d4d4d;fill-opacity:1;stroke-width:1.39060009" />
      <g
         id="g9564"
         style="fill:#4d4d4d;fill-opacity:1;stroke-width:1.39060009" />
      <g
         id="g9566"
         style="fill:#4d4d4d;fill-opacity:1;stroke-width:1.39060009" />
      <g
         id="g9568"
         style="fill:#4d4d4d;fill-opacity:1;stroke-width:1.39060009" />
      <g
         id="g9570"
         style="fill:#4d4d4d;fill-opacity:1;stroke-width:1.39060009" />
      <g
         id="g9572"
         style="fill:#4d4d4d;fill-opacity:1;stroke-width:1.39060009" />
      <g
         id="g9574"
         style="fill:#4d4d4d;fill-opacity:1;stroke-width:1.39060009" />
      <g
         id="g9576"
         style="fill:#4d4d4d;fill-opacity:1;stroke-width:1.39060009" />
      <g
         id="g9578"
         style="fill:#4d4d4d;fill-opacity:1;stroke-width:1.39060009" />
    </g>
    <g
       style="fill:#4d4d4d;fill-opacity:1;stroke-width:1.39060009"
       transform="matrix(0.1031748,0,0,0.09691429,76.700355,60.611447)"
       id="g9643">
      <g
         style="fill:#4d4d4d;fill-opacity:1;stroke-width:1.39060009"
         id="g9611">
        <path
           style="fill:#4d4d4d;fill-opacity:1;stroke-width:1.39060009"
           d="M 94.668697,-1.884925e-6 H 13.334539 C 11.97577,-1.884925e-6 10.873,1.1027674 10.873,2.4615367 V 89.366465 c 0,1.358769 1.10277,2.461538 2.461539,2.461538 h 23.846155 c 1.358769,0 2.461539,-1.102769 2.461539,-2.461538 V 69.780002 h 28.71754 v 19.586463 c 0,1.358769 1.102769,2.461538 2.461538,2.461538 h 23.846156 c 1.358769,0 2.461538,-1.102769 2.461538,-2.461538 V 2.4615367 C 97.130236,1.1015366 96.026236,-1.884925e-6 94.668697,-1.884925e-6 Z M 38.103771,51.420616 c 0,1.020308 -0.825846,1.846154 -1.846154,1.846154 h -10.97477 c -1.020307,0 -1.846154,-0.825846 -1.846154,-1.846154 V 40.445847 c 0,-1.020308 0.825847,-1.846154 1.846154,-1.846154 h 10.97477 c 1.020308,0 1.846154,0.825846 1.846154,1.846154 z m 0,-23.23077 c 0,1.020308 -0.825846,1.846154 -1.846154,1.846154 h -10.97477 c -1.020307,0 -1.846154,-0.825846 -1.846154,-1.846154 v -10.97477 c 0,-1.020308 0.825847,-1.846154 1.846154,-1.846154 h 10.97477 c 1.020308,0 1.846154,0.825846 1.846154,1.846154 z m 23.230771,23.23077 c 0,1.020308 -0.825847,1.846154 -1.846154,1.846154 h -10.97477 c -1.020308,0 -1.846154,-0.825846 -1.846154,-1.846154 V 40.445847 c 0,-1.020308 0.825846,-1.846154 1.846154,-1.846154 h 10.97477 c 1.020307,0 1.846154,0.825846 1.846154,1.846154 z m 0,-23.23077 c 0,1.020308 -0.825847,1.846154 -1.846154,1.846154 h -10.97477 c -1.020308,0 -1.846154,-0.825846 -1.846154,-1.846154 v -10.97477 c 0,-1.020308 0.825846,-1.846154 1.846154,-1.846154 h 10.97477 c 1.020307,0 1.846154,0.825846 1.846154,1.846154 z m 23.23077,23.23077 c 0,1.020308 -0.825846,1.846154 -1.846154,1.846154 h -10.97477 c -1.020307,0 -1.846154,-0.825846 -1.846154,-1.846154 V 40.445847 c 0,-1.020308 0.825847,-1.846154 1.846154,-1.846154 h 10.97477 c 1.020308,0 1.846154,0.825846 1.846154,1.846154 z m 0,-23.23077 c 0,1.020308 -0.825846,1.846154 -1.846154,1.846154 h -10.97477 c -1.020307,0 -1.846154,-0.825846 -1.846154,-1.846154 v -10.97477 c 0,-1.020308 0.825847,-1.846154 1.846154,-1.846154 h 10.97477 c 1.020308,0 1.846154,0.825846 1.846154,1.846154 z"
           id="path9609" />
      </g>
      <g
         style="fill:#4d4d4d;fill-opacity:1;stroke-width:1.39060009"
         id="g9613" />
      <g
         style="fill:#4d4d4d;fill-opacity:1;stroke-width:1.39060009"
         id="g9615" />
      <g
         style="fill:#4d4d4d;fill-opacity:1;stroke-width:1.39060009"
         id="g9617" />
      <g
         style="fill:#4d4d4d;fill-opacity:1;stroke-width:1.39060009"
         id="g9619" />
      <g
         style="fill:#4d4d4d;fill-opacity:1;stroke-width:1.39060009"
         id="g9621" />
      <g
         style="fill:#4d4d4d;fill-opacity:1;stroke-width:1.39060009"
         id="g9623" />
      <g
         style="fill:#4d4d4d;fill-opacity:1;stroke-width:1.39060009"
         id="g9625" />
      <g
         style="fill:#4d4d4d;fill-opacity:1;stroke-width:1.39060009"
         id="g9627" />
      <g
         style="fill:#4d4d4d;fill-opacity:1;stroke-width:1.39060009"
         id="g9629" />
      <g
         style="fill:#4d4d4d;fill-opacity:1;stroke-width:1.39060009"
         id="g9631" />
      <g
         style="fill:#4d4d4d;fill-opacity:1;stroke-width:1.39060009"
         id="g9633" />
      <g
         style="fill:#4d4d4d;fill-opacity:1;stroke-width:1.39060009"
         id="g9635" />
      <g
         style="fill:#4d4d4d;fill-opacity:1;stroke-width:1.39060009"
         id="g9637" />
      <g
         style="fill:#4d4d4d;fill-opacity:1;stroke-width:1.39060009"
         id="g9639" />
      <g
         style="fill:#4d4d4d;fill-opacity:1;stroke-width:1.39060009"
         id="g9641" />
    </g>
    <g
       id="g9680"
       transform="matrix(0.1031748,0,0,0.09691429,90.04575,60.372669)"
       style="fill:#4d4d4d;fill-opacity:1;stroke-width:1.39060009">
      <g
         id="g9647"
         style="fill:#4d4d4d;fill-opacity:1;stroke-width:1.39060009">
        <path
           id="path9645"
           d="M 94.668697,-1.884925e-6 H 13.334539 C 11.97577,-1.884925e-6 10.873,1.1027674 10.873,2.4615367 V 89.366465 c 0,1.358769 1.10277,2.461538 2.461539,2.461538 h 23.846155 c 1.358769,0 2.461539,-1.102769 2.461539,-2.461538 V 69.780002 h 28.71754 v 19.586463 c 0,1.358769 1.102769,2.461538 2.461538,2.461538 h 23.846156 c 1.358769,0 2.461538,-1.102769 2.461538,-2.461538 V 2.4615367 C 97.130236,1.1015366 96.026236,-1.884925e-6 94.668697,-1.884925e-6 Z M 38.103771,51.420616 c 0,1.020308 -0.825846,1.846154 -1.846154,1.846154 h -10.97477 c -1.020307,0 -1.846154,-0.825846 -1.846154,-1.846154 V 40.445847 c 0,-1.020308 0.825847,-1.846154 1.846154,-1.846154 h 10.97477 c 1.020308,0 1.846154,0.825846 1.846154,1.846154 z m 0,-23.23077 c 0,1.020308 -0.825846,1.846154 -1.846154,1.846154 h -10.97477 c -1.020307,0 -1.846154,-0.825846 -1.846154,-1.846154 v -10.97477 c 0,-1.020308 0.825847,-1.846154 1.846154,-1.846154 h 10.97477 c 1.020308,0 1.846154,0.825846 1.846154,1.846154 z m 23.230771,23.23077 c 0,1.020308 -0.825847,1.846154 -1.846154,1.846154 h -10.97477 c -1.020308,0 -1.846154,-0.825846 -1.846154,-1.846154 V 40.445847 c 0,-1.020308 0.825846,-1.846154 1.846154,-1.846154 h 10.97477 c 1.020307,0 1.846154,0.825846 1.846154,1.846154 z m 0,-23.23077 c 0,1.020308 -0.825847,1.846154 -1.846154,1.846154 h -10.97477 c -1.020308,0 -1.846154,-0.825846 -1.846154,-1.846154 v -10.97477 c 0,-1.020308 0.825846,-1.846154 1.846154,-1.846154 h 10.97477 c 1.020307,0 1.846154,0.825846 1.846154,1.846154 z m 23.23077,23.23077 c 0,1.020308 -0.825846,1.846154 -1.846154,1.846154 h -10.97477 c -1.020307,0 -1.846154,-0.825846 -1.846154,-1.846154 V 40.445847 c 0,-1.020308 0.825847,-1.846154 1.846154,-1.846154 h 10.97477 c 1.020308,0 1.846154,0.825846 1.846154,1.846154 z m 0,-23.23077 c 0,1.020308 -0.825846,1.846154 -1.846154,1.846154 h -10.97477 c -1.020307,0 -1.846154,-0.825846 -1.846154,-1.846154 v -10.97477 c 0,-1.020308 0.825847,-1.846154 1.846154,-1.846154 h 10.97477 c 1.020308,0 1.846154,0.825846 1.846154,1.846154 z"
           style="fill:#4d4d4d;fill-opacity:1;stroke-width:1.39060009" />
      </g>
      <g
         id="g9649"
         style="fill:#4d4d4d;fill-opacity:1;stroke-width:1.39060009" />
      <g
         id="g9651"
         style="fill:#4d4d4d;fill-opacity:1;stroke-width:1.39060009" />
      <g
         id="g9653"
         style="fill:#4d4d4d;fill-opacity:1;stroke-width:1.39060009" />
      <g
         id="g9655"
         style="fill:#4d4d4d;fill-opacity:1;stroke-width:1.39060009" />
      <g
         id="g9658"
         style="fill:#4d4d4d;fill-opacity:1;stroke-width:1.39060009" />
      <g
         id="g9660"
         style="fill:#4d4d4d;fill-opacity:1;stroke-width:1.39060009" />
      <g
         id="g9662"
         style="fill:#4d4d4d;fill-opacity:1;stroke-width:1.39060009" />
      <g
         id="g9664"
         style="fill:#4d4d4d;fill-opacity:1;stroke-width:1.39060009" />
      <g
         id="g9666"
         style="fill:#4d4d4d;fill-opacity:1;stroke-width:1.39060009" />
      <g
         id="g9668"
         style="fill:#4d4d4d;fill-opacity:1;stroke-width:1.39060009" />
      <g
         id="g9670"
         style="fill:#4d4d4d;fill-opacity:1;stroke-width:1.39060009" />
      <g
         id="g9672"
         style="fill:#4d4d4d;fill-opacity:1;stroke-width:1.39060009" />
      <g
         id="g9674"
         style="fill:#4d4d4d;fill-opacity:1;stroke-width:1.39060009" />
      <g
         id="g9676"
         style="fill:#4d4d4d;fill-opacity:1;stroke-width:1.39060009" />
      <g
         id="g9678"
         style="fill:#4d4d4d;fill-opacity:1;stroke-width:1.39060009" />
    </g>
    <g
       style="fill:#4d4d4d;fill-opacity:1;stroke-width:1.39060009"
       transform="matrix(0.1031748,0,0,0.09691429,63.60875,74.210733)"
       id="g9717">
      <g
         style="fill:#4d4d4d;fill-opacity:1;stroke-width:1.39060009"
         id="g9684">
        <path
           style="fill:#4d4d4d;fill-opacity:1;stroke-width:1.39060009"
           d="M 94.668697,-1.884925e-6 H 13.334539 C 11.97577,-1.884925e-6 10.873,1.1027674 10.873,2.4615367 V 89.366465 c 0,1.358769 1.10277,2.461538 2.461539,2.461538 h 23.846155 c 1.358769,0 2.461539,-1.102769 2.461539,-2.461538 V 69.780002 h 28.71754 v 19.586463 c 0,1.358769 1.102769,2.461538 2.461538,2.461538 h 23.846156 c 1.358769,0 2.461538,-1.102769 2.461538,-2.461538 V 2.4615367 C 97.130236,1.1015366 96.026236,-1.884925e-6 94.668697,-1.884925e-6 Z M 38.103771,51.420616 c 0,1.020308 -0.825846,1.846154 -1.846154,1.846154 h -10.97477 c -1.020307,0 -1.846154,-0.825846 -1.846154,-1.846154 V 40.445847 c 0,-1.020308 0.825847,-1.846154 1.846154,-1.846154 h 10.97477 c 1.020308,0 1.846154,0.825846 1.846154,1.846154 z m 0,-23.23077 c 0,1.020308 -0.825846,1.846154 -1.846154,1.846154 h -10.97477 c -1.020307,0 -1.846154,-0.825846 -1.846154,-1.846154 v -10.97477 c 0,-1.020308 0.825847,-1.846154 1.846154,-1.846154 h 10.97477 c 1.020308,0 1.846154,0.825846 1.846154,1.846154 z m 23.230771,23.23077 c 0,1.020308 -0.825847,1.846154 -1.846154,1.846154 h -10.97477 c -1.020308,0 -1.846154,-0.825846 -1.846154,-1.846154 V 40.445847 c 0,-1.020308 0.825846,-1.846154 1.846154,-1.846154 h 10.97477 c 1.020307,0 1.846154,0.825846 1.846154,1.846154 z m 0,-23.23077 c 0,1.020308 -0.825847,1.846154 -1.846154,1.846154 h -10.97477 c -1.020308,0 -1.846154,-0.825846 -1.846154,-1.846154 v -10.97477 c 0,-1.020308 0.825846,-1.846154 1.846154,-1.846154 h 10.97477 c 1.020307,0 1.846154,0.825846 1.846154,1.846154 z m 23.23077,23.23077 c 0,1.020308 -0.825846,1.846154 -1.846154,1.846154 h -10.97477 c -1.020307,0 -1.846154,-0.825846 -1.846154,-1.846154 V 40.445847 c 0,-1.020308 0.825847,-1.846154 1.846154,-1.846154 h 10.97477 c 1.020308,0 1.846154,0.825846 1.846154,1.846154 z m 0,-23.23077 c 0,1.020308 -0.825846,1.846154 -1.846154,1.846154 h -10.97477 c -1.020307,0 -1.846154,-0.825846 -1.846154,-1.846154 v -10.97477 c 0,-1.020308 0.825847,-1.846154 1.846154,-1.846154 h 10.97477 c 1.020308,0 1.846154,0.825846 1.846154,1.846154 z"
           id="path9682" />
      </g>
      <g
         style="fill:#4d4d4d;fill-opacity:1;stroke-width:1.39060009"
         id="g9686" />
      <g
         style="fill:#4d4d4d;fill-opacity:1;stroke-width:1.39060009"
         id="g9688" />
      <g
         style="fill:#4d4d4d;fill-opacity:1;stroke-width:1.39060009"
         id="g9690" />
      <g
         style="fill:#4d4d4d;fill-opacity:1;stroke-width:1.39060009"
         id="g9692" />
      <g
         style="fill:#4d4d4d;fill-opacity:1;stroke-width:1.39060009"
         id="g9694" />
      <g
         style="fill:#4d4d4d;fill-opacity:1;stroke-width:1.39060009"
         id="g9697" />
      <g
         style="fill:#4d4d4d;fill-opacity:1;stroke-width:1.39060009"
         id="g9699" />
      <g
         style="fill:#4d4d4d;fill-opacity:1;stroke-width:1.39060009"
         id="g9701" />
      <g
         style="fill:#4d4d4d;fill-opacity:1;stroke-width:1.39060009"
         id="g9703" />
      <g
         style="fill:#4d4d4d;fill-opacity:1;stroke-width:1.39060009"
         id="g9705" />
      <g
         style="fill:#4d4d4d;fill-opacity:1;stroke-width:1.39060009"
         id="g9707" />
      <g
         style="fill:#4d4d4d;fill-opacity:1;stroke-width:1.39060009"
         id="g9709" />
      <g
         style="fill:#4d4d4d;fill-opacity:1;stroke-width:1.39060009"
         id="g9711" />
      <g
         style="fill:#4d4d4d;fill-opacity:1;stroke-width:1.39060009"
         id="g9713" />
      <g
         style="fill:#4d4d4d;fill-opacity:1;stroke-width:1.39060009"
         id="g9715" />
    </g>
    <g
       id="g9753"
       transform="matrix(0.1031748,0,0,0.09691429,76.700355,74.210733)"
       style="fill:#4d4d4d;fill-opacity:1;stroke-width:1.39060009">
      <g
         id="g9721"
         style="fill:#4d4d4d;fill-opacity:1;stroke-width:1.39060009">
        <path
           id="path9719"
           d="M 94.668697,-1.884925e-6 H 13.334539 C 11.97577,-1.884925e-6 10.873,1.1027674 10.873,2.4615367 V 89.366465 c 0,1.358769 1.10277,2.461538 2.461539,2.461538 h 23.846155 c 1.358769,0 2.461539,-1.102769 2.461539,-2.461538 V 69.780002 h 28.71754 v 19.586463 c 0,1.358769 1.102769,2.461538 2.461538,2.461538 h 23.846156 c 1.358769,0 2.461538,-1.102769 2.461538,-2.461538 V 2.4615367 C 97.130236,1.1015366 96.026236,-1.884925e-6 94.668697,-1.884925e-6 Z M 38.103771,51.420616 c 0,1.020308 -0.825846,1.846154 -1.846154,1.846154 h -10.97477 c -1.020307,0 -1.846154,-0.825846 -1.846154,-1.846154 V 40.445847 c 0,-1.020308 0.825847,-1.846154 1.846154,-1.846154 h 10.97477 c 1.020308,0 1.846154,0.825846 1.846154,1.846154 z m 0,-23.23077 c 0,1.020308 -0.825846,1.846154 -1.846154,1.846154 h -10.97477 c -1.020307,0 -1.846154,-0.825846 -1.846154,-1.846154 v -10.97477 c 0,-1.020308 0.825847,-1.846154 1.846154,-1.846154 h 10.97477 c 1.020308,0 1.846154,0.825846 1.846154,1.846154 z m 23.230771,23.23077 c 0,1.020308 -0.825847,1.846154 -1.846154,1.846154 h -10.97477 c -1.020308,0 -1.846154,-0.825846 -1.846154,-1.846154 V 40.445847 c 0,-1.020308 0.825846,-1.846154 1.846154,-1.846154 h 10.97477 c 1.020307,0 1.846154,0.825846 1.846154,1.846154 z m 0,-23.23077 c 0,1.020308 -0.825847,1.846154 -1.846154,1.846154 h -10.97477 c -1.020308,0 -1.846154,-0.825846 -1.846154,-1.846154 v -10.97477 c 0,-1.020308 0.825846,-1.846154 1.846154,-1.846154 h 10.97477 c 1.020307,0 1.846154,0.825846 1.846154,1.846154 z m 23.23077,23.23077 c 0,1.020308 -0.825846,1.846154 -1.846154,1.846154 h -10.97477 c -1.020307,0 -1.846154,-0.825846 -1.846154,-1.846154 V 40.445847 c 0,-1.020308 0.825847,-1.846154 1.846154,-1.846154 h 10.97477 c 1.020308,0 1.846154,0.825846 1.846154,1.846154 z m 0,-23.23077 c 0,1.020308 -0.825846,1.846154 -1.846154,1.846154 h -10.97477 c -1.020307,0 -1.846154,-0.825846 -1.846154,-1.846154 v -10.97477 c 0,-1.020308 0.825847,-1.846154 1.846154,-1.846154 h 10.97477 c 1.020308,0 1.846154,0.825846 1.846154,1.846154 z"
           style="fill:#4d4d4d;fill-opacity:1;stroke-width:1.39060009" />
      </g>
      <g
         id="g9723"
         style="fill:#4d4d4d;fill-opacity:1;stroke-width:1.39060009" />
      <g
         id="g9725"
         style="fill:#4d4d4d;fill-opacity:1;stroke-width:1.39060009" />
      <g
         id="g9727"
         style="fill:#4d4d4d;fill-opacity:1;stroke-width:1.39060009" />
      <g
         id="g9729"
         style="fill:#4d4d4d;fill-opacity:1;stroke-width:1.39060009" />
      <g
         id="g9731"
         style="fill:#4d4d4d;fill-opacity:1;stroke-width:1.39060009" />
      <g
         id="g9733"
         style="fill:#4d4d4d;fill-opacity:1;stroke-width:1.39060009" />
      <g
         id="g9735"
         style="fill:#4d4d4d;fill-opacity:1;stroke-width:1.39060009" />
      <g
         id="g9737"
         style="fill:#4d4d4d;fill-opacity:1;stroke-width:1.39060009" />
      <g
         id="g9739"
         style="fill:#4d4d4d;fill-opacity:1;stroke-width:1.39060009" />
      <g
         id="g9741"
         style="fill:#4d4d4d;fill-opacity:1;stroke-width:1.39060009" />
      <g
         id="g9743"
         style="fill:#4d4d4d;fill-opacity:1;stroke-width:1.39060009" />
      <g
         id="g9745"
         style="fill:#4d4d4d;fill-opacity:1;stroke-width:1.39060009" />
      <g
         id="g9747"
         style="fill:#4d4d4d;fill-opacity:1;stroke-width:1.39060009" />
      <g
         id="g9749"
         style="fill:#4d4d4d;fill-opacity:1;stroke-width:1.39060009" />
      <g
         id="g9751"
         style="fill:#4d4d4d;fill-opacity:1;stroke-width:1.39060009" />
    </g>
    <g
       style="fill:#4d4d4d;fill-opacity:1;stroke-width:1.39060009"
       transform="matrix(0.1031748,0,0,0.09691429,89.791859,74.210733)"
       id="g9789">
      <g
         style="fill:#4d4d4d;fill-opacity:1;stroke-width:1.39060009"
         id="g9757">
        <path
           style="fill:#4d4d4d;fill-opacity:1;stroke-width:1.39060009"
           d="M 94.668697,-1.884925e-6 H 13.334539 C 11.97577,-1.884925e-6 10.873,1.1027674 10.873,2.4615367 V 89.366465 c 0,1.358769 1.10277,2.461538 2.461539,2.461538 h 23.846155 c 1.358769,0 2.461539,-1.102769 2.461539,-2.461538 V 69.780002 h 28.71754 v 19.586463 c 0,1.358769 1.102769,2.461538 2.461538,2.461538 h 23.846156 c 1.358769,0 2.461538,-1.102769 2.461538,-2.461538 V 2.4615367 C 97.130236,1.1015366 96.026236,-1.884925e-6 94.668697,-1.884925e-6 Z M 38.103771,51.420616 c 0,1.020308 -0.825846,1.846154 -1.846154,1.846154 h -10.97477 c -1.020307,0 -1.846154,-0.825846 -1.846154,-1.846154 V 40.445847 c 0,-1.020308 0.825847,-1.846154 1.846154,-1.846154 h 10.97477 c 1.020308,0 1.846154,0.825846 1.846154,1.846154 z m 0,-23.23077 c 0,1.020308 -0.825846,1.846154 -1.846154,1.846154 h -10.97477 c -1.020307,0 -1.846154,-0.825846 -1.846154,-1.846154 v -10.97477 c 0,-1.020308 0.825847,-1.846154 1.846154,-1.846154 h 10.97477 c 1.020308,0 1.846154,0.825846 1.846154,1.846154 z m 23.230771,23.23077 c 0,1.020308 -0.825847,1.846154 -1.846154,1.846154 h -10.97477 c -1.020308,0 -1.846154,-0.825846 -1.846154,-1.846154 V 40.445847 c 0,-1.020308 0.825846,-1.846154 1.846154,-1.846154 h 10.97477 c 1.020307,0 1.846154,0.825846 1.846154,1.846154 z m 0,-23.23077 c 0,1.020308 -0.825847,1.846154 -1.846154,1.846154 h -10.97477 c -1.020308,0 -1.846154,-0.825846 -1.846154,-1.846154 v -10.97477 c 0,-1.020308 0.825846,-1.846154 1.846154,-1.846154 h 10.97477 c 1.020307,0 1.846154,0.825846 1.846154,1.846154 z m 23.23077,23.23077 c 0,1.020308 -0.825846,1.846154 -1.846154,1.846154 h -10.97477 c -1.020307,0 -1.846154,-0.825846 -1.846154,-1.846154 V 40.445847 c 0,-1.020308 0.825847,-1.846154 1.846154,-1.846154 h 10.97477 c 1.020308,0 1.846154,0.825846 1.846154,1.846154 z m 0,-23.23077 c 0,1.020308 -0.825846,1.846154 -1.846154,1.846154 h -10.97477 c -1.020307,0 -1.846154,-0.825846 -1.846154,-1.846154 v -10.97477 c 0,-1.020308 0.825847,-1.846154 1.846154,-1.846154 h 10.97477 c 1.020308,0 1.846154,0.825846 1.846154,1.846154 z"
           id="path9755" />
      </g>
      <g
         style="fill:#4d4d4d;fill-opacity:1;stroke-width:1.39060009"
         id="g9759" />
      <g
         style="fill:#4d4d4d;fill-opacity:1;stroke-width:1.39060009"
         id="g9761" />
      <g
         style="fill:#4d4d4d;fill-opacity:1;stroke-width:1.39060009"
         id="g9763" />
      <g
         style="fill:#4d4d4d;fill-opacity:1;stroke-width:1.39060009"
         id="g9765" />
      <g
         style="fill:#4d4d4d;fill-opacity:1;stroke-width:1.39060009"
         id="g9767" />
      <g
         style="fill:#4d4d4d;fill-opacity:1;stroke-width:1.39060009"
         id="g9769" />
      <g
         style="fill:#4d4d4d;fill-opacity:1;stroke-width:1.39060009"
         id="g9771" />
      <g
         style="fill:#4d4d4d;fill-opacity:1;stroke-width:1.39060009"
         id="g9773" />
      <g
         style="fill:#4d4d4d;fill-opacity:1;stroke-width:1.39060009"
         id="g9775" />
      <g
         style="fill:#4d4d4d;fill-opacity:1;stroke-width:1.39060009"
         id="g9777" />
      <g
         style="fill:#4d4d4d;fill-opacity:1;stroke-width:1.39060009"
         id="g9779" />
      <g
         style="fill:#4d4d4d;fill-opacity:1;stroke-width:1.39060009"
         id="g9781" />
      <g
         style="fill:#4d4d4d;fill-opacity:1;stroke-width:1.39060009"
         id="g9783" />
      <g
         style="fill:#4d4d4d;fill-opacity:1;stroke-width:1.39060009"
         id="g9785" />
      <g
         style="fill:#4d4d4d;fill-opacity:1;stroke-width:1.39060009"
         id="g9787" />
    </g>
  </g>
</svg>
