<?xml version="1.0" encoding="UTF-8" standalone="no"?>
<!-- Created with Inkscape (http://www.inkscape.org/) -->

<svg
   width="63.999996"
   height="63.999996"
   viewBox="0 0 16.933332 16.933332"
   version="1.1"
   id="svg11432"
   xmlns="http://www.w3.org/2000/svg"
   xmlns:svg="http://www.w3.org/2000/svg">
  <defs
     id="defs11429" />
  <g
     id="layer1"
     transform="translate(-69.558763,-69.558667)">
    <g
       aria-label="2"
       transform="matrix(0.20123824,0,0,0.20123824,-261.23575,-3016.4646)"
       id="flowRoot245199-1"
       style="font-size:39.4433px;line-height:1.25;font-family:GoodDog;-inkscape-font-specification:GoodDog;text-align:center;letter-spacing:0px;word-spacing:0px;text-anchor:middle">
      <g
         id="g11656">
        <circle
           r="8.4666662"
           cy="78.025337"
           cx="78.025429"
           id="circle245191-7"
           style="vector-effect:none;fill:#76a142;fill-opacity:1;stroke:none;stroke-width:0.288522;stroke-linecap:butt;stroke-linejoin:miter;stroke-miterlimit:4;stroke-dasharray:none;stroke-dashoffset:0;stroke-opacity:1;paint-order:fill markers stroke"
           transform="matrix(4.9692345,0,0,4.9692345,1298.1417,14989.52)" />
        <path
           d="m 1695.7484,15391.527 h -19.6831 v -4.141 l 7.0682,-7.145 q 3.1393,-3.217 4.1023,-4.449 0.9629,-1.252 1.3866,-2.311 0.4238,-1.06 0.4238,-2.196 0,-1.695 -0.9438,-2.523 -0.9244,-0.828 -2.4844,-0.828 -1.6371,0 -3.1778,0.751 -1.5408,0.751 -3.2164,2.138 l -3.2355,-3.833 q 2.08,-1.772 3.4474,-2.503 1.3674,-0.732 2.9852,-1.117 1.6178,-0.405 3.6208,-0.405 2.6385,0 4.6608,0.963 2.0222,0.963 3.1393,2.696 1.117,1.734 1.117,3.968 0,1.945 -0.6933,3.659 -0.6741,1.695 -2.1186,3.486 -1.4252,1.791 -5.0459,5.104 l -3.6208,3.409 v 0.269 h 12.2682 z"
           style="font-weight:bold;font-family:'open sans';-inkscape-font-specification:'open sans';fill:#ffffff"
           id="path11603" />
      </g>
    </g>
  </g>
</svg>
