<?xml version="1.0" encoding="UTF-8" standalone="no"?>
<!-- Created with Inkscape (http://www.inkscape.org/) -->

<svg
   width="385.08441"
   height="44"
   viewBox="0 0 101.88692 11.641666"
   version="1.1"
   id="svg1"
   xmlns="http://www.w3.org/2000/svg"
   xmlns:svg="http://www.w3.org/2000/svg">
  <defs
     id="defs1" />
  <path
     style="font-weight:bold;font-size:12.4899px;line-height:1.25;font-family:'Arial Rounded MT Bold';-inkscape-font-specification:'Arial Rounded MT Bold, Bold';letter-spacing:0px;word-spacing:0px;fill:#ffffff;stroke-width:0.282222px"
     d="M 4.031162,8.530147 2.561403,6.115108 1.658813,6.96891 v 1.323392 q 0,0.481788 -0.256141,0.744027 Q 1.15263,9.29247 0.823307,9.29247 0.439096,9.29247 0.219547,9.036329 -2e-6,8.780189 -2e-6,8.280105 V 1.181353 q 0,-0.554971 0.21345,-0.841604 0.213451,-0.292732 0.609859,-0.292732 0.38421,0 0.609858,0.262239 0.225648,0.262239 0.225648,0.77452 V 5.121039 L 3.531078,3.157295 Q 3.878697,2.79138 4.061655,2.657211 4.244612,2.523042 4.506851,2.523042 q 0.311028,0 0.51838,0.201253 0.207352,0.195155 0.207352,0.493985 0,0.365915 -0.676943,0.975774 L 3.671345,5.005166 5.378949,7.688542 q 0.189056,0.298831 0.268337,0.457394 0.08538,0.152465 0.08538,0.292732 0,0.396408 -0.219549,0.628154 Q 5.299666,9.29247 4.945948,9.29247 4.641019,9.29247 4.476357,9.127808 4.311696,8.963146 4.031162,8.530147 Z M 8.696578,6.889628 v 1.390477 q 0,0.506182 -0.237844,0.762323 Q 8.220889,9.29247 7.854974,9.29247 7.495157,9.29247 7.263411,9.036329 7.031665,8.780189 7.031665,8.280105 V 3.645181 q 0,-1.122139 0.811112,-1.122139 0.414703,0 0.597661,0.262239 0.182957,0.262239 0.201253,0.77452 0.298831,-0.512281 0.609859,-0.77452 0.317126,-0.262239 0.841604,-0.262239 0.524478,0 1.018464,0.262239 0.493985,0.262239 0.493985,0.695239 0,0.304929 -0.21345,0.506182 -0.207352,0.195155 -0.451296,0.195155 -0.09148,0 -0.445196,-0.109775 -0.34762,-0.115873 -0.615957,-0.115873 -0.365915,0 -0.597661,0.195155 Q 9.050296,4.34042 8.922226,4.718532 8.794156,5.096644 8.745367,5.621122 8.696577,6.139502 8.696578,6.889628 Z m 8.153807,-0.573267 h -3.256644 q 0.0061,0.567168 0.225648,1.000168 0.225647,0.432999 0.591562,0.652548 0.372014,0.219549 0.817211,0.219549 0.29883,0 0.542774,-0.06708 0.250042,-0.07318 0.481788,-0.219549 0.231746,-0.152465 0.426901,-0.323225 0.195154,-0.17076 0.506182,-0.463492 0.12807,-0.109775 0.365915,-0.109775 0.256141,0 0.414704,0.140267 0.158563,0.140268 0.158563,0.396408 0,0.225648 -0.176859,0.530577 -0.176859,0.298831 -0.536675,0.579366 -0.353718,0.274436 -0.896492,0.457393 -0.536675,0.182958 -1.238013,0.182958 -1.603927,0 -2.49432,-0.914788 -0.890394,-0.914787 -0.890394,-2.482123 0,-0.737929 0.219549,-1.366083 0.219549,-0.634253 0.640352,-1.085548 0.420802,-0.451295 1.036759,-0.68914 0.615957,-0.243943 1.366083,-0.243943 0.975773,0 1.671012,0.414703 0.701337,0.408606 1.048956,1.061154 0.347619,0.652548 0.347619,1.329491 0,0.628154 -0.359816,0.817211 -0.359817,0.182957 -1.012365,0.182957 z M 13.593741,5.371081 H 16.61254 Q 16.55155,4.517279 16.149048,4.096477 15.75264,3.669576 15.100091,3.669576 q -0.622055,0 -1.024562,0.432999 -0.396408,0.426901 -0.481788,1.268506 z M 19.62524,8.280105 V 1.059382 q 0,-0.500084 0.219549,-0.756225 0.225648,-0.25614 0.60376,-0.25614 0.378112,0 0.609858,0.25614 0.231747,0.250042 0.231747,0.756225 v 7.220723 q 0,0.506182 -0.237845,0.762323 -0.231746,0.250042 -0.60376,0.250042 -0.365915,0 -0.597661,-0.262239 Q 19.62524,8.767992 19.62524,8.280105 Z m 3.384714,0 V 1.059382 q 0,-0.500084 0.219549,-0.756225 0.225648,-0.25614 0.60376,-0.25614 0.378112,0 0.609859,0.25614 0.231746,0.250042 0.231746,0.756225 v 7.220723 q 0,0.506182 -0.237845,0.762323 -0.231746,0.250042 -0.60376,0.250042 -0.365915,0 -0.597661,-0.262239 -0.225648,-0.262239 -0.225648,-0.750126 z m 5.049628,-4.811783 v 4.811783 q 0,0.500084 -0.237845,0.756224 -0.237845,0.256141 -0.60376,0.256141 -0.365915,0 -0.597661,-0.262239 Q 26.394669,8.767992 26.394669,8.280105 V 3.517111 q 0,-0.493985 0.225647,-0.744027 0.231746,-0.250042 0.597661,-0.250042 0.365915,0 0.60376,0.250042 0.237845,0.250042 0.237845,0.695238 z m -0.823309,-1.7198 q -0.347619,0 -0.597661,-0.213451 -0.243943,-0.21345 -0.243943,-0.603759 0,-0.353718 0.250041,-0.579366 0.256141,-0.231746 0.591563,-0.231746 0.323225,0 0.573267,0.207352 0.250042,0.207352 0.250042,0.60376 0,0.38421 -0.243943,0.603759 -0.243944,0.213451 -0.579366,0.213451 z m 6.751132,6.604766 q -0.603759,0.469591 -1.170928,0.707436 -0.561069,0.231746 -1.262406,0.231746 -0.640352,0 -1.128238,-0.250042 -0.481789,-0.256141 -0.744028,-0.68914 -0.262239,-0.432999 -0.262239,-0.939182 0,-0.683041 0.433,-1.164829 0.432999,-0.481789 1.189223,-0.64645 0.158564,-0.03659 0.786718,-0.164662 0.628154,-0.12807 1.073351,-0.231746 0.451295,-0.109775 0.975773,-0.262239 -0.03049,-0.658647 -0.268338,-0.963577 -0.231746,-0.311027 -0.969675,-0.311027 -0.634252,0 -0.957477,0.176859 -0.317127,0.176859 -0.548873,0.530576 -0.225647,0.353718 -0.323225,0.469591 -0.09148,0.109775 -0.402506,0.109775 -0.280535,0 -0.487887,-0.176859 -0.201253,-0.182958 -0.201253,-0.463492 0,-0.439098 0.311028,-0.853802 0.311027,-0.414704 0.969674,-0.683042 0.658647,-0.268337 1.640519,-0.268337 1.097746,0 1.725899,0.262239 0.62815,0.25614 0.8843,0.81721 0.26223,0.56107 0.26223,1.488055 0,0.585464 -0.006,0.994069 0,0.408605 -0.006,0.908689 0,0.469591 0.15246,0.981872 0.15857,0.506182 0.15857,0.652548 0,0.256141 -0.24395,0.469591 -0.23784,0.207352 -0.54277,0.207352 -0.25614,0 -0.50618,-0.237845 -0.25005,-0.243943 -0.530582,-0.701337 z M 33.877631,5.944347 q -0.365915,0.134169 -1.067252,0.286634 -0.695239,0.146366 -0.963576,0.219549 -0.268338,0.06708 -0.512282,0.274436 -0.243943,0.201253 -0.243943,0.567168 0,0.378113 0.286634,0.64645 0.286633,0.262239 0.750125,0.262239 0.493986,0 0.908689,-0.21345 0.420803,-0.219549 0.615957,-0.56107 0.225648,-0.378112 0.225648,-1.244111 z m 4.836176,-2.500419 v 0.201253 q 0.4391,-0.579365 0.95748,-0.847703 0.52448,-0.274436 1.20142,-0.274436 0.65865,0 1.17703,0.286633 0.51838,0.286634 0.77452,0.811112 0.16466,0.304929 0.21345,0.658647 0.0488,0.353718 0.0488,0.90259 v 3.098081 q 0,0.500084 -0.23175,0.756224 -0.22565,0.256141 -0.59156,0.256141 -0.37202,0 -0.60376,-0.262239 -0.23175,-0.262239 -0.23175,-0.750126 V 5.505249 q 0,-0.823308 -0.23175,-1.256308 -0.22564,-0.439098 -0.90868,-0.439098 -0.4452,0 -0.81112,0.268338 -0.36591,0.262239 -0.53667,0.725731 -0.12197,0.372014 -0.12197,1.390477 v 2.085716 q 0,0.506182 -0.23785,0.762323 -0.23174,0.250042 -0.60376,0.250042 -0.35981,0 -0.59156,-0.262239 -0.23175,-0.262239 -0.23175,-0.750126 V 3.468322 q 0,-0.475689 0.20735,-0.707435 0.20736,-0.237845 0.56717,-0.237845 0.21955,0 0.39641,0.103676 0.17686,0.103676 0.28054,0.311028 0.10977,0.207351 0.10977,0.506182 z"
     id="text2552-6"
     aria-label="krellian" />
  <path
     style="font-size:11.6417px;line-height:1.25;font-family:'open sans';-inkscape-font-specification:'open sans';letter-spacing:0px;word-spacing:0px;fill:#ffffff;stroke-width:0.282222"
     d="m 49.124267,1.278971 q -1.36995,0 -2.16576,0.915192 -0.79014,0.909508 -0.79014,2.495462 0,1.631429 0.76171,2.523884 0.7674,0.88677 2.18282,0.88677 0.86972,0 1.98387,-0.312643 v 0.846979 q -0.86404,0.324012 -2.13166,0.324012 -1.83607,0 -2.83653,-1.114147 -0.99477,-1.114147 -0.99477,-3.166224 0,-1.28468 0.47749,-2.251032 0.48317,-0.966352 1.387,-1.489319 0.9095,-0.522967 2.13734,-0.522967 1.30742,0 2.28514,0.477492 l -0.40928,0.829926 q -0.94361,-0.443385 -1.88723,-0.443385 z m 9.02118,4.445219 q 0,1.523425 -0.7674,2.381773 -0.76739,0.852664 -2.12029,0.852664 -0.83561,0 -1.48363,-0.392225 -0.64802,-0.392225 -1.00046,-1.125516 -0.35243,-0.733291 -0.35243,-1.716696 0,-1.523426 0.76171,-2.370405 0.76171,-0.852663 2.1146,-0.852663 1.30742,0 2.07482,0.869716 0.77308,0.869717 0.77308,2.353352 z m -4.74649,0 q 0,1.193729 0.47749,1.819015 0.47749,0.625287 1.40405,0.625287 0.92656,0 1.40405,-0.619602 0.48318,-0.625287 0.48318,-1.8247 0,-1.188045 -0.48318,-1.801962 -0.47749,-0.619603 -1.41542,-0.619603 -0.92656,0 -1.39837,0.608234 -0.4718,0.608233 -0.4718,1.813331 z m 10.66398,3.120749 V 4.814682 q 0,-0.761713 -0.34675,-1.136885 -0.34675,-0.375172 -1.08573,-0.375172 -0.97772,0 -1.43247,0.528652 -0.45476,0.528651 -0.45476,1.745118 v 3.268544 h -0.94361 V 2.61481 h 0.7674 l 0.15348,0.852664 h 0.0455 q 0.28991,-0.460439 0.81287,-0.710553 0.52297,-0.255799 1.16531,-0.255799 1.12552,0 1.69396,0.545704 0.56844,0.540021 0.56844,1.73375 v 4.064363 z m 6.90089,-1.699643 q 0,0.869717 -0.64803,1.341524 -0.64802,0.471807 -1.81901,0.471807 -1.23921,0 -1.93271,-0.392225 V 7.691 q 0.44907,0.227377 0.96067,0.358119 0.51728,0.130742 0.99478,0.130742 0.73897,0 1.13688,-0.233061 0.39791,-0.238746 0.39791,-0.721922 0,-0.363803 -0.31833,-0.619602 -0.31264,-0.261484 -1.22783,-0.613918 -0.86972,-0.324012 -1.23921,-0.562758 -0.3638,-0.24443 -0.5457,-0.551389 -0.17622,-0.306959 -0.17622,-0.733291 0,-0.761713 0.6196,-1.199413 0.6196,-0.443385 1.69964,-0.443385 1.00615,0 1.96682,0.409278 l -0.33539,0.767397 q -0.93793,-0.38654 -1.69964,-0.38654 -0.67076,0 -1.01183,0.210323 -0.34106,0.210324 -0.34106,0.579811 0,0.250115 0.12506,0.426332 0.13074,0.176217 0.41496,0.335381 0.28422,0.159164 1.09141,0.460439 1.10846,0.403594 1.495,0.812872 0.39223,0.409279 0.39223,1.028881 z m 2.42156,-4.530486 v 4.041625 q 0,0.761713 0.34675,1.136885 0.34675,0.375172 1.08572,0.375172 0.97773,0 1.4268,-0.534336 0.45475,-0.534336 0.45475,-1.745118 V 2.61481 h 0.94361 v 6.230129 h -0.77876 l -0.13643,-0.835611 h -0.0512 q -0.2899,0.460439 -0.80719,0.704869 -0.51159,0.24443 -1.17099,0.24443 -1.13688,0 -1.70533,-0.54002 -0.56275,-0.540021 -0.56275,-1.728065 V 2.61481 Z m 7.20217,6.230129 h -0.94362 V -2.5e-5 h 0.94362 z m 4.0132,-0.665078 q 0.25011,0 0.48317,-0.03411 0.23306,-0.03979 0.36949,-0.07958 v 0.721922 q -0.15348,0.0739 -0.45475,0.119373 -0.29559,0.05116 -0.53434,0.05116 -1.80765,0 -1.80765,-1.904282 V 3.3481 h -0.89245 V 2.893346 l 0.89245,-0.392225 0.39791,-1.330156 h 0.54571 v 1.443844 h 1.80765 V 3.3481 h -1.80765 v 3.666453 q 0,0.562758 0.26717,0.864032 0.26716,0.301275 0.73329,0.301276 z m 3.04117,0.665078 h -0.94362 V 2.61481 h 0.94362 z m -1.0232,-7.918403 q 0,-0.324012 0.15916,-0.471807 0.15917,-0.153479 0.39791,-0.153479 0.22738,0 0.39223,0.153479 0.16485,0.15348 0.16485,0.471807 0,0.318328 -0.16485,0.477492 -0.16485,0.153479 -0.39223,0.153479 -0.23874,0 -0.39791,-0.153479 -0.15916,-0.159164 -0.15916,-0.477492 z m 7.28743,7.918403 V 4.814682 q 0,-0.761713 -0.34675,-1.136885 -0.34675,-0.375172 -1.08572,-0.375172 -0.97773,0 -1.43248,0.528652 -0.45475,0.528651 -0.45475,1.745118 v 3.268544 h -0.94362 V 2.61481 h 0.7674 l 0.15348,0.852664 h 0.0455 q 0.28991,-0.460439 0.81288,-0.710553 0.52296,-0.255799 1.1653,-0.255799 1.12552,0 1.69396,0.545704 0.56844,0.540021 0.56844,1.73375 V 8.844939 Z M 101.88709,2.61481 v 0.596865 l -1.15394,0.136426 q 0.15917,0.198955 0.28422,0.522967 0.12506,0.318327 0.12506,0.721922 0,0.915192 -0.62528,1.460896 -0.625293,0.545705 -1.716703,0.545705 -0.27854,0 -0.52297,-0.04548 -0.60255,0.318327 -0.60255,0.801503 0,0.2558 0.21033,0.380857 0.21032,0.119373 0.72192,0.119373 h 1.10278 q 1.011823,0 1.551843,0.426332 0.54571,0.426331 0.54571,1.239204 0,1.034565 -0.82993,1.574585 -0.82992,0.545705 -2.421563,0.545705 -1.22215,0 -1.88723,-0.454754 -0.65939,-0.454754 -0.65939,-1.28468 0,-0.568442 0.3638,-0.983405 0.3638,-0.414963 1.0232,-0.562758 -0.23875,-0.108004 -0.4036,-0.335381 -0.15916,-0.227377 -0.15916,-0.528651 0,-0.341066 0.1819,-0.596865 0.1819,-0.255799 0.57413,-0.494545 -0.48318,-0.198955 -0.79014,-0.676446 -0.30127,-0.477492 -0.30127,-1.091409 0,-1.023197 0.61392,-1.574586 0.61391,-0.557073 1.73943,-0.557073 0.48886,0 0.88108,0.113688 z m -4.968183,7.276062 q 0,0.505914 0.42633,0.767398 0.42633,0.261483 1.22215,0.261483 1.18804,0 1.756483,-0.358119 0.57413,-0.352434 0.57413,-0.960667 0,-0.505914 -0.31264,-0.704869 -0.31264,-0.19327 -1.176683,-0.19327 h -1.1312 q -0.64234,0 -1.00046,0.306959 -0.35811,0.306959 -0.35811,0.881085 z m 0.51159,-5.280829 q 0,0.653709 0.36949,0.98909 0.36949,0.335381 1.02888,0.335381 1.381323,0 1.381323,-1.341524 0,-1.404053 -1.398373,-1.404053 -0.66508,0 -1.0232,0.358119 -0.35812,0.358118 -0.35812,1.062987 z"
     id="text2553-3"
     aria-label="Consulting" />
</svg>
