<?xml version="1.0" encoding="UTF-8" standalone="no"?>
<!-- Created with Inkscape (http://www.inkscape.org/) -->

<svg
   width="86.855904"
   height="63.99984"
   viewBox="0 0 22.980624 16.93329"
   version="1.1"
   id="svg68441"
   xmlns="http://www.w3.org/2000/svg"
   xmlns:svg="http://www.w3.org/2000/svg">
  <defs
     id="defs68438" />
  <g
     id="layer1"
     transform="translate(-85.412222,-90.952855)">
    <path
       d="m 92.8376,103.4844 c -2.245,-2.245 -2.245,-5.8848 0,-8.1298 m -3.2521,11.3818 c -4.041,-4.0409 -4.041,-10.5928 0,-14.6338 m 11.382,11.3818 c 2.245,-2.245 2.245,-5.8848 0,-8.1298 m 3.252,11.3818 c 4.0411,-4.0409 4.0411,-10.5928 0,-14.6338 m -6.1672,7.317 c 0,0.6349 -0.5147,1.1498 -1.1497,1.1498 -0.635,0 -1.1498,-0.5149 -1.1498,-1.1498 0,-0.635 0.5148,-1.1497 1.1498,-1.1497 0.635,0 1.1497,0.5147 1.1497,1.1497 z"
       stroke="#000000"
       stroke-width="2.29948"
       stroke-linecap="round"
       stroke-linejoin="round"
       id="path245651-9"
       style="fill:none;stroke:#76a142;stroke-width:2.29949;stroke-dasharray:none;stroke-opacity:1" />
  </g>
</svg>
