<?xml version="1.0" encoding="UTF-8" standalone="no"?>
<!-- Created with Inkscape (http://www.inkscape.org/) -->

<svg
   width="37.120251"
   height="63.999874"
   viewBox="0 0 9.8213994 16.9333"
   version="1.1"
   id="svg108636"
   xmlns="http://www.w3.org/2000/svg"
   xmlns:svg="http://www.w3.org/2000/svg">
  <defs
     id="defs108633" />
  <g
     id="layer1"
     transform="translate(2.3938,246.3183)">
    <path
       d="M -0.4991,-229.385 H 5.531 c 1.0471,0 1.8966,-0.8051 1.8966,-1.8004 v -13.3312 c 0,-0.9944 -0.8492,-1.8017 -1.8947,-1.8017 h -6.0302 c -1.0468,0 -1.8965,0.8073 -1.8965,1.8017 v 13.331 c 0,0.9949 0.8491,1.8006 1.8965,1.8006 m 3.0161,-0.6128 c -0.4691,0 -0.8478,-0.38 -0.8478,-0.8463 0,-0.4683 0.3782,-0.847 0.8478,-0.847 0.4679,0 0.8455,0.3782 0.8455,0.847 0,0.4668 -0.3782,0.8463 -0.8455,0.8463 m -1.2923,-15.2233 h 2.5828 c 0.1046,0 0.19,0.072 0.19,0.1603 0,0.089 -0.085,0.1607 -0.19,0.1607 H 1.2265 c -0.1034,0 -0.19,-0.072 -0.19,-0.1607 0,-0.088 0.085,-0.1603 0.19,-0.1603 m -2.8765,2.0317 c 0,-0.1494 0.127,-0.2706 0.2837,-0.2706 h 7.7687 c 0.157,0 0.2835,0.1206 0.2835,0.2706 v 10.6285 c 0,0.1488 -0.1265,0.2696 -0.2835,0.2696 h -7.7687 c -0.1567,0 -0.2837,-0.1208 -0.2837,-0.2696 v -10.6285"
       id="path150946-0"
       style="fill:#296795;fill-opacity:1;stroke-width:0.188148" />
  </g>
</svg>
