<?xml version="1.0" encoding="UTF-8" standalone="no"?>
<!-- Created with Inkscape (http://www.inkscape.org/) -->

<svg
   width="79.11647"
   height="64.000252"
   viewBox="0 0 20.932899 16.9334"
   version="1.1"
   id="svg107631"
   xmlns="http://www.w3.org/2000/svg"
   xmlns:svg="http://www.w3.org/2000/svg">
  <defs
     id="defs107628" />
  <g
     id="layer1"
     transform="translate(-5.8937,16.0175)">
    <g
       id="g108206">
      <path
         id="path162173-7"
         d="m 13.8216,-7.6827 a 2.0557166,2.0557166 0 0 1 -2.0556,2.0559 2.0557166,2.0557166 0 0 1 -2.0559,-2.0559 2.0557166,2.0557166 0 0 1 2.0559,-2.0557 2.0557166,2.0557166 0 0 1 2.0556,2.0557 z"
         style="color:#000000;clip-rule:nonzero;display:inline;overflow:visible;visibility:visible;isolation:auto;mix-blend-mode:normal;color-interpolation:sRGB;color-interpolation-filters:linearRGB;solid-color:#000000;solid-opacity:1;fill:#76a142;fill-opacity:1;fill-rule:nonzero;stroke:none;stroke-width:5.50955;stroke-linecap:butt;stroke-linejoin:round;stroke-miterlimit:4;stroke-dasharray:none;stroke-dashoffset:0;stroke-opacity:1;color-rendering:auto;image-rendering:auto;shape-rendering:auto;text-rendering:auto;enable-background:accumulate" />
      <path
         id="path162175-0"
         d="m 23.0101,-7.6827 a 2.0557166,2.0557166 0 0 1 -2.0559,2.0556 2.0557166,2.0557166 0 0 1 -2.0557,-2.0556 2.0557166,2.0557166 0 0 1 2.0557,-2.0557 2.0557166,2.0557166 0 0 1 2.0559,2.0557 z"
         style="color:#000000;clip-rule:nonzero;display:inline;overflow:visible;visibility:visible;isolation:auto;mix-blend-mode:normal;color-interpolation:sRGB;color-interpolation-filters:linearRGB;solid-color:#000000;solid-opacity:1;fill:#76a142;fill-opacity:1;fill-rule:nonzero;stroke:none;stroke-width:5.50955;stroke-linecap:butt;stroke-linejoin:round;stroke-miterlimit:4;stroke-dasharray:none;stroke-dashoffset:0;stroke-opacity:1;color-rendering:auto;image-rendering:auto;shape-rendering:auto;text-rendering:auto;enable-background:accumulate" />
      <path
         id="path163003-6"
         d="m 18.4159,-13.9618 a 2.0557166,2.0557166 0 0 1 -2.0558,2.0556 2.0557166,2.0557166 0 0 1 -2.0558,-2.0556 2.0557166,2.0557166 0 0 1 2.0558,-2.0557 2.0557166,2.0557166 0 0 1 2.0558,2.0557 z"
         style="color:#000000;clip-rule:nonzero;display:inline;overflow:visible;visibility:visible;isolation:auto;mix-blend-mode:normal;color-interpolation:sRGB;color-interpolation-filters:linearRGB;solid-color:#000000;solid-opacity:1;fill:#76a142;fill-opacity:1;fill-rule:nonzero;stroke:none;stroke-width:5.50955;stroke-linecap:butt;stroke-linejoin:round;stroke-miterlimit:4;stroke-dasharray:none;stroke-dashoffset:0;stroke-opacity:1;color-rendering:auto;image-rendering:auto;shape-rendering:auto;text-rendering:auto;enable-background:accumulate" />
      <path
         id="path163009-9"
         d="m 10.0051,-1.1401 a 2.0557166,2.0557166 0 0 1 -2.0556,2.056 2.0557166,2.0557166 0 0 1 -2.0558,-2.056 2.0557166,2.0557166 0 0 1 2.0558,-2.0556 2.0557166,2.0557166 0 0 1 2.0556,2.0556 z"
         style="color:#000000;clip-rule:nonzero;display:inline;overflow:visible;visibility:visible;isolation:auto;mix-blend-mode:normal;color-interpolation:sRGB;color-interpolation-filters:linearRGB;solid-color:#000000;solid-opacity:1;fill:#76a142;fill-opacity:1;fill-rule:nonzero;stroke:none;stroke-width:5.50955;stroke-linecap:butt;stroke-linejoin:round;stroke-miterlimit:4;stroke-dasharray:none;stroke-dashoffset:0;stroke-opacity:1;color-rendering:auto;image-rendering:auto;shape-rendering:auto;text-rendering:auto;enable-background:accumulate" />
      <path
         id="path163011-2"
         d="m 26.8266,-1.1401 a 2.0557166,2.0557166 0 0 1 -2.0559,2.0557 2.0557166,2.0557166 0 0 1 -2.0557,-2.0557 2.0557166,2.0557166 0 0 1 2.0557,-2.0556 2.0557166,2.0557166 0 0 1 2.0559,2.0556 z"
         style="color:#000000;clip-rule:nonzero;display:inline;overflow:visible;visibility:visible;isolation:auto;mix-blend-mode:normal;color-interpolation:sRGB;color-interpolation-filters:linearRGB;solid-color:#000000;solid-opacity:1;fill:#76a142;fill-opacity:1;fill-rule:nonzero;stroke:none;stroke-width:5.50955;stroke-linecap:butt;stroke-linejoin:round;stroke-miterlimit:4;stroke-dasharray:none;stroke-dashoffset:0;stroke-opacity:1;color-rendering:auto;image-rendering:auto;shape-rendering:auto;text-rendering:auto;enable-background:accumulate" />
      <path
         id="path163019-1"
         d="m 15.4577,-1.1401 a 2.0557166,2.0557166 0 0 1 -2.0556,2.056 2.0557166,2.0557166 0 0 1 -2.0559,-2.056 2.0557166,2.0557166 0 0 1 2.0559,-2.0556 2.0557166,2.0557166 0 0 1 2.0556,2.0556 z"
         style="color:#000000;clip-rule:nonzero;display:inline;overflow:visible;visibility:visible;isolation:auto;mix-blend-mode:normal;color-interpolation:sRGB;color-interpolation-filters:linearRGB;solid-color:#000000;solid-opacity:1;fill:#76a142;fill-opacity:1;fill-rule:nonzero;stroke:none;stroke-width:5.50955;stroke-linecap:butt;stroke-linejoin:round;stroke-miterlimit:4;stroke-dasharray:none;stroke-dashoffset:0;stroke-opacity:1;color-rendering:auto;image-rendering:auto;shape-rendering:auto;text-rendering:auto;enable-background:accumulate" />
      <path
         id="path163021-7"
         d="m 21.4555,-1.1401 a 2.0557166,2.0557166 0 0 1 -2.0556,2.056 2.0557166,2.0557166 0 0 1 -2.0559,-2.056 2.0557166,2.0557166 0 0 1 2.0559,-2.0556 2.0557166,2.0557166 0 0 1 2.0556,2.0556 z"
         style="color:#000000;clip-rule:nonzero;display:inline;overflow:visible;visibility:visible;isolation:auto;mix-blend-mode:normal;color-interpolation:sRGB;color-interpolation-filters:linearRGB;solid-color:#000000;solid-opacity:1;fill:#76a142;fill-opacity:1;fill-rule:nonzero;stroke:none;stroke-width:5.50955;stroke-linecap:butt;stroke-linejoin:round;stroke-miterlimit:4;stroke-dasharray:none;stroke-dashoffset:0;stroke-opacity:1;color-rendering:auto;image-rendering:auto;shape-rendering:auto;text-rendering:auto;enable-background:accumulate" />
      <path
         style="color:#000000;fill:#76a142;fill-rule:evenodd;-inkscape-stroke:none"
         d="m 14.7059,-12.6248 -2.166,2.9609 0.8808,0.6445 2.166,-2.9609 z"
         id="path163023-7" />
      <path
         style="color:#000000;fill:#76a142;fill-rule:evenodd;-inkscape-stroke:none"
         d="m 18.0145,-12.6248 -0.8809,0.6445 2.166,2.9609 0.8809,-0.6445 z"
         id="path163025-9" />
      <path
         style="color:#000000;fill:#76a142;fill-rule:evenodd;-inkscape-stroke:none"
         d="M 10.2586,-6.1815 8.5145,-3.1912 9.4559,-2.6405 11.2,-5.6326 Z"
         id="path163027-7" />
      <path
         style="color:#000000;fill:#76a142;fill-rule:evenodd;-inkscape-stroke:none"
         d="m 12.7938,-5.8201 -1.0586,0.2636 0.6387,2.5547 1.0585,-0.2656 z"
         id="path163029-6" />
      <path
         style="color:#000000;fill:#76a142;fill-rule:evenodd;-inkscape-stroke:none"
         d="m 19.9481,-5.8084 -0.6035,2.5429 1.0605,0.252 0.6035,-2.543 z"
         id="path163031-2" />
      <path
         style="color:#000000;fill:#76a142;fill-rule:evenodd;-inkscape-stroke:none"
         d="m 22.4617,-6.1815 -0.9433,0.5489 1.7461,2.9921 0.9414,-0.5507 z"
         id="path163033-7" />
    </g>
  </g>
</svg>
