<?xml version="1.0" encoding="UTF-8" standalone="no"?>
<!-- Created with Inkscape (http://www.inkscape.org/) -->

<svg
   width="71.961143"
   height="63.999874"
   viewBox="0 0 19.039719 16.9333"
   version="1.1"
   id="svg106552"
   xmlns="http://www.w3.org/2000/svg"
   xmlns:svg="http://www.w3.org/2000/svg">
  <defs
     id="defs106549" />
  <g
     id="layer1"
     transform="translate(72.4436,151.9328)">
    <g
       id="g107180">
      <path
         id="path212047-8-5"
         d="m -60.83181,-142.5131 a 3.2959657,3.2959657 0 0 1 -3.29582,3.296 3.2959657,3.2959657 0 0 1 -3.29605,-3.296 3.2959657,3.2959657 0 0 1 3.29605,-3.2958 3.2959657,3.2959657 0 0 1 3.29582,3.2958 z"
         style="color:#000000;clip-rule:nonzero;display:inline;overflow:visible;visibility:visible;isolation:auto;mix-blend-mode:normal;color-interpolation:sRGB;color-interpolation-filters:linearRGB;solid-color:#000000;solid-opacity:1;fill:#d46e6e;fill-opacity:1;fill-rule:nonzero;stroke:none;stroke-width:5.34731;stroke-linecap:butt;stroke-linejoin:round;stroke-miterlimit:4;stroke-dasharray:none;stroke-dashoffset:0;stroke-opacity:1;color-rendering:auto;image-rendering:auto;shape-rendering:auto;text-rendering:auto;enable-background:accumulate" />
      <path
         id="path212049-0-9"
         d="m -60.02561,-149.9377 a 1.9951822,1.9951822 0 0 1 -1.99513,1.9954 1.9951822,1.9951822 0 0 1 -1.99535,-1.9954 1.9951822,1.9951822 0 0 1 1.99535,-1.9951 1.9951822,1.9951822 0 0 1 1.99513,1.9951 z"
         style="color:#000000;clip-rule:nonzero;display:inline;overflow:visible;visibility:visible;isolation:auto;mix-blend-mode:normal;color-interpolation:sRGB;color-interpolation-filters:linearRGB;solid-color:#000000;solid-opacity:1;fill:#d46e6e;fill-opacity:1;fill-rule:nonzero;stroke:none;stroke-width:5.34731;stroke-linecap:butt;stroke-linejoin:round;stroke-miterlimit:4;stroke-dasharray:none;stroke-dashoffset:0;stroke-opacity:1;color-rendering:auto;image-rendering:auto;shape-rendering:auto;text-rendering:auto;enable-background:accumulate" />
      <path
         id="path212051-4-2"
         d="m -53.40388,-144.3189 a 1.9951822,1.9951822 0 0 1 -1.9953,1.9951 1.9951822,1.9951822 0 0 1 -1.99513,-1.9951 1.9951822,1.9951822 0 0 1 1.99513,-1.9951 1.9951822,1.9951822 0 0 1 1.9953,1.9951 z"
         style="color:#000000;clip-rule:nonzero;display:inline;overflow:visible;visibility:visible;isolation:auto;mix-blend-mode:normal;color-interpolation:sRGB;color-interpolation-filters:linearRGB;solid-color:#000000;solid-opacity:1;fill:#d46e6e;fill-opacity:1;fill-rule:nonzero;stroke:none;stroke-width:5.34731;stroke-linecap:butt;stroke-linejoin:round;stroke-miterlimit:4;stroke-dasharray:none;stroke-dashoffset:0;stroke-opacity:1;color-rendering:auto;image-rendering:auto;shape-rendering:auto;text-rendering:auto;enable-background:accumulate" />
      <path
         id="path212053-2-7"
         d="m -56.71472,-136.9948 a 1.9951822,1.9951822 0 0 1 -1.99513,1.9953 1.9951822,1.9951822 0 0 1 -1.99535,-1.9953 1.9951822,1.9951822 0 0 1 1.99535,-1.9952 1.9951822,1.9951822 0 0 1 1.99513,1.9952 z"
         style="color:#000000;clip-rule:nonzero;display:inline;overflow:visible;visibility:visible;isolation:auto;mix-blend-mode:normal;color-interpolation:sRGB;color-interpolation-filters:linearRGB;solid-color:#000000;solid-opacity:1;fill:#d46e6e;fill-opacity:1;fill-rule:nonzero;stroke:none;stroke-width:5.34731;stroke-linecap:butt;stroke-linejoin:round;stroke-miterlimit:4;stroke-dasharray:none;stroke-dashoffset:0;stroke-opacity:1;color-rendering:auto;image-rendering:auto;shape-rendering:auto;text-rendering:auto;enable-background:accumulate" />
      <path
         id="path212055-9-3"
         d="m -67.9517,-137.8977 a 1.9951822,1.9951822 0 0 1 -1.99507,1.9951 1.9951822,1.9951822 0 0 1 -1.99513,-1.9951 1.9951822,1.9951822 0 0 1 1.99513,-1.9952 1.9951822,1.9951822 0 0 1 1.99507,1.9952 z"
         style="color:#000000;clip-rule:nonzero;display:inline;overflow:visible;visibility:visible;isolation:auto;mix-blend-mode:normal;color-interpolation:sRGB;color-interpolation-filters:linearRGB;solid-color:#000000;solid-opacity:1;fill:#d46e6e;fill-opacity:1;fill-rule:nonzero;stroke:none;stroke-width:5.34731;stroke-linecap:butt;stroke-linejoin:round;stroke-miterlimit:4;stroke-dasharray:none;stroke-dashoffset:0;stroke-opacity:1;color-rendering:auto;image-rendering:auto;shape-rendering:auto;text-rendering:auto;enable-background:accumulate" />
      <path
         id="path212057-6-6"
         d="m -68.45318,-148.4321 a 1.9951822,1.9951822 0 0 1 -1.9953,1.9951 1.9951822,1.9951822 0 0 1 -1.99512,-1.9951 1.9951822,1.9951822 0 0 1 1.99512,-1.9952 1.9951822,1.9951822 0 0 1 1.9953,1.9952 z"
         style="color:#000000;clip-rule:nonzero;display:inline;overflow:visible;visibility:visible;isolation:auto;mix-blend-mode:normal;color-interpolation:sRGB;color-interpolation-filters:linearRGB;solid-color:#000000;solid-opacity:1;fill:#d46e6e;fill-opacity:1;fill-rule:nonzero;stroke:none;stroke-width:5.34731;stroke-linecap:butt;stroke-linejoin:round;stroke-miterlimit:4;stroke-dasharray:none;stroke-dashoffset:0;stroke-opacity:1;color-rendering:auto;image-rendering:auto;shape-rendering:auto;text-rendering:auto;enable-background:accumulate" />
      <g
         id="path212059-1-4"
         transform="matrix(0.56219752,0,0,0.56219752,-654.4646,-2074.6421)"
         style="fill:#d46e6e;fill-opacity:1">
        <path
           style="color:#000000;fill:#d46e6e;fill-opacity:1;fill-rule:evenodd;stroke-width:2.11666;-inkscape-stroke:none"
           d="m 1041.3998,3428.6417 4.3736,4.0952"
           id="path59305-0-7" />
        <path
           style="color:#000000;fill:#d46e6e;fill-opacity:1;fill-rule:evenodd;-inkscape-stroke:none"
           d="m 1042.123,3427.8691 -1.4472,1.545 4.375,4.0957 1.4453,-1.545 z"
           id="path59307-4-9" />
      </g>
      <g
         id="path212061-2-7"
         transform="matrix(0.56219752,0,0,0.56219752,-654.4646,-2074.6421)"
         style="fill:#d46e6e;fill-opacity:1">
        <path
           style="color:#000000;fill:#d46e6e;fill-opacity:1;fill-rule:evenodd;stroke-width:2.11666;-inkscape-stroke:none"
           d="m 1062.103,3434.2512 -6.3096,1.3052"
           id="path59299-2-2" />
        <path
           style="color:#000000;fill:#d46e6e;fill-opacity:1;fill-rule:evenodd;-inkscape-stroke:none"
           d="m 1061.8887,3433.2148 -6.3106,1.3047 0.4297,2.0743 6.3106,-1.3067 z"
           id="path59301-2-2" />
      </g>
      <g
         id="path212063-0-1"
         transform="matrix(0.56219752,0,0,0.56219752,-654.4646,-2074.6421)"
         style="fill:#d46e6e;fill-opacity:1">
        <path
           style="color:#000000;fill:#d46e6e;fill-opacity:1;fill-rule:evenodd;stroke-width:2.11666;-inkscape-stroke:none"
           d="m 1057.203,3444.0272 -3.0432,-3.0996"
           id="path59293-5-6" />
        <path
           style="color:#000000;fill:#d46e6e;fill-opacity:1;fill-rule:evenodd;-inkscape-stroke:none"
           d="m 1054.9141,3440.1855 -1.5098,1.4844 3.043,3.0996 1.5117,-1.4843 z"
           id="path59295-5-3" />
      </g>
      <g
         id="path212065-2-0"
         transform="matrix(0.56219752,0,0,0.56219752,-654.4646,-2074.6421)"
         style="fill:#d46e6e;fill-opacity:1">
        <path
           style="color:#000000;fill:#d46e6e;fill-opacity:1;fill-rule:evenodd;stroke-width:2.11666;-inkscape-stroke:none"
           d="m 1042.4822,3442.7484 2.9768,-2.3612"
           id="path59287-9-2" />
        <path
           style="color:#000000;fill:#d46e6e;fill-opacity:1;fill-rule:evenodd;-inkscape-stroke:none"
           d="m 1044.8008,3439.5586 -2.9766,2.3613 1.3164,1.6582 2.9766,-2.3613 z"
           id="path59289-0-1" />
      </g>
      <g
         id="path212067-2-5"
         transform="matrix(0.56219752,0,0,0.56219752,-654.4646,-2074.6421)"
         style="fill:#d46e6e;fill-opacity:1">
        <g
           id="g107156">
          <path
             style="color:#000000;fill:#d46e6e;fill-opacity:1;fill-rule:evenodd;stroke-width:2.11666;-inkscape-stroke:none"
             d="m 1052.8314,3426.9521 -1.1784,4.1524"
             id="path59281-8-6" />
          <path
             style="color:#000000;fill:#d46e6e;fill-opacity:1;fill-rule:evenodd;-inkscape-stroke:none"
             d="m 1051.8125,3426.6641 -1.1777,4.1523 2.0371,0.5762 1.1777,-4.1524 z"
             id="path59283-3-5" />
        </g>
      </g>
    </g>
  </g>
</svg>
