<?xml version="1.0" encoding="UTF-8" standalone="no"?>
<svg
   id="svg8217"
   version="1.1"
   viewBox="0 0 76.172521 9.2604229"
   height="35.000023"
   width="287.89615"
   xmlns="http://www.w3.org/2000/svg"
   xmlns:svg="http://www.w3.org/2000/svg"
   xmlns:rdf="http://www.w3.org/1999/02/22-rdf-syntax-ns#"
   xmlns:cc="http://creativecommons.org/ns#"
   xmlns:dc="http://purl.org/dc/elements/1.1/">
  <defs
     id="defs8211" />
  <metadata
     id="metadata8214">
    <rdf:RDF>
      <cc:Work
         rdf:about="">
        <dc:format>image/svg+xml</dc:format>
        <dc:type
           rdf:resource="http://purl.org/dc/dcmitype/StillImage" />
      </cc:Work>
    </rdf:RDF>
  </metadata>
  <g
     aria-label="krellian"
     id="text25531-3"
     style="font-size:3.33486px;line-height:0%;letter-spacing:0px;word-spacing:0px;fill:#1a1a1a;stroke-width:0.277905px">
    <path
       d="M 4.0376604,8.4967488 2.5655245,6.0778036 1.6614743,6.9329862 v 1.3255331 q 0,0.4825674 -0.2565548,0.7452306 -0.2504463,0.2565548 -0.58030248,0.2565548 -0.38483218,0 -0.60473629,-0.2565548 Q -2.3379922e-5,8.7471951 -2.3379922e-5,8.2463024 V 1.1360696 q 0,-0.5558687 0.213795659922,-0.84296572 0.21379566,-0.29320548217 0.61084474,-0.29320548217 0.38483218,0 0.61084478,0.26266324217 0.2260125,0.26266324 0.2260125,0.77577286 V 5.0821267 L 3.5367677,3.1152066 Q 3.8849492,2.7486997 4.0682026,2.6143139 4.251456,2.4799281 4.5141193,2.4799281 q 0.3115308,0 0.519218,0.2015787 0.2076872,0.1954703 0.2076872,0.4947843 0,0.3665068 -0.6780376,0.9773516 L 3.677262,4.9660662 5.3876273,7.653783 q 0.1893618,0.299314 0.2687717,0.4581336 0.085518,0.1527112 0.085518,0.2932055 0,0.3970491 -0.2199041,0.6291701 -0.2137957,0.2260125 -0.5680856,0.2260125 -0.3054224,0 -0.4703505,-0.1649281 Q 4.318649,8.9304486 4.0376604,8.4967488 Z"
       style="font-weight:bold;font-size:12.5101px;line-height:1.25;font-family:'Arial Rounded MT Bold';-inkscape-font-specification:'Arial Rounded MT Bold, Bold'"
       id="path331235" />
    <path
       d="m 8.7106225,6.8535764 v 1.392726 q 0,0.5070012 -0.2382295,0.763556 -0.2382294,0.2504463 -0.6047363,0.2504463 -0.3603984,0 -0.5925194,-0.2565548 -0.232121,-0.2565548 -0.232121,-0.7574475 v -4.64242 q 0,-1.1239543 0.8124235,-1.1239543 0.4153745,0 0.5986279,0.2626632 0.1832534,0.2626632 0.2015787,0.7757728 0.299314,-0.5131096 0.6108448,-0.7757728 0.3176393,-0.2626632 0.8429658,-0.2626632 0.525326,0 1.020111,0.2626632 0.494784,0.2626632 0.494784,0.696363 0,0.3054224 -0.213796,0.5070011 -0.207687,0.1954704 -0.452025,0.1954704 -0.09163,0 -0.445917,-0.1099521 -0.348181,-0.1160605 -0.6169527,-0.1160605 -0.3665069,0 -0.5986279,0.1954703 -0.232121,0.1893619 -0.3603984,0.5680856 -0.1282774,0.3787238 -0.1771449,0.9040503 -0.048868,0.519218 -0.048868,1.270557 z"
       style="font-weight:bold;font-size:12.5101px;line-height:1.25;font-family:'Arial Rounded MT Bold';-inkscape-font-specification:'Arial Rounded MT Bold, Bold'"
       id="path331237" />
    <path
       d="m 16.877617,6.2793824 h -3.261911 q 0.0061,0.5680856 0.226012,1.0017854 0.226013,0.4336997 0.59252,0.6536038 0.372615,0.2199041 0.818532,0.2199041 0.299314,0 0.543652,-0.067193 0.250446,-0.073301 0.482567,-0.2199041 0.232121,-0.1527112 0.427591,-0.3237477 0.195471,-0.1710365 0.507001,-0.464242 0.128278,-0.1099521 0.366507,-0.1099521 0.256555,0 0.415375,0.1404943 0.158819,0.1404943 0.158819,0.3970491 0,0.2260126 -0.177145,0.5314349 -0.177145,0.299314 -0.537543,0.5803025 -0.35429,0.2748802 -0.897942,0.4581336 -0.537543,0.1832534 -1.240015,0.1832534 -1.606521,0 -2.498355,-0.9162671 -0.891833,-0.9162671 -0.891833,-2.4861381 0,-0.7391221 0.219904,-1.3682922 0.219904,-0.6352786 0.641387,-1.0873037 0.421483,-0.4520251 1.038436,-0.6902545 0.616953,-0.2443379 1.368292,-0.2443379 0.977352,0 1.673715,0.4153744 0.702471,0.409266 1.050653,1.0628698 0.348181,0.6536039 0.348181,1.3316416 0,0.6291701 -0.360398,0.8185319 -0.360398,0.1832535 -1.014002,0.1832535 z M 13.615706,5.332573 h 3.023681 Q 16.578303,4.4773904 16.175145,4.0559075 15.778096,3.6283162 15.124492,3.6283162 q -0.623061,0 -1.026219,0.4336997 -0.397049,0.4275914 -0.482567,1.2705571 z"
       style="font-weight:bold;font-size:12.5101px;line-height:1.25;font-family:'Arial Rounded MT Bold';-inkscape-font-specification:'Arial Rounded MT Bold, Bold'"
       id="path331239" />
    <path
       d="M 19.656961,8.2463024 V 1.0139007 q 0,-0.50089272 0.219904,-0.75744751 0.226012,-0.25655479217 0.604736,-0.25655479217 0.378724,0 0.610845,0.25655479217 0.232121,0.25044635 0.232121,0.75744751 v 7.2324017 q 0,0.5070012 -0.23823,0.763556 -0.232121,0.2504463 -0.604736,0.2504463 -0.366507,0 -0.598628,-0.2626632 -0.226012,-0.2626633 -0.226012,-0.7513391 z"
       style="font-weight:bold;font-size:12.5101px;line-height:1.25;font-family:'Arial Rounded MT Bold';-inkscape-font-specification:'Arial Rounded MT Bold, Bold'"
       id="path331241" />
    <path
       d="M 23.047149,8.2463024 V 1.0139007 q 0,-0.50089272 0.219904,-0.75744751 0.226013,-0.25655479217 0.604736,-0.25655479217 0.378724,0 0.610845,0.25655479217 0.232121,0.25044635 0.232121,0.75744751 v 7.2324017 q 0,0.5070012 -0.238229,0.763556 -0.232121,0.2504463 -0.604737,0.2504463 -0.366507,0 -0.598628,-0.2626632 -0.226012,-0.2626633 -0.226012,-0.7513391 z"
       style="font-weight:bold;font-size:12.5101px;line-height:1.25;font-family:'Arial Rounded MT Bold';-inkscape-font-specification:'Arial Rounded MT Bold, Bold'"
       id="path331243" />
    <path
       d="m 28.104943,3.4267374 v 4.819565 q 0,0.5008927 -0.238229,0.7574475 -0.23823,0.2565548 -0.604736,0.2565548 -0.366507,0 -0.598628,-0.2626632 Q 26.437337,8.7349782 26.437337,8.2463024 V 3.475605 q 0,-0.4947842 0.226013,-0.7452306 0.232121,-0.2504463 0.598628,-0.2504463 0.366506,0 0.604736,0.2504463 0.238229,0.2504464 0.238229,0.696363 z m -0.82464,-1.7225822 q -0.348182,0 -0.598628,-0.2137956 -0.244338,-0.2137957 -0.244338,-0.60473632 0,-0.35428995 0.250446,-0.58030251 0.256555,-0.232121 0.59252,-0.232121 0.323748,0 0.574194,0.20768721 0.250446,0.20768721 0.250446,0.6047363 0,0.38483222 -0.244338,0.60473632 -0.244338,0.2137956 -0.580302,0.2137956 z"
       style="font-weight:bold;font-size:12.5101px;line-height:1.25;font-family:'Arial Rounded MT Bold';-inkscape-font-specification:'Arial Rounded MT Bold, Bold'"
       id="path331245" />
    <path
       d="m 34.042354,8.3196038 q -0.604736,0.4703505 -1.172822,0.7085799 -0.561977,0.232121 -1.264448,0.232121 -0.641387,0 -1.130063,-0.2504463 Q 29.992453,8.7533036 29.72979,8.3196038 29.467127,7.885904 29.467127,7.3789029 q 0,-0.6841461 0.4337,-1.1667135 0.433699,-0.4825673 1.191147,-0.6474954 0.15882,-0.036651 0.78799,-0.1649281 0.62917,-0.1282774 1.075086,-0.232121 0.452026,-0.109952 0.977352,-0.2626632 Q 33.90186,4.2452694 33.66363,3.939847 33.431509,3.6283162 32.692387,3.6283162 q -0.635278,0 -0.959026,0.177145 -0.317639,0.1771449 -0.54976,0.5314349 -0.226013,0.3542899 -0.323748,0.4703504 -0.09163,0.1099521 -0.403158,0.1099521 -0.280988,0 -0.488675,-0.177145 -0.201579,-0.1832534 -0.201579,-0.464242 0,-0.4398082 0.311531,-0.8551826 0.311531,-0.4153745 0.971243,-0.6841461 0.659712,-0.2687717 1.643172,-0.2687717 1.099521,0 1.728691,0.2626632 0.62917,0.2565548 0.885725,0.818532 0.262663,0.5619771 0.262663,1.4904611 0,0.586411 -0.0061,0.995677 0,0.409266 -0.0061,0.9101586 0,0.4703505 0.152711,0.9834601 0.15882,0.5070011 0.15882,0.6536039 0,0.2565547 -0.244338,0.4703504 -0.238229,0.2076872 -0.543652,0.2076872 -0.256555,0 -0.507001,-0.2382294 Q 34.323343,8.7777374 34.042354,8.3196038 Z M 33.932402,5.9067671 q -0.366507,0.1343858 -1.068978,0.287097 -0.696363,0.1466027 -0.965135,0.2199041 -0.268772,0.067193 -0.51311,0.2748801 -0.244337,0.2015788 -0.244337,0.5680857 0,0.3787237 0.287097,0.6474954 0.287097,0.2626632 0.751339,0.2626632 0.494784,0 0.910158,-0.2137956 0.421483,-0.2199041 0.616953,-0.5619772 0.226013,-0.3787237 0.226013,-1.2461233 z"
       style="font-weight:bold;font-size:12.5101px;line-height:1.25;font-family:'Arial Rounded MT Bold';-inkscape-font-specification:'Arial Rounded MT Bold, Bold'"
       id="path331247" />
    <path
       d="m 38.776401,3.4023036 v 0.2015788 q 0.439808,-0.5803025 0.959027,-0.8490742 0.525326,-0.2748801 1.203364,-0.2748801 0.659712,0 1.17893,0.287097 0.519218,0.287097 0.775773,0.8124235 0.164928,0.3054224 0.213796,0.6597123 0.04887,0.35429 0.04887,0.9040502 v 3.1030913 q 0,0.5008927 -0.232121,0.7574475 -0.226012,0.2565548 -0.592519,0.2565548 -0.372616,0 -0.604737,-0.2626632 Q 41.49466,8.7349782 41.49466,8.2463024 V 5.4669589 q 0,-0.8246404 -0.232121,-1.2583402 -0.226012,-0.4398082 -0.910158,-0.4398082 -0.445917,0 -0.812424,0.2687717 -0.366507,0.2626632 -0.537543,0.7269052 -0.122169,0.3726153 -0.122169,1.392726 v 2.089089 q 0,0.5070012 -0.23823,0.763556 -0.232121,0.2504463 -0.604736,0.2504463 -0.360398,0 -0.592519,-0.2626632 -0.232121,-0.2626633 -0.232121,-0.7513391 v -4.819565 q 0,-0.4764589 0.207687,-0.7085799 0.207687,-0.2382294 0.568086,-0.2382294 0.219904,0 0.397049,0.1038436 0.177145,0.1038436 0.280988,0.3115308 0.109952,0.2076872 0.109952,0.5070011 z"
       style="font-weight:bold;font-size:12.5101px;line-height:1.25;font-family:'Arial Rounded MT Bold';-inkscape-font-specification:'Arial Rounded MT Bold, Bold'"
       id="path331249" />
  </g>
  <g
     aria-label="Cloud"
     id="text62656-7"
     style="font-size:3.44162px;line-height:0%;font-family:Helvetica;-inkscape-font-specification:Helvetica;letter-spacing:0px;word-spacing:0px;fill:#1a1a1a;stroke-width:0.286802">
    <path
       d="m 49.401996,1.3219549 q -1.416086,0 -2.238709,0.9460165 -0.816748,0.9401406 -0.816748,2.5795109 0,1.6863772 0.787368,2.6088902 0.793244,0.9166371 2.256338,0.9166371 0.899009,0 2.050681,-0.3231733 v 0.875506 q -0.893133,0.3349251 -2.203454,0.3349251 -1.897909,0 -2.932064,-1.1516723 -1.028279,-1.1516723 -1.028279,-3.2728646 0,-1.3279486 0.493574,-2.3268481 0.49945,-0.9988994 1.433715,-1.53948026 0.94014,-0.54058086 2.20933,-0.54058086 1.351452,0 2.362104,0.49357383 L 51.352788,1.7802734 Q 50.377392,1.3219549 49.401996,1.3219549 Z"
       style="font-size:12.0338px;line-height:1.25;font-family:'open sans';-inkscape-font-specification:'open sans'"
       id="path331224" />
    <path
       d="M 54.143831,9.1427498 H 53.168435 V -1.1788681e-4 h 0.975396 z"
       style="font-size:12.0338px;line-height:1.25;font-family:'open sans';-inkscape-font-specification:'open sans'"
       id="path331226" />
    <path
       d="m 61.770721,5.9168922 q 0,1.5747356 -0.793243,2.4619933 -0.793244,0.8813819 -2.191703,0.8813819 -0.863754,0 -1.533605,-0.4054357 -0.66985,-0.4054356 -1.034154,-1.163424 -0.364305,-0.7579884 -0.364305,-1.7745155 0,-1.5747355 0.787368,-2.4502415 0.787368,-0.8813818 2.185827,-0.8813818 1.351452,0 2.144696,0.8990094 0.799119,0.8990095 0.799119,2.4326139 z m -4.906359,0 q 0,1.2339346 0.493574,1.8802813 0.493574,0.6463467 1.451342,0.6463467 0.957769,0 1.451342,-0.6404708 0.49945,-0.6463467 0.49945,-1.8861572 0,-1.2280587 -0.49945,-1.8626536 -0.493573,-0.6404708 -1.463093,-0.6404708 -0.957769,0 -1.445467,0.628719 -0.487698,0.6287191 -0.487698,1.8744054 z"
       style="font-size:12.0338px;line-height:1.25;font-family:'open sans';-inkscape-font-specification:'open sans'"
       id="path331228" />
    <path
       d="m 64.397239,2.7027864 v 4.17775 q 0,0.7873678 0.358429,1.1751758 0.358428,0.387808 1.122293,0.387808 1.010651,0 1.474845,-0.5523326 0.470071,-0.5523327 0.470071,-1.8038949 V 2.7027864 h 0.975396 V 9.1427498 H 67.993277 L 67.852256,8.2789956 h -0.05288 q -0.29967,0.4759462 -0.834375,0.728609 -0.528829,0.2526628 -1.210431,0.2526628 -1.175176,0 -1.762763,-0.5582085 Q 63.410092,8.1438504 63.410092,6.9157917 V 2.7027864 Z"
       style="font-size:12.0338px;line-height:1.25;font-family:'open sans';-inkscape-font-specification:'open sans'"
       id="path331230" />
    <path
       d="m 75.249988,8.2789956 h -0.05288 q -0.675726,0.9812718 -2.021302,0.9812718 -1.263314,0 -1.968419,-0.8637542 -0.69923,-0.8637543 -0.69923,-2.4561175 0,-1.5923632 0.705106,-2.473745 0.705105,-0.8813818 1.962543,-0.8813818 1.310321,0 2.009551,0.9518924 h 0.07639 l -0.04113,-0.4641945 -0.0235,-0.4524427 V -1.1788681e-4 h 0.975396 V 9.1427498 h -0.793243 z m -1.950791,0.1645246 q 0.998899,0 1.445466,-0.5405809 0.452442,-0.5464567 0.452442,-1.7568878 V 5.9403957 q 0,-1.3690798 -0.458318,-1.9507918 -0.452443,-0.5875879 -1.451342,-0.5875879 -0.857879,0 -1.316197,0.6698502 -0.452443,0.6639744 -0.452443,1.8802813 0,1.2339346 0.452443,1.8626536 0.452443,0.6287191 1.327949,0.6287191 z"
       style="font-size:12.0338px;line-height:1.25;font-family:'open sans';-inkscape-font-specification:'open sans'"
       id="path331232" />
  </g>
</svg>
