<?xml version="1.0" encoding="UTF-8" standalone="no"?>
<svg
   xmlns:dc="http://purl.org/dc/elements/1.1/"
   xmlns:cc="http://creativecommons.org/ns#"
   xmlns:rdf="http://www.w3.org/1999/02/22-rdf-syntax-ns#"
   xmlns:svg="http://www.w3.org/2000/svg"
   xmlns="http://www.w3.org/2000/svg"
   id="svg24058"
   version="1.1"
   viewBox="0 0 23.223698 10.583333"
   height="10.583333mm"
   width="23.223698mm">
  <defs
     id="defs24052" />
  <metadata
     id="metadata24055">
    <rdf:RDF>
      <cc:Work
         rdf:about="">
        <dc:format>image/svg+xml</dc:format>
        <dc:type
           rdf:resource="http://purl.org/dc/dcmitype/StillImage" />
        <dc:title></dc:title>
      </cc:Work>
    </rdf:RDF>
  </metadata>
  <g
     transform="translate(-68.857361,-100.77596)"
     id="layer1">
    <g
       id="text23989"
       style="font-style:normal;font-weight:normal;font-size:1.76349998px;line-height:0%;font-family:sans-serif;letter-spacing:0px;word-spacing:0px;opacity:1;fill:#f9f9f9;fill-opacity:1;stroke:none;stroke-width:0.241569px;stroke-linecap:butt;stroke-linejoin:miter;stroke-opacity:1"
       aria-label="WebThings">
      <g
         id="text23999"
         style="font-style:normal;font-weight:normal;font-size:1.76349998px;line-height:0%;font-family:sans-serif;letter-spacing:0px;word-spacing:0px;opacity:1;fill:#ffffff;fill-opacity:1;stroke:none;stroke-width:0.241569px;stroke-linecap:butt;stroke-linejoin:miter;stroke-opacity:1"
         aria-label="B2GOS">
        <path
           id="path24675"
           style="font-style:normal;font-variant:normal;font-weight:bold;font-stretch:normal;font-size:7.76111126px;line-height:1.25;font-family:'Fira Sans';-inkscape-font-specification:'Fira Sans Bold';text-align:start;text-anchor:start;fill:#ffffff;fill-opacity:1;stroke-width:0.241569px"
           d="m 72.136328,105.90852 q 0.535516,0.1009 0.869244,0.39582 0.341489,0.29492 0.341489,0.88477 0,0.86148 -0.620889,1.21849 -0.613128,0.34925 -1.722967,0.34925 h -1.730727 v -5.37845 h 1.521177 q 1.133123,0 1.730728,0.32597 0.597606,0.3182 0.597606,1.04775 0,0.47343 -0.287161,0.76835 -0.2794,0.28716 -0.6985,0.38805 z M 70.5453,104.27869 v 1.24954 h 0.473428 q 0.807155,0 0.807155,-0.65193 0,-0.32597 -0.217311,-0.45791 -0.217311,-0.1397 -0.690739,-0.1397 z m 0.465667,3.55459 q 0.504472,0 0.760588,-0.14746 0.263878,-0.15522 0.263878,-0.56656 0,-0.74507 -0.931333,-0.74507 h -0.5588 v 1.45909 z" />
        <path
           id="path24677"
           style="font-style:normal;font-variant:normal;font-weight:bold;font-stretch:normal;font-size:7.76111126px;line-height:1.25;font-family:'Fira Sans';-inkscape-font-specification:'Fira Sans Bold';text-align:start;text-anchor:start;fill:#ffffff;fill-opacity:1;stroke-width:0.241569px"
           d="m 75.283944,103.40168 q 0.566561,0 0.970138,0.20179 0.411339,0.20179 0.620889,0.54328 0.217311,0.34149 0.217311,0.75283 0,0.4191 -0.170744,0.79939 -0.170744,0.3803 -0.605367,0.87701 -0.434622,0.48895 -1.265061,1.24178 h 2.149828 l -0.124178,0.93909 h -3.414889 v -0.86924 q 0.954617,-0.9391 1.389239,-1.41253 0.434622,-0.48118 0.605367,-0.79939 0.178505,-0.31821 0.178505,-0.65193 0,-0.31821 -0.186266,-0.49671 -0.178506,-0.18627 -0.48895,-0.18627 -0.2794,0 -0.496711,0.13194 -0.217311,0.12418 -0.457906,0.41134 l -0.721783,-0.57433 q 0.325966,-0.42686 0.776111,-0.66745 0.457905,-0.2406 1.024467,-0.2406 z" />
        <path
           id="path24679"
           style="font-style:normal;font-variant:normal;font-weight:bold;font-stretch:normal;font-size:7.76111126px;line-height:1.25;font-family:'Fira Sans';-inkscape-font-specification:'Fira Sans Bold';text-align:start;text-anchor:start;fill:#ffffff;fill-opacity:1;stroke-width:0.241569px"
           d="m 80.210794,103.24646 q 1.039989,0 1.792817,0.6597 l -0.644172,0.67521 q -0.287161,-0.21731 -0.535517,-0.31044 -0.240594,-0.1009 -0.5588,-0.1009 -0.597605,0 -0.954616,0.47343 -0.357012,0.46567 -0.357012,1.42029 0,1.03222 0.271639,1.46685 0.271639,0.42686 0.845961,0.42686 0.403578,0 0.729545,-0.17851 v -1.21849 h -0.6985 l -0.124178,-0.90029 h 2.056695 v 2.66206 q -0.4191,0.27164 -0.923573,0.4191 -0.504472,0.14746 -1.008944,0.14746 -1.226256,0 -1.847145,-0.71402 -0.620889,-0.72179 -0.620889,-2.11102 0,-0.88477 0.333728,-1.52118 0.341489,-0.63641 0.923573,-0.96238 0.589844,-0.33373 1.319388,-0.33373 z" />
        <path
           id="path24681"
           style="font-weight:normal;font-size:7.76111126px;stroke-width:0.241569px"
           d="m 85.065612,103.31631 q 0.675216,0 1.179689,0.32597 0.512233,0.3182 0.791633,0.93909 0.287161,0.62089 0.287161,1.50566 0,0.86924 -0.287161,1.49013 -0.2794,0.62089 -0.791633,0.94686 -0.504473,0.32596 -1.179689,0.32596 -0.675217,0 -1.18745,-0.3182 -0.504473,-0.31821 -0.791634,-0.9391 -0.2794,-0.62088 -0.2794,-1.49789 0,-0.86148 0.2794,-1.49013 0.287161,-0.62865 0.799395,-0.95462 0.512233,-0.33373 1.179689,-0.33373 z m 0,0.60537 q -0.6985,0 -1.086556,0.52775 -0.388056,0.52776 -0.388056,1.64536 0,1.10984 0.388056,1.62983 0.395817,0.52 1.086556,0.52 1.474611,0 1.474611,-2.15759 0,-2.16535 -1.474611,-2.16535 z" />
        <path
           id="path24683"
           style="font-weight:normal;font-size:7.76111126px;stroke-width:0.241569px"
           d="m 89.841847,103.31631 q 0.535517,0 0.915812,0.15522 0.380294,0.14747 0.737305,0.46567 l -0.403578,0.45015 q -0.302683,-0.2406 -0.597605,-0.34925 -0.287161,-0.11642 -0.620889,-0.11642 -0.4191,0 -0.690739,0.19403 -0.271639,0.19402 -0.271639,0.56656 0,0.23283 0.09313,0.39581 0.09313,0.15523 0.341489,0.28717 0.256117,0.13193 0.737306,0.2794 0.504472,0.15522 0.8382,0.33372 0.333728,0.17851 0.535517,0.49671 0.20955,0.31045 0.20955,0.79164 0,0.46566 -0.232834,0.82268 -0.225072,0.35701 -0.659694,0.5588 -0.426861,0.20178 -1.016706,0.20178 -1.109839,0 -1.8161,-0.69073 l 0.403578,-0.45015 q 0.325967,0.26388 0.659694,0.40358 0.333728,0.13194 0.745067,0.13194 0.496711,0 0.822678,-0.2406 0.325967,-0.24835 0.325967,-0.71402 0,-0.26388 -0.100895,-0.43462 -0.100894,-0.17851 -0.34925,-0.31821 -0.240594,-0.1397 -0.706261,-0.2794 -0.822678,-0.24835 -1.202972,-0.5976 -0.380295,-0.34925 -0.380295,-0.94686 0,-0.40358 0.20955,-0.72178 0.217311,-0.31821 0.597606,-0.49671 0.388055,-0.17851 0.877005,-0.17851 z" />
      </g>
    </g>
  </g>
</svg>
