<?xml version="1.0" encoding="UTF-8" standalone="no"?>
<!-- Created with Inkscape (http://www.inkscape.org/) -->

<svg
   width="77.21077mm"
   height="150.50784mm"
   viewBox="0 0 77.21077 150.50784"
   version="1.1"
   id="svg1"
   xmlns="http://www.w3.org/2000/svg"
   xmlns:svg="http://www.w3.org/2000/svg">
  <defs
     id="defs1">
    <filter
       style="color-interpolation-filters:sRGB"
       id="filter128"
       x="-0.0080547562"
       y="-0.0026605991"
       width="1.0170976"
       height="1.006677">
      <feColorMatrix
         values="0.21 0.72 0.072 0 0 0.21 0.72 0.072 0 0 0.21 0.72 0.072 0 0 0 0 0 1 0 "
         id="feColorMatrix128" />
    </filter>
  </defs>
  <g
     id="layer1"
     transform="translate(-57.414574,23.547922)">
    <g
       id="g1445"
       transform="matrix(1.0683467,0,0,1.069736,-379.73619,-719.66102)"
       style="opacity:0.166256;stroke-width:1.06585">
      <g
         id="g1444"
         transform="matrix(1.0331436,0,0,1.0320575,-74.797898,175.47928)"
         style="opacity:0.48572;stroke-width:0.923321;filter:url(#filter128)">
        <g
           id="g1">
          <path
             id="polygon1308"
             style="fill:none;stroke:#ffffff;stroke-width:1.8337"
             class="cls-1"
             transform="matrix(0.34002503,0,0,0.34002503,283.36306,423.86442)"
             d="m 748.25,419.26 -0.2,29.27 -100.7,58.52 0.2,-29.26 z" />
          <path
             id="polygon1309"
             style="fill:none;stroke:#ffffff;stroke-width:1.8337"
             class="cls-1"
             transform="matrix(0.34002503,0,0,0.34002503,283.36306,423.86442)"
             d="m 647.55,477.79 -0.2,29.26 -101.37,-58.52 0.2,-29.27 z" />
          <path
             id="polygon1310"
             style="fill:none;stroke:#ffffff;stroke-width:1.8337"
             class="cls-1"
             transform="matrix(0.34002503,0,0,0.34002503,283.36306,423.86442)"
             d="M 748.25,419.26 647.55,477.79 546.18,419.26 646.89,360.74 Z" />
          <path
             id="polygon1312"
             style="fill:none;stroke:#ffffff;stroke-width:1.8337"
             class="cls-1"
             transform="matrix(0.34002503,0,0,0.34002503,283.36306,423.86442)"
             d="m 664.23,113.5 -0.02,13.33 -7.49,-2.48 0.01,-6.49 z" />
          <path
             id="polygon1313"
             style="fill:none;stroke:#ffffff;stroke-width:1.8337"
             class="cls-1"
             transform="matrix(0.34002503,0,0,0.34002503,283.36306,423.86442)"
             d="m 680.6,122.94 -0.03,13.75 -7.48,-5.33 v -4.05 z" />
          <path
             id="polygon1314"
             style="fill:none;stroke:#ffffff;stroke-width:1.8337"
             class="cls-1"
             transform="matrix(0.34002503,0,0,0.34002503,283.36306,423.86442)"
             d="m 696.95,132.39 -0.04,20.3 -7.5,1.17 0.04,-17.11 z" />
          <path
             id="polygon1315"
             style="fill:none;stroke:#ffffff;stroke-width:1.8337"
             class="cls-1"
             transform="matrix(0.34002503,0,0,0.34002503,283.36306,423.86442)"
             d="m 713.3,141.83 -0.03,17.87 -7.5,2.92 0.03,-16.43 z" />
          <path
             id="polygon1316"
             style="fill:none;stroke:#ffffff;stroke-width:1.8337"
             class="cls-1"
             transform="matrix(0.34002503,0,0,0.34002503,283.36306,423.86442)"
             d="m 576.1,164.72 -0.47,264.12 -8.18,-4.72 0.47,-264.12 z" />
          <path
             id="polygon1317"
             style="fill:none;stroke:#ffffff;stroke-width:1.8337"
             class="cls-1"
             transform="matrix(0.34002503,0,0,0.34002503,283.36306,423.86442)"
             d="m 583.6,160.36 -0.47,264.12 -7.5,4.36 0.47,-264.12 z" />
          <path
             id="polygon1318"
             style="fill:none;stroke:#ffffff;stroke-width:1.8337"
             class="cls-1"
             transform="matrix(0.34002503,0,0,0.34002503,283.36306,423.86442)"
             d="m 591.78,165.08 -0.47,264.12 -8.18,-4.72 0.47,-264.12 z" />
          <path
             id="polygon1319"
             style="fill:none;stroke:#ffffff;stroke-width:1.8337"
             class="cls-1"
             transform="matrix(0.34002503,0,0,0.34002503,283.36306,423.86442)"
             d="m 599.96,169.8 -0.46,264.13 -7.51,4.36 0.47,-264.12 z" />
          <path
             id="polygon1320"
             style="fill:none;stroke:#ffffff;stroke-width:1.8337"
             class="cls-1"
             transform="matrix(0.34002503,0,0,0.34002503,283.36306,423.86442)"
             d="m 592.46,174.17 -0.47,264.12 -8.19,-4.73 0.48,-264.12 z" />
          <path
             id="polygon1321"
             style="fill:none;stroke:#ffffff;stroke-width:1.8337"
             class="cls-1"
             transform="matrix(0.34002503,0,0,0.34002503,283.36306,423.86442)"
             d="m 608.13,174.52 -0.46,264.12 -8.17,-4.71 0.46,-264.13 z" />
          <path
             id="polygon1322"
             style="fill:none;stroke:#ffffff;stroke-width:1.8337"
             class="cls-1"
             transform="matrix(0.34002503,0,0,0.34002503,283.36306,423.86442)"
             d="m 608.81,183.6 -0.47,264.13 -8.18,-4.73 0.47,-264.12 z" />
          <path
             id="polygon1323"
             style="fill:none;stroke:#ffffff;stroke-width:1.8337"
             class="cls-1"
             transform="matrix(0.34002503,0,0,0.34002503,283.36306,423.86442)"
             d="m 616.32,179.25 -0.47,264.12 -7.51,4.36 0.47,-264.13 z" />
          <path
             id="polygon1324"
             style="fill:none;stroke:#ffffff;stroke-width:1.8337"
             class="cls-1"
             transform="matrix(0.34002503,0,0,0.34002503,283.36306,423.86442)"
             d="m 624.5,183.97 -0.47,264.12 -8.18,-4.72 0.47,-264.12 z" />
          <path
             id="polygon1325"
             style="fill:none;stroke:#ffffff;stroke-width:1.8337"
             class="cls-1"
             transform="matrix(0.34002503,0,0,0.34002503,283.36306,423.86442)"
             d="m 632.67,188.69 -0.47,264.12 -7.51,4.36 0.47,-264.12 z" />
          <path
             id="polygon1326"
             style="fill:none;stroke:#ffffff;stroke-width:1.8337"
             class="cls-1"
             transform="matrix(0.34002503,0,0,0.34002503,283.36306,423.86442)"
             d="m 625.16,193.05 -0.47,264.12 -8.17,-4.72 0.47,-264.12 z" />
          <path
             id="polygon1327"
             style="fill:none;stroke:#ffffff;stroke-width:1.8337"
             class="cls-1"
             transform="matrix(0.34002503,0,0,0.34002503,283.36306,423.86442)"
             d="m 640.85,193.41 -0.47,264.12 -8.18,-4.72 0.47,-264.12 z" />
          <path
             id="polygon1328"
             style="fill:none;stroke:#ffffff;stroke-width:1.8337"
             class="cls-1"
             transform="matrix(0.34002503,0,0,0.34002503,283.36306,423.86442)"
             d="m 729.44,416.28 0.23,-265 -7.51,4.36 -73.13,42.5 -7.5,4.36 -0.47,264.12 z" />
          <path
             id="polygon1329"
             style="fill:none;stroke:#ffffff;stroke-width:1.8337"
             class="cls-1"
             transform="matrix(0.34002503,0,0,0.34002503,283.36306,423.86442)"
             d="m 680.6,122.94 -7.51,4.37 8.17,4.72 7.51,-4.37 8.18,4.73 -7.5,4.36 8.18,4.72 7.5,-4.36 8.17,4.72 -7.5,4.36 8.18,4.72 7.51,-4.36 8.18,4.73 -7.51,4.36 -73.13,42.5 -7.5,4.36 -8.18,-4.73 7.5,-4.36 -8.18,-4.72 -7.51,4.36 -8.17,-4.72 7.51,-4.36 -8.18,-4.72 -7.51,4.35 -8.18,-4.72 7.5,-4.36 -8.17,-4.72 -7.5,4.37 -8.18,-4.73 7.5,-4.36 -8.18,-4.72 -7.5,4.36 -8.18,-4.72 88.14,-51.22 8.17,4.72 -7.5,4.36 8.18,4.72 7.5,-4.36 z" />
          <path
             id="polygon1330"
             style="fill:none;stroke:#ffffff;stroke-width:1.8337"
             class="cls-1"
             transform="matrix(0.34002503,0,0,0.34002503,283.36306,423.86442)"
             d="m 641.53,202.5 -0.47,264.12 -8.18,-4.73 0.47,-264.12 z" />
          <path
             id="polygon1331"
             style="fill:none;stroke:#ffffff;stroke-width:1.8337"
             class="cls-1"
             transform="matrix(0.34002503,0,0,0.34002503,283.36306,423.86442)"
             d="m 676.94,478.25 v 11.64 l -10.39,6.02 v -11.76 z" />
          <path
             id="polygon1332"
             style="fill:none;stroke:#ffffff;stroke-width:1.8337"
             class="cls-1"
             transform="matrix(0.34002503,0,0,0.34002503,283.36306,423.86442)"
             d="m 675.59,479.02 v 10.14 l 1.35,0.72 v -11.63 z" />
          <path
             id="polygon1333"
             style="fill:none;stroke:#ffffff;stroke-width:1.8337"
             class="cls-1"
             transform="matrix(0.34002503,0,0,0.34002503,283.36306,423.86442)"
             d="m 666.55,494.37 4.49,-2.54 v -10.26 l 0.97,-0.5 v 10.11 l 3.58,-2.02 1.35,0.73 -10.39,6.02 z" />
          <path
             id="polygon1334"
             style="fill:none;stroke:#ffffff;stroke-width:1.8337"
             class="cls-1"
             transform="matrix(0.34002503,0,0,0.34002503,283.36306,423.86442)"
             d="m 691.38,469.83 v 11.65 l -10.4,6.01 v -11.75 z" />
          <path
             id="polygon1335"
             style="fill:none;stroke:#ffffff;stroke-width:1.8337"
             class="cls-1"
             transform="matrix(0.34002503,0,0,0.34002503,283.36306,423.86442)"
             d="m 690.02,470.61 v 10.14 l 1.36,0.71 v -11.63 z" />
          <path
             id="polygon1336"
             style="fill:none;stroke:#ffffff;stroke-width:1.8337"
             class="cls-1"
             transform="matrix(0.34002503,0,0,0.34002503,283.36306,423.86442)"
             d="m 680.98,485.96 4.49,-2.55 v -10.25 l 0.97,-0.5 v 10.1 l 3.58,-2.01 1.36,0.73 -10.4,6.01 z" />
          <path
             id="polygon1337"
             style="fill:none;stroke:#ffffff;stroke-width:1.8337"
             class="cls-1"
             transform="matrix(0.34002503,0,0,0.34002503,283.36306,423.86442)"
             d="m 705.8,461.45 v 11.64 l -10.4,6.02 v -11.76 z" />
          <path
             id="polygon1338"
             style="fill:none;stroke:#ffffff;stroke-width:1.8337"
             class="cls-1"
             transform="matrix(0.34002503,0,0,0.34002503,283.36306,423.86442)"
             d="m 704.44,462.22 v 10.14 l 1.36,0.72 v -11.63 z" />
          <path
             id="polygon1339"
             style="fill:none;stroke:#ffffff;stroke-width:1.8337"
             class="cls-1"
             transform="matrix(0.34002503,0,0,0.34002503,283.36306,423.86442)"
             d="m 695.4,477.57 4.5,-2.54 v -10.26 l 0.96,-0.5 v 10.11 l 3.58,-2.02 1.36,0.73 -10.4,6.02 z" />
          <path
             id="polygon1340"
             style="fill:none;stroke:#ffffff;stroke-width:1.8337"
             class="cls-1"
             transform="matrix(0.34002503,0,0,0.34002503,283.36306,423.86442)"
             d="m 720.23,453.04 v 11.64 l -10.39,6.01 v -11.75 z" />
          <path
             id="polygon1341"
             style="fill:none;stroke:#ffffff;stroke-width:1.8337"
             class="cls-1"
             transform="matrix(0.34002503,0,0,0.34002503,283.36306,423.86442)"
             d="m 718.88,453.81 v 10.14 l 1.35,0.72 v -11.63 z" />
          <path
             id="polygon1342"
             style="fill:none;stroke:#ffffff;stroke-width:1.8337"
             class="cls-1"
             transform="matrix(0.34002503,0,0,0.34002503,283.36306,423.86442)"
             d="m 709.84,469.16 4.49,-2.54 v -10.26 l 0.96,-0.5 v 10.11 l 3.59,-2.02 1.35,0.73 -10.39,6.01 z" />
          <path
             id="polygon1343"
             style="fill:none;stroke:#ffffff;stroke-width:1.8337"
             class="cls-1"
             transform="matrix(0.34002503,0,0,0.34002503,283.36306,423.86442)"
             d="m 734.65,444.71 v 11.64 l -10.39,6.02 v -11.76 z" />
          <path
             id="polygon1344"
             style="fill:none;stroke:#ffffff;stroke-width:1.8337"
             class="cls-1"
             transform="matrix(0.34002503,0,0,0.34002503,283.36306,423.86442)"
             d="m 733.3,445.48 v 10.14 l 1.35,0.72 v -11.63 z" />
          <path
             id="polygon1345"
             style="fill:none;stroke:#ffffff;stroke-width:1.8337"
             class="cls-1"
             transform="matrix(0.34002503,0,0,0.34002503,283.36306,423.86442)"
             d="m 724.26,460.84 4.49,-2.55 v -10.25 l 0.96,-0.5 v 10.1 l 3.59,-2.02 1.35,0.73 -10.39,6.02 z" />
          <path
             id="polygon1346"
             style="fill:none;stroke:#ffffff;stroke-width:1.8337"
             class="cls-1"
             transform="matrix(0.34002503,0,0,0.34002503,283.36306,423.86442)"
             d="m 579.61,152.39 v 5.72 l 65.42,37.61 v -5.71 z" />
          <path
             id="polygon1347"
             style="fill:none;stroke:#ffffff;stroke-width:1.8337"
             class="cls-1"
             transform="matrix(0.34002503,0,0,0.34002503,283.36306,423.86442)"
             d="m 713.88,150.61 v 5.72 l -68.85,39.39 v -5.71 z" />
          <path
             id="polygon1348"
             style="fill:none;stroke:#ffffff;stroke-width:1.8337"
             class="cls-1"
             transform="matrix(0.34002503,0,0,0.34002503,283.36306,423.86442)"
             d="m 648.74,112.95 65.14,37.66 -68.85,39.4 -65.42,-37.62 z" />
          <path
             id="polygon1349"
             style="fill:none;stroke:#ffffff;stroke-width:1.8337"
             class="cls-1"
             transform="matrix(0.34002503,0,0,0.34002503,283.36306,423.86442)"
             d="m 645.23,187.68 59.03,-34.4 -55.52,-32.73 -59.67,34.27 z" />
          <path
             id="polygon1350"
             style="fill:none;stroke:#ffffff;stroke-width:1.8337"
             class="cls-1"
             transform="matrix(0.34002503,0,0,0.34002503,283.36306,423.86442)"
             d="m 648.74,115.11 -64.52,37.21 5.24,2.7 59.28,-34.47 z" />
          <path
             id="polygon1351"
             style="fill:none;stroke:#ffffff;stroke-width:1.8337"
             class="cls-1"
             transform="matrix(0.34002503,0,0,0.34002503,283.36306,423.86442)"
             d="m 709.53,150.61 -60.79,-35.5 v 5.44 l 55.52,32.73 z" />
          <path
             id="polygon1352"
             style="fill:none;stroke:#ffffff;stroke-width:1.8337"
             class="cls-1"
             transform="matrix(0.34002503,0,0,0.34002503,283.36306,423.86442)"
             d="m 633.98,133.41 v 10.07 l 15.64,8.8 v -10.59 z" />
          <path
             id="polygon1353"
             style="fill:none;stroke:#ffffff;stroke-width:1.8337"
             class="cls-1"
             transform="matrix(0.34002503,0,0,0.34002503,283.36306,423.86442)"
             d="m 665.26,133.16 v 10.08 l -15.64,9.04 v -10.59 z" />
          <path
             id="polygon1354"
             style="fill:none;stroke:#ffffff;stroke-width:1.8337"
             class="cls-1"
             transform="matrix(0.34002503,0,0,0.34002503,283.36306,423.86442)"
             d="m 649.62,124.7 15.64,8.46 -15.64,8.53 -15.64,-8.28 z" />
          <path
             id="polygon1355"
             style="fill:none;stroke:#ffffff;stroke-width:1.8337"
             class="cls-1"
             transform="matrix(0.34002503,0,0,0.34002503,283.36306,423.86442)"
             d="m 649.72,140.4 10.24,-5.76 -10.34,-5.75 -10.43,5.86 z" />
          <path
             id="polygon1356"
             style="fill:none;stroke:#ffffff;stroke-width:1.8337"
             class="cls-1"
             transform="matrix(0.34002503,0,0,0.34002503,283.36306,423.86442)"
             d="m 649.62,125.89 -13.1,7.48 2.88,1.49 10.22,-5.97 z" />
          <path
             id="polygon1357"
             style="fill:none;stroke:#ffffff;stroke-width:1.8337"
             class="cls-1"
             transform="matrix(0.34002503,0,0,0.34002503,283.36306,423.86442)"
             d="m 662.86,133.16 -13.24,-7.27 v 3 l 10.34,5.75 z" />
          <path
             id="polygon1358"
             style="fill:none;stroke:#ffffff;stroke-width:1.8337"
             class="cls-1"
             transform="matrix(0.34002503,0,0,0.34002503,283.36306,423.86442)"
             d="m 654.2,134.1 v 2.23 l -4.43,2.18 v -2.18 z" />
          <path
             id="polygon1359"
             style="fill:none;stroke:#ffffff;stroke-width:1.8337"
             class="cls-1"
             transform="matrix(0.34002503,0,0,0.34002503,283.36306,423.86442)"
             d="m 645.32,133.97 v 2.18 l 4.45,2.36 v -2.18 z" />
          <path
             id="polygon1360"
             style="fill:none;stroke:#ffffff;stroke-width:1.8337"
             class="cls-1"
             transform="matrix(0.34002503,0,0,0.34002503,283.36306,423.86442)"
             d="m 649.77,131.74 -4.45,2.23 4.45,2.36 4.43,-2.25 z" />
          <path
             class="cls-1"
             d="m 504.20931,463.98733 -0.45222,5.44049 c 0,0.14611 0.24481,0.26178 0.54403,0.26178 0.29922,0 0.53724,-0.11567 0.53724,-0.26178 l -0.45904,-5.44049 z"
             id="path1360"
             style="fill:none;stroke:#ffffff;stroke-width:0.313952;stroke-opacity:1" />
          <path
             class="cls-1"
             d="m 504.37932,463.98733 c 0,0.0244 -0.0407,0.0334 -0.0918,0.0334 -0.051,0 -0.0884,0 -0.0884,-0.0334 0,-0.0334 0.0407,-0.0411 0.0884,-0.0411 0.0476,0 0.0918,0 0.0918,0.0411 z"
             id="path1361"
             style="fill:none;stroke:#ffffff;stroke-width:0.313952;stroke-opacity:1" />
          <path
             id="polygon1361"
             style="fill:none;stroke:#ffffff;stroke-width:1.8337"
             class="cls-1"
             transform="matrix(0.34002503,0,0,0.34002503,283.36306,423.86442)"
             d="m 656.23,146.15 v 10.07 l 15.65,8.8 v -10.59 z" />
          <path
             id="polygon1362"
             style="fill:none;stroke:#ffffff;stroke-width:1.8337"
             class="cls-1"
             transform="matrix(0.34002503,0,0,0.34002503,283.36306,423.86442)"
             d="m 687.51,145.9 v 10.08 l -15.63,9.04 v -10.59 z" />
          <path
             id="polygon1363"
             style="fill:none;stroke:#ffffff;stroke-width:1.8337"
             class="cls-1"
             transform="matrix(0.34002503,0,0,0.34002503,283.36306,423.86442)"
             d="m 671.87,137.44 15.64,8.46 -15.63,8.53 -15.65,-8.28 z" />
          <path
             id="polygon1364"
             style="fill:none;stroke:#ffffff;stroke-width:1.8337"
             class="cls-1"
             transform="matrix(0.34002503,0,0,0.34002503,283.36306,423.86442)"
             d="m 671.98,153.15 10.23,-5.77 -10.33,-5.75 -10.43,5.86 z" />
          <path
             id="polygon1365"
             style="fill:none;stroke:#ffffff;stroke-width:1.8337"
             class="cls-1"
             transform="matrix(0.34002503,0,0,0.34002503,283.36306,423.86442)"
             d="m 671.88,138.63 -13.11,7.48 2.89,1.49 10.22,-5.97 z" />
          <path
             id="polygon1366"
             style="fill:none;stroke:#ffffff;stroke-width:1.8337"
             class="cls-1"
             transform="matrix(0.34002503,0,0,0.34002503,283.36306,423.86442)"
             d="m 685.11,145.9 -13.23,-7.27 v 3 l 10.33,5.75 z" />
          <path
             id="polygon1367"
             style="fill:none;stroke:#ffffff;stroke-width:1.8337"
             class="cls-1"
             transform="matrix(0.34002503,0,0,0.34002503,283.36306,423.86442)"
             d="m 676.46,146.84 v 2.23 l -4.44,2.18 v -2.18 z" />
          <path
             id="polygon1368"
             style="fill:none;stroke:#ffffff;stroke-width:1.8337"
             class="cls-1"
             transform="matrix(0.34002503,0,0,0.34002503,283.36306,423.86442)"
             d="m 667.58,146.71 v 2.18 l 4.44,2.36 v -2.18 z" />
          <path
             id="polygon1369"
             style="fill:none;stroke:#ffffff;stroke-width:1.8337"
             class="cls-1"
             transform="matrix(0.34002503,0,0,0.34002503,283.36306,423.86442)"
             d="m 672.02,144.48 -4.44,2.23 4.44,2.36 4.44,-2.25 z" />
          <path
             class="cls-1"
             d="m 511.77828,468.29548 -0.45224,5.44036 c 0,0.14625 0.24142,0.26191 0.54064,0.26191 0.29922,0 0.54064,-0.11566 0.54064,-0.26191 l -0.44883,-5.44036 z"
             id="path1369"
             style="fill:none;stroke:#ffffff;stroke-width:0.313952;stroke-opacity:1" />
          <path
             class="cls-1"
             d="m 511.95849,468.30911 c 0,0.0231 -0.0407,0.0373 -0.0918,0.0373 -0.051,0 -0.0884,0 -0.0884,-0.0373 0,-0.0373 0.0407,-0.0373 0.0884,-0.0373 0.0476,0 0.0918,0.0141 0.0918,0.0373 z"
             id="path1370"
             style="fill:none;stroke:#ffffff;stroke-width:0.313952;stroke-opacity:1" />
          <path
             id="polygon1370"
             style="fill:none;stroke:#ffffff;stroke-width:1.8337"
             class="cls-1"
             transform="matrix(0.34002503,0,0,0.34002503,283.36306,423.86442)"
             d="m 630.04,152.94 v 11.09 l -6.52,3.46 V 156.4 Z" />
          <path
             id="polygon1371"
             style="fill:none;stroke:#ffffff;stroke-width:1.8337"
             class="cls-1"
             transform="matrix(0.34002503,0,0,0.34002503,283.36306,423.86442)"
             d="m 623.25,149.81 -6.03,3.24 -9.91,1.14 6.15,-3.25 z" />
          <path
             id="polygon1372"
             style="fill:none;stroke:#ffffff;stroke-width:1.8337"
             class="cls-1"
             transform="matrix(0.34002503,0,0,0.34002503,283.36306,423.86442)"
             d="m 617.18,153.05 -9.87,1.14 v 4.82 l 16.21,8.48 V 156.4 Z" />
          <path
             id="polygon1373"
             style="fill:none;stroke:#ffffff;stroke-width:1.8337"
             class="cls-1"
             transform="matrix(0.34002503,0,0,0.34002503,283.36306,423.86442)"
             d="m 623.25,149.81 6.79,3.13 -6.52,3.46 -6.3,-3.35 z" />
          <path
             id="polygon1374"
             style="fill:none;stroke:#ffffff;stroke-width:1.8337"
             class="cls-1"
             transform="matrix(0.34002503,0,0,0.34002503,283.36306,423.86442)"
             d="m 634.37,159.44 v 4.59 l -2.16,1.09 v -4.59 z" />
          <path
             id="polygon1375"
             style="fill:none;stroke:#ffffff;stroke-width:1.8337"
             class="cls-1"
             transform="matrix(0.34002503,0,0,0.34002503,283.36306,423.86442)"
             d="m 630.04,159.44 v 4.59 l 2.17,1.09 v -4.59 z" />
          <path
             id="polygon1376"
             style="fill:none;stroke:#ffffff;stroke-width:1.8337"
             class="cls-1"
             transform="matrix(0.34002503,0,0,0.34002503,283.36306,423.86442)"
             d="m 632.2,158.5 -1.83,0.92 1.83,0.92 z" />
          <path
             id="polygon1377"
             style="fill:none;stroke:#ffffff;stroke-width:1.8337"
             class="cls-1"
             transform="matrix(0.34002503,0,0,0.34002503,283.36306,423.86442)"
             d="m 632.21,160.35 1.83,-0.93 -1.84,-0.92 v 1.84 z" />
          <path
             id="polygon1378"
             style="fill:none;stroke:#ffffff;stroke-width:1.8337"
             class="cls-1"
             transform="matrix(0.34002503,0,0,0.34002503,283.36306,423.86442)"
             d="m 720.42,350.62 0.02,6.15 -13.1,7.56 -0.01,-6.14 z" />
          <path
             id="polygon1379"
             style="fill:none;stroke:#ffffff;stroke-width:1.8337"
             class="cls-1"
             transform="matrix(0.34002503,0,0,0.34002503,283.36306,423.86442)"
             d="m 701.42,361.6 0.01,6.14 -13.11,7.58 -0.02,-6.16 z" />
          <path
             id="polygon1380"
             style="fill:none;stroke:#ffffff;stroke-width:1.8337"
             class="cls-1"
             transform="matrix(0.34002503,0,0,0.34002503,283.36306,423.86442)"
             d="m 720.36,326.07 0.01,6.14 -13.1,7.56 -0.02,-6.14 z" />
          <path
             id="polygon1381"
             style="fill:none;stroke:#ffffff;stroke-width:1.8337"
             class="cls-1"
             transform="matrix(0.34002503,0,0,0.34002503,283.36306,423.86442)"
             d="m 720.32,313.78 0.02,6.14 -13.1,7.57 -0.02,-6.14 z" />
          <path
             id="polygon1382"
             style="fill:none;stroke:#ffffff;stroke-width:1.8337"
             class="cls-1"
             transform="matrix(0.34002503,0,0,0.34002503,283.36306,423.86442)"
             d="m 720.25,289.24 0.02,6.13 -13.1,7.57 -0.02,-6.14 z" />
          <path
             id="polygon1383"
             style="fill:none;stroke:#ffffff;stroke-width:1.8337"
             class="cls-1"
             transform="matrix(0.34002503,0,0,0.34002503,283.36306,423.86442)"
             d="m 682.4,347.98 0.02,6.14 -13.11,7.57 -0.03,-6.14 z" />
          <path
             id="polygon1384"
             style="fill:none;stroke:#ffffff;stroke-width:1.8337"
             class="cls-1"
             transform="matrix(0.34002503,0,0,0.34002503,283.36306,423.86442)"
             d="m 701.28,312.48 0.01,6.14 -13.11,7.57 -0.02,-6.13 z" />
          <path
             id="polygon1385"
             style="fill:none;stroke:#ffffff;stroke-width:1.8337"
             class="cls-1"
             transform="matrix(0.34002503,0,0,0.34002503,283.36306,423.86442)"
             d="m 720.21,276.94 0.02,6.16 -13.1,7.56 -0.01,-6.15 z" />
          <path
             id="polygon1386"
             style="fill:none;stroke:#ffffff;stroke-width:1.8337"
             class="cls-1"
             transform="matrix(0.34002503,0,0,0.34002503,283.36306,423.86442)"
             d="m 682.36,335.7 0.02,6.13 -13.11,7.57 -0.02,-6.13 z" />
          <path
             id="polygon1387"
             style="fill:none;stroke:#ffffff;stroke-width:1.8337"
             class="cls-1"
             transform="matrix(0.34002503,0,0,0.34002503,283.36306,423.86442)"
             d="m 701.24,300.21 0.02,6.14 -13.12,7.57 -0.01,-6.14 z" />
          <path
             id="polygon1388"
             style="fill:none;stroke:#ffffff;stroke-width:1.8337"
             class="cls-1"
             transform="matrix(0.34002503,0,0,0.34002503,283.36306,423.86442)"
             d="m 682.33,323.42 0.02,6.14 -13.12,7.57 -0.01,-6.13 z" />
          <path
             id="polygon1389"
             style="fill:none;stroke:#ffffff;stroke-width:1.8337"
             class="cls-1"
             transform="matrix(0.34002503,0,0,0.34002503,283.36306,423.86442)"
             d="m 701.21,287.92 0.01,6.15 -13.11,7.57 -0.02,-6.15 z" />
          <path
             id="polygon1390"
             style="fill:none;stroke:#ffffff;stroke-width:1.8337"
             class="cls-1"
             transform="matrix(0.34002503,0,0,0.34002503,283.36306,423.86442)"
             d="m 682.29,311.15 0.02,6.13 -13.11,7.58 -0.02,-6.14 z" />
          <path
             id="polygon1391"
             style="fill:none;stroke:#ffffff;stroke-width:1.8337"
             class="cls-1"
             transform="matrix(0.34002503,0,0,0.34002503,283.36306,423.86442)"
             d="m 726.01,214.29 -7.14,-4.15 8.77,-5.06 7.14,4.15 z" />
          <path
             id="polygon1392"
             style="fill:none;stroke:#ffffff;stroke-width:1.8337"
             class="cls-1"
             transform="matrix(0.34002503,0,0,0.34002503,283.36306,423.86442)"
             d="m 682.26,298.86 0.02,6.15 -13.12,7.57 -0.01,-6.15 z" />
          <path
             id="polygon1393"
             style="fill:none;stroke:#ffffff;stroke-width:1.8337"
             class="cls-1"
             transform="matrix(0.34002503,0,0,0.34002503,283.36306,423.86442)"
             d="m 701.13,263.37 0.03,6.14 -13.12,7.57 -0.02,-6.14 z" />
          <path
             id="polygon1394"
             style="fill:none;stroke:#ffffff;stroke-width:1.8337"
             class="cls-1"
             transform="matrix(0.34002503,0,0,0.34002503,283.36306,423.86442)"
             d="m 720.08,227.84 0.01,6.14 -13.1,7.56 -0.01,-6.14 z" />
          <path
             id="polygon1395"
             style="fill:none;stroke:#ffffff;stroke-width:1.8337"
             class="cls-1"
             transform="matrix(0.34002503,0,0,0.34002503,283.36306,423.86442)"
             d="m 682.22,286.58 0.02,6.14 -13.11,7.57 -0.02,-6.13 z" />
          <path
             id="polygon1396"
             style="fill:none;stroke:#ffffff;stroke-width:1.8337"
             class="cls-1"
             transform="matrix(0.34002503,0,0,0.34002503,283.36306,423.86442)"
             d="m 701.1,251.09 0.02,6.15 -13.11,7.57 -0.02,-6.15 z" />
          <path
             id="polygon1397"
             style="fill:none;stroke:#ffffff;stroke-width:1.8337"
             class="cls-1"
             transform="matrix(0.34002503,0,0,0.34002503,283.36306,423.86442)"
             d="m 720.04,215.56 0.02,6.14 -13.1,7.56 -0.02,-6.13 z" />
          <path
             id="polygon1398"
             style="fill:none;stroke:#ffffff;stroke-width:1.8337"
             class="cls-1"
             transform="matrix(0.34002503,0,0,0.34002503,283.36306,423.86442)"
             d="m 682.19,274.31 0.02,6.14 -13.11,7.57 -0.02,-6.14 z" />
          <path
             id="polygon1399"
             style="fill:none;stroke:#ffffff;stroke-width:1.8337"
             class="cls-1"
             transform="matrix(0.34002503,0,0,0.34002503,283.36306,423.86442)"
             d="m 717.79,197.8 -7.14,-4.15 8.16,-4.71 7.14,4.15 z" />
          <path
             id="polygon1400"
             style="fill:none;stroke:#ffffff;stroke-width:1.8337"
             class="cls-1"
             transform="matrix(0.34002503,0,0,0.34002503,283.36306,423.86442)"
             d="m 701.07,238.81 0.01,6.14 -13.11,7.57 -0.02,-6.14 z" />
          <path
             id="polygon1401"
             style="fill:none;stroke:#ffffff;stroke-width:1.8337"
             class="cls-1"
             transform="matrix(0.34002503,0,0,0.34002503,283.36306,423.86442)"
             d="m 682.16,262.02 0.01,6.16 -13.11,7.57 -0.02,-6.15 z" />
          <path
             id="polygon1402"
             style="fill:none;stroke:#ffffff;stroke-width:1.8337"
             class="cls-1"
             transform="matrix(0.34002503,0,0,0.34002503,283.36306,423.86442)"
             d="m 701.03,226.54 0.02,6.13 -13.11,7.57 -0.02,-6.13 z" />
          <path
             id="polygon1403"
             style="fill:none;stroke:#ffffff;stroke-width:1.8337"
             class="cls-1"
             transform="matrix(0.34002503,0,0,0.34002503,283.36306,423.86442)"
             d="m 682.09,237.47 0.01,6.14 -13.11,7.57 -0.02,-6.14 z" />
          <path
             id="polygon1404"
             style="fill:none;stroke:#ffffff;stroke-width:1.8337"
             class="cls-1"
             transform="matrix(0.34002503,0,0,0.34002503,283.36306,423.86442)"
             d="m 700.96,201.97 0.02,6.14 -13.11,7.57 -0.02,-6.14 z" />
          <path
             id="polygon1405"
             style="fill:none;stroke:#ffffff;stroke-width:1.8337"
             class="cls-1"
             transform="matrix(0.34002503,0,0,0.34002503,283.36306,423.86442)"
             d="m 682.05,225.19 0.02,6.15 -13.11,7.57 -0.02,-6.15 z" />
          <path
             class="cls-1"
             d="m 530.22123,496.72838 2.98202,-1.72052 0.13941,71.85409 -27.40602,15.82816 -0.14281,-71.85749 2.98542,-1.72392 -0.0204,-7.20854 2.77461,-1.60151 v -5.3418 l 15.89277,-9.18067 v 5.34179 l 2.7746,-1.60492 z m -14.9067,18.32395 v -2.10135 l -4.47472,2.58419 v 2.08775 l 4.45772,-2.57059 z m -0.034,-12.52652 v -2.09115 l -4.45773,2.57399 v 2.09115 z m 6.46048,8.80665 v -2.09116 l -4.44073,2.57399 v 2.09116 l 4.45773,-2.57399 z m -0.0204,-12.52652 v -2.09116 l -4.46113,2.57399 v 2.09116 z m -6.36527,28.76611 v -2.09115 l -4.45773,2.57399 v 2.09115 z m 0.0714,25.04965 v -2.09116 l -4.45773,2.57399 v 2.09116 l 4.46113,-2.57399 z m 6.36867,-28.76952 v -2.09115 l -4.46113,2.57399 v 2.09115 l 4.45773,-2.57399 z m 0.0714,25.04964 v -2.09115 l -4.45773,2.57399 v 2.09455 z m 6.35846,-41.30624 v -2.09115 l -4.46452,2.57399 v 2.09115 l 4.45432,-2.57059 z m -0.0442,-12.52312 v -2.09115 l -4.45433,2.57399 v 2.09455 l 4.45433,-2.57399 z m 0.0714,25.05305 v -2.09116 l -4.45433,2.57059 v 2.09116 z m 0.0714,25.04964 V 543.084 l -4.45093,2.57059 v 2.09115 l 4.45433,-2.57059 z m -13.02976,-38.47723 v -2.08776 l -4.45432,2.56039 v 2.08776 l 4.45772,-2.57399 z m 0,4.1721 v -2.08435 l -4.45432,2.57399 v 2.08775 l 4.45772,-2.57739 z m 0.0238,8.35442 v -2.08775 l -4.45772,2.57399 v 2.08775 z m 6.40268,-24.59741 v -2.08775 l -4.45773,2.57398 v 2.08776 z m 0.034,12.52652 v -2.08775 l -4.45433,2.57399 v 2.08775 l 4.44753,-2.55699 z m 0,-4.17551 v -2.08435 l -4.45773,2.57399 v 2.08435 z m 0.0374,12.52653 v -2.08776 l -4.49173,2.57399 v 2.08776 l 4.46113,-2.57399 z m -6.43327,7.89198 v -2.08776 l -4.45773,2.57739 v 2.08436 z m 0.0476,16.69863 v -2.08436 l -4.45773,2.57399 v 2.08436 z m 6.46048,-3.71988 v -2.08435 l -4.45773,2.57399 v 2.08775 l 4.46113,-2.57739 z m -0.0476,-16.69523 v -2.08775 l -4.45772,2.57399 v 2.08775 z m -6.37207,28.76612 v -2.08435 l -4.46112,2.57399 v 2.08775 l 4.45772,-2.57739 z m 0,-4.17211 v -2.08775 l -4.46112,2.57399 v 2.08775 l 4.45772,-2.57399 z m -0.0374,-12.52652 v -2.08435 l -4.46113,2.57399 v 2.08775 l 4.45773,-2.57739 z m 0,4.17551 v -2.08775 l -4.49513,2.57738 v 2.08436 l 4.46113,-2.57399 z m 6.46048,8.80665 v -2.08776 l -4.45773,2.57399 v 2.07756 l 4.46113,-2.57399 z m -0.0476,-16.69863 v -2.08776 l -4.45772,2.57399 v 2.08776 l 4.46112,-2.57399 z m 0.034,12.52312 v -2.08435 l -4.46113,2.57399 v 2.08775 l 4.45773,-2.57739 z m -0.0238,-8.35101 v -2.08776 l -4.46112,2.57399 v 2.08775 l 4.45772,-2.57398 z m 6.37887,-28.77292 v -2.09116 l -4.45092,2.56719 v 2.08776 l 4.45432,-2.57059 z m 0,-4.17551 v -2.08775 l -4.45432,2.57399 v 2.08435 z m 0.034,12.52312 v -2.08435 l -4.46793,2.57739 v 2.08775 l 4.45433,-2.57399 z m 0,4.17551 v -2.08775 l -4.45433,2.57398 v 2.08436 z m 0.0476,16.69863 v -2.08776 l -4.45433,2.57399 v 2.08776 z m -0.0238,-8.34762 v -2.08435 l -4.45433,2.57059 v 2.08435 z m 0.034,12.52653 v -2.08776 l -4.45093,2.57059 v 2.08775 l 4.45433,-2.57058 z m 0,4.1721 v -2.08775 l -4.45433,2.57399 v 2.08435 z m -0.0374,-12.52312 v -2.08775 l -4.45773,2.57059 v 2.08775 l 4.45433,-2.57059 z"
             id="path1405"
             style="fill:none;stroke:#ffffff;stroke-width:0.623504;stroke-opacity:1" />
          <path
             id="polygon1406"
             style="fill:none;stroke:#ffffff;stroke-width:1.8337"
             class="cls-1"
             transform="matrix(0.34002503,0,0,0.34002503,283.36306,423.86442)"
             d="m 720.39,338.34 0.02,6.14 -13.11,7.56 -0.01,-6.13 z" />
          <path
             id="polygon1407"
             style="fill:none;stroke:#ffffff;stroke-width:1.8337"
             class="cls-1"
             transform="matrix(0.34002503,0,0,0.34002503,283.36306,423.86442)"
             d="m 701.38,349.32 0.02,6.14 -13.12,7.57 -0.01,-6.14 z" />
          <path
             id="polygon1408"
             style="fill:none;stroke:#ffffff;stroke-width:1.8337"
             class="cls-1"
             transform="matrix(0.34002503,0,0,0.34002503,283.36306,423.86442)"
             d="m 682.47,372.53 0.02,6.15 -13.12,7.57 -0.01,-6.15 z" />
          <path
             id="polygon1409"
             style="fill:none;stroke:#ffffff;stroke-width:1.8337"
             class="cls-1"
             transform="matrix(0.34002503,0,0,0.34002503,283.36306,423.86442)"
             d="m 701.35,337.05 0.01,6.13 -13.11,7.58 -0.02,-6.14 z" />
          <path
             id="polygon1410"
             style="fill:none;stroke:#ffffff;stroke-width:1.8337"
             class="cls-1"
             transform="matrix(0.34002503,0,0,0.34002503,283.36306,423.86442)"
             d="m 720.28,301.51 0.02,6.13 -13.1,7.57 -0.02,-6.14 z" />
          <path
             id="polygon1411"
             style="fill:none;stroke:#ffffff;stroke-width:1.8337"
             class="cls-1"
             transform="matrix(0.34002503,0,0,0.34002503,283.36306,423.86442)"
             d="m 682.44,360.26 0.01,6.13 -13.11,7.58 -0.02,-6.14 z" />
          <path
             id="polygon1412"
             style="fill:none;stroke:#ffffff;stroke-width:1.8337"
             class="cls-1"
             transform="matrix(0.34002503,0,0,0.34002503,283.36306,423.86442)"
             d="m 701.31,324.76 0.02,6.13 -13.11,7.58 -0.02,-6.14 z" />
          <path
             id="polygon1413"
             style="fill:none;stroke:#ffffff;stroke-width:1.8337"
             class="cls-1"
             transform="matrix(0.34002503,0,0,0.34002503,283.36306,423.86442)"
             d="m 720.59,411.94 0.02,6.15 -13.1,7.56 -0.02,-6.15 z" />
          <path
             id="polygon1414"
             style="fill:none;stroke:#ffffff;stroke-width:1.8337"
             class="cls-1"
             transform="matrix(0.34002503,0,0,0.34002503,283.36306,423.86442)"
             d="m 701.58,422.92 0.02,6.14 -13.12,7.58 -0.01,-6.15 z" />
          <path
             id="polygon1415"
             style="fill:none;stroke:#ffffff;stroke-width:1.8337"
             class="cls-1"
             transform="matrix(0.34002503,0,0,0.34002503,283.36306,423.86442)"
             d="m 720.52,387.39 0.02,6.14 -13.11,7.56 -0.01,-6.13 z" />
          <path
             id="polygon1416"
             style="fill:none;stroke:#ffffff;stroke-width:1.8337"
             class="cls-1"
             transform="matrix(0.34002503,0,0,0.34002503,283.36306,423.86442)"
             d="m 720.48,375.1 0.02,6.14 -13.1,7.57 -0.02,-6.14 z" />
          <path
             id="polygon1417"
             style="fill:none;stroke:#ffffff;stroke-width:1.8337"
             class="cls-1"
             transform="matrix(0.34002503,0,0,0.34002503,283.36306,423.86442)"
             d="m 682.56,409.31 0.02,6.13 -13.11,7.57 -0.02,-6.14 z" />
          <path
             id="polygon1418"
             style="fill:none;stroke:#ffffff;stroke-width:1.8337"
             class="cls-1"
             transform="matrix(0.34002503,0,0,0.34002503,283.36306,423.86442)"
             d="m 701.44,373.8 0.02,6.14 -13.12,7.57 -0.01,-6.13 z" />
          <path
             id="polygon1419"
             style="fill:none;stroke:#ffffff;stroke-width:1.8337"
             class="cls-1"
             transform="matrix(0.34002503,0,0,0.34002503,283.36306,423.86442)"
             d="m 682.53,397.02 0.02,6.13 -13.12,7.58 -0.01,-6.14 z" />
          <path
             id="polygon1420"
             style="fill:none;stroke:#ffffff;stroke-width:1.8337"
             class="cls-1"
             transform="matrix(0.34002503,0,0,0.34002503,283.36306,423.86442)"
             d="m 682.5,384.74 0.01,6.14 -13.11,7.57 -0.02,-6.13 z" />
          <path
             id="polygon1421"
             style="fill:none;stroke:#ffffff;stroke-width:1.8337"
             class="cls-1"
             transform="matrix(0.34002503,0,0,0.34002503,283.36306,423.86442)"
             d="m 720.55,399.67 0.02,6.13 -13.1,7.57 -0.01,-6.14 z" />
          <path
             id="polygon1422"
             style="fill:none;stroke:#ffffff;stroke-width:1.8337"
             class="cls-1"
             transform="matrix(0.34002503,0,0,0.34002503,283.36306,423.86442)"
             d="m 701.54,410.64 0.02,6.14 -13.11,7.57 -0.02,-6.14 z" />
          <path
             id="polygon1423"
             style="fill:none;stroke:#ffffff;stroke-width:1.8337"
             class="cls-1"
             transform="matrix(0.34002503,0,0,0.34002503,283.36306,423.86442)"
             d="m 682.63,433.85 0.02,6.15 -13.11,7.57 -0.02,-6.14 z" />
          <path
             id="polygon1424"
             style="fill:none;stroke:#ffffff;stroke-width:1.8337"
             class="cls-1"
             transform="matrix(0.34002503,0,0,0.34002503,283.36306,423.86442)"
             d="m 701.51,398.37 0.01,6.13 -13.11,7.58 -0.01,-6.14 z" />
          <path
             id="polygon1425"
             style="fill:none;stroke:#ffffff;stroke-width:1.8337"
             class="cls-1"
             transform="matrix(0.34002503,0,0,0.34002503,283.36306,423.86442)"
             d="m 720.45,362.83 0.02,6.14 -13.1,7.56 -0.02,-6.14 z" />
          <path
             id="polygon1426"
             style="fill:none;stroke:#ffffff;stroke-width:1.8337"
             class="cls-1"
             transform="matrix(0.34002503,0,0,0.34002503,283.36306,423.86442)"
             d="m 682.6,421.58 0.02,6.14 -13.12,7.57 -0.01,-6.14 z" />
          <path
             id="polygon1427"
             style="fill:none;stroke:#ffffff;stroke-width:1.8337"
             class="cls-1"
             transform="matrix(0.34002503,0,0,0.34002503,283.36306,423.86442)"
             d="m 701.47,386.08 0.02,6.14 -13.11,7.57 -0.02,-6.14 z" />
          <path
             id="polygon1428"
             style="fill:none;stroke:#ffffff;stroke-width:1.8337"
             class="cls-1"
             transform="matrix(0.34002503,0,0,0.34002503,283.36306,423.86442)"
             d="m 720.18,264.67 0.02,6.14 -13.1,7.56 -0.02,-6.13 z" />
          <path
             id="polygon1429"
             style="fill:none;stroke:#ffffff;stroke-width:1.8337"
             class="cls-1"
             transform="matrix(0.34002503,0,0,0.34002503,283.36306,423.86442)"
             d="m 720.14,252.4 0.02,6.14 -13.1,7.56 -0.02,-6.14 z" />
          <path
             id="polygon1430"
             style="fill:none;stroke:#ffffff;stroke-width:1.8337"
             class="cls-1"
             transform="matrix(0.34002503,0,0,0.34002503,283.36306,423.86442)"
             d="m 701.17,275.65 0.02,6.14 -13.11,7.57 -0.02,-6.14 z" />
          <path
             id="polygon1431"
             style="fill:none;stroke:#ffffff;stroke-width:1.8337"
             class="cls-1"
             transform="matrix(0.34002503,0,0,0.34002503,283.36306,423.86442)"
             d="m 720.11,240.11 0.02,6.15 -13.1,7.56 -0.02,-6.15 z" />
          <path
             id="polygon1432"
             style="fill:none;stroke:#ffffff;stroke-width:1.8337"
             class="cls-1"
             transform="matrix(0.34002503,0,0,0.34002503,283.36306,423.86442)"
             d="m 720.01,203.27 0.01,6.15 -13.1,7.57 -0.01,-6.15 z" />
          <path
             id="polygon1433"
             style="fill:none;stroke:#ffffff;stroke-width:1.8337"
             class="cls-1"
             transform="matrix(0.34002503,0,0,0.34002503,283.36306,423.86442)"
             d="m 682.12,249.75 0.02,6.13 -13.11,7.58 -0.02,-6.14 z" />
          <path
             id="polygon1434"
             style="fill:none;stroke:#ffffff;stroke-width:1.8337"
             class="cls-1"
             transform="matrix(0.34002503,0,0,0.34002503,283.36306,423.86442)"
             d="m 701,214.25 0.01,6.15 -13.11,7.57 -0.02,-6.15 z" />
          <path
             id="polygon1435"
             style="fill:none;stroke:#ffffff;stroke-width:1.8337"
             class="cls-1"
             transform="matrix(0.34002503,0,0,0.34002503,283.36306,423.86442)"
             d="m 654.16,255.77 -7.14,-4.15 8.79,-5.06 7.13,4.14 z" />
          <path
             id="polygon1436"
             style="fill:none;stroke:#ffffff;stroke-width:1.8337"
             class="cls-1"
             transform="matrix(0.34002503,0,0,0.34002503,283.36306,423.86442)"
             d="m 654.58,467.1 -7.14,-4.15 -0.42,-211.33 7.14,4.15 z" />
          <path
             id="polygon1437"
             style="fill:none;stroke:#ffffff;stroke-width:1.8337"
             class="cls-1"
             transform="matrix(0.34002503,0,0,0.34002503,283.36306,423.86442)"
             d="m 662.94,250.7 -7.13,-4.14 -0.06,-21.21 7.13,4.15 z" />
          <path
             id="polygon1438"
             style="fill:none;stroke:#ffffff;stroke-width:1.8337"
             class="cls-1"
             transform="matrix(0.34002503,0,0,0.34002503,283.36306,423.86442)"
             d="m 662.88,229.5 -7.13,-4.15 8.15,-4.71 7.14,4.15 z" />
          <path
             id="polygon1439"
             style="fill:none;stroke:#ffffff;stroke-width:1.8337"
             class="cls-1"
             transform="matrix(0.34002503,0,0,0.34002503,283.36306,423.86442)"
             d="m 671.04,224.79 -7.14,-4.15 -0.04,-15.71 7.14,4.15 z" />
          <path
             id="polygon1440"
             style="fill:none;stroke:#ffffff;stroke-width:1.8337"
             class="cls-1"
             transform="matrix(0.34002503,0,0,0.34002503,283.36306,423.86442)"
             d="m 671,209.08 -7.14,-4.15 46.74,-26.99 7.14,4.15 z" />
          <path
             id="polygon1441"
             style="fill:none;stroke:#ffffff;stroke-width:1.8337"
             class="cls-1"
             transform="matrix(0.34002503,0,0,0.34002503,283.36306,423.86442)"
             d="m 670.88,484.44 -9.89,-5.74 -0.03,-4.28 9.88,5.75 z" />
          <path
             id="polygon1442"
             style="fill:none;stroke:#ffffff;stroke-width:1.8337"
             class="cls-1"
             transform="matrix(0.34002503,0,0,0.34002503,283.36306,423.86442)"
             d="m 670.84,480.17 -9.88,-5.75 75.86,-43.8 9.88,5.75 z" />
          <path
             id="polygon1443"
             style="fill:none;stroke:#ffffff;stroke-width:1.8337"
             class="cls-1"
             transform="matrix(0.34002503,0,0,0.34002503,283.36306,423.86442)"
             d="m 746.7,436.37 0.04,4.27 -75.86,43.8 -0.04,-4.27 z" />
        </g>
      </g>
    </g>
  </g>
</svg>
