<?xml version="1.0" encoding="UTF-8" standalone="no"?>
<!-- Created with Inkscape (http://www.inkscape.org/) -->

<svg
   width="4.2333298mm"
   height="4.2333002mm"
   viewBox="0 0 4.2333298 4.2333002"
   version="1.1"
   id="svg1"
   xmlns="http://www.w3.org/2000/svg"
   xmlns:svg="http://www.w3.org/2000/svg">
  <defs
     id="defs1" />
  <g
     id="layer1"
     transform="translate(-102.65833,-146.31458)">
    <path
       d="m 104.775,150.54788 c -1.16912,0 -2.11667,-0.9475 -2.11667,-2.1166 0,-1.1692 0.94755,-2.1167 2.11667,-2.1167 1.16913,0 2.11666,0.9475 2.11666,2.1167 0,1.1691 -0.94753,2.1166 -2.11666,2.1166 z m 0.97564,-3.0286 c -0.0885,-0.065 -0.21249,-0.045 -0.27697,0.043 l -0.98724,1.3577 -0.43077,-0.4308 c -0.0777,-0.078 -0.2034,-0.078 -0.28029,0 -0.0769,0.078 -0.0777,0.2034 0,0.2803 l 0.59532,0.5953 c 0.0414,0.042 0.0976,0.062 0.15543,0.058 0.0579,-0.01 0.1108,-0.034 0.14469,-0.081 l 1.12366,-1.5462 c 0.0645,-0.088 0.0447,-0.2125 -0.0438,-0.277 z"
       id="path1488"
       style="fill:#10b981;fill-opacity:1;stroke-width:0.264583" />
  </g>
</svg>
