<?xml version="1.0" encoding="UTF-8" standalone="no"?>
<!-- Created with Inkscape (http://www.inkscape.org/) -->

<svg
   width="6.3499999mm"
   height="6.3498998mm"
   viewBox="0 0 6.3499999 6.3498998"
   version="1.1"
   id="svg1"
   xmlns="http://www.w3.org/2000/svg"
   xmlns:svg="http://www.w3.org/2000/svg">
  <defs
     id="defs1" />
  <g
     id="layer1"
     transform="translate(-7.4083,-45.77292)">
    <path
       d="m 10.5834,52.12282 c -1.7538,0 -3.1751,-1.4212 -3.1751,-3.1749 0,-1.7538 1.4213,-3.175 3.1751,-3.175 1.7537,0 3.1749,1.4212 3.1749,3.175 0,1.7537 -1.4212,3.1749 -3.1749,3.1749 z m 1.4634,-4.5429 c -0.132,-0.098 -0.3187,-0.068 -0.4155,0.064 l -1.4808,2.0366 -0.6463,-0.6462 c -0.1169,-0.117 -0.305,-0.117 -0.4204,0 -0.1155,0.117 -0.117,0.3051 0,0.4204 l 0.893,0.893 c 0.062,0.063 0.147,0.093 0.2333,0.087 0.087,-0.015 0.1662,-0.051 0.217,-0.1215 l 1.6854,-2.3193 c 0.096,-0.132 0.067,-0.3188 -0.066,-0.4155 z"
       id="path2437"
       style="fill:#5f8dd3;fill-opacity:1;stroke-width:0.264582" />
  </g>
</svg>
