<?xml version="1.0" encoding="UTF-8" standalone="no"?>
<!-- Created with Inkscape (http://www.inkscape.org/) -->

<svg
   width="32"
   height="32"
   viewBox="0 0 8.4666665 8.4666666"
   version="1.1"
   id="svg1"
   xmlns="http://www.w3.org/2000/svg"
   xmlns:svg="http://www.w3.org/2000/svg">
  <defs
     id="defs1" />
  <g
     id="layer1">
    <g
       id="g1185"
       transform="matrix(0.39061847,0,0,0.39061847,-715.90404,-4144.6704)"
       style="fill:#3584be;fill-opacity:1;stroke-width:4">
      <path
         style="fill:#e8b900;fill-opacity:1;stroke-width:3.97582"
         d="m 1839.8464,10632.169 c 0,0 0.7847,-2.114 1.743,-4.662 l 1.7425,-4.634 h -2.5704 c -1.4137,0 -2.5705,0 -2.5705,-0.03 0,0 -0.086,0.102 3.1282,-4.258 1.2634,-1.713 3.1174,-4.227 4.1201,-5.587 1.0027,-1.36 1.8266,-2.469 1.8306,-2.465 0.01,0 -0.043,0.151 -1.9321,5.209 -0.8219,2.201 -1.4968,4.011 -1.4996,4.024 0,0 1.1565,0.04 2.5765,0.04 2.0457,0 2.5771,0 2.559,0.03 -0.013,0.03 -0.6672,0.911 -1.455,1.979 -0.7877,1.067 -2.825,3.829 -4.5272,6.138 -1.7022,2.309 -3.1064,4.21 -3.1202,4.226 -0.018,0.04 -0.026,0.04 -0.026,0 z"
         id="path1181" />
    </g>
  </g>
</svg>
