<?xml version="1.0" encoding="UTF-8" standalone="no"?>
<!-- Created with Inkscape (http://www.inkscape.org/) -->

<svg
   width="32"
   height="32"
   viewBox="0 0 8.4666665 8.4666666"
   version="1.1"
   id="svg1"
   xmlns="http://www.w3.org/2000/svg"
   xmlns:svg="http://www.w3.org/2000/svg">
  <defs
     id="defs1" />
  <g
     transform="matrix(0.03172308,0,0,-0.03172308,7.99938,8.466699)"
     id="g5-32-9"
     style="fill:#888888;fill-opacity:1">
    <path
       id="path5-7-3"
       style="fill:#888888;fill-opacity:1;fill-rule:nonzero;stroke:none"
       d="m -237.4368,266.89398 c -8.137,0 -14.72603,-6.58903 -14.72603,-14.72603 V 14.727049 c 0,-8.1339996 6.58903,-14.72602688 14.72603,-14.72602688 h 118.72045 V 103.36014 h -34.77884 v 40.26852 h 34.77884 v 29.71269 c 0,34.473 21.04873,53.23524 51.80173,53.23524 14.73,0 27.39104,-1.09012 31.08104,-1.58012 v -36.03315 h -21.323418 c -16.724,0 -19.97136,-7.95098 -19.97136,-19.61298 v -25.72168 h 39.89385 l -5.196463,-40.26852 H -77.128358 V 0.00102212 H 0.00409645 c 8.13400005,0 14.72602755,6.59202728 14.72602755,14.72602688 V 252.16795 c 0,8.137 -6.5920275,14.72603 -14.72602755,14.72603 z" />
  </g>
</svg>
