<?xml version="1.0" encoding="UTF-8" standalone="no"?>
<svg
   xmlns:dc="http://purl.org/dc/elements/1.1/"
   xmlns:cc="http://creativecommons.org/ns#"
   xmlns:rdf="http://www.w3.org/1999/02/22-rdf-syntax-ns#"
   xmlns:svg="http://www.w3.org/2000/svg"
   xmlns="http://www.w3.org/2000/svg"
   id="svg8271"
   version="1.1"
   viewBox="0 0 8.4666665 8.4666669"
   height="32"
   width="32">
  <defs
     id="defs8265" />
  <metadata
     id="metadata8268">
    <rdf:RDF>
      <cc:Work
         rdf:about="">
        <dc:format>image/svg+xml</dc:format>
        <dc:type
           rdf:resource="http://purl.org/dc/dcmitype/StillImage" />
        <dc:title></dc:title>
      </cc:Work>
    </rdf:RDF>
  </metadata>
  <g
     transform="translate(0,-288.53332)"
     id="layer1">
    <g
       transform="matrix(0.26458333,0,0,0.26458333,-10395.752,-1811.057)"
       id="g8215">
      <g
         transform="matrix(0.11989824,0,0,-0.11989824,39321.264,7967.4594)"
         id="g6816"
         style="fill:#666666">
        <path
           id="path6814"
           style="fill:#666666;fill-opacity:1;fill-rule:nonzero;stroke:none"
           d="m 0,0 c 8.134,0 14.73,6.596 14.73,14.73 v 237.434 c 0,8.137 -6.596,14.731 -14.73,14.731 h -237.433 c -8.137,0 -14.73,-6.594 -14.73,-14.731 V 14.73 c 0,-8.134 6.593,-14.73 14.73,-14.73 z" />
      </g>
      <g
         transform="matrix(0.11989824,0,0,-0.11989824,39313.11,7967.4594)"
         id="g6820">
        <path
           id="path6818"
           style="fill:#ffffff;fill-opacity:1;fill-rule:nonzero;stroke:none"
           d="m 0,0 v 103.355 h 34.693 l 5.194,40.28 H 0 v 25.717 c 0,11.662 3.238,19.609 19.962,19.609 l 21.33,0.01 v 36.026 c -3.69,0.49 -16.351,1.587 -31.081,1.587 -30.753,0 -51.806,-18.771 -51.806,-53.244 v -29.705 h -34.781 v -40.28 h 34.781 L -41.595,0 Z" />
      </g>
    </g>
  </g>
</svg>
