<?xml version="1.0" encoding="UTF-8" standalone="no"?>
<!-- Created with Inkscape (http://www.inkscape.org/) -->

<svg
   width="32"
   height="32"
   viewBox="0 0 8.4666665 8.4666666"
   version="1.1"
   id="svg1"
   xmlns="http://www.w3.org/2000/svg"
   xmlns:svg="http://www.w3.org/2000/svg">
  <defs
     id="defs1" />
  <g
     transform="matrix(0.03172308,0,0,-0.03172308,7.99938,8.466699)"
     id="g5-32-9"
     style="fill:#888888;fill-opacity:1">
    <path
       id="path187721-7-3-6"
       style="fill:#888888;fill-opacity:1;fill-rule:evenodd;stroke:none;stroke-width:1.11205"
       d="m -118.74751,263.57497 c -73.66498,0 -133.41106,-59.72623 -133.41106,-133.41075 0,-58.960235 38.22516,-108.974295 91.24523,-126.6175949 6.67684,-1.2293899 9.1082,2.7740001 9.1082,6.4558599 0,3.16489 0,11.55626 -0.31523,22.6838 -37.11525,-8.05407 -44.94173,17.89234 -44.94173,17.89234 -6.07412,15.39888 -14.81981,19.51891 -14.81981,19.51891 -12.11452,8.26843 0.92362,8.0856 0.92362,8.0856 13.39025,-0.91417 20.43591,-13.74079 20.43591,-13.74079 11.90238,-20.38264 31.23152,-14.50994 38.83356,-11.06765 1.19786,8.60887 4.66033,14.47842 8.46891,17.82929 -29.62701,3.35087 -60.77594,14.81571 -60.77594,65.936225 0,14.57299 5.20126,26.46969 13.7348,35.78152 -1.38386,3.38239 -5.95434,16.96872 1.3208,35.32128 0,0 11.20162,3.59675 36.69095,-13.64936 10.63926,3.08923 22.05587,4.42895 33.39903,4.48884 11.34001,0 22.747467,-1.54462 33.401857,-4.48884 25.4742,17.24611 36.65439,13.64936 36.65439,13.64936 7.28208,-18.35256 2.70465,-31.93889 1.3208,-35.32128 8.55182,-9.31183 13.71305,-21.20853 13.71305,-35.78152 0,-51.271825 -31.20095,-62.553835 -60.91717,-65.844805 4.78296,-4.11688 9.05272,-12.26237 9.05272,-24.71387 0,-17.82929 0,-32.21629 0,-36.57905 0,-3.5967498 2.39888,-7.7482998 9.17282,-6.4243399 52.98035,17.6748299 91.17777,67.6573599 91.17777,126.5860749 0,73.68452 -59.74924,133.41075 -133.441947,133.41075" />
  </g>
</svg>
