<?xml version="1.0" encoding="UTF-8" standalone="no"?>
<!-- Created with Inkscape (http://www.inkscape.org/) -->

<svg
   width="93.205803"
   height="20"
   viewBox="0 0 24.660701 5.2916666"
   version="1.1"
   id="svg1"
   xmlns="http://www.w3.org/2000/svg"
   xmlns:svg="http://www.w3.org/2000/svg">
  <defs
     id="defs1" />
  <g
     id="layer1"
     transform="translate(-70.64375,-69.850014)">
    <g
       style="fill:#ffffff;fill-opacity:1;stroke-width:0.552187"
       transform="matrix(0.51109879,0,0,0.51109879,-223.94035,-5655.2809)"
       id="g1774-02-2-0">
      <path
         style="font-weight:bold;font-size:13.9868px;line-height:1.25;font-family:'Arial Rounded MT Bold';-inkscape-font-specification:'Arial Rounded MT Bold, Bold';letter-spacing:0px;word-spacing:0px;stroke-width:0.552186px"
         d="m 580.88839,11211.113 -1.64591,-2.705 -1.01077,0.957 v 1.482 q 0,0.539 -0.28684,0.833 -0.28001,0.287 -0.6488,0.287 -0.43026,0 -0.67612,-0.287 -0.24586,-0.287 -0.24586,-0.847 v -7.95 q 0,-0.621 0.23903,-0.942 0.23904,-0.328 0.68295,-0.328 0.43026,0 0.68295,0.294 0.25269,0.293 0.25269,0.867 v 4.521 l 2.09666,-2.199 q 0.38928,-0.41 0.59416,-0.56 0.20489,-0.15 0.49856,-0.15 0.3483,0 0.5805,0.225 0.23221,0.219 0.23221,0.553 0,0.41 -0.75808,1.093 l -0.99027,0.909 1.91225,3.004 q 0.21172,0.335 0.3005,0.513 0.0956,0.17 0.0956,0.328 0,0.443 -0.24586,0.703 -0.23903,0.253 -0.63514,0.253 -0.34148,0 -0.52587,-0.185 -0.1844,-0.184 -0.49855,-0.669 z m 5.22456,-1.837 v 1.557 q 0,0.567 -0.26635,0.854 -0.26635,0.28 -0.67612,0.28 -0.40294,0 -0.66246,-0.287 -0.25952,-0.287 -0.25952,-0.847 v -5.19 q 0,-1.257 0.90832,-1.257 0.4644,0 0.66929,0.294 0.20488,0.293 0.22537,0.867 0.33465,-0.574 0.68295,-0.867 0.35513,-0.294 0.94247,-0.294 0.58734,0 1.14053,0.294 0.55318,0.293 0.55318,0.778 0,0.342 -0.23903,0.567 -0.2322,0.219 -0.50538,0.219 -0.10244,0 -0.49855,-0.123 -0.38928,-0.13 -0.68978,-0.13 -0.40977,0 -0.66929,0.218 -0.25952,0.212 -0.40294,0.636 -0.14342,0.423 -0.19806,1.01 -0.0546,0.581 -0.0546,1.421 z m 9.13103,-0.642 h -3.64695 q 0.007,0.635 0.25269,1.12 0.25269,0.485 0.66246,0.731 0.4166,0.245 0.91515,0.245 0.33465,0 0.60783,-0.07 0.28001,-0.08 0.53953,-0.245 0.25952,-0.171 0.47806,-0.362 0.21855,-0.192 0.56685,-0.519 0.14342,-0.123 0.40977,-0.123 0.28684,0 0.4644,0.157 0.17757,0.157 0.17757,0.444 0,0.252 -0.19805,0.594 -0.19806,0.334 -0.601,0.649 -0.39611,0.307 -1.00393,0.512 -0.601,0.205 -1.38639,0.205 -1.79616,0 -2.79326,-1.025 -0.99711,-1.024 -0.99711,-2.779 0,-0.827 0.24586,-1.53 0.24586,-0.71 0.7171,-1.216 0.47123,-0.505 1.16101,-0.772 0.68978,-0.273 1.52981,-0.273 1.09272,0 1.87128,0.465 0.78539,0.457 1.17467,1.188 0.38928,0.731 0.38928,1.489 0,0.703 -0.40294,0.915 -0.40294,0.205 -1.13369,0.205 z m -3.64695,-1.059 h 3.3806 q -0.0683,-0.956 -0.51904,-1.427 -0.44392,-0.478 -1.17468,-0.478 -0.6966,0 -1.14735,0.485 -0.44392,0.478 -0.53953,1.42 z m 6.75437,3.258 v -8.086 q 0,-0.56 0.24586,-0.847 0.25269,-0.287 0.67612,-0.287 0.42343,0 0.68295,0.287 0.25952,0.28 0.25952,0.847 v 8.086 q 0,0.567 -0.26635,0.854 -0.25952,0.28 -0.67612,0.28 -0.40977,0 -0.66929,-0.294 -0.25269,-0.294 -0.25269,-0.84 z m 3.79036,0 v -8.086 q 0,-0.56 0.24587,-0.847 0.25269,-0.287 0.67612,-0.287 0.42342,0 0.68295,0.287 0.25952,0.28 0.25952,0.847 v 8.086 q 0,0.567 -0.26635,0.854 -0.25952,0.28 -0.67612,0.28 -0.40977,0 -0.66929,-0.294 -0.2527,-0.294 -0.2527,-0.84 z m 5.65483,-5.389 v 5.389 q 0,0.56 -0.26636,0.847 -0.26635,0.287 -0.67611,0.287 -0.40977,0 -0.6693,-0.294 -0.25269,-0.294 -0.25269,-0.84 v -5.334 q 0,-0.553 0.25269,-0.833 0.25953,-0.28 0.6693,-0.28 0.40976,0 0.67611,0.28 0.26636,0.28 0.26636,0.778 z m -0.92199,-1.925 q -0.38928,0 -0.66929,-0.239 -0.27318,-0.24 -0.27318,-0.677 0,-0.396 0.28001,-0.648 0.28684,-0.26 0.66246,-0.26 0.36197,0 0.64198,0.232 0.28001,0.232 0.28001,0.676 0,0.431 -0.27318,0.677 -0.27318,0.239 -0.64881,0.239 z m 7.56025,7.396 q -0.67612,0.526 -1.31126,0.792 -0.62831,0.26 -1.4137,0.26 -0.7171,0 -1.26346,-0.28 -0.53953,-0.287 -0.8332,-0.772 -0.29367,-0.485 -0.29367,-1.052 0,-0.765 0.4849,-1.304 0.48489,-0.54 1.33175,-0.724 0.17756,-0.04 0.881,-0.185 0.70344,-0.143 1.20199,-0.259 0.50539,-0.123 1.09272,-0.294 -0.0341,-0.737 -0.3005,-1.079 -0.25952,-0.348 -1.08589,-0.348 -0.71026,0 -1.07223,0.198 -0.35513,0.198 -0.61465,0.594 -0.25269,0.396 -0.36196,0.526 -0.10245,0.123 -0.45075,0.123 -0.31416,0 -0.54636,-0.198 -0.22537,-0.205 -0.22537,-0.519 0,-0.492 0.3483,-0.956 0.34831,-0.465 1.08589,-0.765 0.73759,-0.301 1.83713,-0.301 1.22931,0 1.93275,0.294 0.70344,0.287 0.99028,0.915 0.29367,0.628 0.29367,1.666 0,0.656 -0.007,1.114 0,0.457 -0.007,1.017 0,0.526 0.17073,1.1 0.17757,0.567 0.17757,0.731 0,0.286 -0.27318,0.525 -0.26635,0.233 -0.60782,0.233 -0.28684,0 -0.56685,-0.267 -0.28001,-0.273 -0.59417,-0.785 z m -0.12293,-2.698 q -0.40977,0.15 -1.19516,0.321 -0.77856,0.164 -1.07906,0.246 -0.3005,0.08 -0.57368,0.307 -0.27318,0.226 -0.27318,0.636 0,0.423 0.32099,0.723 0.32099,0.294 0.84003,0.294 0.55319,0 1.01759,-0.239 0.47124,-0.246 0.68978,-0.628 0.25269,-0.424 0.25269,-1.393 z m 5.41579,-2.8 v 0.226 q 0.49172,-0.649 1.07223,-0.95 0.58733,-0.307 1.34541,-0.307 0.73758,0 1.31809,0.321 0.58051,0.321 0.86734,0.908 0.1844,0.342 0.23904,0.738 0.0546,0.396 0.0546,1.011 v 3.469 q 0,0.56 -0.25952,0.847 -0.25269,0.287 -0.66246,0.287 -0.4166,0 -0.67612,-0.294 -0.25952,-0.294 -0.25952,-0.84 v -3.107 q 0,-0.922 -0.25952,-1.407 -0.25269,-0.492 -1.0176,-0.492 -0.49855,0 -0.90832,0.3 -0.40977,0.294 -0.60099,0.813 -0.13659,0.417 -0.13659,1.557 v 2.336 q 0,0.567 -0.26635,0.854 -0.25952,0.28 -0.67612,0.28 -0.40294,0 -0.66246,-0.294 -0.25952,-0.294 -0.25952,-0.84 v -5.389 q 0,-0.532 0.2322,-0.792 0.2322,-0.266 0.63514,-0.266 0.24586,0 0.44392,0.116 0.19805,0.116 0.31416,0.348 0.12293,0.233 0.12293,0.567 z"
         id="text1774-0-42-4"
         aria-label="krellian" />
    </g>
  </g>
</svg>
