<?xml version="1.0" encoding="UTF-8" standalone="no"?>
<svg
   xmlns:dc="http://purl.org/dc/elements/1.1/"
   xmlns:cc="http://creativecommons.org/ns#"
   xmlns:rdf="http://www.w3.org/1999/02/22-rdf-syntax-ns#"
   xmlns:svg="http://www.w3.org/2000/svg"
   xmlns="http://www.w3.org/2000/svg"
   xmlns:xlink="http://www.w3.org/1999/xlink"
   id="svg24058"
   version="1.1"
   viewBox="0 0 121.49193 48.596199"
   height="48.596199mm"
   width="121.49193mm">
  <defs
     id="defs24052">
    <linearGradient
       y2="71212.055"
       x2="-1191.6759"
       y1="71159.055"
       x1="-1193.0626"
       gradientTransform="matrix(0.4643783,0,0,0.39521755,-972.17661,-20741.708)"
       gradientUnits="userSpaceOnUse"
       id="linearGradient12486"
       xlink:href="#linearGradient87089" />
    <linearGradient
       id="linearGradient87089">
      <stop
         style="stop-color:black;stop-opacity:1;"
         offset="0"
         id="stop87085" />
      <stop
         id="stop87087"
         offset="1"
         style="stop-color:#adadad;stop-opacity:1" />
    </linearGradient>
  </defs>
  <metadata
     id="metadata24055">
    <rdf:RDF>
      <cc:Work
         rdf:about="">
        <dc:format>image/svg+xml</dc:format>
        <dc:type
           rdf:resource="http://purl.org/dc/dcmitype/StillImage" />
        <dc:title></dc:title>
      </cc:Work>
    </rdf:RDF>
  </metadata>
  <g
     transform="translate(-14.402592,-78.3212)"
     id="layer1">
    <g
       id="text23989"
       style="font-style:normal;font-weight:normal;font-size:1.76349998px;line-height:0%;font-family:sans-serif;letter-spacing:0px;word-spacing:0px;opacity:1;fill:#f9f9f9;fill-opacity:1;stroke:none;stroke-width:0.241569px;stroke-linecap:butt;stroke-linejoin:miter;stroke-opacity:1"
       aria-label="WebThings">
      <g
         id="text23999"
         style="font-style:normal;font-weight:normal;font-size:1.76349998px;line-height:0%;font-family:sans-serif;letter-spacing:0px;word-spacing:0px;opacity:1;fill:#ffffff;fill-opacity:1;stroke:none;stroke-width:0.241569px;stroke-linecap:butt;stroke-linejoin:miter;stroke-opacity:1"
         aria-label="B2GOS">
        <g
           id="g12420"
           transform="translate(1600.5193,-7303.1971)">
          <path
             id="path12416"
             style="fill:#000000;fill-opacity:1;fill-rule:evenodd;stroke:none;stroke-width:0.381376"
             d="m -1535.8268,7430.1143 c 0,0 10.3405,-14.584 20.9972,-0.2214 -3.1194,-4.8133 -3.1532,-10.1373 -0.7353,-16.6635 7.9167,-21.369 51.0227,-11.0179 50.94,-11.0278 -0.083,-0.01 -47.5625,-33.2781 -60.8286,-0.028 -13.2661,-33.2857 -60.7458,-0.016 -60.6631,-0.016 0.083,0 43.1888,-10.3507 51.1055,11.0183 2.4178,6.5262 2.2505,12.311 -0.8157,16.9386 z" />
          <path
             id="path12418"
             d="m -1525.3782,7381.5183 c -2.8309,0 -5.9069,0.6881 -9.2721,2.8385 -2.929,1.8713 -9.4373,3.238 -9.4373,3.238 0,0 13.2639,0.6924 18.5961,14.6293 5.2983,-13.85 18.5016,-14.6459 18.5016,-14.6459 0,0 -5.9066,-1.7722 -9.1479,-3.5471 -2.911,-1.5939 -6.4693,-2.512 -9.2404,-2.5128 z"
             style="fill:url(#linearGradient12486);fill-opacity:1;fill-rule:evenodd;stroke:none;stroke-width:0.381376" />
        </g>
      </g>
    </g>
  </g>
</svg>
