<?xml version="1.0" encoding="UTF-8" standalone="no"?>
<svg
   xmlns:dc="http://purl.org/dc/elements/1.1/"
   xmlns:cc="http://creativecommons.org/ns#"
   xmlns:rdf="http://www.w3.org/1999/02/22-rdf-syntax-ns#"
   xmlns:svg="http://www.w3.org/2000/svg"
   xmlns="http://www.w3.org/2000/svg"
   id="svg7585"
   version="1.1"
   viewBox="0 0 60.854165 9.2604169"
   height="35"
   width="230">
  <defs
     id="defs7579" />
  <metadata
     id="metadata7582">
    <rdf:RDF>
      <cc:Work
         rdf:about="">
        <dc:format>image/svg+xml</dc:format>
        <dc:type
           rdf:resource="http://purl.org/dc/dcmitype/StillImage" />
        <dc:title></dc:title>
      </cc:Work>
    </rdf:RDF>
  </metadata>
  <g
     transform="translate(0,-287.73957)"
     id="layer1">
    <g
       id="g6866"
       transform="matrix(0.27790516,0,0,0.27790516,-135.60951,-2823.6358)"
       style="fill:#1a1a1a;fill-opacity:1">
      <g
         id="text6860"
         style="font-style:normal;font-weight:normal;line-height:0%;font-family:sans-serif;letter-spacing:0px;word-spacing:0px;fill:#1a1a1a;fill-opacity:1;stroke:none;stroke-width:1px;stroke-linecap:butt;stroke-linejoin:miter;stroke-opacity:1"
         aria-label="krellian">
        <path
           id="path8144"
           style="font-style:normal;font-variant:normal;font-weight:bold;font-stretch:normal;font-size:45.01576996px;line-height:1.25;font-family:'Arial Rounded MT Bold';-inkscape-font-specification:'Arial Rounded MT Bold, Bold';fill:#1a1a1a;fill-opacity:1"
           d="m 502.49949,11226.392 -5.29727,-8.704 -3.25309,3.077 v 4.77 q 0,1.736 -0.92318,2.681 -0.90119,0.923 -2.08813,0.923 -1.38476,0 -2.17606,-0.923 -0.79129,-0.923 -0.79129,-2.725 v -25.586 q 0,-2 0.76931,-3.033 0.76932,-1.055 2.19804,-1.055 1.38476,0 2.19803,0.945 0.81328,0.945 0.81328,2.792 v 14.551 l 6.74797,-7.078 q 1.25288,-1.319 1.91229,-1.802 0.65941,-0.484 1.60456,-0.484 1.121,0 1.86833,0.726 0.74734,0.703 0.74734,1.78 0,1.319 -2.43982,3.517 l -3.18716,2.923 6.1545,9.672 q 0.6814,1.077 0.96714,1.648 0.30773,0.55 0.30773,1.055 0,1.429 -0.7913,2.264 -0.76931,0.813 -2.04417,0.813 -1.09902,0 -1.69249,-0.593 -0.59347,-0.594 -1.60456,-2.154 z" />
        <path
           id="path8146"
           style="font-style:normal;font-variant:normal;font-weight:bold;font-stretch:normal;font-size:45.01576996px;line-height:1.25;font-family:'Arial Rounded MT Bold';-inkscape-font-specification:'Arial Rounded MT Bold, Bold';fill:#1a1a1a;fill-opacity:1"
           d="m 519.35842,11220.479 v 5.012 q 0,1.824 -0.85723,2.747 -0.85724,0.901 -2.17606,0.901 -1.29684,0 -2.13209,-0.923 -0.83526,-0.923 -0.83526,-2.725 v -16.705 q 0,-4.045 2.92339,-4.045 1.49466,0 2.15407,0.945 0.65942,0.945 0.72536,2.792 1.07703,-1.847 2.19803,-2.792 1.14298,-0.945 3.03329,-0.945 1.89031,0 3.67072,0.945 1.78041,0.945 1.78041,2.506 0,1.099 -0.76931,1.824 -0.74733,0.704 -1.62655,0.704 -0.3297,0 -1.60456,-0.396 -1.25289,-0.417 -2.22002,-0.417 -1.31882,0 -2.15408,0.703 -0.83525,0.681 -1.29684,2.044 -0.46158,1.363 -0.63743,3.253 -0.17584,1.869 -0.17584,4.572 z" />
        <path
           id="path8148"
           style="font-style:normal;font-variant:normal;font-weight:bold;font-stretch:normal;font-size:45.01576996px;line-height:1.25;font-family:'Arial Rounded MT Bold';-inkscape-font-specification:'Arial Rounded MT Bold, Bold';fill:#1a1a1a;fill-opacity:1"
           d="m 548.74616,11218.413 h -11.73751 q 0.022,2.044 0.81327,3.605 0.81327,1.56 2.1321,2.352 1.3408,0.791 2.94536,0.791 1.07704,0 1.95625,-0.242 0.9012,-0.264 1.73645,-0.791 0.83526,-0.55 1.53863,-1.165 0.70337,-0.616 1.82437,-1.671 0.46158,-0.395 1.31882,-0.395 0.92317,0 1.49466,0.505 0.57149,0.506 0.57149,1.429 0,0.813 -0.63743,1.912 -0.63743,1.077 -1.93427,2.088 -1.27486,0.99 -3.23111,1.649 -1.93427,0.659 -4.46201,0.659 -5.78084,0 -8.98997,-3.297 -3.20913,-3.297 -3.20913,-8.946 0,-2.659 0.79129,-4.923 0.79129,-2.286 2.30794,-3.913 1.51664,-1.626 3.73666,-2.484 2.22001,-0.879 4.9236,-0.879 3.51686,0 6.02262,1.495 2.52774,1.473 3.78062,3.824 1.25288,2.352 1.25288,4.792 0,2.264 -1.29684,2.946 -1.29684,0.659 -3.64874,0.659 z m -11.73751,-3.407 h 10.88027 q -0.2198,-3.077 -1.6705,-4.594 -1.42873,-1.539 -3.78062,-1.539 -2.242,0 -3.6927,1.561 -1.42873,1.539 -1.73645,4.572 z" />
        <path
           id="path8150"
           style="font-style:normal;font-variant:normal;font-weight:bold;font-stretch:normal;font-size:45.01576996px;line-height:1.25;font-family:'Arial Rounded MT Bold';-inkscape-font-specification:'Arial Rounded MT Bold, Bold';fill:#1a1a1a;fill-opacity:1"
           d="m 558.7692,11225.491 v -26.025 q 0,-1.803 0.79129,-2.726 0.81327,-0.923 2.17606,-0.923 1.36278,0 2.19803,0.923 0.83526,0.902 0.83526,2.726 v 26.025 q 0,1.824 -0.85724,2.747 -0.83525,0.901 -2.17605,0.901 -1.31883,0 -2.15408,-0.945 -0.81327,-0.945 -0.81327,-2.703 z" />
        <path
           id="path8152"
           style="font-style:normal;font-variant:normal;font-weight:bold;font-stretch:normal;font-size:45.01576996px;line-height:1.25;font-family:'Arial Rounded MT Bold';-inkscape-font-specification:'Arial Rounded MT Bold, Bold';fill:#1a1a1a;fill-opacity:1"
           d="m 570.99027,11225.491 v -26.025 q 0,-1.803 0.7913,-2.726 0.81327,-0.923 2.17605,-0.923 1.36279,0 2.19804,0.923 0.83525,0.902 0.83525,2.726 v 26.025 q 0,1.824 -0.85723,2.747 -0.83526,0.901 -2.17606,0.901 -1.31882,0 -2.15407,-0.945 -0.81328,-0.945 -0.81328,-2.703 z" />
        <path
           id="path8154"
           style="font-style:normal;font-variant:normal;font-weight:bold;font-stretch:normal;font-size:45.01576996px;line-height:1.25;font-family:'Arial Rounded MT Bold';-inkscape-font-specification:'Arial Rounded MT Bold, Bold';fill:#1a1a1a;fill-opacity:1"
           d="m 589.21199,11208.148 v 17.343 q 0,1.802 -0.85723,2.725 -0.85724,0.923 -2.17606,0.923 -1.31882,0 -2.15407,-0.945 -0.81328,-0.945 -0.81328,-2.703 v -17.167 q 0,-1.78 0.81328,-2.682 0.83525,-0.901 2.15407,-0.901 1.31882,0 2.17606,0.901 0.85723,0.902 0.85723,2.506 z m -2.96735,-6.198 q -1.25288,0 -2.15407,-0.77 -0.87922,-0.769 -0.87922,-2.176 0,-1.275 0.9012,-2.088 0.92317,-0.835 2.13209,-0.835 1.16496,0 2.06615,0.747 0.9012,0.748 0.9012,2.176 0,1.385 -0.87922,2.176 -0.87921,0.77 -2.08813,0.77 z" />
        <path
           id="path8156"
           style="font-style:normal;font-variant:normal;font-weight:bold;font-stretch:normal;font-size:45.01576996px;line-height:1.25;font-family:'Arial Rounded MT Bold';-inkscape-font-specification:'Arial Rounded MT Bold, Bold';fill:#1a1a1a;fill-opacity:1"
           d="m 610.59887,11225.754 q -2.17605,1.693 -4.22022,2.55 -2.0222,0.835 -4.54994,0.835 -2.30793,0 -4.06636,-0.901 -1.73645,-0.923 -2.68161,-2.484 -0.94515,-1.56 -0.94515,-3.385 0,-2.461 1.5606,-4.198 1.56061,-1.736 4.28617,-2.33 0.57149,-0.132 2.83547,-0.593 2.26398,-0.462 3.86854,-0.835 1.62655,-0.396 3.51686,-0.946 -0.1099,-2.374 -0.96714,-3.473 -0.83525,-1.121 -3.49487,-1.121 -2.28596,0 -3.45092,0.638 -1.14298,0.637 -1.97823,1.912 -0.81328,1.275 -1.16496,1.693 -0.32971,0.395 -1.4507,0.395 -1.0111,0 -1.75843,-0.637 -0.72535,-0.66 -0.72535,-1.671 0,-1.582 1.12099,-3.077 1.121,-1.495 3.49488,-2.462 2.37388,-0.967 5.91272,-0.967 3.95646,0 6.22044,0.945 2.26397,0.924 3.18715,2.946 0.94515,2.022 0.94515,5.363 0,2.11 -0.022,3.583 0,1.472 -0.022,3.275 0,1.692 0.54951,3.539 0.57149,1.824 0.57149,2.352 0,0.923 -0.87921,1.692 -0.85724,0.747 -1.95625,0.747 -0.92318,0 -1.82437,-0.857 -0.9012,-0.879 -1.9123,-2.528 z m -0.39564,-8.682 q -1.31882,0.484 -3.84656,1.033 -2.50576,0.528 -3.4729,0.792 -0.96714,0.241 -1.84635,0.989 -0.87921,0.725 -0.87921,2.044 0,1.363 1.03307,2.33 1.03308,0.945 2.70359,0.945 1.7804,0 3.27507,-0.769 1.51664,-0.792 2.22002,-2.023 0.81327,-1.362 0.81327,-4.484 z" />
        <path
           id="path8158"
           style="font-style:normal;font-variant:normal;font-weight:bold;font-stretch:normal;font-size:45.01576996px;line-height:1.25;font-family:'Arial Rounded MT Bold';-inkscape-font-specification:'Arial Rounded MT Bold, Bold';fill:#1a1a1a;fill-opacity:1"
           d="m 627.61167,11208.06 v 0.726 q 1.58258,-2.089 3.45091,-3.056 1.89032,-0.989 4.33013,-0.989 2.37388,0 4.24221,1.033 1.86833,1.033 2.79151,2.924 0.59347,1.099 0.76931,2.373 0.17584,1.275 0.17584,3.254 v 11.166 q 0,1.802 -0.83525,2.725 -0.81327,0.923 -2.13209,0.923 -1.34081,0 -2.17606,-0.945 -0.83525,-0.945 -0.83525,-2.703 v -10.001 q 0,-2.968 -0.83526,-4.528 -0.81327,-1.583 -3.27507,-1.583 -1.60457,0 -2.92339,0.967 -1.31882,0.945 -1.93427,2.616 -0.43961,1.341 -0.43961,5.011 v 7.518 q 0,1.824 -0.85723,2.747 -0.83525,0.901 -2.17605,0.901 -1.29685,0 -2.1321,-0.945 -0.83525,-0.945 -0.83525,-2.703 v -17.343 q 0,-1.714 0.74733,-2.55 0.74733,-0.857 2.04417,-0.857 0.7913,0 1.42873,0.374 0.63743,0.373 1.01109,1.121 0.39565,0.747 0.39565,1.824 z" />
      </g>
      <g
         id="text6864"
         style="font-style:normal;font-weight:normal;line-height:0%;font-family:Helvetica;-inkscape-font-specification:Helvetica;letter-spacing:0px;word-spacing:0px;fill:#1a1a1a;fill-opacity:1;stroke:none"
         aria-label="OS">
        <path
           id="path8161"
           style="font-size:41.95874023px;line-height:1.25;font-family:Helvetica;-inkscape-font-specification:Helvetica;fill:#1a1a1a;fill-opacity:1"
           d="m 678.70908,11212.96 q 0,4.527 -1.74145,7.928 -1.72097,3.401 -4.95802,5.225 -3.23705,1.823 -7.6419,1.823 -4.44582,0 -7.68287,-1.803 -3.21657,-1.803 -4.91704,-5.204 -1.70048,-3.421 -1.70048,-7.969 0,-6.925 3.79022,-10.818 3.79022,-3.913 10.55115,-3.913 4.40485,0 7.6419,1.762 3.23705,1.741 4.93752,5.081 1.72097,3.339 1.72097,7.888 z m -3.9951,0 q 0,-5.389 -2.70437,-8.462 -2.68388,-3.073 -7.60092,-3.073 -4.95802,0 -7.66239,3.032 -2.70437,3.032 -2.70437,8.503 0,5.429 2.72486,8.625 2.74534,3.176 7.60092,3.176 4.99899,0 7.66239,-3.074 2.68388,-3.093 2.68388,-8.727 z" />
        <path
           id="path8163"
           style="font-size:41.95874023px;line-height:1.25;font-family:Helvetica;-inkscape-font-specification:Helvetica;fill:#1a1a1a;fill-opacity:1"
           d="m 706.75669,11219.557 q 0,3.995 -3.13461,6.187 -3.11413,2.192 -8.78921,2.192 -10.55115,0 -12.23114,-7.334 l 3.79022,-0.759 q 0.65561,2.602 2.78632,3.832 2.13072,1.208 5.79801,1.208 3.79022,0 5.83899,-1.29 2.06925,-1.311 2.06925,-3.831 0,-1.414 -0.6556,-2.295 -0.63512,-0.881 -1.80292,-1.455 -1.16779,-0.573 -2.78632,-0.963 -1.61853,-0.389 -3.58534,-0.84 -3.42144,-0.758 -5.20387,-1.516 -1.76194,-0.758 -2.78632,-1.68 -1.02438,-0.942 -1.57755,-2.192 -0.53268,-1.25 -0.53268,-2.868 0,-3.708 2.8273,-5.716 2.84778,-2.008 8.1336,-2.008 4.91704,0 7.51897,1.516 2.60194,1.496 3.64681,5.122 l -3.85168,0.676 q -0.63512,-2.295 -2.41755,-3.319 -1.78242,-1.045 -4.93752,-1.045 -3.46242,0 -5.28582,1.148 -1.8234,1.147 -1.8234,3.421 0,1.332 0.69658,2.213 0.71706,0.86 2.04876,1.475 1.3317,0.594 5.30631,1.475 1.3317,0.307 2.64291,0.635 1.3317,0.307 2.54047,0.758 1.20877,0.43 2.25364,1.024 1.06536,0.595 1.84389,1.455 0.77853,0.861 1.20877,2.028 0.45073,1.168 0.45073,2.746 z" />
      </g>
    </g>
  </g>
</svg>
