<?xml version="1.0" encoding="UTF-8" standalone="no"?>
<svg
   xmlns:dc="http://purl.org/dc/elements/1.1/"
   xmlns:cc="http://creativecommons.org/ns#"
   xmlns:rdf="http://www.w3.org/1999/02/22-rdf-syntax-ns#"
   xmlns:svg="http://www.w3.org/2000/svg"
   xmlns="http://www.w3.org/2000/svg"
   xmlns:xlink="http://www.w3.org/1999/xlink"
   width="87.665596mm"
   height="10.3649mm"
   viewBox="0 0 87.665598 10.3649"
   version="1.1"
   id="svg24058">
  <defs
     id="defs24052">
    <linearGradient
       xlink:href="#linearGradient87089"
       id="linearGradient12486"
       gradientUnits="userSpaceOnUse"
       gradientTransform="matrix(0.4643783,0,0,0.39521755,-972.17661,-20741.708)"
       x1="-1193.0626"
       y1="71159.055"
       x2="-1191.6759"
       y2="71212.055" />
    <linearGradient
       id="linearGradient87089">
      <stop
         id="stop87085"
         offset="0"
         style="stop-color:black;stop-opacity:1;" />
      <stop
         style="stop-color:#adadad;stop-opacity:1"
         offset="1"
         id="stop87087" />
    </linearGradient>
  </defs>
  <metadata
     id="metadata24055">
    <rdf:RDF>
      <cc:Work
         rdf:about="">
        <dc:format>image/svg+xml</dc:format>
        <dc:type
           rdf:resource="http://purl.org/dc/dcmitype/StillImage" />
        <dc:title></dc:title>
      </cc:Work>
    </rdf:RDF>
  </metadata>
  <g
     id="text12424-0"
     style="font-style:normal;font-weight:normal;font-size:10.36489964px;line-height:1.25;font-family:sans-serif;letter-spacing:0px;word-spacing:0px;fill:#ffffff;fill-opacity:1;stroke:none;stroke-width:0.161604"
     aria-label="krellian">
    <path
       id="path33710"
       style="font-style:normal;font-variant:normal;font-weight:normal;font-stretch:normal;font-family:'Arial Rounded MT Bold';-inkscape-font-specification:'Arial Rounded MT Bold, ';fill:#ffffff;stroke-width:0.161604"
       d="M 3.3453072,7.3436719 2.1256095,5.3395214 1.3765835,6.0480595 v 1.098234 q 0,0.3998179 -0.2125614,0.6174403 -0.20750041,0.2125614 -0.48079366,0.2125614 -0.31884213,0 -0.50103763,-0.2125614 Q -4.6938658e-6,7.5511724 -4.6938658e-6,7.1361715 V 1.2451836 q 0,-0.46054972 0.1771345138658,-0.69841607 0.17713452,-0.24292733 0.50609862,-0.24292733 0.31884216,0 0.50609866,0.2176224 0.1872564,0.21762241 0.1872564,0.6427452 V 4.5145807 L 2.9303063,2.8849431 Q 3.2187825,2.581284 3.3706121,2.4699423 3.5224417,2.3586006 3.7400641,2.3586006 q 0.2581103,0 0.4301838,0.1670125 0.1720735,0.1619516 0.1720735,0.4099399 0,0.3036592 -0.5617694,0.8097578 L 3.046709,4.4184219 4.4637851,6.6452558 q 0.1568906,0.2479884 0.2226834,0.379574 0.070854,0.1265247 0.070854,0.2429273 0,0.3289641 -0.1821955,0.5212816 -0.1771345,0.1872565 -0.4706717,0.1872565 -0.2530493,0 -0.389696,-0.1366466 Q 3.5781125,7.7030019 3.3453072,7.3436719 Z" />
    <path
       id="path33712"
       style="font-style:normal;font-variant:normal;font-weight:normal;font-stretch:normal;font-family:'Arial Rounded MT Bold';-inkscape-font-specification:'Arial Rounded MT Bold, ';fill:#ffffff;stroke-width:0.161604"
       d="m 7.2270836,5.9822667 v 1.1539048 q 0,0.4200618 -0.1973785,0.6326233 -0.1973784,0.2075004 -0.5010376,0.2075004 -0.2985982,0 -0.4909157,-0.2125614 Q 5.8454344,7.5511724 5.8454344,7.1361715 V 3.289822 q 0,-0.9312214 0.6731111,-0.9312214 0.3441471,0 0.4959767,0.2176224 Q 7.1663517,2.7938454 7.1815347,3.2189682 7.429523,2.7938454 7.6876333,2.576223 7.9508046,2.3586006 8.3860494,2.3586006 q 0.4352448,0 0.8451847,0.2176224 0.4099399,0.2176224 0.4099399,0.5769524 0,0.2530493 -0.1771345,0.4200618 -0.1720736,0.1619516 -0.374513,0.1619516 -0.075915,0 -0.369452,-0.091098 -0.2884762,-0.096159 -0.5111596,-0.096159 -0.3036592,0 -0.4959767,0.1619516 Q 7.5206208,3.8667744 7.4143401,4.1805556 7.3080594,4.4943367 7.2675715,4.9295815 7.2270836,5.3597654 7.2270836,5.9822667 Z" />
    <path
       id="path33714"
       style="font-style:normal;font-variant:normal;font-weight:normal;font-stretch:normal;font-family:'Arial Rounded MT Bold';-inkscape-font-specification:'Arial Rounded MT Bold, ';fill:#ffffff;stroke-width:0.161604"
       d="m 13.993622,5.506534 h -2.702567 q 0.0051,0.4706717 0.187256,0.8300017 0.187257,0.35933 0.490916,0.5415255 0.30872,0.1821955 0.678172,0.1821955 0.247989,0 0.450428,-0.055671 0.2075,-0.060732 0.399818,-0.1821955 0.192317,-0.1265247 0.354269,-0.2682323 0.161952,-0.1417076 0.420062,-0.384635 0.106281,-0.091098 0.303659,-0.091098 0.212561,0 0.344147,0.1164027 0.131586,0.1164027 0.131586,0.3289641 0,0.1872565 -0.146769,0.4403058 -0.146769,0.2479883 -0.445367,0.4807937 -0.293537,0.2277443 -0.743965,0.3795739 -0.445366,0.1518296 -1.02738,0.1518296 -1.331039,0 -2.069943,-0.7591479 -0.7389042,-0.7591479 -0.7389042,-2.0598214 0,-0.6123793 0.1821952,-1.1336609 0.182196,-0.5263425 0.531404,-0.9008555 0.349208,-0.374513 0.860368,-0.5718915 0.511159,-0.2024394 1.13366,-0.2024394 0.809758,0 1.386711,0.3441471 0.582013,0.339086 0.870489,0.8806115 0.288476,0.5415256 0.288476,1.103295 0,0.5212816 -0.298598,0.6781722 Q 14.535147,5.506534 13.993622,5.506534 Z M 11.291055,4.7220811 h 2.505188 Q 13.745633,4.013543 13.411608,3.664335 13.082644,3.310066 12.541119,3.310066 q -0.516221,0 -0.850246,0.35933 -0.328964,0.354269 -0.399818,1.0526851 z" />
    <path
       id="path33716"
       style="font-style:normal;font-variant:normal;font-weight:normal;font-stretch:normal;font-family:'Arial Rounded MT Bold';-inkscape-font-specification:'Arial Rounded MT Bold, ';fill:#ffffff;stroke-width:0.161604"
       d="M 16.301431,7.1361715 V 1.1439639 q 0,-0.41500087 0.182196,-0.62756229 0.187256,-0.21256141 0.501037,-0.21256141 0.313781,0 0.506099,0.21256141 0.192317,0.20750044 0.192317,0.62756229 v 5.9922076 q 0,0.4200618 -0.197378,0.6326233 -0.192318,0.2075004 -0.501038,0.2075004 -0.303659,0 -0.495976,-0.2176224 -0.187257,-0.2176224 -0.187257,-0.6225013 z" />
    <path
       id="path33718"
       style="font-style:normal;font-variant:normal;font-weight:normal;font-stretch:normal;font-family:'Arial Rounded MT Bold';-inkscape-font-specification:'Arial Rounded MT Bold, ';fill:#ffffff;stroke-width:0.161604"
       d="M 19.115341,7.1361715 V 1.1439639 q 0,-0.41500087 0.182195,-0.62756229 0.187257,-0.21256141 0.501038,-0.21256141 0.313781,0 0.506098,0.21256141 0.192318,0.20750044 0.192318,0.62756229 v 5.9922076 q 0,0.4200618 -0.197379,0.6326233 -0.192317,0.2075004 -0.501037,0.2075004 -0.303659,0 -0.495977,-0.2176224 -0.187256,-0.2176224 -0.187256,-0.6225013 z" />
    <path
       id="path33720"
       style="font-style:normal;font-variant:normal;font-weight:normal;font-stretch:normal;font-family:'Arial Rounded MT Bold';-inkscape-font-specification:'Arial Rounded MT Bold, ';fill:#ffffff;stroke-width:0.161604"
       d="m 23.310897,3.1430534 v 3.9931181 q 0,0.4150009 -0.197378,0.6275623 -0.197379,0.2125614 -0.501038,0.2125614 -0.303659,0 -0.495976,-0.2176224 Q 21.929248,7.5410504 21.929248,7.1361715 V 3.1835413 q 0,-0.4099399 0.187257,-0.6174403 0.192317,-0.2075004 0.495976,-0.2075004 0.303659,0 0.501038,0.2075004 0.197378,0.2075004 0.197378,0.5769524 z M 22.627664,1.7158553 q -0.288476,0 -0.495976,-0.1771345 -0.20244,-0.1771345 -0.20244,-0.5010376 0,-0.29353721 0.207501,-0.4807937 0.212561,-0.19231747 0.490915,-0.19231747 0.268233,0 0.475733,0.17207353 0.2075,0.17207353 0.2075,0.50103764 0,0.3188421 -0.202439,0.5010376 -0.202439,0.1771345 -0.480794,0.1771345 z" />
    <path
       id="path33722"
       style="font-style:normal;font-variant:normal;font-weight:normal;font-stretch:normal;font-family:'Arial Rounded MT Bold';-inkscape-font-specification:'Arial Rounded MT Bold, ';fill:#ffffff;stroke-width:0.161604"
       d="m 28.235236,7.1969033 q -0.501037,0.389696 -0.971709,0.5870744 -0.465611,0.1923175 -1.047624,0.1923175 -0.531404,0 -0.936283,-0.2075004 -0.399818,-0.2125615 -0.61744,-0.5718915 -0.217622,-0.35933 -0.217622,-0.7793918 0,-0.5668305 0.35933,-0.9666484 0.35933,-0.3998179 0.986892,-0.5364645 0.131586,-0.030366 0.652867,-0.1366466 0.521282,-0.1062808 0.890734,-0.1923175 0.374513,-0.091098 0.809757,-0.2176224 -0.0253,-0.5465865 -0.222683,-0.7996358 -0.192317,-0.2581103 -0.804697,-0.2581103 -0.526342,0 -0.794575,0.1467686 -0.263171,0.1467686 -0.455488,0.4403058 -0.187257,0.2935372 -0.268233,0.3896959 -0.07591,0.091098 -0.334025,0.091098 -0.232805,0 -0.404879,-0.1467686 -0.167012,-0.1518295 -0.167012,-0.3846349 0,-0.364391 0.25811,-0.7085381 0.258111,-0.344147 0.804697,-0.5668304 0.546587,-0.2226834 1.361405,-0.2226834 0.910978,0 1.432259,0.2176224 0.521282,0.2125614 0.733843,0.6781721 0.217623,0.4656108 0.217623,1.2348807 0,0.4858546 -0.0051,0.8249407 0,0.3390861 -0.0051,0.7540869 0,0.389696 0.126524,0.8148188 0.131586,0.4200619 0.131586,0.5415255 0,0.2125615 -0.202439,0.389696 -0.197379,0.1720735 -0.450428,0.1720735 -0.212562,0 -0.420062,-0.1973785 -0.2075,-0.2024394 -0.440306,-0.5820134 z m -0.0911,-1.9990895 q -0.303659,0.1113417 -0.885672,0.2378664 -0.576953,0.1214636 -0.799636,0.1821955 -0.222683,0.055671 -0.425123,0.2277443 -0.202439,0.1670126 -0.202439,0.4706717 0,0.3137812 0.237866,0.5364646 0.237867,0.2176224 0.622501,0.2176224 0.40994,0 0.754087,-0.1771345 0.349208,-0.1821955 0.51116,-0.4656108 0.187256,-0.3137811 0.187256,-1.0324411 z" />
    <path
       id="path33724"
       style="font-style:normal;font-variant:normal;font-weight:normal;font-stretch:normal;font-family:'Arial Rounded MT Bold';-inkscape-font-specification:'Arial Rounded MT Bold, ';fill:#ffffff;stroke-width:0.161604"
       d="M 32.15244,3.1228095 V 3.289822 q 0.364391,-0.4807937 0.794575,-0.7034771 0.435245,-0.2277443 0.997014,-0.2277443 0.546587,0 0.97677,0.2378663 0.430184,0.2378664 0.642746,0.6731112 0.136646,0.2530493 0.177134,0.5465865 0.04049,0.2935372 0.04049,0.7490259 v 2.570981 q 0,0.4150009 -0.192317,0.6275623 -0.187257,0.2125614 -0.490916,0.2125614 -0.30872,0 -0.501038,-0.2176224 Q 34.404579,7.5410504 34.404579,7.1361715 V 4.8334228 q 0,-0.6832331 -0.192318,-1.0425631 -0.187256,-0.364391 -0.754087,-0.364391 -0.369452,0 -0.673111,0.2226833 -0.303659,0.2176224 -0.445367,0.6022574 -0.101219,0.3087201 -0.101219,1.1539048 v 1.7308573 q 0,0.4200618 -0.197379,0.6326233 -0.192317,0.2075004 -0.501037,0.2075004 -0.298599,0 -0.490916,-0.2176224 Q 30.856827,7.5410504 30.856827,7.1361715 V 3.1430534 q 0,-0.3947569 0.172074,-0.5870744 0.172074,-0.1973784 0.470672,-0.1973784 0.182195,0 0.328964,0.086037 0.146768,0.086037 0.232805,0.2581103 0.0911,0.1720736 0.0911,0.4200619 z" />
  </g>
  <g
     id="text12428-6"
     style="font-style:normal;font-weight:normal;font-size:10.36489964px;line-height:1.25;font-family:sans-serif;letter-spacing:0px;word-spacing:0px;fill:#000000;fill-opacity:1;stroke:none;stroke-width:0.161604"
     aria-label="Consulting">
    <path
       id="path33727"
       style="font-style:normal;font-variant:normal;font-weight:normal;font-stretch:normal;font-family:'Open Sans';-inkscape-font-specification:'Open Sans';fill:#ffffff;stroke-width:0.161604"
       d="m 40.689517,1.1387445 q -1.219697,0 -1.928235,0.8148187 -0.703478,0.8097578 -0.703478,2.221773 0,1.452503 0.678173,2.2470778 0.683233,0.7895138 1.943418,0.7895138 0.774331,0 1.766284,-0.2783542 v 0.7540869 q -0.769269,0.2884763 -1.897869,0.2884763 -1.634699,0 -2.525432,-0.9919533 -0.885673,-0.9919533 -0.885673,-2.8189693 0,-1.1437829 0.425123,-2.0041505 0.430184,-0.8603677 1.23488,-1.3259784 0.809758,-0.46561073 1.902931,-0.46561073 1.164027,0 2.034517,0.42512284 L 42.369765,1.5335014 Q 41.529641,1.1387445 40.689517,1.1387445 Z" />
    <path
       id="path33729"
       style="font-style:normal;font-variant:normal;font-weight:normal;font-stretch:normal;font-family:'Open Sans';-inkscape-font-specification:'Open Sans';fill:#ffffff;stroke-width:0.161604"
       d="m 48.721302,5.0964356 q 0,1.3563443 -0.683233,2.1205532 -0.683233,0.759148 -1.887748,0.759148 -0.743965,0 -1.320917,-0.3492081 -0.576953,-0.349208 -0.890734,-1.0020752 -0.313781,-0.6528673 -0.313781,-1.5284179 0,-1.3563443 0.678172,-2.1104312 0.678172,-0.7591479 1.882687,-0.7591479 1.164027,0 1.84726,0.7743309 0.688294,0.7743308 0.688294,2.0952482 z m -4.225923,0 q 0,1.0628071 0.425123,1.6195156 0.425122,0.5567085 1.250063,0.5567085 0.824941,0 1.250064,-0.5516475 0.430184,-0.5567085 0.430184,-1.6245766 0,-1.0577461 -0.430184,-1.6043326 -0.425123,-0.5516475 -1.260186,-0.5516475 -0.824941,0 -1.245002,0.5415256 -0.420062,0.5415255 -0.420062,1.6144545 z" />
    <path
       id="path33731"
       style="font-style:normal;font-variant:normal;font-weight:normal;font-stretch:normal;font-family:'Open Sans';-inkscape-font-specification:'Open Sans';fill:#ffffff;stroke-width:0.161604"
       d="M 53.984727,7.874917 V 4.2866778 q 0,-0.6781721 -0.30872,-1.0121972 -0.30872,-0.3340251 -0.966648,-0.3340251 -0.87049,0 -1.275369,0.4706717 Q 51.029111,3.881799 51.029111,4.96485 V 7.874917 H 50.188988 V 2.3280762 h 0.683233 l 0.136646,0.7591479 h 0.04049 q 0.258111,-0.4099398 0.723721,-0.6326232 0.465611,-0.2277444 1.037502,-0.2277444 1.002076,0 1.508174,0.4858547 0.506099,0.4807936 0.506099,1.5436007 V 7.874917 Z" />
    <path
       id="path33733"
       style="font-style:normal;font-variant:normal;font-weight:normal;font-stretch:normal;font-family:'Open Sans';-inkscape-font-specification:'Open Sans';fill:#ffffff;stroke-width:0.161604"
       d="m 60.123705,6.3616822 q 0,0.7743309 -0.576953,1.1943927 -0.576952,0.4200619 -1.619515,0.4200619 -1.103295,0 -1.720736,-0.3492081 V 6.8475368 q 0.399818,0.2024395 0.855307,0.3188422 0.46055,0.1164027 0.885673,0.1164027 0.657928,0 1.012197,-0.2075005 0.354269,-0.2125614 0.354269,-0.6427452 0,-0.3239031 -0.283415,-0.5516475 Q 58.752177,5.6480831 57.937359,5.334302 57.163028,5.0458258 56.834064,4.8332644 56.51016,4.6156419 56.348209,4.3423487 56.191318,4.0690554 56.191318,3.6894815 q 0,-0.6781722 0.551648,-1.0678681 0.551647,-0.3947569 1.513235,-0.3947569 0.895794,0 1.751101,0.364391 l -0.298598,0.6832331 q -0.835063,-0.344147 -1.513235,-0.344147 -0.597196,0 -0.900856,0.1872564 -0.303659,0.1872565 -0.303659,0.5162206 0,0.2226834 0.111342,0.379574 0.116403,0.1568906 0.369452,0.2985982 0.253049,0.1417076 0.971709,0.4099399 0.986892,0.35933 1.33104,0.723721 0.349208,0.364391 0.349208,0.9160385 z" />
    <path
       id="path33735"
       style="font-style:normal;font-variant:normal;font-weight:normal;font-stretch:normal;font-family:'Open Sans';-inkscape-font-specification:'Open Sans';fill:#ffffff;stroke-width:0.161604"
       d="m 62.274623,2.3280762 v 3.5983612 q 0,0.6781721 0.30872,1.0121972 0.30872,0.3340251 0.966649,0.3340251 0.870489,0 1.270307,-0.4757327 0.404879,-0.4757327 0.404879,-1.5537228 v -2.915128 h 0.840124 V 7.874917 H 65.371947 L 65.250483,7.1309521 h -0.04555 q -0.25811,0.4099398 -0.71866,0.6275622 -0.455489,0.2176225 -1.042563,0.2176225 -1.012197,0 -1.518296,-0.4807937 Q 61.424377,7.0145494 61.424377,5.9568033 V 2.3280762 Z" />
    <path
       id="path33737"
       style="font-style:normal;font-variant:normal;font-weight:normal;font-stretch:normal;font-family:'Open Sans';-inkscape-font-specification:'Open Sans';fill:#ffffff;stroke-width:0.161604"
       d="M 68.681831,7.874917 H 67.841707 V 2.2580847e-5 h 0.840124 z" />
    <path
       id="path33739"
       style="font-style:normal;font-variant:normal;font-weight:normal;font-stretch:normal;font-family:'Open Sans';-inkscape-font-specification:'Open Sans';fill:#ffffff;stroke-width:0.161604"
       d="m 72.26501,7.2827817 q 0.222683,0 0.430184,-0.030366 0.2075,-0.035427 0.328964,-0.070854 v 0.6427453 q -0.136647,0.065793 -0.404879,0.1062807 -0.263171,0.045549 -0.475733,0.045549 -1.609393,0 -1.609393,-1.6954304 V 2.9809434 H 69.739578 V 2.5760645 l 0.794575,-0.349208 0.354269,-1.1842708 h 0.485854 v 1.2854905 h 1.609394 v 0.6528672 h -1.609394 v 3.2643361 q 0,0.5010376 0.237867,0.7692699 0.237866,0.2682323 0.652867,0.2682323 z" />
    <path
       id="path33741"
       style="font-style:normal;font-variant:normal;font-weight:normal;font-stretch:normal;font-family:'Open Sans';-inkscape-font-specification:'Open Sans';fill:#ffffff;stroke-width:0.161604"
       d="M 74.977699,7.874917 H 74.137575 V 2.3280762 h 0.840124 z M 74.066721,0.82496332 q 0,-0.28847621 0.141708,-0.42006185 0.141707,-0.13664662 0.354269,-0.13664662 0.202439,0 0.349208,0.13664662 0.146768,0.13664663 0.146768,0.42006185 0,0.28341518 -0.146768,0.42512288 -0.146769,0.1366466 -0.349208,0.1366466 -0.212562,0 -0.354269,-0.1366466 -0.141708,-0.1417077 -0.141708,-0.42512288 z" />
    <path
       id="path33743"
       style="font-style:normal;font-variant:normal;font-weight:normal;font-stretch:normal;font-family:'Open Sans';-inkscape-font-specification:'Open Sans';fill:#ffffff;stroke-width:0.161604"
       d="M 80.565028,7.874917 V 4.2866778 q 0,-0.6781721 -0.30872,-1.0121972 -0.30872,-0.3340251 -0.966648,-0.3340251 -0.87049,0 -1.275369,0.4706717 Q 77.609413,3.881799 77.609413,4.96485 V 7.874917 H 76.769289 V 2.3280762 h 0.683233 l 0.136647,0.7591479 h 0.04049 q 0.25811,-0.4099398 0.723721,-0.6326232 0.46561,-0.2277444 1.037502,-0.2277444 1.002075,0 1.508174,0.4858547 0.506098,0.4807936 0.506098,1.5436007 V 7.874917 Z" />
    <path
       id="path33745"
       style="font-style:normal;font-variant:normal;font-weight:normal;font-stretch:normal;font-family:'Open Sans';-inkscape-font-specification:'Open Sans';fill:#ffffff;stroke-width:0.161604"
       d="m 87.665591,2.3280762 v 0.5314036 l -1.02738,0.1214636 q 0.141708,0.1771345 0.253049,0.4656107 0.111342,0.2834153 0.111342,0.6427453 0,0.8148188 -0.556708,1.3006734 -0.556709,0.4858547 -1.528418,0.4858547 -0.247988,0 -0.465611,-0.040488 -0.536464,0.2834152 -0.536464,0.7135991 0,0.2277443 0.187256,0.339086 0.187257,0.1062807 0.642745,0.1062807 h 0.981832 q 0.900855,0 1.381649,0.379574 0.485855,0.379574 0.485855,1.103295 0,0.9210995 -0.738904,1.4018931 -0.738904,0.4858545 -2.155981,0.4858545 -1.088112,0 -1.680247,-0.4048787 -0.587074,-0.4048789 -0.587074,-1.1437828 0,-0.5060987 0.323903,-0.8755506 0.323903,-0.369452 0.910977,-0.5010377 -0.212561,-0.096159 -0.35933,-0.2985982 -0.141707,-0.2024394 -0.141707,-0.4706717 0,-0.3036591 0.161951,-0.5314035 0.161952,-0.2277444 0.51116,-0.4403058 -0.430184,-0.1771345 -0.703477,-0.6022574 -0.268233,-0.4251228 -0.268233,-0.9717093 0,-0.9109775 0.546587,-1.4018932 0.546586,-0.4959766 1.548662,-0.4959766 0.435245,0 0.784453,0.1012197 z m -4.423302,6.4780623 q 0,0.4504277 0.379574,0.6832331 0.379574,0.2328054 1.088112,0.2328054 1.057747,0 1.563845,-0.3188422 0.51116,-0.3137811 0.51116,-0.8553066 0,-0.4504278 -0.278354,-0.6275623 -0.278355,-0.1720735 -1.047625,-0.1720735 h -1.007136 q -0.571891,0 -0.890733,0.2732932 -0.318843,0.2732933 -0.318843,0.7844529 z m 0.455489,-4.7016562 q 0,0.5820135 0.328964,0.8806116 0.328964,0.2985982 0.916039,0.2985982 1.229819,0 1.229819,-1.1943927 0,-1.2500636 -1.245002,-1.2500636 -0.592136,0 -0.910978,0.3188421 -0.318842,0.3188422 -0.318842,0.9464044 z" />
  </g>
</svg>
