<?xml version="1.0" encoding="UTF-8" standalone="no"?>
<!-- Created with Inkscape (http://www.inkscape.org/) -->

<svg
   width="369.2262"
   height="499.99997"
   viewBox="0 0 97.691098 132.29166"
   version="1.1"
   id="svg1"
   xmlns="http://www.w3.org/2000/svg"
   xmlns:svg="http://www.w3.org/2000/svg">
  <defs
     id="defs1">
    <rect
       x="-336.88327"
       y="824.89795"
       width="185.55028"
       height="49.756824"
       id="rect1688" />
    <clipPath
       clipPathUnits="userSpaceOnUse"
       id="clipPath27913-1-7-7-8-4-7-5">
      <rect
         style="opacity:1;fill:#ff0000;fill-opacity:1;stroke:#ff0000;stroke-width:1;stroke-miterlimit:3.73333;stroke-dasharray:none;stroke-opacity:1"
         id="rect27915-7-5-24-5-0-9-2"
         width="10.050467"
         height="28.019884"
         x="14447.59"
         y="-16995.246" />
    </clipPath>
  </defs>
  <g
     id="layer1"
     transform="translate(-53.181245,-82.285425)">
    <path
       style="fill:#ffffff;fill-opacity:1;stroke:#000000;stroke-width:0.264583;stroke-linejoin:round;stroke-miterlimit:8.8;stroke-dasharray:none;stroke-opacity:0.168187"
       class="st0"
       d="m 67.13709,111.14383 c 0,5.69829 4.457489,10.6862 9.990665,10.6862 h 49.798435 c 5.53295,0 9.99028,-5.06605 9.99028,-10.6862 0,-5.6974 -4.45733,-10.44639 -9.99028,-10.44639 -0.61482,0 -1.15273,-0.0815 -1.76766,0.0815 -0.30741,-6.96394 -5.4564,-12.504189 -11.68106,-12.504189 -3.6119,0 -6.76281,1.740641 -8.91447,4.590274 -1.92138,-6.094451 -7.147156,-10.44728 -13.29503,-10.44728 -7.761979,0 -14.063307,7.044427 -14.063307,15.751557 0,0.790763 0.07794,1.660249 0.153474,2.373758 -0.07784,0 -0.07784,0.23588 -0.153474,0.23588 -5.533421,-0.15833 -10.067573,4.66998 -10.067573,10.36738 z"
       id="path1572" />
    <path
       style="font-weight:bold;font-size:6.62977px;line-height:1.25;font-family:'Arial Rounded MT Bold';-inkscape-font-specification:'Arial Rounded MT Bold, Bold';letter-spacing:0px;word-spacing:0px;fill:#1a1a1a;stroke-width:0.693417px"
       d="m 83.981656,110.45408 -0.780163,-1.28193 -0.479105,0.45321 v 0.70247 q 0,0.25574 -0.135962,0.39494 -0.132725,0.13596 -0.307533,0.13596 -0.203943,0 -0.320482,-0.13596 -0.116539,-0.13596 -0.116539,-0.40141 v -3.76809 q 0,-0.29459 0.113302,-0.44674 0.113301,-0.15538 0.323719,-0.15538 0.203943,0 0.323719,0.1392 0.119776,0.1392 0.119776,0.41112 v 2.14302 l 0.993818,-1.04237 q 0.18452,-0.19424 0.281636,-0.26545 0.09712,-0.0712 0.236315,-0.0712 0.165097,0 0.275161,0.10683 0.110065,0.10359 0.110065,0.26221 0,0.19423 -0.359328,0.51795 l -0.469393,0.43055 0.906414,1.42436 q 0.100353,0.15862 0.142436,0.24279 0.04532,0.0809 0.04532,0.15538 0,0.21042 -0.116539,0.33344 -0.113302,0.11977 -0.301059,0.11977 -0.16186,0 -0.249264,-0.0874 -0.0874,-0.0874 -0.236315,-0.31725 z m 2.476452,-0.8708 v 0.73808 q 0,0.26868 -0.12625,0.40465 -0.126251,0.13272 -0.320482,0.13272 -0.190995,0 -0.314008,-0.13596 -0.123013,-0.13596 -0.123013,-0.40141 v -2.46027 q 0,-0.59564 0.430546,-0.59564 0.220129,0 0.317245,0.1392 0.09712,0.1392 0.106827,0.41112 0.158623,-0.27192 0.32372,-0.41112 0.168334,-0.1392 0.446732,-0.1392 0.278399,0 0.540611,0.1392 0.262213,0.1392 0.262213,0.36904 0,0.16186 -0.113302,0.26868 -0.110064,0.10359 -0.239552,0.10359 -0.04856,0 -0.236315,-0.0583 -0.18452,-0.0615 -0.326957,-0.0615 -0.194231,0 -0.317244,0.10359 -0.123014,0.10035 -0.190995,0.30106 -0.06798,0.2007 -0.09388,0.4791 -0.0259,0.27516 -0.0259,0.67334 z m 4.328126,-0.3043 h -1.728661 q 0.0032,0.30106 0.119776,0.5309 0.119776,0.22984 0.314008,0.34638 0.197468,0.11654 0.433784,0.11654 0.158622,0 0.28811,-0.0356 0.132725,-0.0388 0.255738,-0.11654 0.123013,-0.0809 0.226603,-0.17157 0.10359,-0.0906 0.268687,-0.24603 0.06798,-0.0583 0.194232,-0.0583 0.135962,0 0.220129,0.0745 0.08417,0.0745 0.08417,0.21042 0,0.11977 -0.09388,0.28163 -0.09388,0.15863 -0.284873,0.30754 -0.187757,0.14567 -0.475867,0.24279 -0.284873,0.0971 -0.65715,0.0971 -0.851382,0 -1.324012,-0.48558 -0.47263,-0.48558 -0.47263,-1.31753 0,-0.39171 0.116539,-0.72514 0.116539,-0.33666 0.339905,-0.57622 0.223367,-0.23955 0.550323,-0.3658 0.326957,-0.12949 0.725131,-0.12949 0.517951,0 0.886991,0.22013 0.372277,0.21689 0.556797,0.56327 0.18452,0.34638 0.18452,0.70571 0,0.33343 -0.190994,0.43379 -0.190995,0.0971 -0.537374,0.0971 z m -1.728661,-0.50176 h 1.60241 q -0.03237,-0.45321 -0.246026,-0.67658 -0.210418,-0.2266 -0.556798,-0.2266 -0.330193,0 -0.543848,0.22984 -0.210417,0.2266 -0.255738,0.67334 z m 3.201584,1.54414 v -3.83284 q 0,-0.26545 0.116538,-0.40141 0.119777,-0.13596 0.320483,-0.13596 0.200705,0 0.323719,0.13596 0.123013,0.13272 0.123013,0.40141 v 3.83284 q 0,0.26868 -0.12625,0.40465 -0.123014,0.13272 -0.320482,0.13272 -0.194232,0 -0.317245,-0.1392 -0.119776,-0.1392 -0.119776,-0.39817 z m 1.796641,0 v -3.83284 q 0,-0.26545 0.116539,-0.40141 0.119776,-0.13596 0.320482,-0.13596 0.200706,0 0.323719,0.13596 0.123013,0.13272 0.123013,0.40141 v 3.83284 q 0,0.26868 -0.12625,0.40465 -0.123013,0.13272 -0.320482,0.13272 -0.194232,0 -0.317245,-0.1392 -0.119776,-0.1392 -0.119776,-0.39817 z m 2.680396,-2.55415 v 2.55415 q 0,0.26545 -0.126251,0.40141 -0.12625,0.13596 -0.320482,0.13596 -0.194231,0 -0.317245,-0.1392 -0.119776,-0.1392 -0.119776,-0.39817 v -2.52825 q 0,-0.26221 0.119776,-0.39494 0.123014,-0.13272 0.317245,-0.13272 0.194232,0 0.320482,0.13272 0.126251,0.13273 0.126251,0.36904 z m -0.437021,-0.91289 q -0.18452,0 -0.317245,-0.1133 -0.129488,-0.1133 -0.129488,-0.32048 0,-0.18776 0.132725,-0.30753 0.135962,-0.12302 0.314008,-0.12302 0.171571,0 0.304296,0.11007 0.132725,0.11006 0.132725,0.32048 0,0.20394 -0.129488,0.32048 -0.129488,0.1133 -0.307533,0.1133 z m 3.583571,3.50588 q -0.320482,0.24927 -0.621541,0.37552 -0.297821,0.12301 -0.670098,0.12301 -0.339906,0 -0.598881,-0.13272 -0.255738,-0.13597 -0.394938,-0.36581 -0.139199,-0.22984 -0.139199,-0.49852 0,-0.36257 0.229841,-0.61831 0.229841,-0.25574 0.631252,-0.34314 0.08417,-0.0194 0.417598,-0.0874 0.333431,-0.068 0.569746,-0.12302 0.239552,-0.0583 0.517951,-0.1392 -0.01619,-0.34961 -0.142437,-0.51147 -0.123013,-0.1651 -0.514713,-0.1651 -0.336668,0 -0.508239,0.0939 -0.168334,0.0939 -0.291348,0.28163 -0.119776,0.18776 -0.171571,0.24927 -0.04856,0.0583 -0.213655,0.0583 -0.14891,0 -0.258975,-0.0939 -0.106827,-0.0971 -0.106827,-0.24603 0,-0.23308 0.165096,-0.4532 0.165097,-0.22013 0.514714,-0.36257 0.349617,-0.14244 0.870805,-0.14244 0.582694,0 0.916125,0.1392 0.33343,0.13596 0.46939,0.43379 0.1392,0.29782 0.1392,0.78987 0,0.31077 -0.003,0.52766 0,0.2169 -0.003,0.48235 0,0.24926 0.0809,0.52118 0.0842,0.26869 0.0842,0.34638 0,0.13597 -0.12948,0.24927 -0.12625,0.11006 -0.28811,0.11006 -0.13597,0 -0.26869,-0.12625 -0.13272,-0.12949 -0.281636,-0.37228 z m -0.05827,-1.27869 q -0.194232,0.0712 -0.566509,0.15215 -0.36904,0.0777 -0.511476,0.11654 -0.142437,0.0356 -0.271924,0.14567 -0.129488,0.10683 -0.129488,0.30106 0,0.20071 0.152148,0.34314 0.152148,0.1392 0.398175,0.1392 0.262212,0 0.482341,-0.1133 0.223367,-0.11654 0.326957,-0.29782 0.119776,-0.20071 0.119776,-0.66039 z m 2.567095,-1.32725 v 0.10683 q 0.23308,-0.30753 0.50824,-0.44997 0.2784,-0.14567 0.63773,-0.14567 0.34961,0 0.62477,0.15215 0.27516,0.15214 0.41113,0.43054 0.0874,0.16186 0.1133,0.34962 0.0259,0.18776 0.0259,0.4791 v 1.6445 q 0,0.26545 -0.12302,0.40141 -0.11977,0.13596 -0.314,0.13596 -0.19747,0 -0.32049,-0.1392 -0.12301,-0.1392 -0.12301,-0.39817 v -1.47293 q 0,-0.43702 -0.12301,-0.66686 -0.11978,-0.23307 -0.48235,-0.23307 -0.23631,0 -0.43054,0.14243 -0.19423,0.1392 -0.28487,0.38523 -0.0647,0.19747 -0.0647,0.73808 v 1.10712 q 0,0.26868 -0.12625,0.40465 -0.12301,0.13272 -0.32048,0.13272 -0.191,0 -0.31401,-0.1392 -0.12301,-0.1392 -0.12301,-0.39817 v -2.55415 q 0,-0.2525 0.11006,-0.37551 0.11007,-0.12625 0.30106,-0.12625 0.11654,0 0.21042,0.055 0.0939,0.055 0.14891,0.1651 0.0583,0.11006 0.0583,0.26868 z"
       id="text1573"
       transform="scale(1.0000092,0.99999079)"
       aria-label="krellian" />
    <path
       style="font-size:6.37735px;line-height:1.25;font-family:'open sans';-inkscape-font-specification:'open sans';letter-spacing:0px;word-spacing:0px;fill:#1a1a1a;stroke-width:0.715612"
       d="m 108.02264,106.65178 q -0.75046,0 -1.18641,0.50134 -0.43284,0.49823 -0.43284,1.36702 0,0.8937 0.41727,1.38259 0.42038,0.48578 1.19575,0.48578 0.47643,0 1.08677,-0.17127 v 0.46398 q -0.47332,0.17749 -1.16773,0.17749 -1.0058,0 -1.55386,-0.61033 -0.54494,-0.61033 -0.54494,-1.73447 0,-0.70375 0.26157,-1.23312 0.26469,-0.52937 0.75981,-0.81585 0.49823,-0.28648 1.17084,-0.28648 0.7162,0 1.2518,0.26157 l -0.2242,0.45464 q -0.51692,-0.24289 -1.03383,-0.24289 z m 2.51295,4.14465 h -0.51691 v -4.84529 h 0.51691 z m 4.04189,-1.70955 q 0,0.83454 -0.42038,1.30474 -0.42038,0.46709 -1.1615,0.46709 -0.45775,0 -0.81274,-0.21486 -0.35499,-0.21486 -0.54805,-0.61656 -0.19306,-0.4017 -0.19306,-0.94041 0,-0.83454 0.41726,-1.29851 0.41727,-0.46709 1.15839,-0.46709 0.71621,0 1.13659,0.47643 0.42349,0.47643 0.42349,1.28917 z m -2.60014,0 q 0,0.65393 0.26157,0.99646 0.26158,0.34253 0.76915,0.34253 0.50757,0 0.76914,-0.33942 0.26469,-0.34253 0.26469,-0.99957 0,-0.65081 -0.26469,-0.98712 -0.26157,-0.33942 -0.77537,-0.33942 -0.50757,0 -0.76603,0.33319 -0.25846,0.33319 -0.25846,0.99335 z m 3.99208,-1.70333 v 2.21402 q 0,0.41726 0.18995,0.62278 0.18995,0.20552 0.59476,0.20552 0.5356,0 0.7816,-0.29271 0.24911,-0.29271 0.24911,-0.95598 v -1.79363 h 0.51692 v 3.41288 h -0.42661 l -0.0747,-0.45775 h -0.028 q -0.15881,0.25223 -0.44218,0.38613 -0.28026,0.1339 -0.64147,0.1339 -0.62279,0 -0.93419,-0.29582 -0.30828,-0.29583 -0.30828,-0.94664 v -2.2327 z m 5.75144,2.95513 h -0.028 q -0.35811,0.52003 -1.0712,0.52003 -0.6695,0 -1.04317,-0.45775 -0.37056,-0.45775 -0.37056,-1.30163 0,-0.84387 0.37368,-1.31096 0.37367,-0.46709 1.04005,-0.46709 0.69441,0 1.06497,0.50445 h 0.0405 l -0.0218,-0.246 -0.0125,-0.23977 v -1.38882 h 0.51691 v 4.84529 h -0.42038 z m -1.03383,0.0872 q 0.52937,0 0.76603,-0.28648 0.23978,-0.2896 0.23978,-0.93107 v -0.10899 q 0,-0.72554 -0.24289,-1.03382 -0.23977,-0.3114 -0.76914,-0.3114 -0.45464,0 -0.69753,0.35499 -0.23977,0.35188 -0.23977,0.99646 0,0.65393 0.23977,0.98712 0.23978,0.33319 0.70375,0.33319 z"
       id="text1574"
       transform="scale(1.0000092,0.99999079)"
       aria-label="Cloud" />
    <path
       style="fill:#4d4d4d;fill-opacity:1;stroke:none;stroke-width:0.0240537"
       id="path1574"
       d="M 101.08452,162.02002 H 92.665053 84.24547 l -0.536425,-1.10872 c -1.496873,-3.0959 -3.612036,-6.5801 -6.564848,-10.82037 -0.470148,-0.67433 -0.868697,-1.25687 -0.87871,-1.28747 -0.01855,-0.036 -0.09767,-0.0865 -0.189193,-0.10807 -0.147653,-0.036 -0.311619,-0.30135 -2.201849,-3.57097 -1.124041,-1.94652 -2.08437,-3.58123 -2.140753,-3.63757 -0.219614,-0.24014 -0.710041,-0.17821 -1.057401,0.13321 -0.260664,0.23511 -0.352541,0.51593 -0.240138,0.74599 0.04083,0.0918 0.97578,1.72149 2.079295,3.6219 1.624736,2.81003 1.997568,3.49464 1.997568,3.6428 0,0.1386 0.163839,0.4954 0.633495,1.39476 0.34735,0.6639 1.118976,2.16594 1.716614,3.33081 1.629683,3.1726 3.01427,5.70147 3.923645,7.16263 l 0.306672,0.49037 -1.742332,0.0198 -1.747151,0.0181 -0.286147,0.14401 c -0.311619,0.14762 -0.58255,0.45454 -0.832711,0.92978 -0.07794,0.13861 -0.255472,0.40359 -0.393357,0.58739 -0.296277,0.37803 -0.44442,0.654 -0.602831,1.10872 -0.09767,0.29109 -0.863367,3.11139 -2.712918,10.00309 -0.367757,1.37425 -0.873635,3.22876 -1.113784,4.11245 l -0.444419,1.60935 v 1.9924 c 0,1.89035 0,2.00268 0.102636,2.19674 0.05566,0.11166 0.178308,0.25562 0.275879,0.31682 0.09767,0.0667 0.143932,0.11698 0.107583,0.11698 -0.09149,0 -0.04201,0.59261 0.07794,0.81744 0.153091,0.30135 0.562026,0.66408 0.704976,0.62323 0.01983,0 0.107584,0.0252 0.189066,0.0666 0.133184,0.0667 3.37709,0.0756 29.069768,0.0756 26.49483,0 28.94213,0 29.10042,-0.081 0.0977,-0.0468 0.24013,-0.1638 0.32707,-0.25562 0.0817,-0.0972 0.15297,-0.15842 0.15297,-0.13321 0,0.0198 -0.0309,0.0719 -0.0618,0.11166 -0.0358,0.0414 0,0.0198 0.0717,-0.045 0.21974,-0.19423 0.35255,-0.52621 0.36789,-0.95032 0.0186,-0.281 0,-0.36777 -0.0506,-0.34742 -0.0358,0.0181 0.047,-0.0864 0.17819,-0.22466 0.1584,-0.15301 0.27093,-0.32187 0.30654,-0.44969 0.0358,-0.1332 0.0557,-0.82246 0.0557,-1.9157 v -1.7116 l -0.33215,-1.24642 c -0.18387,-0.68462 -0.33201,-1.28244 -0.33201,-1.32834 0,-0.045 -0.0668,-0.30152 -0.14753,-0.56704 -0.0816,-0.26571 -0.83283,-3.03975 -1.66554,-6.15619 -1.86487,-6.99898 -1.82902,-6.87137 -2.04863,-7.30556 -0.15309,-0.30151 -0.52122,-0.85308 -0.63375,-0.94526 -0.0173,-0.018 -0.11129,-0.1422 -0.21961,-0.28605 -0.25536,-0.35244 -0.6079,-0.66928 -0.89405,-0.80215 -0.23,-0.10807 -0.32176,-0.11165 -2.00782,-0.12781 l -1.77275,-0.0181 0.39855,-0.64877 c 1.16484,-1.91572 2.38064,-4.16375 4.52128,-8.36317 0.41895,-0.81744 0.95031,-1.84927 1.19033,-2.29896 0.31173,-0.58758 0.4344,-0.87362 0.43935,-1.02177 0.0186,-0.16922 0.37308,-0.83274 2.06409,-3.76016 1.4254,-2.46243 2.05395,-3.60158 2.05395,-3.70383 0,-0.54652 -0.80724,-1.0268 -1.25178,-0.74598 -0.11748,0.072 -0.66416,0.98109 -2.22249,3.68349 -1.75731,3.04477 -2.08437,3.5814 -2.18145,3.5814 -0.0915,0 -0.28601,0.24499 -0.94511,1.18522 -2.98868,4.27608 -5.10891,7.75524 -6.66217,10.90731 -0.29109,0.59783 -0.53124,1.10872 -0.53124,1.12906 0,0.0865 -1.99261,0.11166 -8.46026,0.11166 h -6.54458 z m -28.661195,24.5071 c 0.06675,0.081 0.06184,0.0865 -0.01855,0.0198 -0.05193,-0.036 -0.09149,-0.0774 -0.09149,-0.0865 0,-0.0414 0.04201,-0.0181 0.107583,0.0667 z" />
    <path
       style="font-weight:bold;font-size:6.6298px;line-height:1.25;font-family:'Arial Rounded MT Bold';-inkscape-font-specification:'Arial Rounded MT Bold, Bold';letter-spacing:0px;word-spacing:0px;fill:#ffffff;stroke-width:0.69342px"
       d="m 86.933618,175.80717 -0.780167,-1.28193 -0.479106,0.4532 v 0.70248 q 0,0.25574 -0.135963,0.39494 -0.132725,0.13596 -0.307535,0.13596 -0.203944,0 -0.320483,-0.13596 -0.11654,-0.13597 -0.11654,-0.40142 v -3.76811 q 0,-0.29458 0.113303,-0.44673 0.113302,-0.15539 0.32372,-0.15539 0.203944,0 0.323721,0.1392 0.119777,0.1392 0.119777,0.41113 v 2.14303 l 0.993822,-1.04238 q 0.184521,-0.19423 0.281637,-0.26545 0.09712,-0.0712 0.236316,-0.0712 0.165098,0 0.275163,0.10683 0.110065,0.10359 0.110065,0.26221 0,0.19423 -0.35933,0.51796 l -0.469395,0.43054 0.906418,1.42437 q 0.100353,0.15863 0.142437,0.2428 0.04532,0.0809 0.04532,0.15538 0,0.21042 -0.11654,0.33343 -0.113302,0.11978 -0.30106,0.11978 -0.16186,0 -0.249265,-0.0874 -0.0874,-0.0874 -0.236316,-0.31725 z m 2.476464,-0.87081 v 0.73808 q 0,0.26869 -0.126251,0.40465 -0.126252,0.13273 -0.320484,0.13273 -0.190995,0 -0.314009,-0.13596 -0.123014,-0.13597 -0.123014,-0.40142 v -2.46027 q 0,-0.59565 0.430549,-0.59565 0.22013,0 0.317246,0.1392 0.09712,0.1392 0.106828,0.41113 0.158623,-0.27193 0.32372,-0.41113 0.168335,-0.1392 0.446735,-0.1392 0.2784,0 0.540614,0.1392 0.262213,0.1392 0.262213,0.36904 0,0.16186 -0.113302,0.26869 -0.110065,0.10359 -0.239553,0.10359 -0.04856,0 -0.236316,-0.0583 -0.184521,-0.0615 -0.326958,-0.0615 -0.194233,0 -0.317247,0.10359 -0.123013,0.10036 -0.190995,0.30106 -0.06798,0.20071 -0.09388,0.47911 -0.0259,0.27516 -0.0259,0.67334 z m 4.328146,-0.3043 h -1.728669 q 0.0032,0.30106 0.119777,0.53091 0.119776,0.22984 0.314009,0.34638 0.197469,0.11654 0.433785,0.11654 0.158624,0 0.288112,-0.0356 0.132725,-0.0388 0.255739,-0.11654 0.123014,-0.0809 0.226605,-0.17158 0.10359,-0.0906 0.268688,-0.24602 0.06798,-0.0583 0.194232,-0.0583 0.135963,0 0.22013,0.0744 0.08417,0.0745 0.08417,0.21042 0,0.11978 -0.09388,0.28164 -0.09388,0.15862 -0.284874,0.30753 -0.187758,0.14568 -0.47587,0.24279 -0.284874,0.0971 -0.657153,0.0971 -0.851385,0 -1.324018,-0.48558 -0.472632,-0.48558 -0.472632,-1.31754 0,-0.39171 0.11654,-0.72514 0.116539,-0.33667 0.339906,-0.57622 0.223368,-0.23955 0.550326,-0.36581 0.326958,-0.12948 0.725134,-0.12948 0.517953,0 0.886995,0.22013 0.372278,0.21689 0.556799,0.56327 0.184521,0.34638 0.184521,0.70571 0,0.33343 -0.190995,0.43379 -0.190995,0.0971 -0.537376,0.0971 z m -1.728669,-0.50176 h 1.602417 q -0.03237,-0.45321 -0.246027,-0.67658 -0.210419,-0.2266 -0.5568,-0.2266 -0.330195,0 -0.543851,0.22984 -0.210418,0.2266 -0.255739,0.67334 z m 3.201597,1.54414 v -3.83285 q 0,-0.26545 0.11654,-0.40141 0.119776,-0.13597 0.320483,-0.13597 0.200707,0 0.323721,0.13597 0.123014,0.13272 0.123014,0.40141 v 3.83285 q 0,0.26869 -0.126251,0.40465 -0.123014,0.13273 -0.320484,0.13273 -0.194232,0 -0.317246,-0.1392 -0.119777,-0.1392 -0.119777,-0.39818 z m 1.79665,0 v -3.83285 q 0,-0.26545 0.11654,-0.40141 0.119776,-0.13597 0.320483,-0.13597 0.200707,0 0.323721,0.13597 0.123014,0.13272 0.123014,0.40141 v 3.83285 q 0,0.26869 -0.126251,0.40465 -0.123014,0.13273 -0.320484,0.13273 -0.194232,0 -0.317246,-0.1392 -0.119777,-0.1392 -0.119777,-0.39818 z m 2.680408,-2.55415 v 2.55415 q 0,0.26545 -0.126251,0.40142 -0.126251,0.13596 -0.320484,0.13596 -0.194232,0 -0.317246,-0.1392 -0.119777,-0.1392 -0.119777,-0.39818 v -2.52825 q 0,-0.26222 0.119777,-0.39494 0.123014,-0.13273 0.317246,-0.13273 0.194233,0 0.320484,0.13273 0.126251,0.13272 0.126251,0.36904 z m -0.437023,-0.91289 q -0.184521,0 -0.317246,-0.11331 -0.129489,-0.1133 -0.129489,-0.32048 0,-0.18776 0.132726,-0.30754 0.135962,-0.12301 0.314009,-0.12301 0.171572,0 0.304297,0.11007 0.132726,0.11006 0.132726,0.32048 0,0.20394 -0.129489,0.32048 -0.129488,0.11331 -0.307534,0.11331 z m 3.583589,3.50589 q -0.32048,0.24927 -0.62154,0.37552 -0.29783,0.12301 -0.67011,0.12301 -0.3399,0 -0.59888,-0.13273 -0.25574,-0.13596 -0.39494,-0.3658 -0.1392,-0.22984 -0.1392,-0.49853 0,-0.36257 0.22984,-0.61831 0.22984,-0.25574 0.63126,-0.34314 0.0842,-0.0194 0.4176,-0.0874 0.33343,-0.068 0.56975,-0.12302 0.23955,-0.0583 0.51795,-0.1392 -0.0162,-0.34962 -0.14244,-0.51148 -0.12301,-0.16509 -0.51471,-0.16509 -0.33667,0 -0.50825,0.0939 -0.16833,0.0939 -0.29134,0.28164 -0.11978,0.18776 -0.17158,0.24927 -0.0486,0.0583 -0.21365,0.0583 -0.14891,0 -0.25898,-0.0939 -0.10683,-0.0971 -0.10683,-0.24603 0,-0.23308 0.1651,-0.45321 0.1651,-0.22013 0.51472,-0.36257 0.34962,-0.14243 0.87081,-0.14243 0.58269,0 0.91613,0.1392 0.33343,0.13596 0.46939,0.43378 0.1392,0.29782 0.1392,0.78988 0,0.31077 -0.003,0.52766 0,0.2169 -0.003,0.48235 0,0.24926 0.0809,0.52119 0.0842,0.26869 0.0842,0.34638 0,0.13596 -0.12948,0.24927 -0.12626,0.11006 -0.28812,0.11006 -0.13596,0 -0.26868,-0.12625 -0.13273,-0.12949 -0.28164,-0.37228 z m -0.0583,-1.2787 q -0.19423,0.0712 -0.56651,0.15215 -0.36904,0.0777 -0.51148,0.11654 -0.14244,0.0356 -0.27193,0.14568 -0.12948,0.10682 -0.12948,0.30106 0,0.2007 0.15214,0.34314 0.15215,0.1392 0.39818,0.1392 0.26221,0 0.48234,-0.1133 0.22337,-0.11654 0.32696,-0.29783 0.11978,-0.2007 0.11978,-0.66039 z m 2.5671,-1.32725 v 0.10683 q 0.23308,-0.30754 0.50825,-0.44998 0.2784,-0.14567 0.63773,-0.14567 0.34961,0 0.62478,0.15215 0.27516,0.15215 0.41112,0.43055 0.0874,0.16186 0.1133,0.34962 0.0259,0.18775 0.0259,0.4791 v 1.6445 q 0,0.26545 -0.12301,0.40142 -0.11978,0.13596 -0.31401,0.13596 -0.19747,0 -0.32048,-0.1392 -0.12302,-0.1392 -0.12302,-0.39818 v -1.47293 q 0,-0.43702 -0.12301,-0.66686 -0.11978,-0.23308 -0.48235,-0.23308 -0.23631,0 -0.43054,0.14244 -0.19424,0.1392 -0.28488,0.38523 -0.0647,0.19747 -0.0647,0.73808 v 1.10712 q 0,0.26869 -0.12625,0.40465 -0.12302,0.13273 -0.32049,0.13273 -0.19099,0 -0.31401,-0.1392 -0.12301,-0.1392 -0.12301,-0.39818 v -2.55415 q 0,-0.2525 0.11006,-0.37552 0.11007,-0.12625 0.30106,-0.12625 0.11654,0 0.21042,0.055 0.0939,0.055 0.14891,0.1651 0.0583,0.11007 0.0583,0.26869 z"
       id="text1575"
       transform="scale(1.0000092,0.99999079)"
       aria-label="krellian" />
    <path
       style="font-size:6.37738px;line-height:1.25;font-family:'open sans';-inkscape-font-specification:'open sans';letter-spacing:0px;word-spacing:0px;fill:#ffffff;stroke-width:0.715615"
       d="m 112.4818,176.14954 h -0.52937 v -2.1424 h -2.39775 v 2.1424 h -0.52937 v -4.55261 h 0.52937 v 1.93688 h 2.39775 v -1.93688 h 0.52937 z m 1.65663,-3.4129 v 2.21402 q 0,0.41727 0.18995,0.62279 0.18995,0.20553 0.59476,0.20553 0.5356,0 0.7816,-0.29272 0.24912,-0.29271 0.24912,-0.95598 v -1.79364 h 0.51692 v 3.4129 h -0.42661 l -0.0747,-0.45776 h -0.028 q -0.15882,0.25224 -0.44219,0.38614 -0.28025,0.1339 -0.64147,0.1339 -0.62279,0 -0.93419,-0.29583 -0.30828,-0.29583 -0.30828,-0.94664 v -2.23271 z m 5.01658,-0.056 q 0.67261,0 1.04317,0.46087 0.37368,0.45775 0.37368,1.29851 0,0.84077 -0.37679,1.30787 -0.37368,0.46398 -1.04006,0.46398 -0.3332,0 -0.61034,-0.12145 -0.27403,-0.12456 -0.46086,-0.3799 h -0.0374 l -0.10899,0.43907 h -0.37056 v -4.84532 h 0.51692 v 1.17708 q 0,0.39547 -0.0249,0.70998 h 0.0249 q 0.36122,-0.51069 1.0712,-0.51069 z m -0.0747,0.43284 q -0.52937,0 -0.76292,0.30517 -0.23354,0.30205 -0.23354,1.02137 0,0.71933 0.23977,1.03072 0.23978,0.30829 0.76915,0.30829 0.47643,0 0.70998,-0.34565 0.23355,-0.34877 0.23355,-0.99958 0,-0.66639 -0.23355,-0.99335 -0.23355,-0.32697 -0.72244,-0.32697 z"
       id="text1576"
       transform="scale(1.0000092,0.99999079)"
       aria-label="Hub" />
    <g
       id="g1578"
       style="fill:#999999;stroke-width:4.70824"
       transform="matrix(0.21239558,0,0,0.21239166,-379.64639,-62.020615)">
      <rect
         y="907.99335"
         x="2253.9539"
         height="75.165207"
         width="17.427784"
         id="rect1577"
         style="vector-effect:none;fill:#999999;fill-opacity:1;stroke:none;stroke-width:8.69608;stroke-linecap:butt;stroke-linejoin:miter;stroke-miterlimit:4;stroke-dasharray:none;stroke-dashoffset:0;stroke-opacity:1;paint-order:fill markers stroke" />
      <path
         transform="matrix(5.8220336,0,0,3.1205702,-19917.455,-1291.893)"
         id="path1577"
         style="opacity:1;vector-effect:none;fill:#999999;fill-opacity:1;stroke:none;stroke-width:1.24572;stroke-linecap:butt;stroke-linejoin:miter;stroke-miterlimit:4;stroke-dasharray:none;stroke-dashoffset:0;stroke-opacity:1;paint-order:fill markers stroke"
         d="m 3812.7315,706.42436 -6.0904,0 3.0452,-5.27448 z" />
      <path
         style="opacity:1;vector-effect:none;fill:#999999;fill-opacity:1;stroke:none;stroke-width:1.24572;stroke-linecap:butt;stroke-linejoin:miter;stroke-miterlimit:4;stroke-dasharray:none;stroke-dashoffset:0;stroke-opacity:1;paint-order:fill markers stroke"
         id="path1578"
         transform="matrix(5.8220336,0,0,-3.1205702,-19917.455,3182.1772)"
         d="m 3812.7315,706.42436 -6.0904,0 3.0452,-5.27448 z" />
    </g>
    <path
       style="font-size:34.4408px;line-height:1.25;font-family:'Open Sans';-inkscape-font-specification:'Open Sans';white-space:pre;fill:#333333;stroke-width:4.70824"
       d="m -312.0444,855.41468 h -2.82523 l -4.96095,-16.46365 q -0.35315,-1.09309 -0.79039,-2.75795 -0.43724,-1.66487 -0.45405,-2.0012 -0.36997,2.21982 -1.17718,4.86005 l -4.8096,16.36275 h -2.82523 l -6.54173,-24.58616 h 3.02702 l 3.88468,15.18557 q 0.80721,3.19519 1.17718,5.78497 0.45405,-3.07747 1.34534,-6.02041 l 4.406,-14.95013 h 3.02703 l 4.62462,15.08467 q 0.8072,2.6066 1.36216,5.88587 0.31952,-2.38798 1.21081,-5.81861 l 3.86786,-15.15193 h 3.02702 z m 25.91468,-9.23243 q 0,4.50691 -2.27027,7.04624 -2.27026,2.52252 -6.27266,2.52252 -2.47207,0 -4.38919,-1.16036 -1.91711,-1.16036 -2.95975,-3.32972 -1.04264,-2.16937 -1.04264,-5.07868 0,-4.5069 2.25345,-7.0126 2.25345,-2.52252 6.25585,-2.52252 3.86786,0 6.13813,2.57297 2.28708,2.57297 2.28708,6.96215 z m -14.04202,0 q 0,3.53153 1.41261,5.38138 1.41261,1.84985 4.15375,1.84985 2.74113,0 4.15374,-1.83303 1.42943,-1.84985 1.42943,-5.3982 0,-3.51471 -1.42943,-5.33092 -1.41261,-1.83303 -4.18738,-1.83303 -2.74114,0 -4.13693,1.7994 -1.39579,1.79939 -1.39579,5.36455 z m 26.92369,9.23243 h -2.85886 v -22.04683 h -7.78617 v -2.53933 h 18.43121 v 2.53933 h -7.78618 z"
       id="text1579"
       transform="matrix(0.14637294,0,0,0.14637024,155.93245,15.287173)"
       aria-label="WoT" />
    <g
       id="g1594"
       transform="matrix(0.17444847,0,0,0.17444526,-68.449223,-13.909613)"
       style="stroke-width:0.854499">
      <circle
         r="40"
         cy="1269.7903"
         cx="737.22864"
         id="circle1579"
         style="vector-effect:none;fill:#ff5555;fill-opacity:1;stroke:none;stroke-width:0.670193;stroke-linecap:butt;stroke-linejoin:miter;stroke-miterlimit:4;stroke-dasharray:none;stroke-dashoffset:0;stroke-opacity:1;paint-order:fill markers stroke" />
      <g
         id="g1582"
         transform="translate(0,11.910643)"
         style="stroke-width:0.854499">
        <g
           transform="matrix(4.6348991,0,0,4.6348991,-17590.844,-3357.3886)"
           id="g1581"
           style="stroke-width:0.854499">
          <path
             id="path1579"
             d="m 3954.3635,991.66349 c -0.4454,0 -0.8045,0.35903 -0.8045,0.80411 v 4.35832 0.0156 a 1.6202276,1.6197778 0 0 0 -0.8159,1.40421 1.6202276,1.6197778 0 0 0 1.6204,1.61989 1.6202276,1.6197778 0 0 0 1.6204,-1.61989 1.6202276,1.6197778 0 0 0 -0.8165,-1.40525 v -0.0417 -4.32954 c 0,-0.44509 -0.3586,-0.80359 -0.8039,-0.80359 z"
             style="color:#000000;clip-rule:nonzero;display:inline;overflow:visible;visibility:visible;opacity:1;isolation:auto;mix-blend-mode:normal;color-interpolation:sRGB;color-interpolation-filters:linearRGB;solid-color:#000000;solid-opacity:1;fill:none;fill-opacity:1;fill-rule:nonzero;stroke:#ffffff;stroke-width:0.226086;stroke-linecap:round;stroke-linejoin:round;stroke-miterlimit:4;stroke-dasharray:none;stroke-dashoffset:0;stroke-opacity:1;color-rendering:auto;image-rendering:auto;shape-rendering:auto;text-rendering:auto;enable-background:accumulate" />
          <path
             id="path1580"
             d="m 3955.1136,995.16301 v 2.27779 1.19061 c 0,0.23356 -0.3351,0.42254 -0.7501,0.42254 -0.4156,0 -0.7517,-0.18898 -0.7517,-0.42254 v -1.1748 -2.2936 z"
             style="color:#000000;clip-rule:nonzero;display:inline;overflow:visible;visibility:visible;opacity:1;isolation:auto;mix-blend-mode:normal;color-interpolation:sRGB;color-interpolation-filters:linearRGB;solid-color:#000000;solid-opacity:1;fill:#ffffff;fill-opacity:1;fill-rule:nonzero;stroke:none;stroke-width:0.0695649;stroke-linecap:round;stroke-linejoin:round;stroke-miterlimit:4;stroke-dasharray:none;stroke-dashoffset:0;stroke-opacity:1;color-rendering:auto;image-rendering:auto;shape-rendering:auto;text-rendering:auto;enable-background:accumulate" />
          <path
             id="path1581"
             d="m 3955.938,998.24439 a 1.574427,1.57399 0 0 1 -1.5749,1.57427 1.574427,1.57399 0 0 1 -1.575,-1.57427 1.574427,1.57399 0 0 1 1.575,-1.57504 1.574427,1.57399 0 0 1 1.5749,1.57504 z"
             style="opacity:1;fill:#ffffff;fill-opacity:1;stroke:none;stroke-width:0.0695649;stroke-linecap:round;stroke-linejoin:miter;stroke-miterlimit:4;stroke-dasharray:none;stroke-dashoffset:0;stroke-opacity:1;paint-order:fill markers stroke" />
        </g>
      </g>
      <circle
         style="vector-effect:none;fill:#ff8e43;fill-opacity:1;stroke:none;stroke-width:0.670193;stroke-linecap:butt;stroke-linejoin:miter;stroke-miterlimit:4;stroke-dasharray:none;stroke-dashoffset:0;stroke-opacity:1;paint-order:fill markers stroke"
         id="circle1582"
         cx="833.22894"
         cy="1269.7903"
         r="40" />
      <g
         id="g1583"
         transform="translate(0,11.908833)"
         style="stroke-width:0.854499">
        <path
           style="fill:#ffffff;stroke-width:1.04721"
           d="m 839.02074,1270.9486 c 0,0.6569 -0.53443,1.1871 -1.18602,1.1871 h -9.51042 c -0.65802,0 -1.18715,-0.534 -1.18715,-1.1871 0,-0.658 0.53556,-1.1864 1.18715,-1.1864 h 9.51042 c 0.65159,0 1.18602,0.5284 1.18602,1.1864 z m -1.19093,1.7832 h -9.50551 c -0.78426,0 -1.38558,0.7551 -1.12555,1.573 0.15874,0.4948 0.65651,0.7998 1.17619,0.7998 h 0.0454 c 0.68863,0 1.31489,0.3893 1.6199,1.0034 l 0.0454,0.045 c 0.41272,0.8251 1.25896,1.3493 2.18532,1.3493 h 1.73253 c 0.92674,0 1.7726,-0.5242 2.18533,-1.3493 l 0.0453,-0.045 c 0.30614,-0.616 0.93657,-1.0034 1.61953,-1.0034 h 0.0453 c 0.51969,0 1.01972,-0.3062 1.17657,-0.7998 0.26457,-0.8179 -0.34016,-1.573 -1.12441,-1.573 z m 1.19093,-4.7577 c 0,0.6565 -0.53443,1.1864 -1.18602,1.1864 h -9.51042 c -0.65802,0 -1.18715,-0.5356 -1.18715,-1.1864 0,-0.6334 0.49398,-1.1467 1.121,-1.1826 -0.74381,-6.6879 -7.66148,-8.1747 -7.66148,-16.0501 0,-6.8935 5.58841,-12.4808 12.48076,-12.4808 6.89084,0 12.47924,5.5873 12.47924,12.4808 0,7.8754 -6.91766,9.3622 -7.65543,16.0501 0.62098,0.045 1.1195,0.5492 1.1195,1.1826 z"
           id="path1582" />
      </g>
      <circle
         r="40"
         cy="1269.7903"
         cx="1025.2292"
         id="circle1583"
         style="vector-effect:none;fill:#4e921d;fill-opacity:1;stroke:none;stroke-width:0.670193;stroke-linecap:butt;stroke-linejoin:miter;stroke-miterlimit:4;stroke-dasharray:none;stroke-dashoffset:0;stroke-opacity:1;paint-order:fill markers stroke" />
      <g
         id="g1589"
         transform="translate(0,9.3323036)"
         style="stroke-width:0.854499">
        <rect
           ry="2.1296911"
           rx="2.129652"
           y="1249.8772"
           x="1005.4539"
           height="10.702404"
           width="39.242146"
           id="rect1583"
           style="vector-effect:none;fill:#ffffff;fill-opacity:1;stroke:none;stroke-width:0.30484;stroke-linecap:butt;stroke-linejoin:miter;stroke-miterlimit:4;stroke-dasharray:none;stroke-dashoffset:0;stroke-opacity:1;paint-order:fill markers stroke" />
        <path
           style="vector-effect:none;fill:#ffffff;fill-opacity:1;stroke:none;stroke-width:0.30484;stroke-linecap:butt;stroke-linejoin:miter;stroke-miterlimit:4;stroke-dasharray:none;stroke-dashoffset:0;stroke-opacity:1;paint-order:fill markers stroke"
           d="m 1008.0685,1262.1217 h 34.0109 l -2.6166,7.135 h -28.7773 z"
           id="path1583" />
        <g
           id="g1588"
           transform="matrix(0.2616143,0,0,0.35674675,-6582.0157,7561.4321)"
           style="fill:#4e921d;fill-opacity:1;stroke-width:0.99784">
          <rect
             y="-17652.639"
             x="29030"
             height="10"
             width="15"
             id="rect1584"
             style="opacity:1;vector-effect:none;fill:#4e921d;fill-opacity:1;stroke:none;stroke-width:0.99784;stroke-linecap:butt;stroke-linejoin:miter;stroke-miterlimit:4;stroke-dasharray:none;stroke-dashoffset:0;stroke-opacity:1;paint-order:fill markers stroke" />
          <rect
             style="opacity:1;vector-effect:none;fill:#4e921d;fill-opacity:1;stroke:none;stroke-width:0.99784;stroke-linecap:butt;stroke-linejoin:miter;stroke-miterlimit:4;stroke-dasharray:none;stroke-dashoffset:0;stroke-opacity:1;paint-order:fill markers stroke"
             id="rect1585"
             width="15"
             height="10"
             x="29050"
             y="-17652.639" />
          <rect
             y="-17652.639"
             x="29070"
             height="10"
             width="15"
             id="rect1586"
             style="opacity:1;vector-effect:none;fill:#4e921d;fill-opacity:1;stroke:none;stroke-width:0.99784;stroke-linecap:butt;stroke-linejoin:miter;stroke-miterlimit:4;stroke-dasharray:none;stroke-dashoffset:0;stroke-opacity:1;paint-order:fill markers stroke" />
          <rect
             style="opacity:1;vector-effect:none;fill:#4e921d;fill-opacity:1;stroke:none;stroke-width:0.99784;stroke-linecap:butt;stroke-linejoin:miter;stroke-miterlimit:4;stroke-dasharray:none;stroke-dashoffset:0;stroke-opacity:1;paint-order:fill markers stroke"
             id="rect1587"
             width="15"
             height="10"
             x="29090"
             y="-17652.639" />
          <rect
             y="-17652.639"
             x="29110"
             height="10"
             width="15"
             id="rect1588"
             style="opacity:1;vector-effect:none;fill:#4e921d;fill-opacity:1;stroke:none;stroke-width:0.99784;stroke-linecap:butt;stroke-linejoin:miter;stroke-miterlimit:4;stroke-dasharray:none;stroke-dashoffset:0;stroke-opacity:1;paint-order:fill markers stroke" />
        </g>
        <rect
           style="vector-effect:none;fill:#f9f9f9;fill-opacity:1;stroke:none;stroke-width:0.30484;stroke-linecap:butt;stroke-linejoin:miter;stroke-miterlimit:4;stroke-dasharray:none;stroke-dashoffset:0;stroke-opacity:1;paint-order:fill markers stroke"
           id="rect1589"
           width="28.777573"
           height="3.5678146"
           x="1010.6868"
           y="1267.4709"
           rx="2.129652"
           ry="2.1296906" />
      </g>
      <g
         id="g1591"
         style="stroke-width:0.854499">
        <circle
           style="vector-effect:none;fill:#e8b900;fill-opacity:1;stroke:none;stroke-width:0.670193;stroke-linecap:butt;stroke-linejoin:miter;stroke-miterlimit:4;stroke-dasharray:none;stroke-dashoffset:0;stroke-opacity:1;paint-order:fill markers stroke"
           id="circle1589"
           cx="929.2287"
           cy="1269.7903"
           r="40" />
        <g
           id="g1590"
           transform="translate(0.00253873)"
           style="stroke-width:0.854499">
          <path
             id="path1589"
             d="m 910.22043,1264.119 c 0,0 2.42528,5.2744 4.67746,5.0277 1.93157,-0.2121 3.14756,-3.3884 4.9883,-3.2705 2.35336,0.1496 2.56974,3.3838 4.59942,3.509 2.71177,0.1682 3.60348,-3.3747 5.10474,-3.3866 1.34582,0 1.97239,3.5949 5.26198,3.2468 1.27268,-0.1334 3.3298,-3.616 4.52934,-3.6799 1.86146,-0.099 3.32247,3.9833 4.77986,3.9449 2.44414,-0.064 3.05854,-3.4825 4.07036,-4.7408"
             style="fill:none;stroke:#eeeeee;stroke-width:2.26086;stroke-linecap:round;stroke-linejoin:miter;stroke-miterlimit:4;stroke-dasharray:none;stroke-opacity:1" />
          <path
             style="fill:none;stroke:#eeeeee;stroke-width:2.26086;stroke-linecap:round;stroke-linejoin:miter;stroke-miterlimit:4;stroke-dasharray:none;stroke-opacity:1"
             d="m 911.02924,1275.1581 c 0,0 1.64145,3.5547 3.89364,3.3071 1.93156,-0.212 3.14755,-3.3884 4.98829,-3.2705 2.35336,0.1497 2.56974,3.3838 4.59942,3.5099 2.71178,0.1682 3.60352,-3.3756 5.10475,-3.3875 1.34581,0 1.97242,3.5959 5.26197,3.2477 1.27268,-0.1342 3.3298,-3.6168 4.52935,-3.6808 1.86145,-0.099 3.3225,3.9842 4.77985,3.9449 2.44418,-0.064 2.24973,-1.7161 3.23777,-3.2056"
             id="path1590" />
        </g>
      </g>
      <circle
         style="vector-effect:none;fill:#8a5198;fill-opacity:1;stroke:none;stroke-width:0.670193;stroke-linecap:butt;stroke-linejoin:miter;stroke-miterlimit:4;stroke-dasharray:none;stroke-dashoffset:0;stroke-opacity:1;paint-order:fill markers stroke"
         id="circle1591"
         cx="1217.2284"
         cy="1269.7903"
         r="40" />
      <g
         id="g1592"
         transform="translate(0,10.561432)"
         style="stroke-width:0.854499">
        <path
           id="path1591"
           d="m 1215.0535,1278.7481 c -3.9885,-0.4785 -7.0001,-1.7265 -10.0388,-4.1636 -0.7472,-0.5983 -2.1453,-1.9536 -2.7927,-2.7053 -2.1275,-2.4711 -3.6151,-5.4766 -4.2009,-8.4896 -0.5655,-2.9016 -0.5469,-5.7725 0.045,-8.592 0.5265,-2.4707 1.7276,-5.0778 3.2988,-7.1588 0.9532,-1.2616 2.6045,-2.9628 3.7958,-3.9096 3.4186,-2.719 7.463,-4.1132 11.921,-4.1132 4.6843,0 8.5852,1.3039 12.1198,4.052 0.8164,0.635 2.7806,2.5773 3.414,3.3759 1.2949,1.6373 2.1457,3.0803 2.8596,4.8514 1.8025,4.4685 1.8271,9.987 0.061,14.5084 -0.7196,1.8498 -1.7673,3.6053 -3.1113,5.2154 -2.2012,2.6404 -4.9028,4.6617 -7.8044,5.839 -1.5288,0.6217 -2.8924,0.9664 -4.8744,1.2348 -0.9725,0.136 -1.3599,0.1549 -2.5712,0.1474 -0.7854,0 -1.7443,-0.049 -2.1328,-0.098 z m 3.1612,-4.7437 c 2.228,-0.4638 3.7599,-1.9007 4.303,-4.0441 0.1209,-0.4588 0.1474,-0.7434 0.1474,-1.3346 0,-2.1448 -0.6671,-3.6128 -2.0946,-4.6133 -0.2608,-0.1814 -0.497,-0.3628 -0.5299,-0.4078 -0.049,-0.076 -0.2532,-1.5008 -0.4218,-3.0164 l -0.045,-0.3628 0.3629,0.053 c 3.62,0.4172 7.2744,1.8553 11.0551,4.3521 0.3439,0.2268 0.6671,0.4127 0.72,0.4127 0.1247,0 0.223,-0.2003 0.4879,-1.0133 0.5568,-1.6936 0.7408,-2.8928 0.7431,-4.8192 0,-2.0066 -0.189,-3.2451 -0.7722,-5.0049 -1.3576,-4.0981 -4.5656,-7.6422 -8.4971,-9.3823 -1.2265,-0.5435 -2.6272,-0.9419 -4.1734,-1.1894 -0.9811,-0.1588 -3.5795,-0.1512 -4.6046,0 -3.4008,0.5231 -6.3242,1.9767 -8.6626,4.3052 -2.4616,2.4514 -4.0029,5.3224 -4.5324,8.4435 -0.2533,1.4835 -0.2835,3.7584 -0.076,5.1564 0.1889,1.2507 0.7581,3.2633 0.9823,3.4938 0.076,0.076 0.2305,0 1.0548,-0.5272 3.2312,-2.0383 6.031,-3.2655 8.8611,-3.8839 0.8724,-0.1889 2.2568,-0.4078 2.3029,-0.3628 0.045,0 -0.2721,2.5398 -0.3704,3.1347 -0.045,0.2003 -0.098,0.2684 -0.5102,0.5602 -1.3217,0.9263 -2.0051,2.1989 -2.1494,4.0029 -0.1097,1.3209 0.1247,2.4922 0.6731,3.4189 0.8167,1.3811 2.3584,2.4427 3.9239,2.7065 0.4082,0.076 1.3024,0 1.8115,-0.076 z m -1.5795,-1.7855 c -1.1176,-0.2003 -2.1229,-0.9637 -2.6309,-1.9978 -0.4078,-0.8349 -0.4403,-1.6808 -0.098,-2.6778 0.2722,-0.7839 0.6841,-1.3331 1.307,-1.7481 0.2079,-0.1398 0.3666,-0.2948 0.4173,-0.4168 0.053,-0.1134 0.2267,-1.9548 0.4308,-4.3057 0.7631,-8.9397 0.8085,-9.4106 0.9166,-9.5765 0.1285,-0.2004 0.3704,-0.2041 0.4977,0 0.098,0.1587 0.1512,0.6905 0.8606,9.0837 0.2457,2.9163 0.4264,4.7716 0.4747,4.8608 0.045,0.087 0.2797,0.2873 0.5224,0.4589 1.4252,1.0008 1.8225,2.7911 0.9932,4.4738 -0.4312,0.8746 -1.2041,1.5205 -2.0984,1.7537 -0.4494,0.1209 -1.2294,0.1663 -1.5953,0.098 z"
           style="fill:#ffffff;stroke-width:1.04789" />
      </g>
      <circle
         r="40"
         cy="1269.7903"
         cx="1121.2288"
         id="circle1592"
         style="vector-effect:none;fill:#3771c8;fill-opacity:1;stroke:none;stroke-width:0.670193;stroke-linecap:butt;stroke-linejoin:miter;stroke-miterlimit:4;stroke-dasharray:none;stroke-dashoffset:0;stroke-opacity:1;paint-order:fill markers stroke" />
      <g
         id="g1593"
         transform="translate(0,8.5596832)"
         style="stroke-width:0.854499">
        <path
           id="path1592"
           d="m 1107.5492,1249.931 h 17.6507 c 3.2914,0 5.9411,3.2442 5.9411,7.2741 v 8.051 c 0,4.0298 -2.6497,7.2741 -5.9411,7.2741 h -17.6507 c -3.2914,0 -5.9412,-3.2443 -5.9412,-7.2741 v -8.051 c 0,-4.0299 2.6498,-7.2741 5.9412,-7.2741 z"
           style="fill:#ffffff;fill-opacity:1;stroke:none;stroke-width:3.74431;stroke-linecap:butt;stroke-linejoin:miter;stroke-miterlimit:8.8;stroke-dasharray:29.9544, 14.9771;stroke-dashoffset:0;stroke-opacity:1;paint-order:fill markers stroke" />
        <path
           id="path1593"
           d="m 14458.14,-16995.246 v 28.52 l -24.699,-14.26 z"
           clip-path="url(#clipPath27913-1-7-7-8-4-7-5)"
           style="fill:#ffffff;fill-opacity:1;stroke:none;stroke-width:9.51467;stroke-linecap:butt;stroke-linejoin:miter;stroke-miterlimit:8.8;stroke-dasharray:76.1175, 38.0588;stroke-dashoffset:0;stroke-opacity:1;paint-order:fill markers stroke"
           transform="matrix(0.76198805,0,0,0.76198805,-9875.6991,14200.538)" />
      </g>
    </g>
  </g>
</svg>
