<?xml version="1.0" encoding="UTF-8" standalone="no"?>
<svg
   xmlns:dc="http://purl.org/dc/elements/1.1/"
   xmlns:cc="http://creativecommons.org/ns#"
   xmlns:rdf="http://www.w3.org/1999/02/22-rdf-syntax-ns#"
   xmlns:svg="http://www.w3.org/2000/svg"
   xmlns="http://www.w3.org/2000/svg"
   id="svg8217"
   version="1.1"
   viewBox="0 0 86.783331 9.2604169"
   height="35"
   width="328">
  <defs
     id="defs8211" />
  <metadata
     id="metadata8214">
    <rdf:RDF>
      <cc:Work
         rdf:about="">
        <dc:format>image/svg+xml</dc:format>
        <dc:type
           rdf:resource="http://purl.org/dc/dcmitype/StillImage" />
        <dc:title></dc:title>
      </cc:Work>
    </rdf:RDF>
  </metadata>
  <g
     transform="translate(0,-287.73957)"
     id="layer1">
    <g
       style="fill:#1a1a1a;fill-opacity:1"
       transform="matrix(0.27790516,0,0,0.27790516,-135.60951,-2823.6358)"
       id="g6894">
      <g
         id="text6887"
         style="font-style:normal;font-weight:normal;line-height:0%;font-family:sans-serif;letter-spacing:0px;word-spacing:0px;fill:#1a1a1a;fill-opacity:1;stroke:none;stroke-width:1px;stroke-linecap:butt;stroke-linejoin:miter;stroke-opacity:1"
         aria-label="krellian">
        <path
           id="path8776"
           style="font-style:normal;font-variant:normal;font-weight:bold;font-stretch:normal;font-size:45.01576996px;line-height:1.25;font-family:'Arial Rounded MT Bold';-inkscape-font-specification:'Arial Rounded MT Bold, Bold';fill:#1a1a1a;fill-opacity:1"
           d="m 502.49949,11226.392 -5.29727,-8.704 -3.25309,3.077 v 4.77 q 0,1.736 -0.92318,2.681 -0.90119,0.923 -2.08813,0.923 -1.38476,0 -2.17606,-0.923 -0.79129,-0.923 -0.79129,-2.725 v -25.586 q 0,-2 0.76931,-3.033 0.76932,-1.055 2.19804,-1.055 1.38476,0 2.19803,0.945 0.81328,0.945 0.81328,2.792 v 14.551 l 6.74797,-7.078 q 1.25288,-1.319 1.91229,-1.802 0.65941,-0.484 1.60456,-0.484 1.121,0 1.86833,0.726 0.74734,0.703 0.74734,1.78 0,1.319 -2.43982,3.517 l -3.18716,2.923 6.1545,9.672 q 0.6814,1.077 0.96714,1.648 0.30773,0.55 0.30773,1.055 0,1.429 -0.7913,2.264 -0.76931,0.813 -2.04417,0.813 -1.09902,0 -1.69249,-0.593 -0.59347,-0.594 -1.60456,-2.154 z" />
        <path
           id="path8778"
           style="font-style:normal;font-variant:normal;font-weight:bold;font-stretch:normal;font-size:45.01576996px;line-height:1.25;font-family:'Arial Rounded MT Bold';-inkscape-font-specification:'Arial Rounded MT Bold, Bold';fill:#1a1a1a;fill-opacity:1"
           d="m 519.35842,11220.479 v 5.012 q 0,1.824 -0.85723,2.747 -0.85724,0.901 -2.17606,0.901 -1.29684,0 -2.13209,-0.923 -0.83526,-0.923 -0.83526,-2.725 v -16.705 q 0,-4.045 2.92339,-4.045 1.49466,0 2.15407,0.945 0.65942,0.945 0.72536,2.792 1.07703,-1.847 2.19803,-2.792 1.14298,-0.945 3.03329,-0.945 1.89031,0 3.67072,0.945 1.78041,0.945 1.78041,2.506 0,1.099 -0.76931,1.824 -0.74733,0.704 -1.62655,0.704 -0.3297,0 -1.60456,-0.396 -1.25289,-0.417 -2.22002,-0.417 -1.31882,0 -2.15408,0.703 -0.83525,0.681 -1.29684,2.044 -0.46158,1.363 -0.63743,3.253 -0.17584,1.869 -0.17584,4.572 z" />
        <path
           id="path8780"
           style="font-style:normal;font-variant:normal;font-weight:bold;font-stretch:normal;font-size:45.01576996px;line-height:1.25;font-family:'Arial Rounded MT Bold';-inkscape-font-specification:'Arial Rounded MT Bold, Bold';fill:#1a1a1a;fill-opacity:1"
           d="m 548.74616,11218.413 h -11.73751 q 0.022,2.044 0.81327,3.605 0.81327,1.56 2.1321,2.352 1.3408,0.791 2.94536,0.791 1.07704,0 1.95625,-0.242 0.9012,-0.264 1.73645,-0.791 0.83526,-0.55 1.53863,-1.165 0.70337,-0.616 1.82437,-1.671 0.46158,-0.395 1.31882,-0.395 0.92317,0 1.49466,0.505 0.57149,0.506 0.57149,1.429 0,0.813 -0.63743,1.912 -0.63743,1.077 -1.93427,2.088 -1.27486,0.99 -3.23111,1.649 -1.93427,0.659 -4.46201,0.659 -5.78084,0 -8.98997,-3.297 -3.20913,-3.297 -3.20913,-8.946 0,-2.659 0.79129,-4.923 0.79129,-2.286 2.30794,-3.913 1.51664,-1.626 3.73666,-2.484 2.22001,-0.879 4.9236,-0.879 3.51686,0 6.02262,1.495 2.52774,1.473 3.78062,3.824 1.25288,2.352 1.25288,4.792 0,2.264 -1.29684,2.946 -1.29684,0.659 -3.64874,0.659 z m -11.73751,-3.407 h 10.88027 q -0.2198,-3.077 -1.6705,-4.594 -1.42873,-1.539 -3.78062,-1.539 -2.242,0 -3.6927,1.561 -1.42873,1.539 -1.73645,4.572 z" />
        <path
           id="path8782"
           style="font-style:normal;font-variant:normal;font-weight:bold;font-stretch:normal;font-size:45.01576996px;line-height:1.25;font-family:'Arial Rounded MT Bold';-inkscape-font-specification:'Arial Rounded MT Bold, Bold';fill:#1a1a1a;fill-opacity:1"
           d="m 558.7692,11225.491 v -26.025 q 0,-1.803 0.79129,-2.726 0.81327,-0.923 2.17606,-0.923 1.36278,0 2.19803,0.923 0.83526,0.902 0.83526,2.726 v 26.025 q 0,1.824 -0.85724,2.747 -0.83525,0.901 -2.17605,0.901 -1.31883,0 -2.15408,-0.945 -0.81327,-0.945 -0.81327,-2.703 z" />
        <path
           id="path8784"
           style="font-style:normal;font-variant:normal;font-weight:bold;font-stretch:normal;font-size:45.01576996px;line-height:1.25;font-family:'Arial Rounded MT Bold';-inkscape-font-specification:'Arial Rounded MT Bold, Bold';fill:#1a1a1a;fill-opacity:1"
           d="m 570.99027,11225.491 v -26.025 q 0,-1.803 0.7913,-2.726 0.81327,-0.923 2.17605,-0.923 1.36279,0 2.19804,0.923 0.83525,0.902 0.83525,2.726 v 26.025 q 0,1.824 -0.85723,2.747 -0.83526,0.901 -2.17606,0.901 -1.31882,0 -2.15407,-0.945 -0.81328,-0.945 -0.81328,-2.703 z" />
        <path
           id="path8786"
           style="font-style:normal;font-variant:normal;font-weight:bold;font-stretch:normal;font-size:45.01576996px;line-height:1.25;font-family:'Arial Rounded MT Bold';-inkscape-font-specification:'Arial Rounded MT Bold, Bold';fill:#1a1a1a;fill-opacity:1"
           d="m 589.21199,11208.148 v 17.343 q 0,1.802 -0.85723,2.725 -0.85724,0.923 -2.17606,0.923 -1.31882,0 -2.15407,-0.945 -0.81328,-0.945 -0.81328,-2.703 v -17.167 q 0,-1.78 0.81328,-2.682 0.83525,-0.901 2.15407,-0.901 1.31882,0 2.17606,0.901 0.85723,0.902 0.85723,2.506 z m -2.96735,-6.198 q -1.25288,0 -2.15407,-0.77 -0.87922,-0.769 -0.87922,-2.176 0,-1.275 0.9012,-2.088 0.92317,-0.835 2.13209,-0.835 1.16496,0 2.06615,0.747 0.9012,0.748 0.9012,2.176 0,1.385 -0.87922,2.176 -0.87921,0.77 -2.08813,0.77 z" />
        <path
           id="path8788"
           style="font-style:normal;font-variant:normal;font-weight:bold;font-stretch:normal;font-size:45.01576996px;line-height:1.25;font-family:'Arial Rounded MT Bold';-inkscape-font-specification:'Arial Rounded MT Bold, Bold';fill:#1a1a1a;fill-opacity:1"
           d="m 610.59887,11225.754 q -2.17605,1.693 -4.22022,2.55 -2.0222,0.835 -4.54994,0.835 -2.30793,0 -4.06636,-0.901 -1.73645,-0.923 -2.68161,-2.484 -0.94515,-1.56 -0.94515,-3.385 0,-2.461 1.5606,-4.198 1.56061,-1.736 4.28617,-2.33 0.57149,-0.132 2.83547,-0.593 2.26398,-0.462 3.86854,-0.835 1.62655,-0.396 3.51686,-0.946 -0.1099,-2.374 -0.96714,-3.473 -0.83525,-1.121 -3.49487,-1.121 -2.28596,0 -3.45092,0.638 -1.14298,0.637 -1.97823,1.912 -0.81328,1.275 -1.16496,1.693 -0.32971,0.395 -1.4507,0.395 -1.0111,0 -1.75843,-0.637 -0.72535,-0.66 -0.72535,-1.671 0,-1.582 1.12099,-3.077 1.121,-1.495 3.49488,-2.462 2.37388,-0.967 5.91272,-0.967 3.95646,0 6.22044,0.945 2.26397,0.924 3.18715,2.946 0.94515,2.022 0.94515,5.363 0,2.11 -0.022,3.583 0,1.472 -0.022,3.275 0,1.692 0.54951,3.539 0.57149,1.824 0.57149,2.352 0,0.923 -0.87921,1.692 -0.85724,0.747 -1.95625,0.747 -0.92318,0 -1.82437,-0.857 -0.9012,-0.879 -1.9123,-2.528 z m -0.39564,-8.682 q -1.31882,0.484 -3.84656,1.033 -2.50576,0.528 -3.4729,0.792 -0.96714,0.241 -1.84635,0.989 -0.87921,0.725 -0.87921,2.044 0,1.363 1.03307,2.33 1.03308,0.945 2.70359,0.945 1.7804,0 3.27507,-0.769 1.51664,-0.792 2.22002,-2.023 0.81327,-1.362 0.81327,-4.484 z" />
        <path
           id="path8790"
           style="font-style:normal;font-variant:normal;font-weight:bold;font-stretch:normal;font-size:45.01576996px;line-height:1.25;font-family:'Arial Rounded MT Bold';-inkscape-font-specification:'Arial Rounded MT Bold, Bold';fill:#1a1a1a;fill-opacity:1"
           d="m 627.61167,11208.06 v 0.726 q 1.58258,-2.089 3.45091,-3.056 1.89032,-0.989 4.33013,-0.989 2.37388,0 4.24221,1.033 1.86833,1.033 2.79151,2.924 0.59347,1.099 0.76931,2.373 0.17584,1.275 0.17584,3.254 v 11.166 q 0,1.802 -0.83525,2.725 -0.81327,0.923 -2.13209,0.923 -1.34081,0 -2.17606,-0.945 -0.83525,-0.945 -0.83525,-2.703 v -10.001 q 0,-2.968 -0.83526,-4.528 -0.81327,-1.583 -3.27507,-1.583 -1.60457,0 -2.92339,0.967 -1.31882,0.945 -1.93427,2.616 -0.43961,1.341 -0.43961,5.011 v 7.518 q 0,1.824 -0.85723,2.747 -0.83525,0.901 -2.17605,0.901 -1.29685,0 -2.1321,-0.945 -0.83525,-0.945 -0.83525,-2.703 v -17.343 q 0,-1.714 0.74733,-2.55 0.74733,-0.857 2.04417,-0.857 0.7913,0 1.42873,0.374 0.63743,0.373 1.01109,1.121 0.39565,0.747 0.39565,1.824 z" />
      </g>
      <g
         id="text6891"
         style="font-style:normal;font-weight:normal;line-height:0%;font-family:Helvetica;-inkscape-font-specification:Helvetica;letter-spacing:0px;word-spacing:0px;fill:#1a1a1a;fill-opacity:1;stroke:none"
         aria-label="Console">
        <path
           id="path8793"
           style="font-size:41.95874023px;line-height:1.25;font-family:Helvetica;-inkscape-font-specification:Helvetica;fill:#1a1a1a;fill-opacity:1"
           d="m 664.30625,11201.425 q -4.79412,0 -7.45751,3.094 -2.6634,3.073 -2.6634,8.441 0,5.306 2.76584,8.543 2.78632,3.217 7.51897,3.217 6.06435,0 9.11701,-6.003 l 3.19608,1.598 q -1.78243,3.728 -5.01948,5.675 -3.21656,1.946 -7.478,1.946 -4.36387,0 -7.55995,-1.803 -3.17559,-1.823 -4.85557,-5.183 -1.65951,-3.381 -1.65951,-7.99 0,-6.905 3.72876,-10.818 3.72875,-3.913 10.32578,-3.913 4.60973,0 7.70337,1.803 3.09363,1.803 4.54826,5.347 l -3.70827,1.229 q -1.0039,-2.52 -3.23705,-3.851 -2.21267,-1.332 -5.26533,-1.332 z" />
        <path
           id="path8795"
           style="font-size:41.95874023px;line-height:1.25;font-family:Helvetica;-inkscape-font-specification:Helvetica;fill:#1a1a1a;fill-opacity:1"
           d="m 699.97528,11216.422 q 0,5.819 -2.56096,8.666 -2.56096,2.848 -7.43702,2.848 -4.85558,0 -7.33459,-2.95 -2.47901,-2.971 -2.47901,-8.564 0,-11.473 9.93652,-11.473 5.08094,0 7.478,2.807 2.39706,2.786 2.39706,8.666 z m -3.87217,0 q 0,-4.589 -1.37268,-6.658 -1.35218,-2.09 -4.56875,-2.09 -3.23705,0 -4.69167,2.131 -1.43414,2.11 -1.43414,6.617 0,4.384 1.41365,6.597 1.43414,2.192 4.4868,2.192 3.319,0 4.73265,-2.13 1.43414,-2.131 1.43414,-6.659 z" />
        <path
           id="path8797"
           style="font-size:41.95874023px;line-height:1.25;font-family:Helvetica;-inkscape-font-specification:Helvetica;fill:#1a1a1a;fill-opacity:1"
           d="m 718.66003,11227.526 v -14.054 q 0,-2.192 -0.43024,-3.401 -0.43024,-1.209 -1.37267,-1.742 -0.94244,-0.532 -2.76584,-0.532 -2.6634,0 -4.19997,1.823 -1.53658,1.824 -1.53658,5.061 v 12.845 h -3.68778 v -17.435 q 0,-3.872 -0.12292,-4.732 h 3.4829 q 0.0205,0.102 0.041,0.553 0.0205,0.451 0.041,1.045 0.041,0.573 0.082,2.192 h 0.0615 q 1.27023,-2.295 2.92973,-3.237 1.67999,-0.963 4.159,-0.963 3.6468,0 5.32679,1.823 1.70048,1.803 1.70048,5.983 v 14.771 z" />
        <path
           id="path8799"
           style="font-size:41.95874023px;line-height:1.25;font-family:Helvetica;-inkscape-font-specification:Helvetica;fill:#1a1a1a;fill-opacity:1"
           d="m 744.57693,11221.401 q 0,3.134 -2.37657,4.835 -2.35608,1.7 -6.61752,1.7 -4.1385,0 -6.39215,-1.352 -2.23315,-1.373 -2.90925,-4.262 l 3.25754,-0.635 q 0.47122,1.783 1.94633,2.623 1.47511,0.819 4.09753,0.819 2.80682,0 4.09754,-0.86 1.31121,-0.861 1.31121,-2.582 0,-1.311 -0.90146,-2.13 -0.90146,-0.82 -2.90925,-1.353 l -2.64291,-0.696 q -3.17558,-0.82 -4.52777,-1.598 -1.3317,-0.799 -2.08974,-1.926 -0.75805,-1.127 -0.75805,-2.766 0,-3.032 2.15121,-4.61 2.17169,-1.598 6.3102,-1.598 3.66729,0 5.8185,1.291 2.17169,1.291 2.74534,4.139 l -3.319,0.409 q -0.30731,-1.475 -1.6595,-2.253 -1.3317,-0.799 -3.58534,-0.799 -2.4995,0 -3.68778,0.758 -1.18828,0.758 -1.18828,2.294 0,0.943 0.4917,1.557 0.4917,0.615 1.45462,1.045 0.96292,0.431 4.05656,1.189 2.92974,0.737 4.22046,1.372 1.29072,0.615 2.02828,1.373 0.75804,0.758 1.1678,1.762 0.40975,0.983 0.40975,2.254 z" />
        <path
           id="path8801"
           style="font-size:41.95874023px;line-height:1.25;font-family:Helvetica;-inkscape-font-specification:Helvetica;fill:#1a1a1a;fill-opacity:1"
           d="m 767.66653,11216.422 q 0,5.819 -2.56096,8.666 -2.56096,2.848 -7.43702,2.848 -4.85558,0 -7.33459,-2.95 -2.479,-2.971 -2.479,-8.564 0,-11.473 9.93651,-11.473 5.08095,0 7.478,2.807 2.39706,2.786 2.39706,8.666 z m -3.87217,0 q 0,-4.589 -1.37267,-6.658 -1.35219,-2.09 -4.56875,-2.09 -3.23705,0 -4.69168,2.131 -1.43413,2.11 -1.43413,6.617 0,4.384 1.41364,6.597 1.43414,2.192 4.4868,2.192 3.31901,0 4.73265,-2.13 1.43414,-2.131 1.43414,-6.659 z" />
        <path
           id="path8803"
           style="font-size:41.95874023px;line-height:1.25;font-family:Helvetica;-inkscape-font-specification:Helvetica;fill:#1a1a1a;fill-opacity:1"
           d="m 772.27625,11227.526 v -30.403 h 3.68778 v 30.403 z" />
        <path
           id="path8805"
           style="font-size:41.95874023px;line-height:1.25;font-family:Helvetica;-inkscape-font-specification:Helvetica;fill:#1a1a1a;fill-opacity:1"
           d="m 784.44593,11217.221 q 0,3.811 1.57755,5.88 1.57755,2.069 4.60973,2.069 2.39705,0 3.83119,-0.963 1.45462,-0.963 1.96682,-2.438 l 3.23705,0.922 q -1.98731,5.245 -9.03506,5.245 -4.91704,0 -7.49849,-2.93 -2.56096,-2.929 -2.56096,-8.707 0,-5.491 2.56096,-8.42 2.58145,-2.93 7.35507,-2.93 9.77262,0 9.77262,11.78 v 0.492 z m 12.00577,-2.827 q -0.30731,-3.504 -1.78242,-5.102 -1.47511,-1.618 -4.24095,-1.618 -2.68388,0 -4.26143,1.803 -1.55707,1.782 -1.67999,4.917 z" />
      </g>
    </g>
  </g>
</svg>
