<?xml version="1.0" encoding="UTF-8" standalone="no"?>
<svg
   xmlns:dc="http://purl.org/dc/elements/1.1/"
   xmlns:cc="http://creativecommons.org/ns#"
   xmlns:rdf="http://www.w3.org/1999/02/22-rdf-syntax-ns#"
   xmlns:svg="http://www.w3.org/2000/svg"
   xmlns="http://www.w3.org/2000/svg"
   xmlns:xlink="http://www.w3.org/1999/xlink"
   id="svg7549"
   version="1.1"
   viewBox="0 0 52.916665 19.843751"
   height="75"
   width="200">
  <defs
     id="defs7543">
    <linearGradient
       y2="370.92719"
       x2="10340.06"
       y1="279.31326"
       x1="10340.06"
       gradientTransform="matrix(0.07943848,0,0,0.07915575,-787.97816,-20.98584)"
       gradientUnits="userSpaceOnUse"
       id="linearGradient7119"
       xlink:href="#linearGradient7063" />
    <linearGradient
       id="linearGradient7063">
      <stop
         style="stop-color:black;stop-opacity:1;"
         offset="0"
         id="stop7059" />
      <stop
         style="stop-color:#353535;stop-opacity:1"
         offset="1"
         id="stop7061" />
    </linearGradient>
    <linearGradient
       y2="71211.859"
       x2="8879.6631"
       y1="71158.859"
       x1="8878.2764"
       gradientTransform="matrix(0.07879414,0,0,0.06705918,-666.15747,-4771.8547)"
       gradientUnits="userSpaceOnUse"
       id="linearGradient7121"
       xlink:href="#linearGradient5539" />
    <linearGradient
       id="linearGradient5539">
      <stop
         style="stop-color:black;stop-opacity:1;"
         offset="0"
         id="stop5547" />
      <stop
         id="stop5543"
         offset="1"
         style="stop-color:white;stop-opacity:1;" />
    </linearGradient>
    <linearGradient
       y2="71211.859"
       x2="8879.6631"
       y1="71158.859"
       x1="8878.2764"
       gradientTransform="matrix(0.07879414,0,0,0.06705918,-666.15744,-4769.4451)"
       gradientUnits="userSpaceOnUse"
       id="linearGradient27124"
       xlink:href="#linearGradient5539" />
  </defs>
  <metadata
     id="metadata7546">
    <rdf:RDF>
      <cc:Work
         rdf:about="">
        <dc:format>image/svg+xml</dc:format>
        <dc:type
           rdf:resource="http://purl.org/dc/dcmitype/StillImage" />
        <dc:title></dc:title>
      </cc:Work>
    </rdf:RDF>
  </metadata>
  <g
     id="text10773"
     style="font-style:normal;font-weight:normal;font-size:3.38666677px;line-height:0%;font-family:'Bitstream Vera Sans';fill:#ffffff;fill-opacity:1;stroke:none;stroke-width:0.15249941"
     transform="scale(1.0647712,0.9391689)"
     aria-label="krellian">
    <path
       id="path12937"
       style="fill:#ffffff;fill-opacity:1;stroke-width:0.15249941"
       d="m 4.7509701,17.689187 -1.685309,-2.769222 -1.0349615,0.979018 v 1.517477 q 0,0.552446 -0.2937053,0.853144 -0.2867123,0.293706 -0.6643334,0.293706 -0.44055793,0 -0.69230532,-0.293706 -0.2517474,-0.293705 -0.2517474,-0.86713 V 9.2626419 q 0,-0.6363614 0.24475441,-0.9650317 Q 0.618117,7.9619471 1.0726609,7.9619471 q 0.4405579,0 0.6992983,0.3006982 0.2587404,0.3006983 0.2587404,0.8881089 v 4.6293548 l 2.1468458,-2.251741 q 0.3986001,-0.419579 0.6083896,-0.573424 0.2097895,-0.153846 0.5104877,-0.153846 0.3566422,0 0.5944036,0.230769 0.2377614,0.223775 0.2377614,0.566431 0,0.419579 -0.7762211,1.118878 l -1.0139826,0.930066 1.9580353,3.076913 q 0.2167825,0.342656 0.3076913,0.524474 0.097902,0.174824 0.097902,0.335663 0,0.454544 -0.2517474,0.720277 -0.2447544,0.258741 -0.6503475,0.258741 -0.3496491,0 -0.5384597,-0.188811 -0.1888105,-0.188811 -0.5104877,-0.685312 z" />
    <path
       id="path12939"
       style="fill:#ffffff;fill-opacity:1;stroke-width:0.15249941"
       d="m 10.114588,15.808074 v 1.5944 q 0,0.580418 -0.2727262,0.874123 -0.2727263,0.286713 -0.6923053,0.286713 -0.412586,0 -0.6783194,-0.293706 -0.2657334,-0.293705 -0.2657334,-0.86713 v -5.314667 q 0,-1.286709 0.9300668,-1.286709 0.4755229,0 0.6853124,0.300698 0.2097891,0.300699 0.2307681,0.888109 0.342656,-0.58741 0.699299,-0.888109 0.363635,-0.300698 0.965031,-0.300698 0.601397,0 1.167828,0.300698 0.566432,0.300699 0.566432,0.797201 0,0.349649 -0.244754,0.580417 -0.237762,0.223776 -0.517481,0.223776 -0.104895,0 -0.510488,-0.125874 -0.3986,-0.132867 -0.706291,-0.132867 -0.419579,0 -0.685312,0.223776 -0.265734,0.216782 -0.412586,0.650347 -0.146853,0.433565 -0.202797,1.034962 -0.05594,0.594403 -0.05594,1.45454 z" />
    <path
       id="path12941"
       style="fill:#ffffff;fill-opacity:1;stroke-width:0.15249941"
       d="m 19.464206,15.150734 h -3.734253 q 0.007,0.650347 0.258741,1.146849 0.25874,0.496502 0.678319,0.748249 0.426572,0.251748 0.93706,0.251748 0.342656,0 0.622375,-0.07692 0.286712,-0.08392 0.552446,-0.251748 0.265733,-0.174824 0.489509,-0.370628 0.223775,-0.195803 0.580417,-0.531466 0.146853,-0.125874 0.419579,-0.125874 0.293706,0 0.475523,0.160838 0.181818,0.160839 0.181818,0.454544 0,0.258741 -0.202797,0.60839 -0.202796,0.342656 -0.615382,0.664333 -0.405593,0.314685 -1.027969,0.524474 -0.615382,0.20979 -1.419575,0.20979 -1.839155,0 -2.860131,-1.048948 -1.020975,-1.048947 -1.020975,-2.846144 0,-0.846151 0.251747,-1.566428 0.251748,-0.727271 0.734264,-1.244751 0.482515,-0.517481 1.188807,-0.790207 0.706291,-0.27972 1.566428,-0.27972 1.118877,0 1.916077,0.475523 0.804193,0.46853 1.202793,1.216779 0.3986,0.748249 0.3986,1.524471 0,0.720277 -0.412586,0.937059 -0.412586,0.20979 -1.160835,0.20979 z m -3.734253,-1.083913 h 3.461527 q -0.06993,-0.979017 -0.531467,-1.461533 -0.454544,-0.489509 -1.202793,-0.489509 -0.713284,0 -1.174821,0.496502 -0.454544,0.489509 -0.552446,1.45454 z" />
    <path
       id="path12943"
       style="font-style:normal;font-variant:normal;font-weight:bold;font-stretch:normal;font-size:14.32162952px;line-height:1.25;font-family:'Arial Rounded MT Bold';-inkscape-font-specification:'Arial Rounded MT Bold, Bold';fill:#ffffff;fill-opacity:1;stroke-width:0.15249941"
       d="M 22.653006,17.402474 V 9.1227823 q 0,-0.5734247 0.251748,-0.86713 0.25874,-0.2937052 0.692305,-0.2937052 0.433565,0 0.699298,0.2937052 0.265734,0.2867124 0.265734,0.86713 v 8.2796917 q 0,0.580418 -0.272727,0.874123 -0.265733,0.286713 -0.692305,0.286713 -0.419579,0 -0.685312,-0.300699 -0.258741,-0.300698 -0.258741,-0.860137 z" />
    <path
       id="path12945"
       style="font-style:normal;font-variant:normal;font-weight:bold;font-stretch:normal;font-size:14.32162952px;line-height:1.25;font-family:'Arial Rounded MT Bold';-inkscape-font-specification:'Arial Rounded MT Bold, Bold';fill:#ffffff;fill-opacity:1;stroke-width:0.15249941"
       d="M 26.541106,17.402474 V 9.1227823 q 0,-0.5734247 0.251747,-0.86713 0.258741,-0.2937052 0.692306,-0.2937052 0.433565,0 0.699298,0.2937052 0.265733,0.2867124 0.265733,0.86713 v 8.2796917 q 0,0.580418 -0.272726,0.874123 -0.265733,0.286713 -0.692305,0.286713 -0.419579,0 -0.685313,-0.300699 -0.25874,-0.300698 -0.25874,-0.860137 z" />
    <path
       id="path12947"
       style="fill:#ffffff;fill-opacity:1;stroke-width:0.15249941"
       d="m 32.33829,11.885011 v 5.517463 q 0,0.573425 -0.272726,0.86713 -0.272727,0.293706 -0.692306,0.293706 -0.419579,0 -0.685312,-0.300699 -0.25874,-0.300698 -0.25874,-0.860137 v -5.46152 q 0,-0.566431 0.25874,-0.853143 0.265733,-0.286713 0.685312,-0.286713 0.419579,0 0.692306,0.286713 0.272726,0.286712 0.272726,0.7972 z M 31.394237,9.9129894 q -0.3986,0 -0.685312,-0.2447545 -0.279719,-0.2447544 -0.279719,-0.6923053 0,-0.405593 0.286712,-0.6643334 0.293705,-0.2657333 0.678319,-0.2657333 0.370628,0 0.657341,0.2377614 0.286712,0.2377614 0.286712,0.6923053 0,0.440558 -0.279719,0.6923053 -0.27972,0.2447545 -0.664334,0.2447545 z" />
    <path
       id="path12949"
       style="fill:#ffffff;fill-opacity:1;stroke-width:0.15249941"
       d="m 39.142464,17.48639 q -0.692306,0.53846 -1.342653,0.811186 -0.643355,0.265734 -1.447548,0.265734 -0.734263,0 -1.293702,-0.286713 -0.552445,-0.293705 -0.853144,-0.790207 -0.300698,-0.496502 -0.300698,-1.076919 0,-0.783214 0.496502,-1.33566 0.496502,-0.552446 1.363632,-0.741256 0.181817,-0.04196 0.902095,-0.188811 0.720277,-0.146852 1.230765,-0.265733 0.51748,-0.125874 1.118877,-0.300698 -0.03496,-0.755243 -0.307691,-1.104892 -0.265734,-0.356642 -1.111885,-0.356642 -0.72727,0 -1.097898,0.202797 -0.363635,0.202796 -0.629369,0.608389 -0.25874,0.405593 -0.370628,0.53846 -0.104894,0.125874 -0.461537,0.125874 -0.321677,0 -0.559438,-0.202797 -0.230769,-0.20979 -0.230769,-0.531467 0,-0.503495 0.356643,-0.979017 0.356642,-0.475523 1.111884,-0.783214 0.755242,-0.307692 1.881112,-0.307692 1.258737,0 1.979015,0.300699 0.720277,0.293705 1.013982,0.937059 0.300698,0.643355 0.300698,1.706288 0,0.671327 -0.007,1.139856 0,0.46853 -0.007,1.041955 0,0.53846 0.174825,1.12587 0.181818,0.580418 0.181818,0.748249 0,0.293706 -0.27972,0.53846 -0.272726,0.237762 -0.622375,0.237762 -0.293706,0 -0.580418,-0.272727 -0.286712,-0.279719 -0.608389,-0.804193 z M 39.01659,14.724162 q -0.419579,0.153845 -1.223772,0.32867 -0.7972,0.167832 -1.104891,0.251747 -0.307692,0.07692 -0.587411,0.314685 -0.279719,0.230768 -0.279719,0.650347 0,0.433565 0.32867,0.741256 0.32867,0.300699 0.860137,0.300699 0.566431,0 1.041954,-0.244755 0.482516,-0.251747 0.706292,-0.643354 0.25874,-0.433565 0.25874,-1.426569 z" />
    <path
       id="path12951"
       style="fill:#ffffff;fill-opacity:1;stroke-width:0.15249941"
       d="m 44.555029,11.857039 v 0.230768 q 0.503495,-0.664333 1.097898,-0.972025 0.601397,-0.314684 1.377618,-0.314684 0.755242,0 1.349646,0.32867 0.594403,0.328671 0.888108,0.930067 0.188811,0.349649 0.244755,0.755242 0.05594,0.405593 0.05594,1.034962 v 3.552435 q 0,0.573425 -0.265734,0.86713 -0.25874,0.293706 -0.678319,0.293706 -0.426572,0 -0.692305,-0.300699 -0.265734,-0.300698 -0.265734,-0.860137 v -3.181807 q 0,-0.944053 -0.265733,-1.440555 -0.25874,-0.503494 -1.041955,-0.503494 -0.510487,0 -0.930066,0.307691 -0.419579,0.300698 -0.615383,0.832165 -0.139859,0.426572 -0.139859,1.5944 v 2.3916 q 0,0.580418 -0.272727,0.874123 -0.265733,0.286713 -0.692305,0.286713 -0.412586,0 -0.67832,-0.300699 -0.265733,-0.300698 -0.265733,-0.860137 v -5.517463 q 0,-0.545453 0.237762,-0.811186 0.237761,-0.272727 0.650347,-0.272727 0.251747,0 0.454544,0.118881 0.202796,0.118881 0.321677,0.356642 0.125874,0.237762 0.125874,0.580418 z" />
  </g>
  <path
     d="m 31.65312,10.6553 c 0,0 1.75457,-2.4746 3.56277,-0.038 -0.52917,-0.8167 -0.53509,-1.72 -0.12474,-2.8274 1.34337,-3.6258 8.65716,-1.8695 8.64333,-1.8712 -0.0141,0 -8.07014,-5.6465 -10.32114,0 -2.25101,-5.6477 -10.30704,0 -10.29321,0 0.0141,0 7.32818,-1.7563 8.67156,1.8696 0.41007,1.1073 0.38184,2.0888 -0.13857,2.874 z"
     style="fill:#000000;fill-opacity:1;fill-rule:evenodd;stroke:none;stroke-width:0.05942781"
     id="path10775" />
  <path
     style="fill:url(#linearGradient27124);fill-opacity:1;fill-rule:evenodd;stroke:none;stroke-width:0.05942781"
     d="m 33.42604,2.4097 c -0.48035,0 -1.00218,0.1167 -1.57311,0.4816 -0.49728,0.3175 -1.60133,0.5494 -1.60133,0.5494 0,0 2.25044,0.1175 3.15524,2.4823 0.89888,-2.3501 3.13916,-2.4851 3.13916,-2.4851 0,0 -1.00189,-0.3007 -1.55222,-0.6019 C 34.49989,2.5656 33.89622,2.4098 33.42604,2.4097 Z"
     id="path10777" />
</svg>
