<?xml version="1.0" encoding="UTF-8" standalone="no"?>
<svg
   xmlns:dc="http://purl.org/dc/elements/1.1/"
   xmlns:cc="http://creativecommons.org/ns#"
   xmlns:rdf="http://www.w3.org/1999/02/22-rdf-syntax-ns#"
   xmlns:svg="http://www.w3.org/2000/svg"
   xmlns="http://www.w3.org/2000/svg"
   xmlns:xlink="http://www.w3.org/1999/xlink"
   width="200"
   height="75"
   viewBox="0 0 52.916665 19.843751"
   version="1.1"
   id="svg7549">
  <defs
     id="defs7543">
    <linearGradient
       xlink:href="#linearGradient7063"
       id="linearGradient7119"
       gradientUnits="userSpaceOnUse"
       gradientTransform="matrix(0.07943848,0,0,0.07915575,-787.97816,-20.98584)"
       x1="10340.06"
       y1="279.31326"
       x2="10340.06"
       y2="370.92719" />
    <linearGradient
       id="linearGradient7063">
      <stop
         id="stop7059"
         offset="0"
         style="stop-color:black;stop-opacity:1;" />
      <stop
         id="stop7061"
         offset="1"
         style="stop-color:#353535;stop-opacity:1" />
    </linearGradient>
    <linearGradient
       xlink:href="#linearGradient5539"
       id="linearGradient7121"
       gradientUnits="userSpaceOnUse"
       gradientTransform="matrix(0.07879414,0,0,0.06705918,-666.15747,-4771.8547)"
       x1="8878.2764"
       y1="71158.859"
       x2="8879.6631"
       y2="71211.859" />
    <linearGradient
       id="linearGradient5539">
      <stop
         id="stop5547"
         offset="0"
         style="stop-color:black;stop-opacity:1;" />
      <stop
         style="stop-color:white;stop-opacity:1;"
         offset="1"
         id="stop5543" />
    </linearGradient>
  </defs>
  <metadata
     id="metadata7546">
    <rdf:RDF>
      <cc:Work
         rdf:about="">
        <dc:format>image/svg+xml</dc:format>
        <dc:type
           rdf:resource="http://purl.org/dc/dcmitype/StillImage" />
        <dc:title></dc:title>
      </cc:Work>
    </rdf:RDF>
  </metadata>
  <g
     transform="translate(0,2.4088229)"
     id="g10059">
    <g
       aria-label="krellian"
       transform="matrix(1.0647712,0,0,0.93916892,0,-277.15623)"
       style="font-style:normal;font-weight:normal;font-size:3.47813153px;line-height:0%;font-family:'Bitstream Vera Sans';fill:#ffffff;fill-opacity:1;stroke:none;stroke-width:0.15249941"
       id="text6914">
      <path
         d="m 4.7509842,310.2332 -1.6853089,-2.76922 -1.0349615,0.97901 v 1.51748 q 0,0.55245 -0.2937053,0.85314 -0.2867123,0.29371 -0.6643334,0.29371 -0.44055794,0 -0.69230534,-0.29371 -0.25174739,-0.2937 -0.25174739,-0.86713 v -8.13983 q 0,-0.63636 0.24475441,-0.96503 0.24475441,-0.33566 0.69929832,-0.33566 0.4405579,0 0.6992983,0.3007 0.2587404,0.30069 0.2587404,0.8881 v 4.62936 l 2.1468458,-2.25174 q 0.3986001,-0.41958 0.6083896,-0.57343 0.2097895,-0.15384 0.5104877,-0.15384 0.3566422,0 0.5944036,0.23077 0.2377614,0.22377 0.2377614,0.56643 0,0.41958 -0.7762211,1.11888 l -1.0139826,0.93006 1.9580353,3.07692 q 0.2167825,0.34265 0.3076913,0.52447 0.097902,0.17482 0.097902,0.33566 0,0.45455 -0.2517473,0.72028 -0.2447545,0.25874 -0.6503475,0.25874 -0.3496491,0 -0.5384597,-0.18881 -0.1888105,-0.18881 -0.5104881,-0.68531 z"
         style="fill:#ffffff;fill-opacity:1;stroke-width:0.15249941"
         id="path8142" />
      <path
         d="m 10.114602,308.35208 v 1.5944 q 0,0.58042 -0.272726,0.87413 -0.2727264,0.28671 -0.6923053,0.28671 -0.4125861,0 -0.6783194,-0.29371 -0.2657334,-0.2937 -0.2657334,-0.86713 v -5.31466 q 0,-1.28671 0.9300668,-1.28671 0.4755228,0 0.6853123,0.3007 0.20979,0.30069 0.230768,0.88811 0.342657,-0.58742 0.699299,-0.88811 0.363635,-0.3007 0.965031,-0.3007 0.601397,0 1.167829,0.3007 0.566431,0.30069 0.566431,0.7972 0,0.34965 -0.244754,0.58041 -0.237762,0.22378 -0.517481,0.22378 -0.104895,0 -0.510488,-0.12587 -0.3986,-0.13287 -0.706291,-0.13287 -0.419579,0 -0.685312,0.22377 -0.265734,0.21679 -0.412586,0.65035 -0.146853,0.43357 -0.202797,1.03496 -0.05594,0.59441 -0.05594,1.45454 z"
         style="fill:#ffffff;fill-opacity:1;stroke-width:0.15249941"
         id="path8144" />
      <path
         d="m 19.46422,307.69474 h -3.734253 q 0.007,0.65035 0.258741,1.14685 0.25874,0.4965 0.678319,0.74825 0.426572,0.25175 0.93706,0.25175 0.342656,0 0.622375,-0.0769 0.286713,-0.0839 0.552446,-0.25175 0.265733,-0.17483 0.489509,-0.37063 0.223775,-0.1958 0.580417,-0.53147 0.146853,-0.12587 0.419579,-0.12587 0.293706,0 0.475523,0.16084 0.181818,0.16084 0.181818,0.45454 0,0.25874 -0.202797,0.60839 -0.202796,0.34266 -0.615382,0.66434 -0.405593,0.31468 -1.027969,0.52447 -0.615382,0.20979 -1.419575,0.20979 -1.839155,0 -2.86013,-1.04895 -1.020976,-1.04895 -1.020976,-2.84614 0,-0.84615 0.251747,-1.56643 0.251748,-0.72727 0.734264,-1.24475 0.482516,-0.51748 1.188807,-0.79021 0.706291,-0.27972 1.566428,-0.27972 1.118877,0 1.916077,0.47553 0.804194,0.46853 1.202794,1.21677 0.3986,0.74825 0.3986,1.52447 0,0.72028 -0.412586,0.93706 -0.412586,0.20979 -1.160836,0.20979 z m -3.734253,-1.08391 h 3.461527 q -0.06993,-0.97902 -0.531467,-1.46153 -0.454544,-0.48951 -1.202793,-0.48951 -0.713284,0 -1.174821,0.4965 -0.454544,0.48951 -0.552446,1.45454 z"
         style="fill:#ffffff;fill-opacity:1;stroke-width:0.15249941"
         id="path8146" />
      <path
         d="m 22.65302,309.94648 v -8.27969 q 0,-0.57342 0.251748,-0.86713 0.25874,-0.2937 0.692305,-0.2937 0.433565,0 0.699298,0.2937 0.265734,0.28671 0.265734,0.86713 v 8.27969 q 0,0.58042 -0.272727,0.87413 -0.265733,0.28671 -0.692305,0.28671 -0.419579,0 -0.685312,-0.3007 -0.258741,-0.3007 -0.258741,-0.86014 z"
         style="font-style:normal;font-variant:normal;font-weight:bold;font-stretch:normal;font-size:14.32162952px;line-height:1.25;font-family:'Arial Rounded MT Bold';-inkscape-font-specification:'Arial Rounded MT Bold, Bold';fill:#ffffff;fill-opacity:1;stroke-width:0.15249941"
         id="path8148" />
      <path
         d="m 26.54112,309.94648 v -8.27969 q 0,-0.57342 0.251747,-0.86713 0.258741,-0.2937 0.692306,-0.2937 0.433565,0 0.699298,0.2937 0.265733,0.28671 0.265733,0.86713 v 8.27969 q 0,0.58042 -0.272726,0.87413 -0.265733,0.28671 -0.692305,0.28671 -0.419579,0 -0.685313,-0.3007 -0.25874,-0.3007 -0.25874,-0.86014 z"
         style="font-style:normal;font-variant:normal;font-weight:bold;font-stretch:normal;font-size:14.32162952px;line-height:1.25;font-family:'Arial Rounded MT Bold';-inkscape-font-specification:'Arial Rounded MT Bold, Bold';fill:#ffffff;fill-opacity:1;stroke-width:0.15249941"
         id="path8150" />
      <path
         d="m 32.338304,304.42902 v 5.51746 q 0,0.57343 -0.272726,0.86713 -0.272727,0.29371 -0.692306,0.29371 -0.419579,0 -0.685312,-0.3007 -0.25874,-0.3007 -0.25874,-0.86014 v -5.46152 q 0,-0.56643 0.25874,-0.85314 0.265733,-0.28671 0.685312,-0.28671 0.419579,0 0.692306,0.28671 0.272726,0.28671 0.272726,0.7972 z M 31.394251,302.457 q -0.3986,0 -0.685312,-0.24475 -0.279719,-0.24476 -0.279719,-0.69231 0,-0.40559 0.286712,-0.66433 0.293705,-0.26574 0.678319,-0.26574 0.370629,0 0.657341,0.23776 0.286712,0.23777 0.286712,0.69231 0,0.44056 -0.279719,0.69231 -0.27972,0.24475 -0.664334,0.24475 z"
         style="fill:#ffffff;fill-opacity:1;stroke-width:0.15249941"
         id="path8152" />
      <path
         d="m 39.142478,310.0304 q -0.692306,0.53846 -1.342653,0.81119 -0.643354,0.26573 -1.447547,0.26573 -0.734264,0 -1.293702,-0.28671 -0.552446,-0.29371 -0.853144,-0.79021 -0.300699,-0.4965 -0.300699,-1.07692 0,-0.78321 0.496502,-1.33566 0.496502,-0.55244 1.363632,-0.74126 0.181817,-0.0419 0.902095,-0.18881 0.720277,-0.14685 1.230765,-0.26573 0.517481,-0.12587 1.118877,-0.3007 -0.03496,-0.75524 -0.307691,-1.10489 -0.265734,-0.35664 -1.111884,-0.35664 -0.727271,0 -1.097899,0.2028 -0.363635,0.20279 -0.629368,0.60839 -0.258741,0.40559 -0.370628,0.53845 -0.104895,0.12588 -0.461537,0.12588 -0.321678,0 -0.559439,-0.2028 -0.230768,-0.20979 -0.230768,-0.53146 0,-0.5035 0.356642,-0.97902 0.356642,-0.47553 1.111884,-0.78322 0.755242,-0.30769 1.881113,-0.30769 1.258736,0 1.979014,0.3007 0.720277,0.29371 1.013982,0.93706 0.300699,0.64335 0.300699,1.70629 0,0.67132 -0.007,1.13985 0,0.46853 -0.007,1.04196 0,0.53846 0.174824,1.12587 0.181818,0.58042 0.181818,0.74825 0,0.2937 -0.27972,0.53846 -0.272726,0.23776 -0.622375,0.23776 -0.293705,0 -0.580418,-0.27273 -0.286712,-0.27972 -0.608389,-0.80419 z m -0.125874,-2.76223 q -0.419579,0.15385 -1.223772,0.32867 -0.7972,0.16783 -1.104891,0.25175 -0.307692,0.0769 -0.587411,0.31468 -0.279719,0.23077 -0.279719,0.65035 0,0.43357 0.32867,0.74126 0.32867,0.3007 0.860137,0.3007 0.566432,0 1.041954,-0.24476 0.482516,-0.25175 0.706292,-0.64335 0.25874,-0.43357 0.25874,-1.42657 z"
         style="fill:#ffffff;fill-opacity:1;stroke-width:0.15249941"
         id="path8154" />
      <path
         d="m 44.555043,304.40105 v 0.23077 q 0.503495,-0.66434 1.097898,-0.97203 0.601397,-0.31468 1.377618,-0.31468 0.755242,0 1.349646,0.32867 0.594403,0.32867 0.888109,0.93007 0.18881,0.34964 0.244754,0.75524 0.05594,0.40559 0.05594,1.03496 v 3.55243 q 0,0.57343 -0.265733,0.86713 -0.258741,0.29371 -0.67832,0.29371 -0.426572,0 -0.692305,-0.3007 -0.265734,-0.3007 -0.265734,-0.86014 v -3.1818 q 0,-0.94406 -0.265733,-1.44056 -0.25874,-0.50349 -1.041954,-0.50349 -0.510488,0 -0.930067,0.30769 -0.419579,0.3007 -0.615383,0.83216 -0.139859,0.42658 -0.139859,1.5944 v 2.3916 q 0,0.58042 -0.272727,0.87413 -0.265733,0.28671 -0.692305,0.28671 -0.412586,0 -0.678319,-0.3007 -0.265734,-0.3007 -0.265734,-0.86014 v -5.51746 q 0,-0.54545 0.237762,-0.81119 0.237761,-0.27272 0.650347,-0.27272 0.251748,0 0.454544,0.11888 0.202797,0.11888 0.321677,0.35664 0.125874,0.23776 0.125874,0.58042 z"
         style="fill:#ffffff;fill-opacity:1;stroke-width:0.15249941"
         id="path8156" />
    </g>
    <path
       id="path6920"
       style="fill:url(#linearGradient7119);fill-opacity:1;fill-rule:evenodd;stroke:none;stroke-width:0.05942781"
       d="m 31.653092,8.24559 c 0,0 1.754428,-2.47454 3.562766,-0.0376 -0.529255,-0.81672 -0.535052,-1.72005 -0.124923,-2.8274 1.343429,-3.62584 8.65736,-1.8695 8.643447,-1.87118 -0.01449,0 -8.070135,-5.64651 -10.321065,-0.005 -2.250931,-5.64779 -10.307153,-0.003 -10.293241,-0.003 0.01449,0 7.328134,-1.75629 8.671562,1.86955 0.41013,1.10732 0.381725,2.08888 -0.138546,2.87407 z" />
    <path
       id="path6923"
       d="m 33.42607,-1e-5 c -0.480562,0 -1.002282,0.11675 -1.573275,0.48163 -0.497083,0.31753 -1.60139,0.5494 -1.60139,0.5494 0,0 2.250641,0.1175 3.155245,2.48226 0.899097,-2.35 3.139304,-2.48507 3.139304,-2.48507 0,0 -1.001992,-0.30068 -1.552116,-0.60186 C 34.499943,0.1559 33.896197,1.3e-4 33.42607,-1e-5 Z"
       style="fill:url(#linearGradient7121);fill-opacity:1;fill-rule:evenodd;stroke:none;stroke-width:0.05942781" />
  </g>
</svg>
