<?xml version="1.0" encoding="UTF-8" standalone="no"?>
<!-- Created with Inkscape (http://www.inkscape.org/) -->

<svg
   width="32"
   height="32"
   viewBox="0 0 8.4666665 8.4666666"
   version="1.1"
   id="svg1"
   xmlns="http://www.w3.org/2000/svg"
   xmlns:svg="http://www.w3.org/2000/svg">
  <defs
     id="defs1" />
  <g
     id="layer1">
    <g
       id="g1185"
       transform="matrix(0.39061847,0,0,0.39061847,-715.90404,-4144.6704)"
       style="fill:#3584be;fill-opacity:1;stroke-width:4">
      <g
         id="g1187"
         transform="matrix(3.9460175,0,0,3.9460175,881.56138,8639.9198)"
         style="fill:#999999;stroke-width:0.648766">
        <g
           id="g1186"
           transform="translate(319.61666,-7.4083332)"
           style="fill:#999999;stroke-width:0.648766">
          <path
             id="path1185"
             style="fill:#999999;fill-opacity:1;stroke:none;stroke-width:0.171652;stroke-linecap:round;stroke-dasharray:none;stroke-opacity:1"
             d="m -73.383633,507.55092 a 2.4375377,0.60938442 0 0 1 -2.437578,0.60927 2.4375377,0.60938442 0 0 1 -2.437577,-0.60358 v 4.12843 a 2.4375377,0.60938442 0 0 0 2.437577,0.60926 2.4375377,0.60938442 0 0 0 2.437578,-0.60926 2.4375377,0.60938442 0 0 0 0,-0.002 z m -4.37286,1.19476 a 0.1322915,0.1322915 0 0 1 0.03359,0.006 c 0.750164,0.23738 1.027265,0.23561 1.732711,0.23461 a 0.1322915,0.1322915 0 0 1 0.132808,0.13075 0.1322915,0.1322915 0 0 1 -0.132808,0.1328 c -0.705605,10e-4 -1.0411,-0.002 -1.810743,-0.24598 a 0.1322915,0.1322915 0 0 1 -0.08785,-0.16639 0.1322915,0.1322915 0 0 1 0.132292,-0.092 z m 3.732589,0.016 a 0.13229166,0.13229166 0 0 1 0.132291,0.13229 0.13229166,0.13229166 0 0 1 -0.132291,0.1323 0.13229166,0.13229166 0 0 1 -0.132292,-0.1323 0.13229166,0.13229166 0 0 1 0.132292,-0.13229 z m -0.54777,0.10439 a 0.13229166,0.13229166 0 0 1 0.132291,0.13229 0.13229166,0.13229166 0 0 1 -0.132291,0.13229 0.13229166,0.13229166 0 0 1 -0.132292,-0.13229 0.13229166,0.13229166 0 0 1 0.132292,-0.13229 z m -0.610816,0.0584 a 0.13229166,0.13229166 0 0 1 0.132292,0.13229 0.13229166,0.13229166 0 0 1 -0.132292,0.1323 0.13229166,0.13229166 0 0 1 -0.132292,-0.1323 0.13229166,0.13229166 0 0 1 0.132292,-0.13229 z m -2.574003,0.88005 a 0.1322915,0.1322915 0 0 1 0.03359,0.006 c 0.750164,0.23742 1.027265,0.23303 1.732711,0.23203 a 0.1322915,0.1322915 0 0 1 0.132808,0.13281 0.1322915,0.1322915 0 0 1 -0.132808,0.13281 c -0.705605,10e-4 -1.0411,-0.002 -1.810743,-0.24598 a 0.1322915,0.1322915 0 0 1 -0.08785,-0.16588 0.1322915,0.1322915 0 0 1 0.132292,-0.092 z m 3.732589,0.0155 a 0.13229166,0.13229166 0 0 1 0.132291,0.13229 0.13229166,0.13229166 0 0 1 -0.132291,0.13229 0.13229166,0.13229166 0 0 1 -0.132292,-0.13229 0.13229166,0.13229166 0 0 1 0.132292,-0.13229 z m -0.54777,0.10438 a 0.13229166,0.13229166 0 0 1 0.132291,0.13229 0.13229166,0.13229166 0 0 1 -0.132291,0.1323 0.13229166,0.13229166 0 0 1 -0.132292,-0.1323 0.13229166,0.13229166 0 0 1 0.132292,-0.13229 z m -0.610816,0.0584 a 0.13229166,0.13229166 0 0 1 0.132292,0.13229 0.13229166,0.13229166 0 0 1 -0.132292,0.13229 0.13229166,0.13229166 0 0 1 -0.132292,-0.13229 0.13229166,0.13229166 0 0 1 0.132292,-0.13229 z m -2.574003,0.88005 a 0.1322915,0.1322915 0 0 1 0.03359,0.006 c 0.750164,0.23742 1.027265,0.23354 1.732711,0.23254 a 0.1322915,0.1322915 0 0 1 0.132808,0.13281 0.1322915,0.1322915 0 0 1 -0.132808,0.13281 c -0.705605,0.001 -1.0411,-0.002 -1.810743,-0.24598 a 0.1322915,0.1322915 0 0 1 -0.08785,-0.1664 0.1322915,0.1322915 0 0 1 0.132292,-0.092 z m 3.732589,0.0155 a 0.13229166,0.13229166 0 0 1 0.132291,0.13229 0.13229166,0.13229166 0 0 1 -0.132291,0.13229 0.13229166,0.13229166 0 0 1 -0.132292,-0.13229 0.13229166,0.13229166 0 0 1 0.132292,-0.13229 z m -0.54777,0.10439 a 0.13229166,0.13229166 0 0 1 0.132291,0.13229 0.13229166,0.13229166 0 0 1 -0.132291,0.13229 0.13229166,0.13229166 0 0 1 -0.132292,-0.13229 0.13229166,0.13229166 0 0 1 0.132292,-0.13229 z m -0.610816,0.0584 a 0.13229166,0.13229166 0 0 1 0.132292,0.13229 0.13229166,0.13229166 0 0 1 -0.132292,0.13229 0.13229166,0.13229166 0 0 1 -0.132292,-0.13229 0.13229166,0.13229166 0 0 1 0.132292,-0.13229 z" />
          <ellipse
             style="fill:#999999;fill-opacity:1;stroke:none;stroke-width:0.171652;stroke-linecap:round;stroke-dasharray:none;stroke-opacity:1"
             id="ellipse1185"
             cx="-75.821205"
             cy="507.4108"
             rx="2.4375377"
             ry="0.60938442" />
        </g>
      </g>
    </g>
  </g>
</svg>
