<?xml version="1.0" encoding="UTF-8" standalone="no"?>
<svg
   xmlns:dc="http://purl.org/dc/elements/1.1/"
   xmlns:cc="http://creativecommons.org/ns#"
   xmlns:rdf="http://www.w3.org/1999/02/22-rdf-syntax-ns#"
   xmlns:svg="http://www.w3.org/2000/svg"
   xmlns="http://www.w3.org/2000/svg"
   width="283.9267"
   height="200"
   viewBox="0 0 75.12227 52.916668"
   version="1.1"
   id="svg9285">
  <defs
     id="defs9279" />
  <metadata
     id="metadata9282">
    <rdf:RDF>
      <cc:Work
         rdf:about="">
        <dc:format>image/svg+xml</dc:format>
        <dc:type
           rdf:resource="http://purl.org/dc/dcmitype/StillImage" />
        <dc:title></dc:title>
      </cc:Work>
    </rdf:RDF>
  </metadata>
  <g
     id="g27825">
    <g
       id="g27798">
      <ellipse
         style="fill:none;fill-opacity:1;stroke:#000000;stroke-width:1.12469327"
         id="ellipse74935-4-8"
         cx="63.949429"
         cy="9.3060532"
         rx="8.3696604"
         ry="8.5182076" />
      <path
         id="ellipse74937-5-8"
         d="m 63.949011,-4.1398121e-7 c -5.055467,0 -9.15582,4.18273751398121 -9.15582,9.30527441398121 0,5.122537 4.100353,9.306973 9.15582,9.306973 5.055468,0 9.157517,-4.184436 9.157517,-9.306973 0,-5.1225369 -4.102049,-9.30527441398121 -9.157517,-9.30527441398121 z m 0,1.57437301398121 c 4.189403,0 7.583144,3.4444858 7.583144,7.7309014 0,4.286415 -3.393741,7.730901 -7.583144,7.730901 -4.189404,0 -7.581447,-3.444486 -7.581447,-7.730901 0,-4.2864156 3.392043,-7.7309014 7.581447,-7.7309014 z"
         style="color:#000000;font-style:normal;font-variant:normal;font-weight:normal;font-stretch:normal;font-size:medium;line-height:normal;font-family:sans-serif;font-variant-ligatures:normal;font-variant-position:normal;font-variant-caps:normal;font-variant-numeric:normal;font-variant-alternates:normal;font-feature-settings:normal;text-indent:0;text-align:start;text-decoration:none;text-decoration-line:none;text-decoration-style:solid;text-decoration-color:#000000;letter-spacing:normal;word-spacing:normal;text-transform:none;writing-mode:lr-tb;direction:ltr;text-orientation:mixed;dominant-baseline:auto;baseline-shift:baseline;text-anchor:start;white-space:normal;shape-padding:0;clip-rule:nonzero;display:inline;overflow:visible;visibility:visible;opacity:1;isolation:auto;mix-blend-mode:normal;color-interpolation:sRGB;color-interpolation-filters:linearRGB;solid-color:#000000;solid-opacity:1;vector-effect:none;fill:#4a4a4f;fill-opacity:1;fill-rule:nonzero;stroke:none;stroke-width:1.57457066;stroke-linecap:butt;stroke-linejoin:miter;stroke-miterlimit:4;stroke-dasharray:none;stroke-dashoffset:0;stroke-opacity:1;color-rendering:auto;image-rendering:auto;shape-rendering:auto;text-rendering:auto;enable-background:accumulate" />
      <path
         id="ellipse74939-0-9"
         d="m 63.949011,5.0559954 c -2.820444,0 -5.110343,2.3389237 -5.110343,5.1867696 0,2.847844 2.289899,5.186769 5.110343,5.186769 2.820444,0 5.110343,-2.338925 5.110343,-5.186769 0,-2.8478459 -2.289899,-5.1867696 -5.110343,-5.1867696 z m 0,1.574373 c 1.95438,0 3.535971,1.6006728 3.535971,3.6123966 0,2.011723 -1.581591,3.610698 -3.535971,3.610698 -1.95438,0 -3.534272,-1.598975 -3.534272,-3.610698 0,-2.0117238 1.579892,-3.6123966 3.534272,-3.6123966 z"
         style="color:#000000;font-style:normal;font-variant:normal;font-weight:normal;font-stretch:normal;font-size:medium;line-height:normal;font-family:sans-serif;font-variant-ligatures:normal;font-variant-position:normal;font-variant-caps:normal;font-variant-numeric:normal;font-variant-alternates:normal;font-feature-settings:normal;text-indent:0;text-align:start;text-decoration:none;text-decoration-line:none;text-decoration-style:solid;text-decoration-color:#000000;letter-spacing:normal;word-spacing:normal;text-transform:none;writing-mode:lr-tb;direction:ltr;text-orientation:mixed;dominant-baseline:auto;baseline-shift:baseline;text-anchor:start;white-space:normal;shape-padding:0;clip-rule:nonzero;display:inline;overflow:visible;visibility:visible;opacity:1;isolation:auto;mix-blend-mode:normal;color-interpolation:sRGB;color-interpolation-filters:linearRGB;solid-color:#000000;solid-opacity:1;vector-effect:none;fill:#4a4a4f;fill-opacity:1;fill-rule:nonzero;stroke:none;stroke-width:1.57457066;stroke-linecap:butt;stroke-linejoin:miter;stroke-miterlimit:4;stroke-dasharray:none;stroke-dashoffset:0;stroke-opacity:1;color-rendering:auto;image-rendering:auto;shape-rendering:auto;text-rendering:auto;enable-background:accumulate" />
      <path
         id="ellipse74941-3-7"
         d="m 64.040722,8.4255271 c -1.042584,0 -1.890266,0.8722157 -1.890266,1.9106469 0,1.038431 0.847682,1.910646 1.890266,1.910646 1.042584,0 1.891965,-0.872215 1.891965,-1.910646 0,-1.0384312 -0.849381,-1.9106469 -1.891965,-1.9106469 z m 0,1.574373 c 0.17652,0 0.317592,0.1339639 0.317592,0.3362739 0,0.202309 -0.141072,0.336273 -0.317592,0.336273 -0.17652,0 -0.315893,-0.133964 -0.315893,-0.336273 0,-0.20231 0.139373,-0.3362739 0.315893,-0.3362739 z"
         style="color:#000000;font-style:normal;font-variant:normal;font-weight:normal;font-stretch:normal;font-size:medium;line-height:normal;font-family:sans-serif;font-variant-ligatures:normal;font-variant-position:normal;font-variant-caps:normal;font-variant-numeric:normal;font-variant-alternates:normal;font-feature-settings:normal;text-indent:0;text-align:start;text-decoration:none;text-decoration-line:none;text-decoration-style:solid;text-decoration-color:#000000;letter-spacing:normal;word-spacing:normal;text-transform:none;writing-mode:lr-tb;direction:ltr;text-orientation:mixed;dominant-baseline:auto;baseline-shift:baseline;text-anchor:start;white-space:normal;shape-padding:0;clip-rule:nonzero;display:inline;overflow:visible;visibility:visible;opacity:1;isolation:auto;mix-blend-mode:normal;color-interpolation:sRGB;color-interpolation-filters:linearRGB;solid-color:#000000;solid-opacity:1;vector-effect:none;fill:#4a4a4f;fill-opacity:1;fill-rule:nonzero;stroke:none;stroke-width:1.57457066;stroke-linecap:butt;stroke-linejoin:miter;stroke-miterlimit:4;stroke-dasharray:none;stroke-dashoffset:0;stroke-opacity:1;color-rendering:auto;image-rendering:auto;shape-rendering:auto;text-rendering:auto;enable-background:accumulate" />
      <path
         id="ellipse74943-6-7"
         d="M 65.145135,3.408837 A 1.2876402,1.3104935 0 0 1 63.857494,4.7193309 1.2876402,1.3104935 0 0 1 62.569854,3.408837 1.2876402,1.3104935 0 0 1 63.857494,2.0983439 1.2876402,1.3104935 0 0 1 65.145135,3.408837 Z"
         style="fill:#4a4a4f;fill-opacity:1;stroke:none;stroke-width:0.37353745" />
      <path
         id="ellipse74945-0-4"
         d="m 62.569982,19.876998 a 0.64382006,0.65524668 0 0 1 -0.64382,0.655247 0.64382006,0.65524668 0 0 1 -0.64382,-0.655247 0.64382006,0.65524668 0 0 1 0.64382,-0.655246 0.64382006,0.65524668 0 0 1 0.64382,0.655246 z"
         style="fill:#4a4a4f;fill-opacity:1;stroke:none;stroke-width:0.19315132" />
      <path
         id="ellipse74947-6-3"
         d="m 64.777364,19.876998 a 0.64382006,0.65524668 0 0 1 -0.643819,0.655247 0.64382006,0.65524668 0 0 1 -0.643821,-0.655247 0.64382006,0.65524668 0 0 1 0.643821,-0.655246 0.64382006,0.65524668 0 0 1 0.643819,0.655246 z"
         style="fill:#4a4a4f;fill-opacity:1;stroke:none;stroke-width:0.19315132" />
      <path
         id="ellipse74949-3-0"
         d="m 66.984748,19.876998 a 0.64382006,0.65524668 0 0 1 -0.643819,0.655247 0.64382006,0.65524668 0 0 1 -0.643821,-0.655247 0.64382006,0.65524668 0 0 1 0.643821,-0.655246 0.64382006,0.65524668 0 0 1 0.643819,0.655246 z"
         style="fill:#4a4a4f;fill-opacity:1;stroke:none;stroke-width:0.19315132" />
      <path
         id="path74953-2-3"
         d="m 60.125,17.035156 c -1.062325,0 -2.088532,0.181522 -2.917969,0.746094 -0.829436,0.564572 -1.373047,1.5654 -1.373047,2.78125 v 2.009766 H 56.621094 72.25 V 20.5625 c 0,-1.215849 -0.543611,-2.216678 -1.373047,-2.78125 -0.829436,-0.564572 -1.855642,-0.746094 -2.917969,-0.746094 z m 0,1.574219 h 7.833984 c 0.867738,0 1.591747,0.175452 2.03125,0.474609 0.439504,0.299157 0.683594,0.670574 0.683594,1.478516 v 0.435547 H 57.408203 V 20.5625 c 0,-0.807941 0.24409,-1.179358 0.683594,-1.478516 0.439504,-0.299157 1.165467,-0.474609 2.033203,-0.474609 z"
         style="color:#000000;font-style:normal;font-variant:normal;font-weight:normal;font-stretch:normal;font-size:medium;line-height:normal;font-family:sans-serif;font-variant-ligatures:normal;font-variant-position:normal;font-variant-caps:normal;font-variant-numeric:normal;font-variant-alternates:normal;font-feature-settings:normal;text-indent:0;text-align:start;text-decoration:none;text-decoration-line:none;text-decoration-style:solid;text-decoration-color:#000000;letter-spacing:normal;word-spacing:normal;text-transform:none;writing-mode:lr-tb;direction:ltr;text-orientation:mixed;dominant-baseline:auto;baseline-shift:baseline;text-anchor:start;white-space:normal;shape-padding:0;clip-rule:nonzero;display:inline;overflow:visible;visibility:visible;opacity:1;isolation:auto;mix-blend-mode:normal;color-interpolation:sRGB;color-interpolation-filters:linearRGB;solid-color:#000000;solid-opacity:1;vector-effect:none;fill:#4a4a4f;fill-opacity:1;fill-rule:nonzero;stroke:none;stroke-width:1.57457066;stroke-linecap:butt;stroke-linejoin:miter;stroke-miterlimit:4;stroke-dasharray:none;stroke-dashoffset:0;stroke-opacity:1;color-rendering:auto;image-rendering:auto;shape-rendering:auto;text-rendering:auto;enable-background:accumulate" />
      <path
         id="path74957-0-0"
         d="m 9.8708207,41.145017 c -1.2685563,0.115578 -0.7405401,2.918491 0.4585643,1.955417 0.427725,-0.556758 0.393726,-1.835799 -0.4585643,-1.955417 z M 1.3811199,30.457919 c 0,7.448477 0,14.896954 0,22.345431 4.7971097,0 9.5942191,0 14.3913291,0 0,-7.448477 0,-14.896954 0,-22.345431 -4.79711,0 -9.5942194,0 -14.3913291,0 z m 0.9703643,0.971673 c 3.4496003,0 6.8992005,0 10.3488008,0 -1.549614,0.572703 -3.0992279,1.145405 -4.6488418,1.718108 -0.4750681,0.298613 -0.2230454,0.929977 -0.2867876,1.398031 0,5.045959 0,10.091917 0,15.137875 0.019158,0.529306 0.6780526,0.509771 1.0434639,0.709249 1.2973885,0.479607 2.5947765,0.959215 3.8921655,1.438822 -3.4496003,0 -6.8992005,0 -10.3488008,0 0,-6.800695 0,-13.60139 0,-20.402085 z M 8.6577571,33.8758 c 2.0482549,-0.761421 4.0965089,-1.522841 6.1447639,-2.284262 0,6.638895 0,13.277789 0,19.916684 -2.048255,-0.761566 -4.096509,-1.523132 -6.1447639,-2.284698 0,-5.115908 0,-10.231816 0,-15.347724 z"
         style="fill:#4a4a4f;fill-opacity:1;stroke:#4a4a4f;stroke-width:0.22571407;stroke-opacity:1" />
      <g
         id="g74963-6-9"
         transform="matrix(0.38545091,0,0,0.38629165,-3996.1365,-16937.699)"
         style="fill:#4a4a4f;fill-opacity:1">
        <path
           d="m 10468.485,43879.37 -0.01,-24.725 c 0,-4.256 -3.48,-7.722 -7.756,-7.722 -4.276,0 -7.756,3.466 -7.756,7.722 v 24.722 c -3.993,2.602 -6.46,7.046 -6.46,11.83 0,7.803 6.382,14.157 14.22,14.157 7.845,0 14.22,-6.354 14.22,-14.157 0,-4.784 -2.467,-9.22 -6.453,-11.827 z m -7.767,23.131 c -6.262,0 -11.354,-5.073 -11.354,-11.304 0,-4.053 2.198,-7.813 5.735,-9.829 l 0.721,-0.412 v -0.827 -25.484 c 0,-2.688 2.194,-4.872 4.894,-4.872 2.699,0 4.898,2.184 4.898,4.872 v 0.612 h -3.269 c -0.608,0 -1.103,0.489 -1.103,1.098 0,0.605 0.495,1.094 1.103,1.094 h 3.269 v 2.885 h -3.269 c -0.608,0 -1.103,0.489 -1.103,1.098 0,0.605 0.495,1.097 1.103,1.097 h 3.269 v 2.882 h -3.269 c -0.608,0 -1.103,0.492 -1.103,1.097 0,0.605 0.495,1.094 1.103,1.094 h 3.269 v 12.527 0.831 l 0.725,0.404 c 3.533,2.017 5.735,5.78 5.735,9.829 0,6.235 -5.096,11.308 -11.361,11.308 z"
           id="path74959-1-2"
           style="fill:#4a4a4f;fill-opacity:1" />
        <path
           d="m 10464.42,43885.395 c -1.229,-0.718 -1.984,-2.048 -1.984,-3.483 v -7.387 c 0,-0.965 -0.771,-1.748 -1.716,-1.748 -0.948,0 -1.716,0.783 -1.716,1.748 v 7.379 c 0,1.443 -0.759,2.772 -1.984,3.49 -2.339,1.354 -3.79,3.9 -3.79,6.636 0,4.21 3.362,7.635 7.497,7.635 4.136,0 7.499,-3.425 7.499,-7.635 0,-2.732 -1.46,-5.278 -3.796,-6.636 z"
           id="path74961-5-5"
           style="fill:#4a4a4f;fill-opacity:1" />
      </g>
      <path
         style="fill:#4a4a4f;fill-opacity:1;fill-rule:nonzero;stroke:none;stroke-width:0.1635609;stroke-opacity:1"
         id="path74965-7-0"
         d="m 35.958769,52.916262 c -6.232932,0 -11.285703,-5.052772 -11.285703,-11.285704 0,-6.232932 5.052771,-11.285704 11.285703,-11.285704 6.232933,0 11.285704,5.052772 11.285704,11.285704 0,6.232932 -5.052771,11.285704 -11.285704,11.285704 z m 0,-1.138092 c 5.60442,0 10.147613,-4.543192 10.147613,-10.147612 0,-5.60442 -4.543193,-10.147612 -10.147613,-10.147612 -5.60442,0 -10.147612,4.543192 -10.147612,10.147612 0,5.60442 4.543192,10.147612 10.147612,10.147612 z" />
      <path
         style="fill:#4a4a4f;fill-opacity:1;fill-rule:nonzero;stroke:none;stroke-width:0.1635609;stroke-opacity:1"
         id="path74967-6-5"
         d="m 36.122303,50.462944 c -4.787386,0 -8.668537,-3.881151 -8.668537,-8.668852 0,-4.787702 3.881151,-8.668853 8.668537,-8.668853 4.787701,0 8.668852,3.881151 8.668852,8.668853 0,4.787701 -3.881151,8.668852 -8.668852,8.668852 z m 0,-1.143152 c 4.156342,0 7.5257,-3.369358 7.5257,-7.5257 0,-4.156343 -3.369358,-7.525701 -7.5257,-7.525701 -4.156343,0 -7.525384,3.369358 -7.525384,7.525701 0,4.156342 3.369041,7.5257 7.525384,7.5257 z" />
      <path
         style="fill:#4a4a4f;fill-opacity:1;fill-rule:nonzero;stroke:none;stroke-width:0.1635609;stroke-opacity:1"
         id="path74969-5-9"
         d="m 34.617605,42.224276 c 0.0063,0.504835 0.282467,0.969497 0.722774,1.218751 0.439358,0.248622 0.979619,0.245142 1.416762,-0.0095 0.437144,-0.254948 0.706326,-0.722457 0.706326,-1.227608 0,-0.209399 -0.04587,-0.41595 -0.134433,-0.60384 -0.101853,-0.184726 -0.233122,-0.352372 -0.387799,-0.495029 -0.01265,-0.0095 -0.02214,-0.01898 -0.03258,-0.02847 -0.42291,-0.423542 -0.699366,-0.962538 -0.799321,-1.541705 -0.143606,0.268549 -0.223317,0.572208 -0.225531,0.887255 0,0.0095 0,0.01898 -0.0032,0.02847 0.0032,0.371984 0.111342,0.736059 0.317578,1.048575 0.276457,0.418798 -0.20244,0.923316 -0.635472,0.66995 -0.305241,-0.178717 -0.552281,-0.432399 -0.721824,-0.730998 -0.148034,0.230592 -0.228694,0.50262 -0.225214,0.785403 z m 3.550921,-1.064074 0.0095,0.01898 c 0.153411,0.319159 0.233122,0.669633 0.233122,1.024535 0,0.842339 -0.448531,1.621733 -1.176998,2.046224 -0.728467,0.425123 -1.629008,0.431133 -2.362852,0.01581 -0.732896,-0.415318 -1.191232,-1.188385 -1.203252,-2.030408 -0.0095,-0.842656 0.427654,-1.628059 1.150428,-2.062039 0.04302,-0.0253 0.08762,-0.04397 0.132851,-0.05504 0.102169,-0.91857 0.64496,-1.7394 1.466423,-2.191094 0.373249,-0.204971 0.806913,0.147085 0.682286,0.553862 -0.04903,0.160687 -0.07718,0.327384 -0.08319,0.49155 -0.0032,0.04776 -0.0032,0.0601 -0.0032,0.0737 0,0.502937 0.197062,0.985313 0.549118,1.344644 0.242295,0.21952 0.446632,0.479529 0.603207,0.767689 z" />
      <path
         id="path74971-69-4"
         d="m 35.632812,36.201172 c -1.434073,0.125502 -2.821508,0.794913 -3.816406,1.980469 l 1.039063,0.871093 c 1.519371,-1.810536 4.197004,-2.04476 6.007812,-0.52539 l 0.871094,-1.03711 C 38.548639,36.495335 37.066886,36.07567 35.632812,36.201172 Z m 3.75586,8.333984 c -1.519041,1.81047 -4.197004,2.04476 -6.007813,0.525391 l -0.871093,1.039062 c 2.371471,1.989797 5.926522,1.677819 7.916015,-0.693359 z"
         style="color:#000000;font-style:normal;font-variant:normal;font-weight:normal;font-stretch:normal;font-size:medium;line-height:normal;font-family:sans-serif;font-variant-ligatures:normal;font-variant-position:normal;font-variant-caps:normal;font-variant-numeric:normal;font-variant-alternates:normal;font-feature-settings:normal;text-indent:0;text-align:start;text-decoration:none;text-decoration-line:none;text-decoration-style:solid;text-decoration-color:#000000;letter-spacing:normal;word-spacing:normal;text-transform:none;writing-mode:lr-tb;direction:ltr;text-orientation:mixed;dominant-baseline:auto;baseline-shift:baseline;text-anchor:start;white-space:normal;shape-padding:0;clip-rule:nonzero;display:inline;overflow:visible;visibility:visible;opacity:1;isolation:auto;mix-blend-mode:normal;color-interpolation:sRGB;color-interpolation-filters:linearRGB;solid-color:#000000;solid-opacity:1;vector-effect:none;fill:#4a4a4f;fill-opacity:1;fill-rule:evenodd;stroke:none;stroke-width:1.35428441;stroke-linecap:butt;stroke-linejoin:miter;stroke-miterlimit:4;stroke-dasharray:none;stroke-dashoffset:0;stroke-opacity:1;color-rendering:auto;image-rendering:auto;shape-rendering:auto;text-rendering:auto;enable-background:accumulate" />
      <path
         d="m 36.122303,36.281719 v 1.140305 c -2.414728,0 -4.372068,1.95734 -4.372068,4.372068 H 30.60993 c 0,-3.044506 2.467868,-5.512373 5.512373,-5.512373 z m 0,11.024746 v -1.140622 c 2.414411,0 4.371751,-1.95734 4.371751,-4.371751 h 1.140622 c 0,3.044505 -2.467868,5.512373 -5.512373,5.512373 z"
         id="path74973-3-6"
         style="fill:#4a4a4f;fill-opacity:1;fill-rule:nonzero;stroke:none;stroke-width:0.1635609;stroke-opacity:1" />
      <path
         style="fill:#4a4a4f;fill-opacity:1;stroke:none;stroke-width:0.22571407;stroke-opacity:1"
         id="path74977-4-2"
         d="m 72.204372,30.458218 h -16.51132 c -1.607524,0 -2.916472,1.308948 -2.916472,2.916472 v 16.512749 c 0,1.607882 1.308948,2.916473 2.916472,2.916473 h 16.513106 c 1.607524,0 2.916116,-1.307163 2.916116,-2.916473 V 33.37469 c -0.0036,-1.607524 -1.308592,-2.916472 -2.917902,-2.916472 z m 0,21.102104 h -16.51132 c -0.9218,0 -1.671096,-0.749297 -1.671096,-1.671097 V 33.37469 c 0,-0.921799 0.749296,-1.671096 1.671096,-1.671096 h 16.513106 c 0.921442,0 1.670739,0.749297 1.670739,1.671096 v 16.512749 c 0,0.9218 -0.750725,1.672883 -1.672525,1.672883 z" />
      <path
         style="fill:#4a4a4f;fill-opacity:1;stroke:none;stroke-width:0.22571407;stroke-opacity:1"
         id="path74979-5-2"
         d="m 63.763888,43.20091 c -0.88037,0 -1.568952,0.688939 -1.568952,1.570738 v 0.933942 c 0,0.373935 0.260718,0.634653 0.634652,0.634653 h 1.870386 c 0.373577,0 0.634652,-0.260718 0.634652,-0.634653 V 44.771648 C 65.33106,43.891634 64.644259,43.20091 63.763888,43.20091 Z" />
      <path
         style="fill:#4a4a4f;fill-opacity:1;stroke:none;stroke-width:0.22571407;stroke-opacity:1"
         id="path74981-2-4"
         d="m 61.16242,37.291178 h -0.705368 c -0.281432,0 -0.478221,0.248575 -0.478221,0.604653 v 2.668968 c 0,0.356076 0.196789,0.604652 0.478221,0.604652 h 0.705368 c 0.282148,0 0.478579,-0.248576 0.478579,-0.604652 v -2.670755 c 0,-0.354291 -0.196431,-0.602866 -0.478579,-0.602866 z" />
      <path
         style="fill:#4a4a4f;fill-opacity:1;stroke:none;stroke-width:0.22571407;stroke-opacity:1"
         id="path74983-5-7"
         d="m 68.206812,34.316848 c -0.158217,-0.103573 -0.327148,-0.165003 -0.461436,-0.165003 h -7.405111 c -0.134645,0 -0.303219,0.05964 -0.456792,0.161432 -3.773986,2.305034 -4.336852,5.574369 -4.336852,7.317967 0,1.743597 0.562866,5.012932 4.332208,7.314395 0.158217,0.103573 0.326791,0.165003 0.461436,0.165003 h 7.405111 c 0.134288,0 0.303219,-0.05964 0.456436,-0.161788 3.7722,-2.304678 4.335066,-5.574013 4.335066,-7.31761 0,-1.743598 -0.562866,-5.012933 -4.330066,-7.314396 z m 3.075403,7.314396 c 0,2.610753 -1.424306,4.997574 -3.717556,6.237236 H 60.520982 C 58.22559,46.628818 56.80164,44.241997 56.80164,41.631244 c 0,-2.611112 1.42395,-4.997933 3.717556,-6.237595 h 7.043678 c 2.295035,1.239662 3.719341,3.626483 3.719341,6.237595 z" />
      <path
         style="fill:#4a4a4f;fill-opacity:1;stroke:none;stroke-width:0.22571407;stroke-opacity:1"
         id="path74985-4-7"
         d="M 66.703218,37.291178 H 65.99785 c -0.28179,0 -0.478578,0.248575 -0.478578,0.604653 v 2.668968 c 0,0.356076 0.196788,0.604652 0.478578,0.604652 h 0.705368 c 0.281433,0 0.478221,-0.248576 0.478221,-0.604652 v -2.670755 c -0.0036,-0.354291 -0.197859,-0.602866 -0.478221,-0.602866 z" />
      <path
         style="fill:#4a4a4f;fill-opacity:1;stroke:none;stroke-width:0.22571407;stroke-opacity:1"
         id="path74989-7-5"
         d="M 14.294859,0.75291384 C 14.1997,0.28279156 13.818189,3.6914756e-4 13.341956,3.6914756e-4 H 3.8120497 c -0.4762336,0 -0.8577445,0.28242241244 -0.9529036,0.75254469244 L -2.4700145e-7,12.038468 c 0,0.282422 0,0.564408 0.19075462700145,0.752544 0.19031897,0.283732 0.47623352,0.376273 0.76214807,0.376273 H 7.6236631 v 7.523702 H 3.8120497 c -0.57183,0 -0.9529036,0.376273 -0.9529036,0.940244 0,0.56441 0.3810736,0.940682 0.9529036,0.940682 h 9.5299063 c 0.571829,0 0.952903,-0.376272 0.952903,-0.940682 0,-0.563971 -0.381074,-0.940244 -0.952903,-0.940244 H 9.5299059 v -7.523702 h 6.6703231 c 0.57183,0 0.95334,-0.376273 0.95334,-0.940681 0,-0.188136 0,-0.281986 0,-0.376273 z M 2.2056891,11.28636 4.5375303,1.7180399 h 7.8340617 l 2.331405,9.5683201 z" />
    </g>
  </g>
</svg>
