<?xml version="1.0" encoding="UTF-8" standalone="no"?>
<svg
   xmlns:dc="http://purl.org/dc/elements/1.1/"
   xmlns:cc="http://creativecommons.org/ns#"
   xmlns:rdf="http://www.w3.org/1999/02/22-rdf-syntax-ns#"
   xmlns:svg="http://www.w3.org/2000/svg"
   xmlns="http://www.w3.org/2000/svg"
   id="svg8271"
   version="1.1"
   viewBox="0 0 8.4666665 8.4666669"
   height="32"
   width="32">
  <defs
     id="defs8265" />
  <metadata
     id="metadata8268">
    <rdf:RDF>
      <cc:Work
         rdf:about="">
        <dc:format>image/svg+xml</dc:format>
        <dc:type
           rdf:resource="http://purl.org/dc/dcmitype/StillImage" />
        <dc:title></dc:title>
      </cc:Work>
    </rdf:RDF>
  </metadata>
  <g
     transform="translate(0,-288.53332)"
     id="layer1">
    <rect
       style="color:#000000;clip-rule:nonzero;display:inline;overflow:visible;visibility:visible;opacity:1;isolation:auto;mix-blend-mode:normal;color-interpolation:sRGB;color-interpolation-filters:linearRGB;solid-color:#000000;solid-opacity:1;fill:#1da1f2;fill-opacity:1;fill-rule:nonzero;stroke:none;stroke-width:0.26458332;stroke-linecap:butt;stroke-linejoin:miter;stroke-miterlimit:4;stroke-dasharray:none;stroke-dashoffset:0;stroke-opacity:1;color-rendering:auto;image-rendering:auto;shape-rendering:auto;text-rendering:auto;enable-background:accumulate"
       id="rect6810"
       width="8.4666662"
       height="8.4666662"
       x="-0.00039738274"
       y="288.53336"
       rx="0.52916664"
       ry="0.52916664" />
    <path
       id="path6812"
       style="fill:#ffffff;fill-opacity:1;fill-rule:nonzero;stroke:none;stroke-width:0.26458332"
       d="m 3.2505876,294.91685 c 1.9968104,0 3.0890104,-1.65438 3.0890104,-3.08895 0,-0.047 0,-0.0938 -0.00265,-0.14036 0.2119313,-0.15322 0.3963459,-0.34444 0.5416021,-0.56211 -0.1944687,0.0864 -0.4037541,0.14462 -0.6233583,0.17087 0.2241021,-0.13436 0.3960812,-0.34703 0.4773083,-0.60053 -0.2098146,0.12436 -0.4421187,0.21479 -0.6895041,0.2635 -0.1979084,-0.21101 -0.4802188,-0.34301 -0.7924271,-0.34301 -0.5995458,0 -1.08585,0.48623 -1.08585,1.08559 0,0.0852 0.010583,0.16809 0.02831,0.24754 -0.9022291,-0.0453 -1.7023291,-0.47738 -2.2378458,-1.13429 -0.093398,0.16042 -0.1471083,0.34684 -0.1471083,0.54568 0,0.37666 0.1918229,0.70918 0.4831291,0.90368 -0.1780645,-0.006 -0.3452812,-0.0544 -0.4915958,-0.13581 0,0.005 0,0.009 0,0.014 0,0.52586 0.3741208,0.96483 0.8710083,1.06437 -0.091281,0.0249 -0.1870604,0.0382 -0.2862791,0.0382 -0.06985,0 -0.1378479,-0.007 -0.2039938,-0.0196 0.1381125,0.43135 0.5389563,0.74522 1.0141479,0.75406 -0.3717395,0.2912 -0.8397875,0.46471 -1.3483166,0.46471 -0.087577,0 -0.1740958,-0.005 -0.2590271,-0.0151 0.4804833,0.30793 1.050925,0.48766 1.6642292,0.48766" />
  </g>
  <style
     type="text/css"
     id="style9012">
	.st0{fill:#FFFFFF;}
</style>
  <style
     type="text/css"
     id="style9025">
	.st0{fill:#1DA1F2;}
	.st1{fill:#FFFFFF;}
</style>
</svg>
