<?xml version="1.0" encoding="UTF-8" standalone="no"?>
<!-- Created with Inkscape (http://www.inkscape.org/) -->

<svg
   width="32"
   height="32"
   viewBox="0 0 8.4666665 8.4666666"
   version="1.1"
   id="svg1"
   xmlns="http://www.w3.org/2000/svg"
   xmlns:svg="http://www.w3.org/2000/svg">
  <defs
     id="defs1" />
  <g
     transform="matrix(0.03172308,0,0,-0.03172308,7.99938,8.466699)"
     id="g5-32-9"
     style="fill:#888888;fill-opacity:1">
    <path
       id="rect16-4-4"
       style="display:inline;overflow:visible;fill:#888888;stroke-width:8.34039;enable-background:accumulate;fill-opacity:1"
       d="m -235.48092,266.89398 c -9.24248,0 -16.68186,-7.43938 -16.68186,-16.68186 V 16.681828 c 0,-9.2424805 7.43938,-16.681860492141 16.68186,-16.681860492141 H -1.9506326 c 9.24248,0 16.6818596,7.439379992141 16.6818596,16.681860492141 V 250.21212 c 0,9.24248 -7.4393796,16.68186 -16.6818596,16.68186 z m 148.838007,-65.66513 c 9.841415,0 18.73399,-4.1484 24.97235,-10.79971 7.79874,1.54462 15.1341,4.37221 21.74758,8.2905 -2.55335,-7.99103 -7.98788,-14.69278 -15.05214,-18.92629 6.92241,0.8196 13.51698,2.67944 19.64816,5.3904 -4.58026,-6.86251 -10.39306,-12.89282 -17.07274,-17.72211 0,-1.45005 0,-2.93162 0,-4.41635 0,-45.22259 -34.435499,-97.380197 -97.380207,-97.380197 l 0.0158,0.01576 c -19.33293,0 -37.30722,5.67095 -52.45392,15.379969 2.67944,-0.315228 5.39985,-0.472842 8.16125,-0.472842 16.02934,0 30.782,5.4629 42.49902,14.642336 -14.97963,0.315228 -27.6045,10.169254 -31.96095,23.768184 2.0805,-0.31523 4.21459,-0.63046 6.41804,-0.63046 3.12075,0 6.14694,0.4098 9.02497,1.19787 -15.66052,3.15228 -27.44689,16.98133 -27.44689,33.55601 v 0.44132 c 4.61178,-2.58487 9.87924,-3.96872 15.4903,-4.28395 -9.18259,6.13119 -15.22866,16.61882 -15.22866,28.4903 0,6.26673 1.70223,12.14573 4.64015,17.20199 16.88361,-20.70732 42.09554,-34.33778 70.5354,-35.7563 -0.56741,2.52182 -0.88264,5.12245 -0.88264,7.80189 0,18.89476 15.32638,34.20853 34.224294,34.20853 z" />
  </g>
</svg>
