<?xml version="1.0" encoding="UTF-8" standalone="no"?>
<svg
   xmlns:dc="http://purl.org/dc/elements/1.1/"
   xmlns:cc="http://creativecommons.org/ns#"
   xmlns:rdf="http://www.w3.org/1999/02/22-rdf-syntax-ns#"
   xmlns:svg="http://www.w3.org/2000/svg"
   xmlns="http://www.w3.org/2000/svg"
   id="svg8271"
   version="1.1"
   viewBox="0 0 8.4666665 8.4666669"
   height="32"
   width="32">
  <defs
     id="defs8265" />
  <metadata
     id="metadata8268">
    <rdf:RDF>
      <cc:Work
         rdf:about="">
        <dc:format>image/svg+xml</dc:format>
        <dc:type
           rdf:resource="http://purl.org/dc/dcmitype/StillImage" />
        <dc:title></dc:title>
      </cc:Work>
    </rdf:RDF>
  </metadata>
  <g
     transform="translate(0,-288.53332)"
     id="layer1">
    <g
       transform="matrix(0.26458333,0,0,0.26458333,-10406.594,-1811.063)"
       id="g8219">
      <rect
         ry="2"
         rx="2"
         y="7935.4824"
         x="39332.008"
         height="32"
         width="32"
         id="rect6810"
         style="color:#000000;clip-rule:nonzero;display:inline;overflow:visible;visibility:visible;opacity:1;isolation:auto;mix-blend-mode:normal;color-interpolation:sRGB;color-interpolation-filters:linearRGB;solid-color:#000000;solid-opacity:1;fill:#666666;fill-opacity:1;fill-rule:nonzero;stroke:none;stroke-width:1;stroke-linecap:butt;stroke-linejoin:miter;stroke-miterlimit:4;stroke-dasharray:none;stroke-dashoffset:0;stroke-opacity:1;color-rendering:auto;image-rendering:auto;shape-rendering:auto;text-rendering:auto;enable-background:accumulate" />
      <path
         d="m 39344.295,7959.609 c 7.547,0 11.675,-6.2528 11.675,-11.6748 0,-0.1777 0,-0.3546 -0.01,-0.5305 0.801,-0.5791 1.498,-1.3018 2.047,-2.1245 -0.735,0.3265 -1.526,0.5466 -2.356,0.6458 0.847,-0.5078 1.497,-1.3116 1.804,-2.2697 -0.793,0.47 -1.671,0.8118 -2.606,0.9959 -0.748,-0.7975 -1.815,-1.2964 -2.995,-1.2964 -2.266,0 -4.104,1.8377 -4.104,4.103 0,0.3221 0.04,0.6353 0.107,0.9356 -3.41,-0.1713 -6.434,-1.8043 -8.458,-4.2871 -0.353,0.6063 -0.556,1.3109 -0.556,2.0624 0,1.4236 0.725,2.6804 1.826,3.4155 -0.673,-0.021 -1.305,-0.2055 -1.858,-0.5133 0,0.017 0,0.034 0,0.053 0,1.9875 1.414,3.6466 3.292,4.0228 -0.345,0.094 -0.707,0.1443 -1.082,0.1443 -0.264,0 -0.521,-0.026 -0.771,-0.074 0.522,1.6303 2.037,2.8166 3.833,2.85 -1.405,1.1006 -3.174,1.7564 -5.096,1.7564 -0.331,0 -0.658,-0.019 -0.979,-0.057 1.816,1.1638 3.972,1.8431 6.29,1.8431"
         style="fill:#ffffff;fill-opacity:1;fill-rule:nonzero;stroke:none;stroke-width:1"
         id="path6812" />
    </g>
  </g>
</svg>
