<?xml version="1.0" encoding="UTF-8" standalone="no"?>
<svg
   xmlns:dc="http://purl.org/dc/elements/1.1/"
   xmlns:cc="http://creativecommons.org/ns#"
   xmlns:rdf="http://www.w3.org/1999/02/22-rdf-syntax-ns#"
   xmlns:svg="http://www.w3.org/2000/svg"
   xmlns="http://www.w3.org/2000/svg"
   id="svg24058"
   version="1.1"
   viewBox="0 0 29.913493 10.583333"
   height="10.583333mm"
   width="29.913492mm">
  <defs
     id="defs24052" />
  <metadata
     id="metadata24055">
    <rdf:RDF>
      <cc:Work
         rdf:about="">
        <dc:format>image/svg+xml</dc:format>
        <dc:type
           rdf:resource="http://purl.org/dc/dcmitype/StillImage" />
        <dc:title></dc:title>
      </cc:Work>
    </rdf:RDF>
  </metadata>
  <g
     transform="translate(-70.003601,-103.06084)"
     id="layer1">
    <g
       id="text23989"
       style="font-style:normal;font-weight:normal;font-size:1.76349998px;line-height:0%;font-family:sans-serif;letter-spacing:0px;word-spacing:0px;opacity:1;fill:#f9f9f9;fill-opacity:1;stroke:none;stroke-width:0.241569px;stroke-linecap:butt;stroke-linejoin:miter;stroke-opacity:1"
       aria-label="WebThings">
      <g
         id="text23999"
         style="font-style:normal;font-weight:normal;font-size:1.76349998px;line-height:0%;font-family:sans-serif;letter-spacing:0px;word-spacing:0px;opacity:1;fill:#ffffff;fill-opacity:1;stroke:none;stroke-width:0.241569px;stroke-linecap:butt;stroke-linejoin:miter;stroke-opacity:1"
         aria-label="B2GOS">
        <g
           id="text23993"
           style="font-style:normal;font-weight:normal;font-size:9.14362907px;line-height:0%;font-family:sans-serif;letter-spacing:0px;word-spacing:0px;opacity:1;fill:#ffffff;fill-opacity:1;stroke:none;stroke-width:0.26150733px;stroke-linecap:butt;stroke-linejoin:miter;stroke-opacity:1"
           aria-label="webian">
          <path
             id="path24745"
             style="font-style:normal;font-variant:normal;font-weight:bold;font-stretch:normal;font-size:8.64459896px;line-height:1.25;font-family:'Arial Rounded MT Bold';-inkscape-font-specification:'Arial Rounded MT Bold, Bold';fill:#ffffff;stroke-width:0.26150733px"
             d="m 71.429856,107.20596 0.751337,2.5748 0.683802,-2.3933 q 0.109745,-0.37567 0.160397,-0.51074 0.05487,-0.13929 0.198387,-0.2617 0.147735,-0.12663 0.400995,-0.12663 0.257481,0 0.400994,0.12663 0.147735,0.12241 0.206829,0.27014 0.05909,0.14352 0.164619,0.5023 l 0.683801,2.3933 0.759779,-2.5748 q 0.07598,-0.27859 0.122409,-0.401 0.04643,-0.12663 0.156177,-0.21949 0.109746,-0.0971 0.316575,-0.0971 0.206829,0 0.358784,0.14351 0.151956,0.14352 0.151956,0.33768 0,0.17728 -0.130851,0.53607 l -0.941282,2.76053 q -0.122408,0.35034 -0.189944,0.50652 -0.06754,0.15618 -0.215271,0.27858 -0.143514,0.12241 -0.396774,0.12241 -0.261701,0 -0.413657,-0.13085 -0.147735,-0.13085 -0.219492,-0.32079 -0.07176,-0.18995 -0.156177,-0.49386 l -0.658475,-2.24557 -0.637371,2.24557 q -0.126629,0.46853 -0.274364,0.70913 -0.147735,0.23637 -0.519183,0.23637 -0.189945,0 -0.325016,-0.076 -0.130851,-0.0718 -0.219492,-0.20683 -0.08864,-0.1393 -0.156177,-0.32502 -0.06754,-0.18994 -0.105525,-0.29969 l -0.93284,-2.76053 q -0.139293,-0.38833 -0.139293,-0.53607 0,-0.18572 0.147735,-0.33346 0.147735,-0.14773 0.363006,-0.14773 0.287027,0 0.388331,0.16462 0.101304,0.1604 0.215271,0.55295 z" />
          <path
             id="path24747"
             style="font-style:normal;font-variant:normal;font-weight:bold;font-stretch:normal;font-size:8.64459896px;line-height:1.25;font-family:'Arial Rounded MT Bold';-inkscape-font-specification:'Arial Rounded MT Bold, Bold';fill:#ffffff;stroke-width:0.26150733px"
             d="m 80.842676,109.11385 h -2.254011 q 0.0042,0.39255 0.156177,0.69224 0.156176,0.29969 0.409436,0.45165 0.257481,0.15195 0.565614,0.15195 0.206828,0 0.375668,-0.0464 0.173061,-0.0506 0.333459,-0.15195 0.160398,-0.10553 0.29547,-0.22372 0.135071,-0.11818 0.350342,-0.32079 0.08864,-0.076 0.25326,-0.076 0.177282,0 0.287028,0.0971 0.109746,0.0971 0.109746,0.27437 0,0.15617 -0.122409,0.36722 -0.122409,0.20683 -0.371448,0.401 -0.244818,0.18994 -0.620486,0.31657 -0.371448,0.12663 -0.856862,0.12663 -1.110122,0 -1.726388,-0.63315 -0.616265,-0.63315 -0.616265,-1.71794 0,-0.51074 0.151956,-0.9455 0.151956,-0.43899 0.443204,-0.75134 0.291249,-0.31235 0.71757,-0.47697 0.42632,-0.16884 0.945503,-0.16884 0.675359,0 1.156552,0.28702 0.485415,0.28281 0.726012,0.73446 0.240596,0.45164 0.240596,0.92017 0,0.43477 -0.249038,0.56562 -0.249039,0.12663 -0.700686,0.12663 z m -2.254011,-0.65426 h 2.089393 q -0.04221,-0.59094 -0.320796,-0.88218 -0.274365,-0.29547 -0.726011,-0.29547 -0.430542,0 -0.709128,0.29969 -0.274364,0.29547 -0.333458,0.87796 z" />
          <path
             id="path24749"
             style="font-style:normal;font-variant:normal;font-weight:bold;font-stretch:normal;font-size:8.64459896px;line-height:1.25;font-family:'Arial Rounded MT Bold';-inkscape-font-specification:'Arial Rounded MT Bold, Bold';fill:#ffffff;stroke-width:0.26150733px"
             d="m 83.704511,105.43314 v 1.76015 q 0.325017,-0.33767 0.662697,-0.51496 0.337679,-0.1815 0.835757,-0.1815 0.574055,0 1.004597,0.27437 0.434762,0.27014 0.671138,0.78932 0.240597,0.51496 0.240597,1.22409 0,0.5234 -0.135072,0.96239 -0.130851,0.43476 -0.384111,0.75556 -0.253259,0.32079 -0.616265,0.49807 -0.358785,0.17306 -0.793547,0.17306 -0.265923,0 -0.502299,-0.0633 -0.232155,-0.0633 -0.396773,-0.16462 -0.164619,-0.10553 -0.282807,-0.21527 -0.113967,-0.10975 -0.303912,-0.32924 v 0.11397 q 0,0.32501 -0.156177,0.49385 -0.156176,0.16462 -0.396773,0.16462 -0.244818,0 -0.392553,-0.16462 -0.143514,-0.16884 -0.143514,-0.49385 v -5.03143 q 0,-0.35034 0.139293,-0.52762 0.143514,-0.18151 0.396774,-0.18151 0.265923,0 0.409436,0.17307 0.143514,0.16883 0.143514,0.48541 z m 0.05487,3.42323 q 0,0.68802 0.312354,1.05947 0.316575,0.36722 0.827315,0.36722 0.434763,0 0.747116,-0.37567 0.316575,-0.37988 0.316575,-1.08479 0,-0.45587 -0.130851,-0.78511 -0.130851,-0.32923 -0.371448,-0.50652 -0.240596,-0.1815 -0.561392,-0.1815 -0.329238,0 -0.586718,0.1815 -0.257481,0.17729 -0.405216,0.51919 -0.147735,0.33768 -0.147735,0.80621 z" />
          <path
             id="path24751"
             style="font-style:normal;font-variant:normal;font-weight:bold;font-stretch:normal;font-size:8.64459896px;line-height:1.25;font-family:'Arial Rounded MT Bold';-inkscape-font-specification:'Arial Rounded MT Bold, Bold';fill:#ffffff;stroke-width:0.26150733px"
             d="m 89.204468,107.14264 v 3.33037 q 0,0.34612 -0.164619,0.5234 -0.164619,0.17728 -0.417878,0.17728 -0.25326,0 -0.413658,-0.1815 -0.156177,-0.1815 -0.156177,-0.51918 v -3.2966 q 0,-0.3419 0.156177,-0.51496 0.160398,-0.17306 0.413658,-0.17306 0.253259,0 0.417878,0.17306 0.164619,0.17306 0.164619,0.48119 z m -0.569834,-1.19032 q -0.240597,0 -0.413658,-0.14773 -0.16884,-0.14774 -0.16884,-0.41788 0,-0.24482 0.173061,-0.401 0.177282,-0.16039 0.409437,-0.16039 0.223712,0 0.396773,0.14351 0.173061,0.14351 0.173061,0.41788 0,0.26592 -0.16884,0.41788 -0.16884,0.14773 -0.400994,0.14773 z" />
          <path
             id="path24753"
             style="font-style:normal;font-variant:normal;font-weight:bold;font-stretch:normal;font-size:8.64459896px;line-height:1.25;font-family:'Arial Rounded MT Bold';-inkscape-font-specification:'Arial Rounded MT Bold, Bold';fill:#ffffff;stroke-width:0.26150733px"
             d="m 93.311498,110.52366 q -0.417879,0.32502 -0.810432,0.48964 -0.388331,0.16039 -0.873746,0.16039 -0.443204,0 -0.780884,-0.17306 -0.333459,-0.17728 -0.514961,-0.47697 -0.181503,-0.29969 -0.181503,-0.65003 0,-0.47275 0.29969,-0.80621 0.299691,-0.33346 0.823095,-0.44743 0.109746,-0.0253 0.544508,-0.11397 0.434763,-0.0886 0.742895,-0.16039 0.312354,-0.076 0.67536,-0.18151 -0.0211,-0.45586 -0.185724,-0.66691 -0.160398,-0.21527 -0.671139,-0.21527 -0.438983,0 -0.662696,0.1224 -0.219492,0.12241 -0.379889,0.36723 -0.156177,0.24482 -0.223713,0.32502 -0.06332,0.076 -0.278586,0.076 -0.194166,0 -0.33768,-0.12241 -0.139292,-0.12663 -0.139292,-0.3208 0,-0.30391 0.21527,-0.59094 0.215271,-0.28703 0.671139,-0.47275 0.455867,-0.18572 1.135447,-0.18572 0.75978,0 1.194542,0.1815 0.434763,0.17728 0.612045,0.56561 0.181502,0.38833 0.181502,1.02993 0,0.40521 -0.0042,0.68802 0,0.2828 -0.0042,0.62893 0,0.32501 0.105525,0.67958 0.109746,0.35034 0.109746,0.45164 0,0.17728 -0.16884,0.32502 -0.164618,0.14351 -0.375668,0.14351 -0.177282,0 -0.350343,-0.16462 -0.173061,-0.16884 -0.367226,-0.48541 z m -0.07598,-1.66729 q -0.25326,0.0929 -0.738675,0.19838 -0.481193,0.10131 -0.666917,0.15196 -0.185724,0.0464 -0.354564,0.18994 -0.168839,0.1393 -0.168839,0.39256 0,0.2617 0.198386,0.44742 0.198387,0.18151 0.519183,0.18151 0.3419,0 0.628928,-0.14774 0.291249,-0.15196 0.426321,-0.38833 0.156177,-0.2617 0.156177,-0.86108 z" />
          <path
             id="path24755"
             style="font-style:normal;font-variant:normal;font-weight:bold;font-stretch:normal;font-size:8.64459896px;line-height:1.25;font-family:'Arial Rounded MT Bold';-inkscape-font-specification:'Arial Rounded MT Bold, Bold';fill:#ffffff;stroke-width:0.26150733px"
             d="m 96.578548,107.12576 v 0.13929 q 0.303912,-0.40099 0.662696,-0.58672 0.363006,-0.18994 0.831536,-0.18994 0.455868,0 0.814653,0.19839 0.358784,0.19838 0.536066,0.56139 0.113967,0.21105 0.147735,0.45587 0.03377,0.24481 0.03377,0.6247 v 2.14427 q 0,0.34612 -0.160398,0.5234 -0.156177,0.17728 -0.409437,0.17728 -0.25748,0 -0.417878,-0.1815 -0.160398,-0.1815 -0.160398,-0.51918 v -1.92055 q 0,-0.56984 -0.160398,-0.86953 -0.156177,-0.30391 -0.628928,-0.30391 -0.308133,0 -0.561393,0.18572 -0.253259,0.18151 -0.371447,0.5023 -0.08442,0.25748 -0.08442,0.96239 v 1.44358 q 0,0.35034 -0.164619,0.52762 -0.160398,0.17306 -0.417879,0.17306 -0.249038,0 -0.409436,-0.1815 -0.160398,-0.1815 -0.160398,-0.51918 v -3.33037 q 0,-0.32923 0.143514,-0.48963 0.143514,-0.16462 0.392553,-0.16462 0.151955,0 0.274364,0.0718 0.122409,0.0718 0.194166,0.21527 0.07598,0.14351 0.07598,0.35034 z" />
        </g>
      </g>
    </g>
  </g>
</svg>
