<?xml version="1.0" encoding="UTF-8" standalone="no"?>
<svg
   xmlns:dc="http://purl.org/dc/elements/1.1/"
   xmlns:cc="http://creativecommons.org/ns#"
   xmlns:rdf="http://www.w3.org/1999/02/22-rdf-syntax-ns#"
   xmlns:svg="http://www.w3.org/2000/svg"
   xmlns="http://www.w3.org/2000/svg"
   id="svg24058"
   version="1.1"
   viewBox="0 0 39.026043 10.583333"
   height="10.583333mm"
   width="39.026043mm">
  <defs
     id="defs24052" />
  <metadata
     id="metadata24055">
    <rdf:RDF>
      <cc:Work
         rdf:about="">
        <dc:format>image/svg+xml</dc:format>
        <dc:type
           rdf:resource="http://purl.org/dc/dcmitype/StillImage" />
        <dc:title></dc:title>
      </cc:Work>
    </rdf:RDF>
  </metadata>
  <g
     transform="translate(-82.54055,-114.05952)"
     id="layer1">
    <g
       id="text23989"
       style="font-style:normal;font-weight:normal;font-size:1.76349998px;line-height:0%;font-family:sans-serif;letter-spacing:0px;word-spacing:0px;opacity:1;fill:#f9f9f9;fill-opacity:1;stroke:none;stroke-width:0.241569px;stroke-linecap:butt;stroke-linejoin:miter;stroke-opacity:1"
       aria-label="WebThings">
      <path
         id="path24613"
         style="font-style:normal;font-variant:normal;font-weight:600;font-stretch:normal;font-size:7.76111126px;line-height:1.25;font-family:'Zilla Slab';-inkscape-font-specification:'Zilla Slab Semi-Bold';text-align:start;text-anchor:start;fill:#f9f9f9;fill-opacity:1;stroke-width:0.241569px"
         d="m 90.233212,117.78733 h -0.411339 l -1.373717,4.30741 h -0.636411 l -1.234017,-3.55459 h -0.0388 l -1.195211,3.55459 h -0.644173 l -1.459088,-4.30741 h -0.434623 v -0.73731 h 1.916995 v 0.73731 h -0.5588 l 0.869244,2.88713 h 0.03881 l 1.001183,-2.88713 h -0.442383 v -0.73731 h 1.909233 v 0.73731 h -0.411339 l 1.001184,2.92593 h 0.0388 l 0.791634,-2.92593 h -0.620889 v -0.73731 h 1.893711 z" />
      <path
         id="path24615"
         style="font-style:normal;font-variant:normal;font-weight:600;font-stretch:normal;font-size:7.76111126px;line-height:1.25;font-family:'Zilla Slab';-inkscape-font-specification:'Zilla Slab Semi-Bold';text-align:start;text-anchor:start;fill:#f9f9f9;fill-opacity:1;stroke-width:0.241569px"
         d="m 93.377311,121.03147 q -0.04657,0.45791 -0.450145,0.79939 -0.403578,0.34149 -1.109839,0.34149 -0.760589,0 -1.249539,-0.44238 -0.48895,-0.45014 -0.48895,-1.31939 0,-0.79939 0.442384,-1.33491 0.450144,-0.53552 1.249539,-0.53552 0.721783,0 1.140883,0.43463 0.426861,0.42686 0.434622,1.08655 0,0.21731 -0.04657,0.46567 h -2.351617 q 0.06985,0.9779 0.931333,0.9779 0.403578,0 0.574322,-0.19403 0.178506,-0.19403 0.232834,-0.41134 z m -0.884767,-1.01671 q 0.03104,-0.31044 -0.147461,-0.58208 -0.170745,-0.2794 -0.582083,-0.2794 -0.372534,0 -0.566562,0.24836 -0.194027,0.24835 -0.240594,0.61312 z" />
      <path
         id="path24617"
         style="font-style:normal;font-variant:normal;font-weight:600;font-stretch:normal;font-size:7.76111126px;line-height:1.25;font-family:'Zilla Slab';-inkscape-font-specification:'Zilla Slab Semi-Bold';text-align:start;text-anchor:start;fill:#f9f9f9;fill-opacity:1;stroke-width:0.241569px"
         d="m 97.595596,120.27088 q 0,0.73731 -0.388056,1.31939 -0.388055,0.58208 -1.195211,0.58208 -0.822678,0 -1.156405,-0.62089 -0.01552,0.0931 -0.03881,0.27164 -0.02328,0.17851 -0.03881,0.27164 h -0.822677 q 0.04657,-0.25611 0.08537,-0.51999 0.03881,-0.27164 0.03881,-0.52776 v -3.65548 h -0.519994 v -0.63641 h 1.342672 v 2.54564 q 0.155222,-0.31044 0.434622,-0.53551 0.287162,-0.22508 0.76835,-0.22508 0.659695,0 1.071034,0.45791 0.4191,0.45014 0.4191,1.27282 z m -0.861484,0.0698 q 0,-0.55104 -0.248355,-0.8382 -0.248356,-0.29492 -0.636411,-0.29492 -0.442384,0 -0.690739,0.32597 -0.248356,0.32596 -0.256117,0.70626 v 0.24835 q 0,0.42686 0.248356,0.72955 0.256116,0.29492 0.667455,0.29492 0.434623,0 0.675217,-0.31821 0.240594,-0.3182 0.240594,-0.85372 z" />
      <path
         id="path24619"
         style="font-style:normal;font-variant:normal;font-weight:600;font-stretch:normal;font-size:7.76111126px;line-height:1.25;font-family:'Zilla Slab';-inkscape-font-specification:'Zilla Slab Semi-Bold';text-align:start;text-anchor:start;fill:#f9f9f9;fill-opacity:1;stroke-width:0.241569px"
         d="m 102.26002,118.69538 -0.74506,0.0621 -0.15522,-0.97013 h -0.98567 v 3.57011 h 0.84597 v 0.7373 h -2.522366 v -0.7373 h 0.814917 v -3.57011 h -0.993422 l -0.155223,0.97013 -0.737305,-0.0621 0.155222,-1.64536 h 4.322937 z" />
      <path
         id="path24621"
         style="font-style:normal;font-variant:normal;font-weight:600;font-stretch:normal;font-size:7.76111126px;line-height:1.25;font-family:'Zilla Slab';-inkscape-font-specification:'Zilla Slab Semi-Bold';text-align:start;text-anchor:start;fill:#f9f9f9;fill-opacity:1;stroke-width:0.241569px"
         d="m 106.7822,122.09474 h -1.87042 v -0.63641 h 0.51999 v -1.36595 q 0,-0.49672 -0.18627,-0.6985 -0.18626,-0.20955 -0.50447,-0.20955 -0.38029,0 -0.60536,0.24835 -0.22508,0.24836 -0.2406,0.60537 v 1.42028 h 0.51223 v 0.63641 h -1.86266 v -0.63641 h 0.51999 v -4.06682 h -0.51999 v -0.63641 h 1.35043 v 2.42923 q 0.35701,-0.64418 1.15641,-0.64418 0.50447,0 0.85372,0.30269 0.35701,0.30268 0.35701,0.94685 v 1.66864 h 0.51999 z" />
      <path
         id="path24623"
         style="font-style:normal;font-variant:normal;font-weight:600;font-stretch:normal;font-size:7.76111126px;line-height:1.25;font-family:'Zilla Slab';-inkscape-font-specification:'Zilla Slab Semi-Bold';text-align:start;text-anchor:start;fill:#f9f9f9;fill-opacity:1;stroke-width:0.241569px"
         d="m 107.59142,117.88822 v -0.91581 h 0.84596 v 0.91581 z m 1.38924,4.20652 h -1.86267 v -0.63641 h 0.52 v -2.20415 h -0.55104 V 118.61 h 1.37372 v 2.84833 h 0.51999 z" />
      <path
         id="path24625"
         style="font-style:normal;font-variant:normal;font-weight:600;font-stretch:normal;font-size:7.76111126px;line-height:1.25;font-family:'Zilla Slab';-inkscape-font-specification:'Zilla Slab Semi-Bold';text-align:start;text-anchor:start;fill:#f9f9f9;fill-opacity:1;stroke-width:0.241569px"
         d="m 113.59828,122.09474 h -1.86267 v -0.63641 h 0.51224 v -1.36595 q 0,-0.49672 -0.17851,-0.6985 -0.1785,-0.20955 -0.49671,-0.20955 -0.39582,0 -0.62865,0.25611 -0.22507,0.25612 -0.23283,0.62865 v 1.38924 h 0.51999 v 0.63641 h -1.87043 v -0.63641 h 0.52 v -2.20415 h -0.54328 V 118.61 h 1.37372 v 0.56656 q 0.36477,-0.63641 1.1564,-0.63641 0.49671,0 0.85372,0.30269 0.35702,0.30268 0.35702,0.94685 v 1.66864 h 0.51999 z" />
      <path
         id="path24627"
         style="font-style:normal;font-variant:normal;font-weight:600;font-stretch:normal;font-size:7.76111126px;line-height:1.25;font-family:'Zilla Slab';-inkscape-font-specification:'Zilla Slab Semi-Bold';text-align:start;text-anchor:start;fill:#f9f9f9;fill-opacity:1;stroke-width:0.241569px"
         d="m 117.92073,119.25418 h -0.50447 v 2.70862 q 0,0.83044 -0.46567,1.34268 -0.4579,0.51223 -1.37371,0.51223 -0.54328,0 -1.01671,-0.23283 -0.47343,-0.23284 -0.66745,-0.7994 l 0.64417,-0.34925 q 0.32597,0.71402 1.05551,0.71402 0.43462,0 0.71402,-0.31044 0.2794,-0.31045 0.2794,-0.88477 v -0.51999 q -0.14746,0.2794 -0.42686,0.48119 -0.27164,0.19402 -0.75283,0.19402 -0.61312,0 -1.06327,-0.42686 -0.44238,-0.43462 -0.44238,-1.2573 0,-0.74506 0.39581,-1.31162 0.40358,-0.57433 1.16417,-0.57433 0.79163,0 1.12536,0.61313 V 118.61 h 1.33491 z m -1.33491,1.17968 v -0.2794 q 0,-0.43462 -0.24835,-0.69073 -0.24836,-0.25612 -0.62089,-0.25612 -0.43462,0 -0.66746,0.3182 -0.23283,0.31045 -0.23283,0.84597 0,0.55103 0.23283,0.81491 0.23284,0.25612 0.58985,0.25612 0.44238,0 0.69074,-0.31045 0.25611,-0.31044 0.25611,-0.6985 z" />
      <path
         id="path24629"
         style="font-style:normal;font-variant:normal;font-weight:600;font-stretch:normal;font-size:7.76111126px;line-height:1.25;font-family:'Zilla Slab';-inkscape-font-specification:'Zilla Slab Semi-Bold';text-align:start;text-anchor:start;fill:#f9f9f9;fill-opacity:1;stroke-width:0.241569px"
         d="m 121.30106,121.05475 q 0,0.54328 -0.45014,0.83044 -0.44239,0.28716 -1.13312,0.28716 -0.37254,0 -0.75283,-0.0854 -0.37254,-0.0854 -0.67522,-0.25612 l 0.12418,-0.90028 0.65193,0.0621 -0.008,0.45015 q 0.14746,0.0621 0.31045,0.0854 0.17074,0.0233 0.30268,0.0233 0.3182,0 0.55104,-0.10865 0.24059,-0.11642 0.24059,-0.34149 0,-0.21731 -0.21731,-0.31044 -0.20955,-0.0931 -0.52775,-0.1397 -0.31821,-0.0543 -0.63642,-0.1397 -0.3182,-0.0931 -0.53551,-0.29493 -0.20955,-0.20955 -0.20955,-0.62089 0,-0.60536 0.4579,-0.83043 0.46567,-0.22508 0.9779,-0.22508 0.67522,0 1.27283,0.31821 l 0.0854,0.86148 -0.65194,0.0776 -0.0699,-0.51999 q -0.30268,-0.11642 -0.61312,-0.11642 -0.2406,0 -0.41134,0.1009 -0.16299,0.0931 -0.16299,0.30268 0,0.21731 0.20955,0.30268 0.20955,0.0854 0.52,0.1397 0.31044,0.0466 0.62089,0.1397 0.31044,0.0854 0.51999,0.29493 0.20955,0.20178 0.20955,0.61312 z" />
    </g>
  </g>
</svg>
