<?xml version="1.0" encoding="UTF-8" standalone="no"?>
<svg
   xmlns:dc="http://purl.org/dc/elements/1.1/"
   xmlns:cc="http://creativecommons.org/ns#"
   xmlns:rdf="http://www.w3.org/1999/02/22-rdf-syntax-ns#"
   xmlns:svg="http://www.w3.org/2000/svg"
   xmlns="http://www.w3.org/2000/svg"
   id="svg18798"
   version="1.1"
   viewBox="0 0 26.458332 16.933334"
   height="64"
   width="100">
  <defs
     id="defs18792" />
  <metadata
     id="metadata18795">
    <rdf:RDF>
      <cc:Work
         rdf:about="">
        <dc:format>image/svg+xml</dc:format>
        <dc:type
           rdf:resource="http://purl.org/dc/dcmitype/StillImage" />
        <dc:title></dc:title>
      </cc:Work>
    </rdf:RDF>
  </metadata>
  <g
     transform="translate(0,-280.06665)"
     id="layer1">
    <path
       id="path12471"
       style="fill:#296795;fill-opacity:1;fill-rule:nonzero;stroke:none;stroke-width:0.03527793"
       d="m 16.983571,286.86891 -4.1974,4.65772 c -0.1677,0.18556 -0.399099,0.28175 -0.6333,0.28175 -0.1762,0 -0.3541,-0.0553 -0.5063,-0.16768 l -1.6097,-1.19338 c -0.3780001,-0.28004 -0.4571002,-0.81289 -0.1771001,-1.19083 0.2801001,-0.37709 0.8129001,-0.45622 1.1908001,-0.17705 l 0.9884,0.7329 3.6796,-4.08321 c 0.315,-0.34899 0.8529,-0.37704 1.2028,-0.0621 0.349,0.31494 0.377,0.8529 0.062,1.20191 z m 3.2719,-5.14551 c -0.01,-0.17734 -0.1746,-0.30355 -0.3486,-0.27101 -0.095,0.0179 -0.1907,0.0346 -0.2856,0.0498 -0.5753,0.0923 -1.157,0.14146 -1.7395,0.13484 -0.4883,-0.005 -0.977,-0.0492 -1.4572,-0.13816 -0.400599,-0.0744 -0.795799,-0.18067 -1.179099,-0.31947 -0.3115,-0.11358 -0.615001,-0.24908 -0.905901,-0.40719 -0.220599,-0.12017 -0.434399,-0.25371 -0.637699,-0.40182 -0.074,-0.0545 -0.148,-0.11091 -0.219201,-0.17002 -0.07,-0.0565 -0.1354,-0.12821 -0.2304,-0.13351 -0.089,-0.004 -0.1681,0.0492 -0.2332,0.1023 -0.1161,0.0936 -0.2331,0.18529 -0.3553,0.27095 -0.2178,0.15082 -0.4457,0.28628 -0.6814,0.4065 -0.3048,0.15609 -0.6217,0.28763 -0.9465,0.39586 -0.3965,0.13219 -0.8043,0.22915 -1.2168002,0.29358 -0.4933997,0.0777 -0.993,0.10893 -1.4916999,0.1003 -0.5945,-0.009 -1.187,-0.075 -1.7715,-0.18399 -0.174,-0.0325 -0.3381,0.093 -0.3494,0.27031 -0.094,1.54095 -0.3387,7.98363 1.9262,10.81842 2.3831001,2.98153 4.4448011,4.16647 4.9701011,4.42815 0.082,0.0405 0.176699,0.0412 0.2584,8e-4 0.5287,-0.25774 2.603,-1.43003 4.969599,-4.42947 2.2463,-2.8481 2.0158,-9.27681 1.9247,-10.81773" />
  </g>
</svg>
