<?xml version="1.0" encoding="UTF-8" standalone="no"?>
<svg
   xmlns:dc="http://purl.org/dc/elements/1.1/"
   xmlns:cc="http://creativecommons.org/ns#"
   xmlns:rdf="http://www.w3.org/1999/02/22-rdf-syntax-ns#"
   xmlns:svg="http://www.w3.org/2000/svg"
   xmlns="http://www.w3.org/2000/svg"
   id="svg17193"
   version="1.1"
   viewBox="0 0 22.489583 22.489584"
   height="85"
   width="85">
  <defs
     id="defs17187" />
  <metadata
     id="metadata17190">
    <rdf:RDF>
      <cc:Work
         rdf:about="">
        <dc:format>image/svg+xml</dc:format>
        <dc:type
           rdf:resource="http://purl.org/dc/dcmitype/StillImage" />
        <dc:title></dc:title>
      </cc:Work>
    </rdf:RDF>
  </metadata>
  <g
     transform="translate(0,-274.51041)"
     id="layer1">
    <circle
       style="opacity:1;vector-effect:none;fill:#90bc5c;fill-opacity:1;stroke:none;stroke-width:0.38319361;stroke-linecap:butt;stroke-linejoin:miter;stroke-miterlimit:4;stroke-dasharray:none;stroke-dashoffset:0;stroke-opacity:1;paint-order:fill markers stroke"
       id="circle13486-5"
       cx="11.244796"
       cy="285.75519"
       r="11.244791" />
    <g
       id="flowRoot13494-8"
       style="font-style:normal;font-variant:normal;font-weight:normal;font-stretch:normal;font-size:40px;line-height:1.25;font-family:GoodDog;-inkscape-font-specification:GoodDog;text-align:center;letter-spacing:0px;word-spacing:0px;text-anchor:middle;fill:#000000;fill-opacity:1;stroke:none"
       transform="matrix(0.26726951,0,0,0.26726951,-439.31246,-3824.7014)"
       aria-label="3">
      <path
         id="path17873"
         style="font-style:normal;font-variant:normal;font-weight:bold;font-stretch:normal;font-family:'open sans';-inkscape-font-specification:'open sans';fill:#ffffff"
         d="m 1694.7861,15371.571 q 0,2.676 -1.6211,4.551 -1.6211,1.875 -4.5507,2.578 v 0.117 q 3.457,0.43 5.2343,2.109 1.7774,1.661 1.7774,4.493 0,4.121 -2.9883,6.425 -2.9883,2.286 -8.5352,2.286 -4.6484,0 -8.2421,-1.543 v -5.137 q 1.6601,0.84 3.6523,1.367 1.9922,0.527 3.9453,0.527 2.9883,0 4.4141,-1.015 1.4258,-1.016 1.4258,-3.262 0,-2.012 -1.6407,-2.852 -1.6406,-0.839 -5.2343,-0.839 h -2.168 v -4.629 h 2.207 q 3.3203,0 4.8438,-0.86 1.5429,-0.879 1.5429,-2.988 0,-3.242 -4.0625,-3.242 -1.4062,0 -2.8711,0.469 -1.4453,0.468 -3.2226,1.621 l -2.793,-4.16 q 3.9063,-2.813 9.3164,-2.813 4.4336,0 6.9922,1.797 2.5781,1.797 2.5781,5 z" />
    </g>
  </g>
</svg>
