<?xml version="1.0" encoding="UTF-8" standalone="no"?>
<!-- Created with Inkscape (http://www.inkscape.org/) -->

<svg
   width="128"
   height="128"
   viewBox="0 0 33.866666 33.866666"
   version="1.1"
   id="svg109185"
   xmlns="http://www.w3.org/2000/svg"
   xmlns:svg="http://www.w3.org/2000/svg">
  <defs
     id="defs109182" />
  <g
     id="layer1">
    <g
       id="g86272"
       transform="matrix(1.5624739,0,0,1.5624739,-2863.6162,-16578.682)"
       style="fill:#296795;fill-opacity:1">
      <path
         style="fill:#76a142;fill-opacity:1;stroke-width:0.993956"
         d="m 1839.842,10632.185 c 0,-0.02 0.7855,-2.116 1.745,-4.667 l 1.7446,-4.64 h -2.5735 c -1.4153,0 -2.5734,-0.01 -2.5734,-0.02 0,-0.02 -0.086,0.101 3.1318,-4.263 1.2648,-1.715 3.1211,-4.232 4.125,-5.594 1.0038,-1.361 1.8287,-2.472 1.8328,-2.468 0.01,0.01 -0.043,0.151 -1.9345,5.215 -0.8228,2.204 -1.4985,4.017 -1.5013,4.029 0,0.01 1.1579,0.02 2.5795,0.02 2.0482,0 2.5801,0.01 2.562,0.04 -0.013,0.02 -0.668,0.912 -1.4567,1.98 -0.7886,1.069 -2.8283,3.835 -4.5325,6.146 -1.7043,2.311 -3.1101,4.215 -3.1239,4.231 -0.016,0.02 -0.025,0.02 -0.025,0 z"
         id="path86290" />
    </g>
  </g>
</svg>
