<?xml version="1.0" encoding="UTF-8" standalone="no"?>
<svg
   id="svg64491"
   version="1.1"
   viewBox="0 0 87.3125 49.31731"
   height="49.31731mm"
   width="87.3125mm"
   xmlns="http://www.w3.org/2000/svg"
   xmlns:svg="http://www.w3.org/2000/svg"
   xmlns:rdf="http://www.w3.org/1999/02/22-rdf-syntax-ns#"
   xmlns:cc="http://creativecommons.org/ns#"
   xmlns:dc="http://purl.org/dc/elements/1.1/">
  <defs
     id="defs64485" />
  <metadata
     id="metadata64488">
    <rdf:RDF>
      <cc:Work
         rdf:about="">
        <dc:format>image/svg+xml</dc:format>
        <dc:type
           rdf:resource="http://purl.org/dc/dcmitype/StillImage" />
      </cc:Work>
    </rdf:RDF>
  </metadata>
  <g
     id="g353618">
    <path
       style="fill:#ffffff;fill-opacity:1;stroke:#000000;stroke-width:0;stroke-linejoin:round;stroke-miterlimit:8.8;stroke-dasharray:none"
       class="st0"
       d="m 0,35.9457 c 0,7.1301 5.5773,13.3716 12.5009,13.3716 h 62.3108 c 6.9234,0 12.5008,-6.3392 12.5008,-13.3716 0,-7.1291 -5.5774,-13.0713 -12.5008,-13.0713 -0.7691,0 -1.4422,-0.1008 -2.2116,0.1007 C 72.2154,14.2612 65.7727,7.3286 57.984,7.3286 c -4.5194,0 -8.4622,2.1782 -11.1544,5.7438 C 44.4254,5.4466 37.8867,0 30.194,0 20.4819,0 12.597,8.8147 12.597,19.7098 c 0,0.9894 0.097,2.0775 0.192,2.9701 -0.097,0 -0.097,0.2952 -0.192,0.2952 C 5.6734,22.7776 0,28.8186 0,35.9477 Z"
       id="path72785-2" />
    <path
       style="fill:#4d4d4d;fill-opacity:1;stroke-width:0.355265"
       d="m 54.376248,19.1114 h -21.43958 c -0.35817,0 -0.648859,0.27305 -0.648859,0.609486 v 21.518 c 0,0.336437 0.290689,0.609487 0.648859,0.609487 h 6.285816 c 0.35817,0 0.648858,-0.27305 0.648858,-0.609487 v -4.849685 h 7.569907 v 4.849685 c 0,0.336437 0.290689,0.609487 0.648859,0.609487 h 6.285816 c 0.35817,0 0.648858,-0.27305 0.648858,-0.609487 v -21.518 C 55.025107,19.384145 54.734094,19.1114 54.376248,19.1114 Z M 39.465806,31.843346 c 0,0.252632 -0.217692,0.457115 -0.486644,0.457115 h -2.892936 c -0.268951,0 -0.486643,-0.204483 -0.486643,-0.457115 V 29.12595 c 0,-0.252632 0.217692,-0.457115 0.486643,-0.457115 h 2.892936 c 0.268952,0 0.486644,0.204483 0.486644,0.457115 z m 0,-5.75203 c 0,0.252632 -0.217692,0.457115 -0.486644,0.457115 h -2.892936 c -0.268951,0 -0.486643,-0.204483 -0.486643,-0.457115 V 23.37392 c 0,-0.252632 0.217692,-0.457115 0.486643,-0.457115 h 2.892936 c 0.268952,0 0.486644,0.204483 0.486644,0.457115 z m 6.123601,5.75203 c 0,0.252632 -0.217692,0.457115 -0.486643,0.457115 h -2.892936 c -0.268952,0 -0.486644,-0.204483 -0.486644,-0.457115 V 29.12595 c 0,-0.252632 0.217692,-0.457115 0.486644,-0.457115 h 2.892936 c 0.268951,0 0.486643,0.204483 0.486643,0.457115 z m 0,-5.75203 c 0,0.252632 -0.217692,0.457115 -0.486643,0.457115 h -2.892936 c -0.268952,0 -0.486644,-0.204483 -0.486644,-0.457115 V 23.37392 c 0,-0.252632 0.217692,-0.457115 0.486644,-0.457115 h 2.892936 c 0.268951,0 0.486643,0.204483 0.486643,0.457115 z m 6.123602,5.75203 c 0,0.252632 -0.217692,0.457115 -0.486644,0.457115 H 48.33343 c -0.268952,0 -0.486644,-0.204483 -0.486644,-0.457115 V 29.12595 c 0,-0.252632 0.217692,-0.457115 0.486644,-0.457115 h 2.892935 c 0.268952,0 0.486644,0.204483 0.486644,0.457115 z m 0,-5.75203 c 0,0.252632 -0.217692,0.457115 -0.486644,0.457115 H 48.33343 c -0.268952,0 -0.486644,-0.204483 -0.486644,-0.457115 V 23.37392 c 0,-0.252632 0.217692,-0.457115 0.486644,-0.457115 h 2.892935 c 0.268952,0 0.486644,0.204483 0.486644,0.457115 z"
       id="path72787-3" />
  </g>
</svg>
