<?xml version="1.0" encoding="UTF-8" standalone="no"?>
<!-- Created with Inkscape (http://www.inkscape.org/) -->

<svg
   width="128"
   height="128"
   viewBox="0 0 33.866666 33.866666"
   version="1.1"
   id="svg109185"
   xmlns="http://www.w3.org/2000/svg"
   xmlns:svg="http://www.w3.org/2000/svg">
  <defs
     id="defs109182" />
  <g
     id="layer1">
    <g
       id="g86272"
       transform="matrix(1.5624739,0,0,1.5624739,-2863.6162,-16578.682)"
       style="fill:#296795;fill-opacity:1">
      <path
         style="fill:#296795;fill-opacity:1;stroke:none;stroke-width:0.455401;stroke-miterlimit:4;stroke-dasharray:none;stroke-opacity:1"
         d="m 1843.6182,10616.086 c -0.6182,-0.03 -1.1716,0.424 -1.204,1.045 -0.032,0.621 0.4233,1.176 1.0412,1.209 0.6182,0.06 1.171,-0.425 1.2034,-1.045 0.032,-0.621 -0.4226,-1.177 -1.0406,-1.209 z m -0.046,2.509 c -0.021,0 -0.041,0 -0.062,0 -0.1096,-0.01 -0.2611,0 -0.4302,0.04 -0.1781,0.04 -0.3336,0.111 -0.4433,0.182 -0.1021,0.05 -0.2007,0.117 -0.2845,0.212 l -1.7051,1.931 c -0.015,0.02 -0.026,0.03 -0.04,0.05 -0.124,0.116 -0.199,0.307 -0.1882,0.533 l 0.062,1.301 c 0.018,0.384 0.2749,0.711 0.5752,0.735 0.3003,0.02 0.5276,-0.266 0.5093,-0.65 l -0.061,-1.281 0.7739,-0.876 -0.029,2.522 c -0.024,0.122 -0.045,0.303 -0.055,0.516 0,0.06 0,0.1 0,0.153 -0.021,0.07 -0.038,0.138 -0.05,0.211 l -0.7133,4.436 c -0.093,0.576 0.167,1.115 0.5821,1.208 0.4151,0.09 0.8234,-0.295 0.9161,-0.872 l 0.5889,-3.665 0.5897,3.665 c 0.093,0.576 0.5017,0.965 0.9168,0.872 0.4151,-0.09 0.6747,-0.632 0.5821,-1.208 l -0.7134,-4.437 c -0.011,-0.06 -0.026,-0.126 -0.044,-0.185 -0.01,-0.06 0,-0.106 -0.013,-0.173 -0.017,-0.139 -0.039,-0.247 -0.061,-0.353 0,-0.03 0.01,-0.07 0.01,-0.104 l 0.032,-2.687 0.8453,0.958 -0.062,1.295 c -0.018,0.384 0.2089,0.674 0.5092,0.65 0.3003,-0.02 0.5569,-0.351 0.5752,-0.734 l 0.062,-1.302 c 0,-0.03 0,-0.05 0,-0.08 -2e-4,-0.01 0,-0.02 0,-0.04 0,-0.03 -0.01,-0.06 -0.013,-0.08 0,-0.01 0,-0.02 -0.01,-0.03 -0.01,-0.04 -0.022,-0.07 -0.036,-0.109 0,0 0,0 0,0 0,0 0,0 0,0 -0.012,-0.02 -0.025,-0.05 -0.039,-0.07 -0.03,-0.05 -0.065,-0.108 -0.1092,-0.158 l -1.7051,-1.932 c -0.082,-0.09 -0.1775,-0.16 -0.277,-0.207 -0.1097,-0.07 -0.2669,-0.141 -0.448,-0.186 -0.1752,-0.04 -0.3296,-0.06 -0.4399,-0.04 -0.032,0 -0.062,-0.01 -0.094,-0.01 z"
         id="path86266" />
      <path
         style="fill:#296795;fill-opacity:1;stroke:none;stroke-width:0.455401;stroke-miterlimit:4;stroke-dasharray:none;stroke-opacity:1"
         d="m 1851.2912,10612.912 c -0.6182,-0.03 -1.1716,0.424 -1.204,1.045 -0.032,0.621 0.4233,1.176 1.0412,1.209 0.6182,0.06 1.171,-0.425 1.2034,-1.045 0.032,-0.621 -0.4226,-1.177 -1.0406,-1.209 z m -0.046,2.509 c -0.021,0 -0.041,0 -0.062,0 -0.1096,-0.01 -0.2611,0 -0.4302,0.04 -0.1781,0.04 -0.3336,0.111 -0.4433,0.182 -0.1021,0.05 -0.2007,0.117 -0.2845,0.212 l -1.7051,1.931 c -0.015,0.02 -0.026,0.03 -0.04,0.05 -0.124,0.116 -0.199,0.307 -0.1882,0.533 l 0.062,1.301 c 0.018,0.384 0.2749,0.711 0.5752,0.735 0.3003,0.02 0.5276,-0.266 0.5093,-0.65 l -0.061,-1.281 0.7739,-0.876 -0.029,2.522 c -0.024,0.122 -0.045,0.303 -0.055,0.516 0,0.06 0,0.1 0,0.153 -0.021,0.07 -0.038,0.138 -0.05,0.211 l -0.7133,4.436 c -0.093,0.576 0.167,1.115 0.5821,1.208 0.4151,0.09 0.8234,-0.295 0.9161,-0.872 l 0.5889,-3.665 0.5897,3.665 c 0.093,0.576 0.5017,0.965 0.9168,0.872 0.4151,-0.09 0.6747,-0.632 0.5821,-1.208 l -0.7134,-4.437 c -0.011,-0.06 -0.026,-0.126 -0.044,-0.185 -0.01,-0.06 0,-0.106 -0.013,-0.173 -0.017,-0.139 -0.039,-0.247 -0.061,-0.353 0,-0.03 0.01,-0.07 0.01,-0.104 l 0.032,-2.687 0.8453,0.958 -0.062,1.295 c -0.018,0.384 0.2089,0.674 0.5092,0.65 0.3003,-0.02 0.5569,-0.351 0.5752,-0.734 l 0.062,-1.302 c 0,-0.03 0,-0.05 0,-0.08 -2e-4,-0.01 0,-0.02 0,-0.04 0,-0.03 -0.01,-0.06 -0.013,-0.08 0,-0.01 0,-0.02 -0.01,-0.03 -0.01,-0.04 -0.022,-0.07 -0.036,-0.109 0,0 0,0 0,0 0,0 0,0 0,0 -0.012,-0.02 -0.025,-0.05 -0.039,-0.07 -0.03,-0.05 -0.065,-0.108 -0.1092,-0.158 l -1.7051,-1.932 c -0.082,-0.09 -0.1775,-0.16 -0.277,-0.207 -0.1097,-0.07 -0.2669,-0.141 -0.448,-0.186 -0.1752,-0.04 -0.3296,-0.06 -0.4399,-0.04 -0.032,0 -0.062,-0.01 -0.094,-0.01 z"
         id="path86268" />
      <path
         style="fill:#296795;fill-opacity:1;stroke:none;stroke-width:0.455401;stroke-miterlimit:4;stroke-dasharray:none;stroke-opacity:1"
         d="m 1835.9453,10612.912 c -0.6182,-0.03 -1.1716,0.424 -1.204,1.045 -0.032,0.621 0.4233,1.176 1.0412,1.209 0.6182,0.06 1.171,-0.425 1.2034,-1.045 0.032,-0.621 -0.4226,-1.177 -1.0406,-1.209 z m -0.046,2.509 c -0.021,0 -0.041,0 -0.062,0 -0.1096,-0.01 -0.2611,0 -0.4302,0.04 -0.1781,0.04 -0.3336,0.111 -0.4433,0.182 -0.1021,0.05 -0.2007,0.117 -0.2845,0.212 l -1.7051,1.931 c -0.015,0.02 -0.026,0.03 -0.04,0.05 -0.124,0.116 -0.199,0.307 -0.1882,0.533 l 0.062,1.301 c 0.018,0.384 0.2749,0.711 0.5752,0.735 0.3003,0.02 0.5276,-0.266 0.5093,-0.65 l -0.061,-1.281 0.7739,-0.876 -0.029,2.522 c -0.024,0.122 -0.045,0.303 -0.055,0.516 0,0.06 0,0.1 0,0.153 -0.021,0.07 -0.038,0.138 -0.05,0.211 l -0.7133,4.436 c -0.093,0.576 0.167,1.115 0.5821,1.208 0.4151,0.09 0.8234,-0.295 0.9161,-0.872 l 0.5889,-3.665 0.5897,3.665 c 0.093,0.576 0.5017,0.965 0.9168,0.872 0.4151,-0.09 0.6747,-0.632 0.5821,-1.208 l -0.7134,-4.437 c -0.011,-0.06 -0.026,-0.126 -0.044,-0.185 -0.01,-0.06 0,-0.106 -0.013,-0.173 -0.017,-0.139 -0.039,-0.247 -0.061,-0.353 0,-0.03 0.01,-0.07 0.01,-0.104 l 0.032,-2.687 0.8453,0.958 -0.062,1.295 c -0.018,0.384 0.2089,0.674 0.5092,0.65 0.3003,-0.02 0.5569,-0.351 0.5752,-0.734 l 0.062,-1.302 c 0,-0.03 0,-0.05 0,-0.08 -2e-4,-0.01 0,-0.02 0,-0.04 0,-0.03 -0.01,-0.06 -0.013,-0.08 0,-0.01 0,-0.02 -0.01,-0.03 -0.01,-0.04 -0.022,-0.07 -0.036,-0.109 0,0 0,0 0,0 0,0 0,0 0,0 -0.012,-0.02 -0.025,-0.05 -0.039,-0.07 -0.03,-0.05 -0.065,-0.108 -0.1092,-0.158 l -1.7051,-1.932 c -0.082,-0.09 -0.1775,-0.16 -0.277,-0.207 -0.1097,-0.07 -0.2669,-0.141 -0.448,-0.186 -0.1752,-0.04 -0.3296,-0.06 -0.4399,-0.04 -0.032,0 -0.062,-0.01 -0.094,-0.01 z"
         id="path86270" />
    </g>
  </g>
</svg>
