<?xml version="1.0" encoding="UTF-8" standalone="no"?>
<svg
   xmlns:dc="http://purl.org/dc/elements/1.1/"
   xmlns:cc="http://creativecommons.org/ns#"
   xmlns:rdf="http://www.w3.org/1999/02/22-rdf-syntax-ns#"
   xmlns:svg="http://www.w3.org/2000/svg"
   xmlns="http://www.w3.org/2000/svg"
   id="svg65527"
   version="1.1"
   viewBox="0 0 19.84375 19.843751"
   height="75"
   width="75">
  <defs
     id="defs65521" />
  <metadata
     id="metadata65524">
    <rdf:RDF>
      <cc:Work
         rdf:about="">
        <dc:format>image/svg+xml</dc:format>
        <dc:type
           rdf:resource="http://purl.org/dc/dcmitype/StillImage" />
        <dc:title></dc:title>
      </cc:Work>
    </rdf:RDF>
  </metadata>
  <g
     transform="translate(0,-277.15624)"
     id="layer1">
    <g
       style="fill:#296795;fill-opacity:1"
       transform="matrix(0.03875732,0,0,0.03875732,1.4533248,277.15625)"
       id="g13124">
      <path
         style="fill:#296795;fill-opacity:1"
         d="m 128.00391,137.48047 c 2.41796,0 4.84375,-0.8711 6.76562,-2.63672 0.13672,-0.125 0.28125,-0.26563 0.41016,-0.39844 3.90625,-3.90234 3.90625,-10.23437 0,-14.14062 -3.90625,-3.90625 -10.23438,-3.90625 -14.14063,0 -0.0117,0.0117 -0.0312,0.0273 -0.0508,0.0469 -3.82812,3.76172 -4.00781,9.91406 -0.35156,13.89453 1.97266,2.14844 4.66797,3.23438 7.36719,3.23438 z m 0,0"
         id="path13077" />
      <path
         style="fill:#296795;fill-opacity:1"
         d="m 218.50391,80 c -21.84375,0 -43.60547,5.242188 -62.9336,15.15625 -4.91406,2.519531 -6.85156,8.54688 -4.33203,13.46094 2.51953,4.91406 8.54688,6.85547 13.46094,4.33594 C 181.45312,104.35938 199.55469,100 218.50391,100 c 65.0625,0 118,52.9375 118,118.00391 0,24.0039 -7.16797,47.10156 -20.72266,66.80078 -2.11328,3.07422 -4.27734,6.1875 -6.46094,9.33593 C 286.63672,326.8125 261.19141,363.47656 257.08984,400 h -77.17578 c -4.10156,-36.52344 -29.54687,-73.1875 -52.23047,-105.85938 -2.1875,-3.14843 -4.34765,-6.26171 -6.46484,-9.33593 C 107.66797,265.10547 100.5,242.00781 100.5,218.00391 c 0,-21.96875 6.07812,-43.40235 17.57031,-61.98438 2.90625,-4.69531 1.45313,-10.85547 -3.24219,-13.76172 C 110.12891,139.34766 103.96875,140.80469 101.0625,145.5 87.609375,167.24219 80.5,192.3125 80.5,218.00391 c 0,28.0664 8.382812,55.08984 24.24609,78.14062 2.12891,3.09766 4.3086,6.23047 6.51172,9.40234 21.40625,30.82813 45.44531,65.46875 48.82422,97.08204 -6.88672,3.71875 -11.57812,11.00781 -11.57812,19.37109 v 36 c 0,8.53125 4.88281,15.9375 11.99609,19.58594 V 486 c 0,14.33594 11.66406,26 26,26 h 64.00391 c 14.33593,0 26,-11.66406 26,-26 v -8.41406 C 283.61719,473.9375 288.5,466.53125 288.5,458 v -36 c 0,-8.36328 -4.69141,-15.65234 -11.57813,-19.37109 3.38282,-31.61329 27.42188,-66.25391 48.82422,-97.08204 2.20313,-3.17187 4.38282,-6.30859 6.51172,-9.40234 15.86328,-23.05078 24.2461,-50.07031 24.2461,-78.14062 C 356.50391,141.91016 294.59766,80 218.50391,80 Z M 268.5,422 v 8 h -31.03125 c -5.52344,0 -10,4.47656 -10,10 0,5.51953 4.47656,10 10,10 H 268.5 v 8 c 0,1.08594 -0.91406,2 -1.99609,2 H 170.5 c -1.08203,0 -1.99609,-0.91406 -1.99609,-2 v -36 c 0,-1.08594 0.91406,-2 1.99609,-2 h 96.00391 c 1.08203,0 1.99609,0.91406 1.99609,2 z m -17.99609,70 H 186.5 c -3.25,0 -6,-2.74609 -6,-6 v -6 h 76.00391 v 6 c 0,3.25391 -2.75,6 -6,6 z m 0,0"
         id="path13079" />
      <path
         style="fill:#296795;fill-opacity:1"
         d="m 218.50391,51.679688 c 5.51953,0 10,-4.480469 10,-10 V 10 c 0,-5.523438 -4.48047,-10 -10,-10 -5.52344,0 -10,4.476562 -10,10 v 31.679688 c 0,5.519531 4.47656,10 10,10 z m 0,0"
         id="path13081" />
      <path
         style="fill:#296795;fill-opacity:1"
         d="m 86.75,100.39453 c 1.953125,1.94922 4.511719,2.92969 7.070312,2.92969 2.558594,0 5.121094,-0.98047 7.074218,-2.92969 3.90235,-3.906249 3.90235,-10.23828 0,-14.14453 L 78.492188,63.851562 c -3.90625,-3.902343 -10.234376,-3.902343 -14.140626,0 -3.90625,3.90625 -3.90625,10.238282 0,14.144532 z m 0,0"
         id="path13083" />
      <path
         style="fill:#296795;fill-opacity:1"
         d="M 42.179688,208.00391 H 10.5 c -5.523438,0 -10,4.47656 -10,10 0,5.51953 4.476562,10 10,10 h 31.679688 c 5.519531,0 10,-4.48047 10,-10 0,-5.52344 -4.480469,-10 -10,-10 z m 0,0"
         id="path13085" />
      <path
         style="fill:#296795;fill-opacity:1"
         d="m 86.75,335.61328 -22.398438,22.39844 c -3.90625,3.90234 -3.90625,10.23437 0,14.14062 1.953126,1.95313 4.511719,2.92969 7.070313,2.92969 2.558594,0 5.117187,-0.97656 7.070313,-2.92969 l 22.402342,-22.39843 c 3.90235,-3.90235 3.90235,-10.23438 0,-14.14063 -3.906249,-3.90625 -10.23828,-3.90625 -14.14453,0 z m 0,0"
         id="path13087" />
      <path
         style="fill:#296795;fill-opacity:1"
         d="m 350.25391,335.61328 c -3.90625,-3.90625 -10.23438,-3.90625 -14.14454,0 -3.90234,3.90234 -3.90234,10.23438 0,14.14063 l 22.39844,22.39843 c 1.95313,1.95313 4.51563,2.92969 7.07422,2.92969 2.5586,0 5.11719,-0.97656 7.07031,-2.92969 3.90235,-3.90234 3.90235,-10.23437 0,-14.14062 z m 0,0"
         id="path13089" />
      <path
         style="fill:#296795;fill-opacity:1"
         d="m 426.50391,208.00391 h -31.67579 c -5.52343,0 -10,4.47656 -10,10 0,5.51953 4.47657,10 10,10 h 31.67579 c 5.52343,0 10,-4.48047 10,-10 0,-5.52344 -4.47657,-10 -10,-10 z m 0,0"
         id="path13091" />
      <path
         style="fill:#296795;fill-opacity:1"
         d="M 358.51172,63.851562 336.10937,86.25 c -3.90234,3.90625 -3.90234,10.238281 0,14.14453 1.95313,1.94922 4.51172,2.92969 7.07422,2.92969 2.5586,0 5.11719,-0.98047 7.07032,-2.92969 l 22.39843,-22.398436 c 3.90235,-3.90625 3.90235,-10.238282 0,-14.144532 -3.90625,-3.90625 -10.23437,-3.90625 -14.14062,0 z m 0,0"
         id="path13093" />
      <path
         style="fill:#296795;fill-opacity:1"
         d="m 208.5,450 h 0.23437 c 5.52344,0 10,-4.47656 10,-10 0,-5.51953 -4.47656,-10 -10,-10 H 208.5 c -5.52344,0 -10,4.48047 -10,10 0,5.52344 4.47656,10 10,10 z m 0,0"
         id="path13095" />
      <path
         style="fill:#296795;fill-opacity:1"
         d="m 225.57031,277.92969 c -3.90625,-3.90625 -10.23828,-3.90625 -14.14453,0 -3.90234,3.90625 -3.90234,10.23828 0,14.14062 3.90625,3.90625 10.23828,3.90625 14.14453,0 3.90625,-3.90234 3.90625,-10.23437 0,-14.14062 z m 0,0"
         id="path13097" />
      <path
         style="fill:#296795;fill-opacity:1"
         d="m 275.07031,238.43359 c 2.5586,0 5.11719,-0.97656 7.07031,-2.92968 3.90625,-3.90625 3.90625,-10.23829 0,-14.14454 -35.08984,-35.08984 -92.1875,-35.08984 -127.27734,0 -3.90625,3.90625 -3.90625,10.23829 0,14.14454 3.90625,3.90234 10.23438,3.90234 14.14063,0 27.29296,-27.29297 71.70312,-27.29297 98.99609,0 1.95312,1.95312 4.51172,2.92968 7.07031,2.92968 z m 0,0"
         id="path13099" />
      <path
         style="fill:#296795;fill-opacity:1"
         d="m 246.78516,266.71875 c 2.5625,0 5.11718,-0.98047 7.07031,-2.92969 3.90625,-3.90625 3.90625,-10.23828 0,-14.14453 -19.4961,-19.49219 -51.21485,-19.49219 -70.71094,0 -3.90234,3.90625 -3.90234,10.23828 0,14.14453 3.90625,3.90235 10.23828,3.90235 14.14453,0 11.69531,-11.69922 30.73047,-11.69922 42.42578,0 1.95313,1.94922 4.51172,2.92969 7.07032,2.92969 z m 0,0"
         id="path13101" />
    </g>
  </g>
</svg>
