<?xml version="1.0" encoding="UTF-8" standalone="no"?>
<svg
   xmlns:dc="http://purl.org/dc/elements/1.1/"
   xmlns:cc="http://creativecommons.org/ns#"
   xmlns:rdf="http://www.w3.org/1999/02/22-rdf-syntax-ns#"
   xmlns:svg="http://www.w3.org/2000/svg"
   xmlns="http://www.w3.org/2000/svg"
   id="svg18798"
   version="1.1"
   viewBox="0 0 26.458332 16.933334"
   height="64"
   width="100">
  <defs
     id="defs18792" />
  <metadata
     id="metadata18795">
    <rdf:RDF>
      <cc:Work
         rdf:about="">
        <dc:format>image/svg+xml</dc:format>
        <dc:type
           rdf:resource="http://purl.org/dc/dcmitype/StillImage" />
        <dc:title></dc:title>
      </cc:Work>
    </rdf:RDF>
  </metadata>
  <g
     transform="translate(0,-280.06665)"
     id="layer1">
    <g
       transform="matrix(1.3510579,0,0,1.3510579,-8216.1835,655.70065)"
       style="fill:#d46e6e;fill-opacity:1"
       id="g12750">
      <path
         style="fill:#d46e6e;fill-opacity:1;stroke-width:0.00135108"
         id="path12710"
         d="m 6088.7899,-276.1913 c -0.4526,0.11687 -0.8092,0.32966 -1.1299,0.67432 -0.2517,0.26981 -0.3806,0.48261 -0.4915,0.80633 -0.1079,0.31763 -0.1468,0.64743 -0.1139,1.02803 0.1109,1.31581 1.112,2.51165 2.8384,3.39282 0.4406,0.22482 1.067,0.48558 1.1659,0.48558 0.171,0 1.187,-0.47058 1.7144,-0.79132 0.6743,-0.41046 1.3668,-1.0279 1.7055,-1.52537 0.2158,-0.31467 0.4136,-0.73728 0.5065,-1.09099 0.108,-0.4106 0.1139,-0.9921 0.015,-1.33973 -0.2187,-0.75836 -0.7552,-1.3277 -1.4956,-1.58549 -0.3117,-0.10484 -0.7943,-0.14092 -1.1299,-0.0839 -0.4167,0.072 -0.8632,0.29967 -1.184,0.5965 l -0.1319,0.12281 -0.1678,-0.14983 c -0.2248,-0.20402 -0.5665,-0.40181 -0.8572,-0.49774 -0.3297,-0.10782 -0.9082,-0.12592 -1.244,-0.042 z" />
      <path
         id="path12712"
         d="m 6085.1784,-277.959 c -0.2195,0.0928 -0.4342,0.36599 -0.6488,0.81972 -1.6931,3.55205 -1.8444,3.9618 -1.8981,5.04017 -0.034,0.68798 0,0.92705 0.3805,2.27375 0.5903,2.13211 0.7221,2.75674 0.7709,3.70315 l 0.029,0.6099 1.698,0.0147 c 0.9319,0.005 1.6931,-0.005 1.6931,-0.0292 0,-0.17573 0.1366,-1.03438 0.2927,-1.83937 0.3123,-1.60029 0.3123,-1.65417 -0.078,-2.69339 -0.2147,-0.57581 -0.9904,-2.2445 -1.1613,-2.50799 -0.161,-0.23908 -0.3805,-0.35609 -0.688,-0.35609 -0.4782,-0.005 -0.7564,0.29758 -0.7564,0.82456 0,0.24876 0.2147,1.20022 0.4929,2.21503 0.059,0.20014 0.083,0.37566 0.059,0.40007 -0.024,0.0244 -0.1073,0.0537 -0.1902,0.0732 l -0.1514,0.0292 -0.1073,-0.38555 c -0.5364,-1.96122 -0.6196,-2.52713 -0.4097,-2.92236 0.1317,-0.24875 0.4634,-0.54149 0.6587,-0.58064 0.078,-0.0196 0.161,-0.0781 0.1902,-0.13659 0.078,-0.18057 0.9222,-3.72778 0.9222,-3.87404 0,-0.22434 -0.2001,-0.55623 -0.3904,-0.65872 -0.195,-0.10249 -0.4975,-0.11239 -0.7073,-0.0196 z"
         style="fill:#d46e6e;fill-opacity:1;stroke-width:0.00219941" />
      <path
         id="path12714"
         d="m 6096.2934,-277.93964 c -0.1951,0.10249 -0.3904,0.43438 -0.3904,0.66356 0,0.15132 0.8538,3.76187 0.9222,3.87888 0.02,0.0392 0.1073,0.0976 0.1951,0.12691 0.2291,0.0781 0.5269,0.33673 0.644,0.57096 0.2146,0.42449 0.1757,0.77574 -0.3075,2.5665 l -0.1999,0.75153 -0.1514,-0.0292 c -0.083,-0.0196 -0.1658,-0.0488 -0.1854,-0.0682 -0.024,-0.0244 0.093,-0.55623 0.2538,-1.1857 0.3124,-1.21979 0.3513,-1.58578 0.2147,-1.87852 -0.1122,-0.23424 -0.3757,-0.3805 -0.6783,-0.3805 -0.3075,0 -0.527,0.11723 -0.6831,0.35125 -0.1758,0.26833 -0.9563,1.9467 -1.1662,2.51283 -0.3904,1.03922 -0.3904,1.09288 -0.078,2.69339 0.1561,0.80499 0.2927,1.66386 0.2927,1.83937 0,0.0244 0.7612,0.0341 1.6979,0.0292 l 1.6931,-0.0147 0.029,-0.6099 c 0.049,-0.94663 0.205,-1.68343 0.8246,-3.89845 0.3123,-1.12214 0.356,-1.41005 0.3268,-2.0492 -0.044,-1.03922 -0.2587,-1.63944 -1.5858,-4.42059 -0.2732,-0.56591 -0.5611,-1.10762 -0.6488,-1.21495 -0.2631,-0.31738 -0.6779,-0.41481 -1.0194,-0.23446 z"
         style="fill:#d46e6e;fill-opacity:1;stroke-width:0.00219941" />
    </g>
  </g>
</svg>
