<?xml version="1.0" encoding="UTF-8" standalone="no"?>
<svg
   xmlns:dc="http://purl.org/dc/elements/1.1/"
   xmlns:cc="http://creativecommons.org/ns#"
   xmlns:rdf="http://www.w3.org/1999/02/22-rdf-syntax-ns#"
   xmlns:svg="http://www.w3.org/2000/svg"
   xmlns="http://www.w3.org/2000/svg"
   id="svg17193"
   version="1.1"
   viewBox="0 0 22.489583 22.489584"
   height="85"
   width="85">
  <defs
     id="defs17187" />
  <metadata
     id="metadata17190">
    <rdf:RDF>
      <cc:Work
         rdf:about="">
        <dc:format>image/svg+xml</dc:format>
        <dc:type
           rdf:resource="http://purl.org/dc/dcmitype/StillImage" />
        <dc:title></dc:title>
      </cc:Work>
    </rdf:RDF>
  </metadata>
  <g
     transform="translate(0,-274.51041)"
     id="layer1">
    <circle
       r="11.244791"
       cy="285.75519"
       cx="11.244796"
       id="circle13466-3"
       style="opacity:1;vector-effect:none;fill:#90bc5c;fill-opacity:1;stroke:none;stroke-width:0.38319361;stroke-linecap:butt;stroke-linejoin:miter;stroke-miterlimit:4;stroke-dasharray:none;stroke-dashoffset:0;stroke-opacity:1;paint-order:fill markers stroke" />
    <g
       id="flowRoot13474-2"
       style="font-style:normal;font-variant:normal;font-weight:normal;font-stretch:normal;font-size:40px;line-height:1.25;font-family:GoodDog;-inkscape-font-specification:GoodDog;text-align:center;letter-spacing:0px;word-spacing:0px;text-anchor:middle;fill:#000000;fill-opacity:1;stroke:none"
       transform="matrix(0.26726951,0,0,0.26726951,-439.31246,-3824.6814)"
       aria-label="2">
      <path
         id="path17816"
         style="font-style:normal;font-variant:normal;font-weight:bold;font-stretch:normal;font-family:'open sans';-inkscape-font-specification:'open sans';fill:#ffffff"
         d="m 1695.8994,15393.739 h -19.9609 v -4.199 l 7.1679,-7.246 q 3.1836,-3.262 4.1602,-4.512 0.9766,-1.27 1.4063,-2.344 0.4296,-1.074 0.4296,-2.226 0,-1.719 -0.957,-2.559 -0.9375,-0.84 -2.5195,-0.84 -1.6602,0 -3.2227,0.762 -1.5625,0.762 -3.2617,2.168 l -3.2812,-3.887 q 2.1093,-1.797 3.496,-2.539 1.3868,-0.742 3.0274,-1.133 1.6406,-0.41 3.6719,-0.41 2.6757,0 4.7265,0.977 2.0508,0.976 3.1836,2.734 1.1328,1.758 1.1328,4.023 0,1.973 -0.7031,3.711 -0.6836,1.719 -2.1484,3.536 -1.4453,1.816 -5.1172,5.175 l -3.6719,3.457 v 0.274 h 12.4414 z" />
    </g>
  </g>
</svg>
